        .include "MPlayDef.s"

        .equ    BATTLE_WIRELESS_0000_grp, voicegroup000
        .equ    BATTLE_WIRELESS_0000_pri, 0
        .equ    BATTLE_WIRELESS_0000_rev, 0
        .equ    BATTLE_WIRELESS_0000_key, 0

        .section .rodata
        .global BATTLE_WIRELESS_0000
        .align  2

@****************** Track 0 (Midi-Chn.0) ******************@

BATTLE_WIRELESS_0000_0:
        .byte   KEYSH , BATTLE_WIRELESS_0000_key+0
@ 000   ----------------------------------------
        .byte   TEMPO , 186/2
        .byte           VOICE , 20
        .byte           VOL   , 16
        .byte           PAN   , c_v-42
        .byte           TIE   , Dn1 , v058
        .byte           TIE   , Dn2 , v064
        .byte   W96
@ 001   ----------------------------------------
        .byte   W96
@ 002   ----------------------------------------
        .byte   W96
@ 003   ----------------------------------------
        .byte   W92
        .byte   W03
        .byte           EOT   , Dn1
        .byte                   Dn2
        .byte   W01
@ 004   ----------------------------------------
BATTLE_WIRELESS_0000_0_4:
        .byte           TIE   , As0 , v058
        .byte           TIE   , As1 , v064
        .byte   W96
        .byte   PEND
@ 005   ----------------------------------------
BATTLE_WIRELESS_0000_0_5:
        .byte   W92
        .byte   W03
        .byte           EOT   , As0
        .byte                   As1
        .byte   W01
        .byte   PEND
@ 006   ----------------------------------------
        .byte   PATT
         .word  BATTLE_WIRELESS_0000_0_4
@ 007   ----------------------------------------
        .byte   PATT
         .word  BATTLE_WIRELESS_0000_0_5
@ 008   ----------------------------------------
        .byte   W96
@ 009   ----------------------------------------
        .byte   W96
@ 010   ----------------------------------------
        .byte   W96
@ 011   ----------------------------------------
        .byte   W96
@ 012   ----------------------------------------
        .byte   W96
@ 013   ----------------------------------------
        .byte   W96
@ 014   ----------------------------------------
        .byte   W96
@ 015   ----------------------------------------
        .byte   W96
@ 016   ----------------------------------------
        .byte   W96
@ 017   ----------------------------------------
        .byte   W96
@ 018   ----------------------------------------
        .byte   W96
@ 019   ----------------------------------------
        .byte   W96
@ 020   ----------------------------------------
        .byte   W96
@ 021   ----------------------------------------
        .byte   W96
@ 022   ----------------------------------------
        .byte   W96
@ 023   ----------------------------------------
        .byte   W96
@ 024   ----------------------------------------
BATTLE_WIRELESS_0000_0_24:
        .byte           N80   , Ds3 , v079
        .byte           N80   , Gn3 , v077 , gtp3
        .byte   W84
        .byte           N11   , Ds3 , v016
        .byte           N11   , Gn3
        .byte   W12
        .byte   PEND
@ 025   ----------------------------------------
BATTLE_WIRELESS_0000_0_25:
        .byte           N80   , En3 , v075 , gtp2
        .byte           N80   , Gn3 , v080 , gtp3
        .byte   W84
        .byte           N11   , En3 , v016
        .byte           N11   , Gn3
        .byte   W12
        .byte   PEND
@ 026   ----------------------------------------
BATTLE_WIRELESS_0000_0_26:
        .byte           N80   , Cn3 , v079
        .byte   W01
        .byte           N76   , Fn3 , v084 , gtp1
        .byte   W80
        .byte   W03
        .byte           N11   , Cn3 , v016
        .byte           N11   , Fn3
        .byte   W12
        .byte   PEND
@ 027   ----------------------------------------
BATTLE_WIRELESS_0000_0_27:
        .byte   W01
        .byte           N76   , Fs3 , v084 , gtp1
        .byte           N72   , An3 , v085 , gtp2
        .byte   W80
        .byte   W03
        .byte           N11   , Fs3 , v016
        .byte           N11   , An3
        .byte   W12
        .byte   PEND
@ 028   ----------------------------------------
BATTLE_WIRELESS_0000_0_28:
        .byte           N66   , Dn3 , v083 , gtp1
        .byte                   Gn3 , v087
        .byte   W72
        .byte           N17   , Dn3 , v016
        .byte           N17   , Gn3
        .byte   W23
        .byte           N84   , Gs3 , v070 , gtp3
        .byte           N88   , Cn4 , v078 , gtp1
        .byte   W01
        .byte   PEND
@ 029   ----------------------------------------
        .byte   W96
@ 030   ----------------------------------------
BATTLE_WIRELESS_0000_0_30:
        .byte           N56   , Cn3 , v076 , gtp3
        .byte           N56   , Fn3 , v085 , gtp1
        .byte   W66
        .byte           N22   , Fn3 , v078
        .byte   W06
        .byte           N19   , As3 , v072
        .byte   W24
        .byte   PEND
@ 031   ----------------------------------------
BATTLE_WIRELESS_0000_0_31:
        .byte           N80   , Fn3 , v087
        .byte           N76   , An3 , v080
        .byte   W84
        .byte           N11   , Fn3 , v016
        .byte           N11   , An3
        .byte   W12
        .byte   PEND
@ 032   ----------------------------------------
        .byte   PATT
         .word  BATTLE_WIRELESS_0000_0_24
@ 033   ----------------------------------------
        .byte   PATT
         .word  BATTLE_WIRELESS_0000_0_25
@ 034   ----------------------------------------
        .byte   PATT
         .word  BATTLE_WIRELESS_0000_0_26
@ 035   ----------------------------------------
        .byte   PATT
         .word  BATTLE_WIRELESS_0000_0_27
@ 036   ----------------------------------------
BATTLE_WIRELESS_0000_0_36:
        .byte           N66   , Dn3 , v083 , gtp1
        .byte                   Gn3 , v087
        .byte   W72
        .byte           N17   , Dn3 , v016
        .byte           N17   , Gn3
        .byte   W24
        .byte   PEND
@ 037   ----------------------------------------
BATTLE_WIRELESS_0000_0_37:
        .byte           N64   , Gs3 , v091 , gtp1
        .byte           N28   , Cn4 , v087 , gtp1
        .byte   W36
        .byte           N32   , Dn4 , v098 , gtp3
        .byte   W36
        .byte           N17   , Gs3 , v016
        .byte           N17   , As3
        .byte   W24
        .byte   PEND
@ 038   ----------------------------------------
BATTLE_WIRELESS_0000_0_38:
        .byte           TIE   , Fn3 , v090
        .byte           TIE   , An3 , v088
        .byte   W96
        .byte   PEND
@ 039   ----------------------------------------
BATTLE_WIRELESS_0000_0_39:
        .byte   W56
        .byte   W03
        .byte           EOT   , Fn3
        .byte   W01
        .byte           N07   , Fn3 , v084
        .byte   W05
        .byte           EOT   , An3
        .byte   W07
        .byte           N17   , An3 , v074
        .byte   W12
        .byte           N11   , Cn4 , v088
        .byte   W12
        .byte   PEND
@ 040   ----------------------------------------
BATTLE_WIRELESS_0000_0_40:
        .byte           N24   , Fn3 , v098 , gtp1
        .byte                   An3 , v093
        .byte   W36
        .byte           N22   , Fn3 , v083
        .byte           N22   , An3 , v084
        .byte   W36
        .byte           N09   , Fn3 , v080
        .byte           N09   , An3 , v098
        .byte   W24
        .byte   PEND
@ 041   ----------------------------------------
BATTLE_WIRELESS_0000_0_41:
        .byte           N17   , Fn3 , v083
        .byte           N17   , An3 , v090
        .byte   W96
        .byte   PEND
@ 042   ----------------------------------------
        .byte           N28   , Fn3 , v069
        .byte   W96
@ 043   ----------------------------------------
        .byte   W96
@ 044   ----------------------------------------
BATTLE_WIRELESS_0000_0_44:
        .byte           N84   , Fn3 , v078 , gtp3
        .byte           N90   , Cn4 , v077
        .byte   W96
        .byte   PEND
@ 045   ----------------------------------------
BATTLE_WIRELESS_0000_0_45:
        .byte           N88   , Fn3 , v065 , gtp1
        .byte           N90   , As3 , v074
        .byte   W96
        .byte   PEND
@ 046   ----------------------------------------
        .byte           N28   , Fn3 , v069
        .byte   W96
@ 047   ----------------------------------------
BATTLE_WIRELESS_0000_0_47:
        .byte   W92
        .byte   W02
        .byte           N28   , Fn3 , v073 , gtp1
        .byte   W01
        .byte                   An3 , v075
        .byte   W01
        .byte   PEND
@ 048   ----------------------------------------
BATTLE_WIRELESS_0000_0_48:
        .byte   W36
        .byte           N56   , As3 , v081 , gtp3
        .byte   W01
        .byte                   Gn3 , v076
        .byte   W56
        .byte   W03
        .byte   PEND
@ 049   ----------------------------------------
BATTLE_WIRELESS_0000_0_49:
        .byte   W02
        .byte           N28   , Dn4 , v089
        .byte           N24   , Fn4 , v083 , gtp3
        .byte   W32
        .byte   W02
        .byte           N52   , Dn4 , v079 , gtp1
        .byte           N54   , Gn4 , v069
        .byte   W60
        .byte   PEND
@ 050   ----------------------------------------
BATTLE_WIRELESS_0000_0_50:
        .byte           N28   , Fn3 , v069
        .byte           TIE   , As3 , v068
        .byte   W36
        .byte                   Gn3 , v074
        .byte   W60
        .byte   PEND
@ 051   ----------------------------------------
BATTLE_WIRELESS_0000_0_51:
        .byte   W80
        .byte   W01
        .byte           EOT   , Gn3
        .byte   W14
        .byte                   As3
        .byte   W01
        .byte   PEND
@ 052   ----------------------------------------
BATTLE_WIRELESS_0000_0_52:
        .byte           N84   , Fn3 , v078 , gtp3
        .byte           N90   , An3 , v074
        .byte   W96
        .byte   PEND
@ 053   ----------------------------------------
        .byte   PATT
         .word  BATTLE_WIRELESS_0000_0_45
@ 054   ----------------------------------------
        .byte           N28   , Fn3 , v069
        .byte   W96
@ 055   ----------------------------------------
        .byte   PATT
         .word  BATTLE_WIRELESS_0000_0_47
@ 056   ----------------------------------------
BATTLE_WIRELESS_0000_0_56:
        .byte   W36
        .byte           TIE   , As3 , v081
        .byte   W01
        .byte                   Gn3 , v076
        .byte   W56
        .byte   W03
        .byte   PEND
@ 057   ----------------------------------------
BATTLE_WIRELESS_0000_0_57:
        .byte   W92
        .byte   W01
        .byte           EOT   , As3
        .byte   W01
        .byte                   Gn3
        .byte   W01
        .byte           TIE   , Cn1 , v082
        .byte   W01
        .byte   PEND
@ 058   ----------------------------------------
        .byte                   Cn2
        .byte   W96
@ 059   ----------------------------------------
        .byte   W96
@ 060   ----------------------------------------
BATTLE_WIRELESS_0000_0_60:
        .byte   W88
        .byte   W01
        .byte           EOT   , Cn1
        .byte                   Cn2
        .byte   W07
        .byte   PEND
@ 061   ----------------------------------------
BATTLE_WIRELESS_0000_0_LOOP:
        .byte           N84   , Cn2 , v070 , gtp3
        .byte           N80   , Gn3 , v056
        .byte   W96
@ 062   ----------------------------------------
        .byte   W96
@ 063   ----------------------------------------
        .byte   W96
@ 064   ----------------------------------------
        .byte   W96
@ 065   ----------------------------------------
        .byte   W96
@ 066   ----------------------------------------
        .byte   W96
@ 067   ----------------------------------------
        .byte   W96
@ 068   ----------------------------------------
        .byte   W96
@ 069   ----------------------------------------
        .byte   W96
@ 070   ----------------------------------------
        .byte   W96
@ 071   ----------------------------------------
        .byte   W96
@ 072   ----------------------------------------
        .byte   W96
@ 073   ----------------------------------------
        .byte   W96
@ 074   ----------------------------------------
        .byte   W96
@ 075   ----------------------------------------
        .byte   W96
@ 076   ----------------------------------------
        .byte   W96
@ 077   ----------------------------------------
        .byte   W96
@ 078   ----------------------------------------
        .byte   PATT
         .word  BATTLE_WIRELESS_0000_0_24
@ 079   ----------------------------------------
        .byte   PATT
         .word  BATTLE_WIRELESS_0000_0_25
@ 080   ----------------------------------------
        .byte   PATT
         .word  BATTLE_WIRELESS_0000_0_26
@ 081   ----------------------------------------
        .byte   PATT
         .word  BATTLE_WIRELESS_0000_0_27
@ 082   ----------------------------------------
        .byte   PATT
         .word  BATTLE_WIRELESS_0000_0_28
@ 083   ----------------------------------------
        .byte   W96
@ 084   ----------------------------------------
        .byte   PATT
         .word  BATTLE_WIRELESS_0000_0_30
@ 085   ----------------------------------------
        .byte   PATT
         .word  BATTLE_WIRELESS_0000_0_31
@ 086   ----------------------------------------
        .byte   PATT
         .word  BATTLE_WIRELESS_0000_0_24
@ 087   ----------------------------------------
        .byte   PATT
         .word  BATTLE_WIRELESS_0000_0_25
@ 088   ----------------------------------------
        .byte   PATT
         .word  BATTLE_WIRELESS_0000_0_26
@ 089   ----------------------------------------
        .byte   PATT
         .word  BATTLE_WIRELESS_0000_0_27
@ 090   ----------------------------------------
        .byte   PATT
         .word  BATTLE_WIRELESS_0000_0_36
@ 091   ----------------------------------------
        .byte   PATT
         .word  BATTLE_WIRELESS_0000_0_37
@ 092   ----------------------------------------
        .byte   PATT
         .word  BATTLE_WIRELESS_0000_0_38
@ 093   ----------------------------------------
        .byte   PATT
         .word  BATTLE_WIRELESS_0000_0_39
@ 094   ----------------------------------------
        .byte   PATT
         .word  BATTLE_WIRELESS_0000_0_40
@ 095   ----------------------------------------
        .byte   PATT
         .word  BATTLE_WIRELESS_0000_0_41
@ 096   ----------------------------------------
        .byte           N28   , Fn3 , v069
        .byte   W96
@ 097   ----------------------------------------
        .byte   W96
@ 098   ----------------------------------------
        .byte   PATT
         .word  BATTLE_WIRELESS_0000_0_44
@ 099   ----------------------------------------
        .byte   PATT
         .word  BATTLE_WIRELESS_0000_0_45
@ 100   ----------------------------------------
        .byte           N28   , Fn3 , v069
        .byte   W96
@ 101   ----------------------------------------
        .byte   PATT
         .word  BATTLE_WIRELESS_0000_0_47
@ 102   ----------------------------------------
        .byte   PATT
         .word  BATTLE_WIRELESS_0000_0_48
@ 103   ----------------------------------------
        .byte   PATT
         .word  BATTLE_WIRELESS_0000_0_49
@ 104   ----------------------------------------
        .byte   PATT
         .word  BATTLE_WIRELESS_0000_0_50
@ 105   ----------------------------------------
        .byte   PATT
         .word  BATTLE_WIRELESS_0000_0_51
@ 106   ----------------------------------------
        .byte   PATT
         .word  BATTLE_WIRELESS_0000_0_52
@ 107   ----------------------------------------
        .byte   PATT
         .word  BATTLE_WIRELESS_0000_0_45
@ 108   ----------------------------------------
        .byte           N28   , Fn3 , v069
        .byte   W96
@ 109   ----------------------------------------
        .byte   PATT
         .word  BATTLE_WIRELESS_0000_0_47
@ 110   ----------------------------------------
        .byte   PATT
         .word  BATTLE_WIRELESS_0000_0_56
@ 111   ----------------------------------------
        .byte   PATT
         .word  BATTLE_WIRELESS_0000_0_57
@ 112   ----------------------------------------
        .byte           TIE   , Cn2 , v082
        .byte   W96
@ 113   ----------------------------------------
        .byte   W96
@ 114   ----------------------------------------
        .byte   PATT
         .word  BATTLE_WIRELESS_0000_0_60
@ 115   ----------------------------------------
        .byte           N84   , Dn2 , v085 , gtp3
        .byte           N80   , Fn3 , v071
        .byte   W96
@ 116   ----------------------------------------
BATTLE_WIRELESS_0000_0_116:
        .byte           N30   , Fn3 , v088 , gtp1
        .byte           N30   , An3 , v089
        .byte   W36
        .byte           N24   , Fn3 , v062 , gtp3
        .byte                   As3 , v082
        .byte   W36
        .byte           TIE   , Dn3 , v084
        .byte           TIE   , Fn3 , v076
        .byte   W24
        .byte   PEND
@ 117   ----------------------------------------
BATTLE_WIRELESS_0000_0_117:
        .byte   W76
        .byte           EOT   , Dn3
        .byte                   Fn3
        .byte   W20
        .byte   PEND
@ 118   ----------------------------------------
        .byte   PATT
         .word  BATTLE_WIRELESS_0000_0_116
@ 119   ----------------------------------------
        .byte   PATT
         .word  BATTLE_WIRELESS_0000_0_117
@ 120   ----------------------------------------
        .byte   PATT
         .word  BATTLE_WIRELESS_0000_0_116
@ 121   ----------------------------------------
        .byte   PATT
         .word  BATTLE_WIRELESS_0000_0_117
@ 122   ----------------------------------------
        .byte   PATT
         .word  BATTLE_WIRELESS_0000_0_116
@ 123   ----------------------------------------
        .byte   PATT
         .word  BATTLE_WIRELESS_0000_0_117
@ 124   ----------------------------------------
        .byte   PATT
         .word  BATTLE_WIRELESS_0000_0_116
@ 125   ----------------------------------------
        .byte   PATT
         .word  BATTLE_WIRELESS_0000_0_117
@ 126   ----------------------------------------
        .byte   PATT
         .word  BATTLE_WIRELESS_0000_0_116
@ 127   ----------------------------------------
        .byte   PATT
         .word  BATTLE_WIRELESS_0000_0_117
@ 128   ----------------------------------------
        .byte   PATT
         .word  BATTLE_WIRELESS_0000_0_116
@ 129   ----------------------------------------
        .byte   PATT
         .word  BATTLE_WIRELESS_0000_0_117
@ 130   ----------------------------------------
        .byte   PATT
         .word  BATTLE_WIRELESS_0000_0_116
@ 131   ----------------------------------------
        .byte   PATT
         .word  BATTLE_WIRELESS_0000_0_117
@ 132   ----------------------------------------
        .byte   PATT
         .word  BATTLE_WIRELESS_0000_0_24
@ 133   ----------------------------------------
        .byte   PATT
         .word  BATTLE_WIRELESS_0000_0_25
@ 134   ----------------------------------------
        .byte   PATT
         .word  BATTLE_WIRELESS_0000_0_26
@ 135   ----------------------------------------
        .byte   PATT
         .word  BATTLE_WIRELESS_0000_0_27
@ 136   ----------------------------------------
        .byte   PATT
         .word  BATTLE_WIRELESS_0000_0_28
@ 137   ----------------------------------------
        .byte   W96
@ 138   ----------------------------------------
        .byte   PATT
         .word  BATTLE_WIRELESS_0000_0_30
@ 139   ----------------------------------------
        .byte   PATT
         .word  BATTLE_WIRELESS_0000_0_31
@ 140   ----------------------------------------
        .byte   PATT
         .word  BATTLE_WIRELESS_0000_0_24
@ 141   ----------------------------------------
        .byte   PATT
         .word  BATTLE_WIRELESS_0000_0_25
@ 142   ----------------------------------------
        .byte   PATT
         .word  BATTLE_WIRELESS_0000_0_26
@ 143   ----------------------------------------
        .byte   PATT
         .word  BATTLE_WIRELESS_0000_0_27
@ 144   ----------------------------------------
        .byte   PATT
         .word  BATTLE_WIRELESS_0000_0_36
@ 145   ----------------------------------------
        .byte   PATT
         .word  BATTLE_WIRELESS_0000_0_37
@ 146   ----------------------------------------
        .byte   PATT
         .word  BATTLE_WIRELESS_0000_0_38
@ 147   ----------------------------------------
        .byte   PATT
         .word  BATTLE_WIRELESS_0000_0_39
@ 148   ----------------------------------------
        .byte   PATT
         .word  BATTLE_WIRELESS_0000_0_40
@ 149   ----------------------------------------
        .byte   PATT
         .word  BATTLE_WIRELESS_0000_0_41
@ 150   ----------------------------------------
        .byte           N28   , Fn3 , v069
        .byte   W96
@ 151   ----------------------------------------
        .byte   W96
@ 152   ----------------------------------------
        .byte   PATT
         .word  BATTLE_WIRELESS_0000_0_44
@ 153   ----------------------------------------
        .byte   PATT
         .word  BATTLE_WIRELESS_0000_0_45
@ 154   ----------------------------------------
        .byte           N28   , Fn3 , v069
        .byte   W96
@ 155   ----------------------------------------
        .byte   PATT
         .word  BATTLE_WIRELESS_0000_0_47
@ 156   ----------------------------------------
        .byte   PATT
         .word  BATTLE_WIRELESS_0000_0_48
@ 157   ----------------------------------------
        .byte   PATT
         .word  BATTLE_WIRELESS_0000_0_49
@ 158   ----------------------------------------
        .byte   PATT
         .word  BATTLE_WIRELESS_0000_0_50
@ 159   ----------------------------------------
        .byte   PATT
         .word  BATTLE_WIRELESS_0000_0_51
@ 160   ----------------------------------------
        .byte   PATT
         .word  BATTLE_WIRELESS_0000_0_52
@ 161   ----------------------------------------
        .byte   PATT
         .word  BATTLE_WIRELESS_0000_0_45
@ 162   ----------------------------------------
        .byte           N28   , Fn3 , v069
        .byte   W96
@ 163   ----------------------------------------
        .byte   PATT
         .word  BATTLE_WIRELESS_0000_0_47
@ 164   ----------------------------------------
        .byte   PATT
         .word  BATTLE_WIRELESS_0000_0_56
@ 165   ----------------------------------------
        .byte   PATT
         .word  BATTLE_WIRELESS_0000_0_57
@ 166   ----------------------------------------
        .byte           TIE   , Cn2 , v082
        .byte   W96
@ 167   ----------------------------------------
        .byte   W96
@ 168   ----------------------------------------
        .byte   PATT
         .word  BATTLE_WIRELESS_0000_0_60
@ 169   ----------------------------------------
        .byte           N84   , Cn2 , v070 , gtp3
        .byte           N80   , Gn3 , v056
        .byte   GOTO
         .word  BATTLE_WIRELESS_0000_0_LOOP
        .byte   W92
        .byte   W03
        .byte   FINE

@****************** Track 1 (Midi-Chn.1) ******************@

BATTLE_WIRELESS_0000_1:
        .byte   KEYSH , BATTLE_WIRELESS_0000_key+0
@ 000   ----------------------------------------
        .byte           VOICE , 3
        .byte           VOL   , 17
        .byte           PAN   , c_v-42
        .byte           N11   , Fn4 , v090
        .byte   W12
        .byte                   An3
        .byte   W12
        .byte                   Dn4 , v093
        .byte   W12
        .byte                   Gn4 , v085
        .byte   W12
        .byte                   An3
        .byte   W12
        .byte                   Dn4 , v089
        .byte   W12
        .byte                   An4 , v100
        .byte   W12
        .byte                   An3 , v085
        .byte   W12
@ 001   ----------------------------------------
BATTLE_WIRELESS_0000_1_1:
        .byte           N11   , Dn4 , v091
        .byte   W12
        .byte                   En4 , v100
        .byte   W12
        .byte                   An3 , v085
        .byte   W12
        .byte                   Dn4
        .byte   W12
        .byte                   Fn4 , v088
        .byte   W12
        .byte                   An3 , v085
        .byte   W12
        .byte                   Dn4 , v097
        .byte   W12
        .byte                   An3 , v085
        .byte   W12
        .byte   PEND
@ 002   ----------------------------------------
BATTLE_WIRELESS_0000_1_2:
        .byte           N11   , Fn4 , v090
        .byte   W12
        .byte                   An3
        .byte   W12
        .byte                   Dn4 , v093
        .byte   W12
        .byte                   Gn4 , v085
        .byte   W12
        .byte                   An3
        .byte   W12
        .byte                   Dn4 , v089
        .byte   W12
        .byte                   An4 , v100
        .byte   W12
        .byte                   An3 , v085
        .byte   W12
        .byte   PEND
@ 003   ----------------------------------------
        .byte   PATT
         .word  BATTLE_WIRELESS_0000_1_1
@ 004   ----------------------------------------
        .byte   PATT
         .word  BATTLE_WIRELESS_0000_1_2
@ 005   ----------------------------------------
        .byte   PATT
         .word  BATTLE_WIRELESS_0000_1_1
@ 006   ----------------------------------------
        .byte   PATT
         .word  BATTLE_WIRELESS_0000_1_2
@ 007   ----------------------------------------
        .byte   PATT
         .word  BATTLE_WIRELESS_0000_1_1
@ 008   ----------------------------------------
        .byte   PATT
         .word  BATTLE_WIRELESS_0000_1_2
@ 009   ----------------------------------------
        .byte   PATT
         .word  BATTLE_WIRELESS_0000_1_1
@ 010   ----------------------------------------
        .byte   PATT
         .word  BATTLE_WIRELESS_0000_1_2
@ 011   ----------------------------------------
        .byte   PATT
         .word  BATTLE_WIRELESS_0000_1_1
@ 012   ----------------------------------------
        .byte   PATT
         .word  BATTLE_WIRELESS_0000_1_2
@ 013   ----------------------------------------
        .byte   PATT
         .word  BATTLE_WIRELESS_0000_1_1
@ 014   ----------------------------------------
        .byte   PATT
         .word  BATTLE_WIRELESS_0000_1_2
@ 015   ----------------------------------------
        .byte   PATT
         .word  BATTLE_WIRELESS_0000_1_1
@ 016   ----------------------------------------
        .byte   PATT
         .word  BATTLE_WIRELESS_0000_1_2
@ 017   ----------------------------------------
        .byte   PATT
         .word  BATTLE_WIRELESS_0000_1_1
@ 018   ----------------------------------------
        .byte   PATT
         .word  BATTLE_WIRELESS_0000_1_2
@ 019   ----------------------------------------
        .byte   PATT
         .word  BATTLE_WIRELESS_0000_1_1
@ 020   ----------------------------------------
        .byte   PATT
         .word  BATTLE_WIRELESS_0000_1_2
@ 021   ----------------------------------------
        .byte   PATT
         .word  BATTLE_WIRELESS_0000_1_1
@ 022   ----------------------------------------
        .byte   PATT
         .word  BATTLE_WIRELESS_0000_1_2
@ 023   ----------------------------------------
        .byte   PATT
         .word  BATTLE_WIRELESS_0000_1_1
@ 024   ----------------------------------------
        .byte   W96
@ 025   ----------------------------------------
        .byte   W96
@ 026   ----------------------------------------
        .byte   W96
@ 027   ----------------------------------------
        .byte   W96
@ 028   ----------------------------------------
        .byte   W96
@ 029   ----------------------------------------
        .byte   W96
@ 030   ----------------------------------------
        .byte   W96
@ 031   ----------------------------------------
        .byte   W96
@ 032   ----------------------------------------
        .byte   W96
@ 033   ----------------------------------------
        .byte   W96
@ 034   ----------------------------------------
        .byte   W96
@ 035   ----------------------------------------
        .byte   W96
@ 036   ----------------------------------------
        .byte   W96
@ 037   ----------------------------------------
        .byte   W96
@ 038   ----------------------------------------
        .byte   W96
@ 039   ----------------------------------------
        .byte   W96
@ 040   ----------------------------------------
        .byte   W96
@ 041   ----------------------------------------
        .byte   W96
@ 042   ----------------------------------------
        .byte   W96
@ 043   ----------------------------------------
        .byte   W96
@ 044   ----------------------------------------
        .byte   W96
@ 045   ----------------------------------------
        .byte   W96
@ 046   ----------------------------------------
        .byte   W96
@ 047   ----------------------------------------
        .byte   W96
@ 048   ----------------------------------------
        .byte   W96
@ 049   ----------------------------------------
        .byte   W96
@ 050   ----------------------------------------
        .byte   W96
@ 051   ----------------------------------------
        .byte   W96
@ 052   ----------------------------------------
        .byte   W96
@ 053   ----------------------------------------
        .byte   W96
@ 054   ----------------------------------------
        .byte   W96
@ 055   ----------------------------------------
        .byte   W96
@ 056   ----------------------------------------
        .byte   W96
@ 057   ----------------------------------------
        .byte   W96
@ 058   ----------------------------------------
        .byte   W96
@ 059   ----------------------------------------
        .byte   W96
@ 060   ----------------------------------------
        .byte   W96
@ 061   ----------------------------------------
BATTLE_WIRELESS_0000_1_LOOP:
        .byte   W96
@ 062   ----------------------------------------
        .byte   PATT
         .word  BATTLE_WIRELESS_0000_1_2
@ 063   ----------------------------------------
        .byte   PATT
         .word  BATTLE_WIRELESS_0000_1_1
@ 064   ----------------------------------------
        .byte   PATT
         .word  BATTLE_WIRELESS_0000_1_2
@ 065   ----------------------------------------
        .byte   PATT
         .word  BATTLE_WIRELESS_0000_1_1
@ 066   ----------------------------------------
        .byte   PATT
         .word  BATTLE_WIRELESS_0000_1_2
@ 067   ----------------------------------------
        .byte   PATT
         .word  BATTLE_WIRELESS_0000_1_1
@ 068   ----------------------------------------
        .byte   PATT
         .word  BATTLE_WIRELESS_0000_1_2
@ 069   ----------------------------------------
        .byte   PATT
         .word  BATTLE_WIRELESS_0000_1_1
@ 070   ----------------------------------------
        .byte   PATT
         .word  BATTLE_WIRELESS_0000_1_2
@ 071   ----------------------------------------
        .byte   PATT
         .word  BATTLE_WIRELESS_0000_1_1
@ 072   ----------------------------------------
        .byte   PATT
         .word  BATTLE_WIRELESS_0000_1_2
@ 073   ----------------------------------------
        .byte   PATT
         .word  BATTLE_WIRELESS_0000_1_1
@ 074   ----------------------------------------
        .byte   PATT
         .word  BATTLE_WIRELESS_0000_1_2
@ 075   ----------------------------------------
        .byte   PATT
         .word  BATTLE_WIRELESS_0000_1_1
@ 076   ----------------------------------------
        .byte   PATT
         .word  BATTLE_WIRELESS_0000_1_2
@ 077   ----------------------------------------
        .byte   PATT
         .word  BATTLE_WIRELESS_0000_1_1
@ 078   ----------------------------------------
        .byte   W96
@ 079   ----------------------------------------
        .byte   W96
@ 080   ----------------------------------------
        .byte   W96
@ 081   ----------------------------------------
        .byte   W96
@ 082   ----------------------------------------
        .byte   W96
@ 083   ----------------------------------------
        .byte   W96
@ 084   ----------------------------------------
        .byte   W96
@ 085   ----------------------------------------
        .byte   W96
@ 086   ----------------------------------------
        .byte   W96
@ 087   ----------------------------------------
        .byte   W96
@ 088   ----------------------------------------
        .byte   W96
@ 089   ----------------------------------------
        .byte   W96
@ 090   ----------------------------------------
        .byte   W96
@ 091   ----------------------------------------
        .byte   W96
@ 092   ----------------------------------------
        .byte   W96
@ 093   ----------------------------------------
        .byte   W96
@ 094   ----------------------------------------
        .byte   W96
@ 095   ----------------------------------------
        .byte   W96
@ 096   ----------------------------------------
        .byte   W96
@ 097   ----------------------------------------
        .byte   W96
@ 098   ----------------------------------------
        .byte   W96
@ 099   ----------------------------------------
        .byte   W96
@ 100   ----------------------------------------
        .byte   W96
@ 101   ----------------------------------------
        .byte   W96
@ 102   ----------------------------------------
        .byte   W96
@ 103   ----------------------------------------
        .byte   W96
@ 104   ----------------------------------------
        .byte   W96
@ 105   ----------------------------------------
        .byte   W96
@ 106   ----------------------------------------
        .byte   W96
@ 107   ----------------------------------------
        .byte   W96
@ 108   ----------------------------------------
        .byte   W96
@ 109   ----------------------------------------
        .byte   W96
@ 110   ----------------------------------------
        .byte   W96
@ 111   ----------------------------------------
        .byte   W96
@ 112   ----------------------------------------
        .byte   W96
@ 113   ----------------------------------------
        .byte   W96
@ 114   ----------------------------------------
        .byte   W96
@ 115   ----------------------------------------
        .byte   W96
@ 116   ----------------------------------------
        .byte   W96
@ 117   ----------------------------------------
        .byte   W96
@ 118   ----------------------------------------
        .byte   W96
@ 119   ----------------------------------------
        .byte   W96
@ 120   ----------------------------------------
        .byte   W96
@ 121   ----------------------------------------
        .byte   W96
@ 122   ----------------------------------------
        .byte   W96
@ 123   ----------------------------------------
        .byte   W96
@ 124   ----------------------------------------
        .byte   W96
@ 125   ----------------------------------------
        .byte   W96
@ 126   ----------------------------------------
        .byte   W96
@ 127   ----------------------------------------
        .byte   W96
@ 128   ----------------------------------------
        .byte   W96
@ 129   ----------------------------------------
        .byte   W96
@ 130   ----------------------------------------
        .byte   W96
@ 131   ----------------------------------------
        .byte   W96
@ 132   ----------------------------------------
        .byte   W96
@ 133   ----------------------------------------
        .byte   W96
@ 134   ----------------------------------------
        .byte   W96
@ 135   ----------------------------------------
        .byte   W96
@ 136   ----------------------------------------
        .byte   W96
@ 137   ----------------------------------------
        .byte   W96
@ 138   ----------------------------------------
        .byte   W96
@ 139   ----------------------------------------
        .byte   W96
@ 140   ----------------------------------------
        .byte   W96
@ 141   ----------------------------------------
        .byte   W96
@ 142   ----------------------------------------
        .byte   W96
@ 143   ----------------------------------------
        .byte   W96
@ 144   ----------------------------------------
        .byte   W96
@ 145   ----------------------------------------
        .byte   W96
@ 146   ----------------------------------------
        .byte   W96
@ 147   ----------------------------------------
        .byte   W96
@ 148   ----------------------------------------
        .byte   W96
@ 149   ----------------------------------------
        .byte   W96
@ 150   ----------------------------------------
        .byte   W96
@ 151   ----------------------------------------
        .byte   W96
@ 152   ----------------------------------------
        .byte   W96
@ 153   ----------------------------------------
        .byte   W96
@ 154   ----------------------------------------
        .byte   W96
@ 155   ----------------------------------------
        .byte   W96
@ 156   ----------------------------------------
        .byte   W96
@ 157   ----------------------------------------
        .byte   W96
@ 158   ----------------------------------------
        .byte   W96
@ 159   ----------------------------------------
        .byte   W96
@ 160   ----------------------------------------
        .byte   W96
@ 161   ----------------------------------------
        .byte   W96
@ 162   ----------------------------------------
        .byte   W96
@ 163   ----------------------------------------
        .byte   W96
@ 164   ----------------------------------------
        .byte   W96
@ 165   ----------------------------------------
        .byte   W96
@ 166   ----------------------------------------
        .byte   W96
@ 167   ----------------------------------------
        .byte   W96
@ 168   ----------------------------------------
        .byte   W96
@ 169   ----------------------------------------
        .byte   GOTO
         .word  BATTLE_WIRELESS_0000_1_LOOP
        .byte   W92
        .byte   W03
        .byte   FINE

@****************** Track 2 (Midi-Chn.2) ******************@

BATTLE_WIRELESS_0000_2:
        .byte   KEYSH , BATTLE_WIRELESS_0000_key+0
@ 000   ----------------------------------------
        .byte           VOICE , 39
        .byte           VOL   , 42
        .byte           N14   , Dn2 , v080
        .byte   W24
        .byte           N06   , Dn2 , v067
        .byte   W12
        .byte           N16   , Dn2 , v080
        .byte   W24
        .byte           N06   , Dn2 , v068
        .byte   W12
        .byte           N18   , Dn2 , v081
        .byte   W24
@ 001   ----------------------------------------
BATTLE_WIRELESS_0000_2_1:
        .byte           N06   , Dn2 , v070
        .byte   W12
        .byte           N18   , Dn2 , v082
        .byte   W24
        .byte           N06   , Dn2 , v071
        .byte   W12
        .byte           N13   , Dn2 , v083
        .byte   W24
        .byte           N07   , Dn2 , v066
        .byte   W12
        .byte                   Cn2 , v081
        .byte   W12
        .byte   PEND
@ 002   ----------------------------------------
        .byte           N14   , Dn2 , v080
        .byte   W24
        .byte           N06   , Dn2 , v067
        .byte   W12
        .byte           N16   , Dn2 , v080
        .byte   W24
        .byte           N06   , Dn2 , v068
        .byte   W12
        .byte           N18   , Dn2 , v081
        .byte   W24
@ 003   ----------------------------------------
        .byte   PATT
         .word  BATTLE_WIRELESS_0000_2_1
@ 004   ----------------------------------------
BATTLE_WIRELESS_0000_2_4:
        .byte           N14   , As1 , v080
        .byte   W24
        .byte           N06   , As1 , v067
        .byte   W12
        .byte           N16   , As1 , v080
        .byte   W24
        .byte           N06   , As1 , v068
        .byte   W12
        .byte           N18   , As1 , v081
        .byte   W24
        .byte   PEND
@ 005   ----------------------------------------
        .byte           N06   , As1 , v070
        .byte   W12
        .byte           N18   , As1 , v082
        .byte   W24
        .byte           N06   , As1 , v071
        .byte   W12
        .byte           N13   , As1 , v083
        .byte   W24
        .byte           N07   , As1 , v066
        .byte   W12
        .byte                   An1 , v081
        .byte   W12
@ 006   ----------------------------------------
        .byte   PATT
         .word  BATTLE_WIRELESS_0000_2_4
@ 007   ----------------------------------------
        .byte           N06   , As1 , v070
        .byte   W12
        .byte           N18   , As1 , v082
        .byte   W24
        .byte           N06   , As1 , v071
        .byte   W12
        .byte           N13   , As1 , v083
        .byte   W24
        .byte           N07   , As1 , v066
        .byte   W12
        .byte                   As1
        .byte   W12
@ 008   ----------------------------------------
BATTLE_WIRELESS_0000_2_8:
        .byte           N11   , Dn2 , v085
        .byte   W12
        .byte           N08   , Dn1 , v080
        .byte   W12
        .byte                   Dn1
        .byte   W12
        .byte           N11   , Dn2 , v085
        .byte   W12
        .byte           N08   , Dn1 , v080
        .byte   W12
        .byte                   Dn1
        .byte   W12
        .byte           N11   , Dn2 , v085
        .byte   W12
        .byte           N08   , Dn1 , v080
        .byte   W12
        .byte   PEND
@ 009   ----------------------------------------
BATTLE_WIRELESS_0000_2_9:
        .byte           N08   , Dn1 , v080
        .byte   W12
        .byte           N11   , Dn2 , v085
        .byte   W12
        .byte           N08   , Dn1 , v080
        .byte   W12
        .byte                   Dn1
        .byte   W12
        .byte           N11   , Dn2 , v085
        .byte   W12
        .byte           N08   , Dn1 , v080
        .byte   W12
        .byte           N11   , Dn2 , v085
        .byte   W12
        .byte           N08   , Dn1 , v080
        .byte   W12
        .byte   PEND
@ 010   ----------------------------------------
        .byte   PATT
         .word  BATTLE_WIRELESS_0000_2_8
@ 011   ----------------------------------------
BATTLE_WIRELESS_0000_2_11:
        .byte           N08   , Dn1 , v080
        .byte   W12
        .byte           N11   , Dn2 , v085
        .byte   W12
        .byte           N08   , Dn1 , v080
        .byte   W12
        .byte                   Dn1
        .byte   W12
        .byte           N11   , Cn3 , v085
        .byte   W12
        .byte           N08   , Cn2 , v080
        .byte   W12
        .byte           N11   , Cn3 , v085
        .byte   W12
        .byte           N08   , Cn2 , v080
        .byte   W12
        .byte   PEND
@ 012   ----------------------------------------
BATTLE_WIRELESS_0000_2_12:
        .byte           N11   , As2 , v085
        .byte   W12
        .byte           N08   , As1 , v080
        .byte   W12
        .byte                   As1
        .byte   W12
        .byte           N11   , As2 , v085
        .byte   W12
        .byte           N08   , As1 , v080
        .byte   W12
        .byte                   As1
        .byte   W12
        .byte           N11   , As2 , v085
        .byte   W12
        .byte           N08   , As1 , v080
        .byte   W12
        .byte   PEND
@ 013   ----------------------------------------
BATTLE_WIRELESS_0000_2_13:
        .byte           N08   , As1 , v080
        .byte   W12
        .byte           N11   , As2 , v085
        .byte   W12
        .byte           N08   , As1 , v080
        .byte   W12
        .byte                   As1
        .byte   W12
        .byte           N11   , As2 , v085
        .byte   W12
        .byte           N08   , As1 , v080
        .byte   W12
        .byte           N11   , As2 , v085
        .byte   W12
        .byte           N08   , As1 , v080
        .byte   W12
        .byte   PEND
@ 014   ----------------------------------------
        .byte   PATT
         .word  BATTLE_WIRELESS_0000_2_12
@ 015   ----------------------------------------
        .byte   PATT
         .word  BATTLE_WIRELESS_0000_2_13
@ 016   ----------------------------------------
        .byte   PATT
         .word  BATTLE_WIRELESS_0000_2_8
@ 017   ----------------------------------------
        .byte   PATT
         .word  BATTLE_WIRELESS_0000_2_9
@ 018   ----------------------------------------
        .byte   PATT
         .word  BATTLE_WIRELESS_0000_2_8
@ 019   ----------------------------------------
        .byte   PATT
         .word  BATTLE_WIRELESS_0000_2_11
@ 020   ----------------------------------------
        .byte   PATT
         .word  BATTLE_WIRELESS_0000_2_12
@ 021   ----------------------------------------
        .byte   PATT
         .word  BATTLE_WIRELESS_0000_2_13
@ 022   ----------------------------------------
        .byte   PATT
         .word  BATTLE_WIRELESS_0000_2_12
@ 023   ----------------------------------------
        .byte   PATT
         .word  BATTLE_WIRELESS_0000_2_13
@ 024   ----------------------------------------
BATTLE_WIRELESS_0000_2_24:
        .byte           N56   , Ds1 , v090 , gtp3
        .byte   W60
        .byte           N11   , As1 , v086
        .byte   W12
        .byte                   Ds2 , v088
        .byte   W12
        .byte                   As1
        .byte   W12
        .byte   PEND
@ 025   ----------------------------------------
BATTLE_WIRELESS_0000_2_25:
        .byte           N28   , En1 , v087 , gtp1
        .byte   W36
        .byte                   En1 , v085
        .byte   W36
        .byte           N11   , En1 , v088
        .byte   W24
        .byte   PEND
@ 026   ----------------------------------------
BATTLE_WIRELESS_0000_2_26:
        .byte           N56   , Fn1 , v083 , gtp3
        .byte   W60
        .byte           N11   , Cn2 , v093
        .byte   W12
        .byte                   Fn2 , v085
        .byte   W12
        .byte                   Cn2 , v087
        .byte   W12
        .byte   PEND
@ 027   ----------------------------------------
BATTLE_WIRELESS_0000_2_27:
        .byte           N28   , Fs1 , v087 , gtp1
        .byte   W36
        .byte                   Fs1 , v085
        .byte   W36
        .byte           N11   , Fs1 , v088
        .byte   W24
        .byte   PEND
@ 028   ----------------------------------------
BATTLE_WIRELESS_0000_2_28:
        .byte           N56   , Gn1 , v083 , gtp3
        .byte   W60
        .byte           N11   , Dn2 , v093
        .byte   W12
        .byte                   Gn2 , v085
        .byte   W12
        .byte                   Dn2 , v087
        .byte   W12
        .byte   PEND
@ 029   ----------------------------------------
BATTLE_WIRELESS_0000_2_29:
        .byte           N28   , Gs1 , v087 , gtp1
        .byte   W36
        .byte                   Gs1 , v085
        .byte   W36
        .byte           N11   , Gs1 , v088
        .byte   W24
        .byte   PEND
@ 030   ----------------------------------------
        .byte   PATT
         .word  BATTLE_WIRELESS_0000_2_26
@ 031   ----------------------------------------
BATTLE_WIRELESS_0000_2_31:
        .byte           N05   , Fn2 , v086
        .byte   W04
        .byte           N06   , Gn2 , v091
        .byte   W08
        .byte           N23   , Fn2 , v094
        .byte   W24
        .byte           N22   , Fn2 , v083
        .byte   W24
        .byte           N11   , Fn2 , v085
        .byte   W12
        .byte                   Cn2
        .byte   W12
        .byte                   Fn1
        .byte   W12
        .byte   PEND
@ 032   ----------------------------------------
        .byte   PATT
         .word  BATTLE_WIRELESS_0000_2_24
@ 033   ----------------------------------------
        .byte   PATT
         .word  BATTLE_WIRELESS_0000_2_25
@ 034   ----------------------------------------
        .byte   PATT
         .word  BATTLE_WIRELESS_0000_2_26
@ 035   ----------------------------------------
        .byte   PATT
         .word  BATTLE_WIRELESS_0000_2_27
@ 036   ----------------------------------------
        .byte   PATT
         .word  BATTLE_WIRELESS_0000_2_28
@ 037   ----------------------------------------
BATTLE_WIRELESS_0000_2_37:
        .byte           N32   , Gs1 , v087 , gtp3
        .byte   W36
        .byte                   Cn2 , v085
        .byte   W36
        .byte           N23   , Ds2 , v088
        .byte   W24
        .byte   PEND
@ 038   ----------------------------------------
BATTLE_WIRELESS_0000_2_38:
        .byte           N32   , Fn2 , v087 , gtp3
        .byte   W36
        .byte                   An1 , v085
        .byte   W36
        .byte           N23   , Cn2 , v088
        .byte   W24
        .byte   PEND
@ 039   ----------------------------------------
BATTLE_WIRELESS_0000_2_39:
        .byte           N32   , Fn1 , v087 , gtp3
        .byte   W30
        .byte                   An1 , v085
        .byte   W42
        .byte           N23   , Cn2 , v088
        .byte   W24
        .byte   PEND
@ 040   ----------------------------------------
BATTLE_WIRELESS_0000_2_40:
        .byte           N11   , Dn2 , v087
        .byte   W12
        .byte                   Dn1
        .byte   W12
        .byte                   Dn1
        .byte   W12
        .byte                   Dn1
        .byte   W24
        .byte                   Dn1
        .byte   W12
        .byte                   An1
        .byte   W12
        .byte                   Cn2
        .byte   W12
        .byte   PEND
@ 041   ----------------------------------------
        .byte                   Dn2
        .byte   W96
@ 042   ----------------------------------------
BATTLE_WIRELESS_0000_2_42:
        .byte           N11   , Ds2 , v085
        .byte   W12
        .byte           N08   , Ds1 , v080
        .byte   W12
        .byte                   Ds1
        .byte   W12
        .byte           N11   , Ds2 , v085
        .byte   W12
        .byte           N08   , Ds1 , v080
        .byte   W12
        .byte                   Ds1
        .byte   W12
        .byte           N11   , Ds2 , v085
        .byte   W12
        .byte           N08   , Ds1 , v080
        .byte   W12
        .byte   PEND
@ 043   ----------------------------------------
BATTLE_WIRELESS_0000_2_43:
        .byte           N08   , Ds1 , v080
        .byte   W12
        .byte           N11   , Ds2 , v085
        .byte   W12
        .byte           N08   , Ds1 , v080
        .byte   W12
        .byte                   Ds1
        .byte   W12
        .byte           N11   , Ds2 , v085
        .byte   W12
        .byte           N08   , Ds1 , v080
        .byte   W12
        .byte           N11   , Ds2 , v085
        .byte   W12
        .byte           N08   , Ds1 , v080
        .byte   W12
        .byte   PEND
@ 044   ----------------------------------------
        .byte   PATT
         .word  BATTLE_WIRELESS_0000_2_8
@ 045   ----------------------------------------
BATTLE_WIRELESS_0000_2_45:
        .byte           N08   , Gn1 , v080
        .byte   W12
        .byte           N11   , Gn2 , v085
        .byte   W12
        .byte           N08   , Gn1 , v080
        .byte   W12
        .byte                   Gn1
        .byte   W12
        .byte           N11   , Gn2 , v085
        .byte   W12
        .byte           N08   , Gn1 , v080
        .byte   W12
        .byte           N11   , Gn2 , v085
        .byte   W12
        .byte           N08   , Gn1 , v080
        .byte   W12
        .byte   PEND
@ 046   ----------------------------------------
        .byte   PATT
         .word  BATTLE_WIRELESS_0000_2_42
@ 047   ----------------------------------------
        .byte   PATT
         .word  BATTLE_WIRELESS_0000_2_43
@ 048   ----------------------------------------
BATTLE_WIRELESS_0000_2_48:
        .byte           N11   , Gn2 , v085
        .byte   W12
        .byte           N08   , Gn1 , v080
        .byte   W12
        .byte                   Gn1
        .byte   W12
        .byte           N11   , Gn2 , v085
        .byte   W12
        .byte           N08   , Gn1 , v080
        .byte   W12
        .byte                   Gn1
        .byte   W12
        .byte           N11   , Gn2 , v085
        .byte   W12
        .byte           N08   , Gn1 , v080
        .byte   W12
        .byte   PEND
@ 049   ----------------------------------------
        .byte   PATT
         .word  BATTLE_WIRELESS_0000_2_45
@ 050   ----------------------------------------
        .byte   PATT
         .word  BATTLE_WIRELESS_0000_2_42
@ 051   ----------------------------------------
        .byte   PATT
         .word  BATTLE_WIRELESS_0000_2_43
@ 052   ----------------------------------------
        .byte   PATT
         .word  BATTLE_WIRELESS_0000_2_8
@ 053   ----------------------------------------
        .byte   PATT
         .word  BATTLE_WIRELESS_0000_2_45
@ 054   ----------------------------------------
        .byte   PATT
         .word  BATTLE_WIRELESS_0000_2_42
@ 055   ----------------------------------------
        .byte   PATT
         .word  BATTLE_WIRELESS_0000_2_43
@ 056   ----------------------------------------
BATTLE_WIRELESS_0000_2_56:
        .byte           N11   , Fn2 , v085
        .byte   W12
        .byte           N08   , Fn1 , v080
        .byte   W12
        .byte                   Fn1
        .byte   W12
        .byte           N11   , Fn2 , v085
        .byte   W12
        .byte           N08   , Fn1 , v080
        .byte   W12
        .byte                   Fn1
        .byte   W12
        .byte           N11   , Fn2 , v085
        .byte   W12
        .byte           N08   , Fn1 , v080
        .byte   W12
        .byte   PEND
@ 057   ----------------------------------------
BATTLE_WIRELESS_0000_2_57:
        .byte           N08   , Fn1 , v080
        .byte   W12
        .byte           N11   , Fn2 , v085
        .byte   W12
        .byte           N08   , Fn1 , v080
        .byte   W12
        .byte                   Fn1
        .byte   W12
        .byte           N11   , Fn2 , v085
        .byte   W12
        .byte           N08   , Fn1 , v080
        .byte   W12
        .byte           N11   , Fn2 , v085
        .byte   W12
        .byte           N08   , Fn1 , v080
        .byte   W12
        .byte   PEND
@ 058   ----------------------------------------
        .byte           TIE   , Cn2 , v085
        .byte   W96
@ 059   ----------------------------------------
        .byte   W96
@ 060   ----------------------------------------
        .byte   W92
        .byte   W03
        .byte           EOT
        .byte   W01
@ 061   ----------------------------------------
BATTLE_WIRELESS_0000_2_LOOP:
        .byte   W96
@ 062   ----------------------------------------
        .byte   PATT
         .word  BATTLE_WIRELESS_0000_2_8
@ 063   ----------------------------------------
        .byte   PATT
         .word  BATTLE_WIRELESS_0000_2_9
@ 064   ----------------------------------------
        .byte   PATT
         .word  BATTLE_WIRELESS_0000_2_8
@ 065   ----------------------------------------
        .byte   PATT
         .word  BATTLE_WIRELESS_0000_2_11
@ 066   ----------------------------------------
        .byte   PATT
         .word  BATTLE_WIRELESS_0000_2_12
@ 067   ----------------------------------------
        .byte   PATT
         .word  BATTLE_WIRELESS_0000_2_13
@ 068   ----------------------------------------
        .byte   PATT
         .word  BATTLE_WIRELESS_0000_2_12
@ 069   ----------------------------------------
        .byte   PATT
         .word  BATTLE_WIRELESS_0000_2_13
@ 070   ----------------------------------------
        .byte   PATT
         .word  BATTLE_WIRELESS_0000_2_8
@ 071   ----------------------------------------
        .byte   PATT
         .word  BATTLE_WIRELESS_0000_2_9
@ 072   ----------------------------------------
        .byte   PATT
         .word  BATTLE_WIRELESS_0000_2_8
@ 073   ----------------------------------------
        .byte   PATT
         .word  BATTLE_WIRELESS_0000_2_11
@ 074   ----------------------------------------
        .byte   PATT
         .word  BATTLE_WIRELESS_0000_2_12
@ 075   ----------------------------------------
        .byte   PATT
         .word  BATTLE_WIRELESS_0000_2_13
@ 076   ----------------------------------------
        .byte   PATT
         .word  BATTLE_WIRELESS_0000_2_12
@ 077   ----------------------------------------
        .byte   PATT
         .word  BATTLE_WIRELESS_0000_2_13
@ 078   ----------------------------------------
        .byte   PATT
         .word  BATTLE_WIRELESS_0000_2_24
@ 079   ----------------------------------------
        .byte   PATT
         .word  BATTLE_WIRELESS_0000_2_25
@ 080   ----------------------------------------
        .byte   PATT
         .word  BATTLE_WIRELESS_0000_2_26
@ 081   ----------------------------------------
        .byte   PATT
         .word  BATTLE_WIRELESS_0000_2_27
@ 082   ----------------------------------------
        .byte   PATT
         .word  BATTLE_WIRELESS_0000_2_28
@ 083   ----------------------------------------
        .byte   PATT
         .word  BATTLE_WIRELESS_0000_2_29
@ 084   ----------------------------------------
        .byte   PATT
         .word  BATTLE_WIRELESS_0000_2_26
@ 085   ----------------------------------------
        .byte   PATT
         .word  BATTLE_WIRELESS_0000_2_31
@ 086   ----------------------------------------
        .byte   PATT
         .word  BATTLE_WIRELESS_0000_2_24
@ 087   ----------------------------------------
        .byte   PATT
         .word  BATTLE_WIRELESS_0000_2_25
@ 088   ----------------------------------------
        .byte   PATT
         .word  BATTLE_WIRELESS_0000_2_26
@ 089   ----------------------------------------
        .byte   PATT
         .word  BATTLE_WIRELESS_0000_2_27
@ 090   ----------------------------------------
        .byte   PATT
         .word  BATTLE_WIRELESS_0000_2_28
@ 091   ----------------------------------------
        .byte   PATT
         .word  BATTLE_WIRELESS_0000_2_37
@ 092   ----------------------------------------
        .byte   PATT
         .word  BATTLE_WIRELESS_0000_2_38
@ 093   ----------------------------------------
        .byte   PATT
         .word  BATTLE_WIRELESS_0000_2_39
@ 094   ----------------------------------------
        .byte   PATT
         .word  BATTLE_WIRELESS_0000_2_40
@ 095   ----------------------------------------
        .byte           N11   , Dn2 , v087
        .byte   W96
@ 096   ----------------------------------------
        .byte   PATT
         .word  BATTLE_WIRELESS_0000_2_42
@ 097   ----------------------------------------
        .byte   PATT
         .word  BATTLE_WIRELESS_0000_2_43
@ 098   ----------------------------------------
        .byte   PATT
         .word  BATTLE_WIRELESS_0000_2_8
@ 099   ----------------------------------------
        .byte   PATT
         .word  BATTLE_WIRELESS_0000_2_45
@ 100   ----------------------------------------
        .byte   PATT
         .word  BATTLE_WIRELESS_0000_2_42
@ 101   ----------------------------------------
        .byte   PATT
         .word  BATTLE_WIRELESS_0000_2_43
@ 102   ----------------------------------------
        .byte   PATT
         .word  BATTLE_WIRELESS_0000_2_48
@ 103   ----------------------------------------
        .byte   PATT
         .word  BATTLE_WIRELESS_0000_2_45
@ 104   ----------------------------------------
        .byte   PATT
         .word  BATTLE_WIRELESS_0000_2_42
@ 105   ----------------------------------------
        .byte   PATT
         .word  BATTLE_WIRELESS_0000_2_43
@ 106   ----------------------------------------
        .byte   PATT
         .word  BATTLE_WIRELESS_0000_2_8
@ 107   ----------------------------------------
        .byte   PATT
         .word  BATTLE_WIRELESS_0000_2_45
@ 108   ----------------------------------------
        .byte   PATT
         .word  BATTLE_WIRELESS_0000_2_42
@ 109   ----------------------------------------
        .byte   PATT
         .word  BATTLE_WIRELESS_0000_2_43
@ 110   ----------------------------------------
        .byte   PATT
         .word  BATTLE_WIRELESS_0000_2_56
@ 111   ----------------------------------------
        .byte   PATT
         .word  BATTLE_WIRELESS_0000_2_57
@ 112   ----------------------------------------
        .byte           TIE   , Cn2 , v085
        .byte   W96
@ 113   ----------------------------------------
        .byte   W96
@ 114   ----------------------------------------
        .byte   W92
        .byte   W03
        .byte           EOT
        .byte   W01
@ 115   ----------------------------------------
        .byte           N11   , Dn2
        .byte   W12
        .byte           N08   , Dn1 , v080
        .byte   W12
        .byte                   Dn1
        .byte   W12
        .byte           N11   , Dn2 , v085
        .byte   W12
        .byte           N08   , Dn1 , v080
        .byte   W12
        .byte                   Dn1
        .byte   W12
        .byte           N11   , Dn2 , v085
        .byte   W12
        .byte                   Dn1 , v080
        .byte   W12
@ 116   ----------------------------------------
        .byte   PATT
         .word  BATTLE_WIRELESS_0000_2_48
@ 117   ----------------------------------------
        .byte   PATT
         .word  BATTLE_WIRELESS_0000_2_45
@ 118   ----------------------------------------
        .byte   PATT
         .word  BATTLE_WIRELESS_0000_2_48
@ 119   ----------------------------------------
        .byte   PATT
         .word  BATTLE_WIRELESS_0000_2_45
@ 120   ----------------------------------------
        .byte   PATT
         .word  BATTLE_WIRELESS_0000_2_48
@ 121   ----------------------------------------
        .byte   PATT
         .word  BATTLE_WIRELESS_0000_2_45
@ 122   ----------------------------------------
        .byte   PATT
         .word  BATTLE_WIRELESS_0000_2_48
@ 123   ----------------------------------------
BATTLE_WIRELESS_0000_2_123:
        .byte           N08   , Gn1 , v080
        .byte   W12
        .byte           N11   , Fn2 , v085
        .byte   W12
        .byte                   Ds2
        .byte   W12
        .byte                   Dn3
        .byte   W12
        .byte                   Cn3
        .byte   W12
        .byte                   As2
        .byte   W12
        .byte                   Cn3
        .byte   W12
        .byte                   Dn3
        .byte   W12
        .byte   PEND
@ 124   ----------------------------------------
        .byte   PATT
         .word  BATTLE_WIRELESS_0000_2_48
@ 125   ----------------------------------------
        .byte   PATT
         .word  BATTLE_WIRELESS_0000_2_45
@ 126   ----------------------------------------
        .byte   PATT
         .word  BATTLE_WIRELESS_0000_2_48
@ 127   ----------------------------------------
        .byte   PATT
         .word  BATTLE_WIRELESS_0000_2_45
@ 128   ----------------------------------------
        .byte   PATT
         .word  BATTLE_WIRELESS_0000_2_48
@ 129   ----------------------------------------
        .byte   PATT
         .word  BATTLE_WIRELESS_0000_2_45
@ 130   ----------------------------------------
        .byte   PATT
         .word  BATTLE_WIRELESS_0000_2_48
@ 131   ----------------------------------------
        .byte   PATT
         .word  BATTLE_WIRELESS_0000_2_123
@ 132   ----------------------------------------
        .byte   PATT
         .word  BATTLE_WIRELESS_0000_2_24
@ 133   ----------------------------------------
        .byte   PATT
         .word  BATTLE_WIRELESS_0000_2_25
@ 134   ----------------------------------------
        .byte   PATT
         .word  BATTLE_WIRELESS_0000_2_26
@ 135   ----------------------------------------
        .byte   PATT
         .word  BATTLE_WIRELESS_0000_2_27
@ 136   ----------------------------------------
        .byte   PATT
         .word  BATTLE_WIRELESS_0000_2_28
@ 137   ----------------------------------------
        .byte   PATT
         .word  BATTLE_WIRELESS_0000_2_29
@ 138   ----------------------------------------
        .byte   PATT
         .word  BATTLE_WIRELESS_0000_2_26
@ 139   ----------------------------------------
        .byte   PATT
         .word  BATTLE_WIRELESS_0000_2_31
@ 140   ----------------------------------------
        .byte   PATT
         .word  BATTLE_WIRELESS_0000_2_24
@ 141   ----------------------------------------
        .byte   PATT
         .word  BATTLE_WIRELESS_0000_2_25
@ 142   ----------------------------------------
        .byte   PATT
         .word  BATTLE_WIRELESS_0000_2_26
@ 143   ----------------------------------------
        .byte   PATT
         .word  BATTLE_WIRELESS_0000_2_27
@ 144   ----------------------------------------
        .byte   PATT
         .word  BATTLE_WIRELESS_0000_2_28
@ 145   ----------------------------------------
        .byte   PATT
         .word  BATTLE_WIRELESS_0000_2_37
@ 146   ----------------------------------------
        .byte   PATT
         .word  BATTLE_WIRELESS_0000_2_38
@ 147   ----------------------------------------
        .byte   PATT
         .word  BATTLE_WIRELESS_0000_2_39
@ 148   ----------------------------------------
        .byte   PATT
         .word  BATTLE_WIRELESS_0000_2_40
@ 149   ----------------------------------------
        .byte           N11   , Dn2 , v087
        .byte   W96
@ 150   ----------------------------------------
        .byte   PATT
         .word  BATTLE_WIRELESS_0000_2_42
@ 151   ----------------------------------------
        .byte   PATT
         .word  BATTLE_WIRELESS_0000_2_43
@ 152   ----------------------------------------
        .byte   PATT
         .word  BATTLE_WIRELESS_0000_2_8
@ 153   ----------------------------------------
        .byte   PATT
         .word  BATTLE_WIRELESS_0000_2_45
@ 154   ----------------------------------------
        .byte   PATT
         .word  BATTLE_WIRELESS_0000_2_42
@ 155   ----------------------------------------
        .byte   PATT
         .word  BATTLE_WIRELESS_0000_2_43
@ 156   ----------------------------------------
        .byte   PATT
         .word  BATTLE_WIRELESS_0000_2_48
@ 157   ----------------------------------------
        .byte   PATT
         .word  BATTLE_WIRELESS_0000_2_45
@ 158   ----------------------------------------
        .byte   PATT
         .word  BATTLE_WIRELESS_0000_2_42
@ 159   ----------------------------------------
        .byte   PATT
         .word  BATTLE_WIRELESS_0000_2_43
@ 160   ----------------------------------------
        .byte   PATT
         .word  BATTLE_WIRELESS_0000_2_8
@ 161   ----------------------------------------
        .byte   PATT
         .word  BATTLE_WIRELESS_0000_2_45
@ 162   ----------------------------------------
        .byte   PATT
         .word  BATTLE_WIRELESS_0000_2_42
@ 163   ----------------------------------------
        .byte   PATT
         .word  BATTLE_WIRELESS_0000_2_43
@ 164   ----------------------------------------
        .byte   PATT
         .word  BATTLE_WIRELESS_0000_2_56
@ 165   ----------------------------------------
        .byte   PATT
         .word  BATTLE_WIRELESS_0000_2_57
@ 166   ----------------------------------------
        .byte           TIE   , Cn2 , v085
        .byte   W96
@ 167   ----------------------------------------
        .byte   W96
@ 168   ----------------------------------------
        .byte   W92
        .byte   W03
        .byte           EOT
        .byte   W01
@ 169   ----------------------------------------
        .byte   GOTO
         .word  BATTLE_WIRELESS_0000_2_LOOP
        .byte   W92
        .byte   W03
        .byte   FINE

@****************** Track 3 (Midi-Chn.3) ******************@

BATTLE_WIRELESS_0000_3:
        .byte   KEYSH , BATTLE_WIRELESS_0000_key+0
@ 000   ----------------------------------------
        .byte           VOICE , 97
        .byte           VOL   , 33
        .byte           TIE   , Dn1 , v058
        .byte           TIE   , Dn2 , v064
        .byte           N11   , Dn3 , v075
        .byte   W12
        .byte                   En3 , v056
        .byte   W12
        .byte                   Fn3
        .byte   W12
        .byte                   Dn3 , v067
        .byte   W12
        .byte                   En3 , v054
        .byte   W12
        .byte                   Fn3 , v061
        .byte   W12
        .byte                   Dn3 , v068
        .byte   W12
        .byte                   En3 , v051
        .byte   W12
@ 001   ----------------------------------------
BATTLE_WIRELESS_0000_3_1:
        .byte           N11   , Fn3 , v058
        .byte   W12
        .byte                   Dn3 , v073
        .byte   W12
        .byte                   En3 , v050
        .byte   W12
        .byte                   Fn3 , v055
        .byte   W12
        .byte                   Dn3 , v075
        .byte   W12
        .byte                   En3 , v050
        .byte   W12
        .byte                   Fn3 , v057
        .byte   W12
        .byte                   Dn3 , v055
        .byte   W12
        .byte   PEND
@ 002   ----------------------------------------
BATTLE_WIRELESS_0000_3_2:
        .byte           N11   , Dn3 , v075
        .byte   W12
        .byte                   En3 , v056
        .byte   W12
        .byte                   Fn3
        .byte   W12
        .byte                   Dn3 , v067
        .byte   W12
        .byte                   En3 , v046
        .byte   W12
        .byte                   Fn3 , v061
        .byte   W12
        .byte                   Dn3 , v068
        .byte   W12
        .byte                   En3 , v051
        .byte   W12
        .byte   PEND
@ 003   ----------------------------------------
        .byte                   Fn3 , v058
        .byte   W12
        .byte                   Dn3 , v073
        .byte   W12
        .byte                   En3 , v050
        .byte   W12
        .byte                   Fn3 , v055
        .byte   W12
        .byte                   Dn3 , v075
        .byte   W12
        .byte                   En3 , v050
        .byte   W12
        .byte                   Fn3 , v057
        .byte   W12
        .byte                   Dn3
        .byte   W11
        .byte           EOT   , Dn1
        .byte                   Dn2
        .byte   W01
@ 004   ----------------------------------------
        .byte           TIE   , As0 , v058
        .byte           TIE   , As1 , v064
        .byte           N11   , Dn3 , v075
        .byte   W12
        .byte                   En3 , v056
        .byte   W12
        .byte                   Fn3
        .byte   W12
        .byte                   Dn3 , v067
        .byte   W12
        .byte                   En3 , v054
        .byte   W12
        .byte                   Fn3 , v061
        .byte   W12
        .byte                   Dn3 , v068
        .byte   W12
        .byte                   En3 , v051
        .byte   W12
@ 005   ----------------------------------------
        .byte   PATT
         .word  BATTLE_WIRELESS_0000_3_1
@ 006   ----------------------------------------
        .byte   PATT
         .word  BATTLE_WIRELESS_0000_3_2
@ 007   ----------------------------------------
        .byte           N11   , Fn3 , v058
        .byte   W12
        .byte                   Dn3 , v073
        .byte   W12
        .byte                   En3 , v050
        .byte   W12
        .byte                   Fn3 , v055
        .byte   W12
        .byte                   Dn3 , v075
        .byte   W12
        .byte                   En3 , v050
        .byte   W12
        .byte                   Fn3 , v057
        .byte   W12
        .byte                   Dn3
        .byte   W11
        .byte           EOT   , As0
        .byte                   As1
        .byte   W01
@ 008   ----------------------------------------
BATTLE_WIRELESS_0000_3_8:
        .byte           TIE   , Dn2 , v064
        .byte           N11   , Dn3 , v075
        .byte   W12
        .byte                   En3 , v056
        .byte   W12
        .byte                   Fn3
        .byte   W12
        .byte                   Dn3 , v067
        .byte   W12
        .byte                   En3 , v054
        .byte   W12
        .byte                   Fn3 , v061
        .byte   W12
        .byte                   Dn3 , v068
        .byte   W12
        .byte                   En3 , v051
        .byte   W12
        .byte   PEND
@ 009   ----------------------------------------
        .byte   PATT
         .word  BATTLE_WIRELESS_0000_3_1
@ 010   ----------------------------------------
        .byte   PATT
         .word  BATTLE_WIRELESS_0000_3_2
@ 011   ----------------------------------------
BATTLE_WIRELESS_0000_3_11:
        .byte           N11   , Fn3 , v058
        .byte   W12
        .byte                   Dn3 , v073
        .byte   W12
        .byte                   En3 , v050
        .byte   W12
        .byte                   Fn3 , v055
        .byte   W12
        .byte                   Cn3 , v075
        .byte   W12
        .byte                   En3 , v050
        .byte   W12
        .byte                   Fn3 , v057
        .byte   W12
        .byte                   Cn3
        .byte   W11
        .byte           EOT   , Dn2
        .byte   W01
        .byte   PEND
@ 012   ----------------------------------------
BATTLE_WIRELESS_0000_3_12:
        .byte           TIE   , As1 , v064
        .byte           N11   , Dn3 , v075
        .byte   W12
        .byte                   En3 , v056
        .byte   W12
        .byte                   Fn3
        .byte   W12
        .byte                   Dn3 , v067
        .byte   W12
        .byte                   En3 , v054
        .byte   W12
        .byte                   Fn3 , v061
        .byte   W12
        .byte                   Dn3 , v068
        .byte   W12
        .byte                   En3 , v051
        .byte   W12
        .byte   PEND
@ 013   ----------------------------------------
        .byte   PATT
         .word  BATTLE_WIRELESS_0000_3_1
@ 014   ----------------------------------------
        .byte   PATT
         .word  BATTLE_WIRELESS_0000_3_2
@ 015   ----------------------------------------
BATTLE_WIRELESS_0000_3_15:
        .byte           N11   , Fn3 , v058
        .byte   W12
        .byte                   Dn3 , v073
        .byte   W12
        .byte                   En3 , v050
        .byte   W12
        .byte                   Fn3 , v055
        .byte   W12
        .byte                   Dn3 , v075
        .byte   W12
        .byte                   En3 , v050
        .byte   W12
        .byte                   Fn3 , v057
        .byte   W12
        .byte                   Dn3
        .byte   W11
        .byte           EOT   , As1
        .byte   W01
        .byte   PEND
@ 016   ----------------------------------------
        .byte   PATT
         .word  BATTLE_WIRELESS_0000_3_8
@ 017   ----------------------------------------
        .byte   PATT
         .word  BATTLE_WIRELESS_0000_3_1
@ 018   ----------------------------------------
        .byte   PATT
         .word  BATTLE_WIRELESS_0000_3_2
@ 019   ----------------------------------------
        .byte   PATT
         .word  BATTLE_WIRELESS_0000_3_11
@ 020   ----------------------------------------
        .byte   PATT
         .word  BATTLE_WIRELESS_0000_3_12
@ 021   ----------------------------------------
        .byte   PATT
         .word  BATTLE_WIRELESS_0000_3_1
@ 022   ----------------------------------------
        .byte   PATT
         .word  BATTLE_WIRELESS_0000_3_2
@ 023   ----------------------------------------
        .byte   PATT
         .word  BATTLE_WIRELESS_0000_3_15
@ 024   ----------------------------------------
BATTLE_WIRELESS_0000_3_24:
        .byte           N56   , Ds2 , v064 , gtp3
        .byte   W60
        .byte           N11   , As2
        .byte   W12
        .byte                   Ds3
        .byte   W12
        .byte                   As2
        .byte   W12
        .byte   PEND
@ 025   ----------------------------------------
BATTLE_WIRELESS_0000_3_25:
        .byte           N32   , En2 , v064 , gtp3
        .byte   W36
        .byte                   En2
        .byte   W36
        .byte           N23
        .byte   W24
        .byte   PEND
@ 026   ----------------------------------------
BATTLE_WIRELESS_0000_3_26:
        .byte           N56   , Fn2 , v064 , gtp3
        .byte   W60
        .byte           N11   , Cn3
        .byte   W12
        .byte                   Fn3
        .byte   W12
        .byte                   Cn3
        .byte   W12
        .byte   PEND
@ 027   ----------------------------------------
BATTLE_WIRELESS_0000_3_27:
        .byte           N32   , Fs2 , v064 , gtp3
        .byte   W36
        .byte                   Fs2
        .byte   W36
        .byte           N23
        .byte   W24
        .byte   PEND
@ 028   ----------------------------------------
BATTLE_WIRELESS_0000_3_28:
        .byte           N56   , Gn2 , v064 , gtp3
        .byte   W60
        .byte           N11   , Dn3
        .byte   W12
        .byte                   Gn3
        .byte   W12
        .byte                   Dn3
        .byte   W12
        .byte   PEND
@ 029   ----------------------------------------
BATTLE_WIRELESS_0000_3_29:
        .byte           N32   , Gs2 , v064 , gtp3
        .byte   W36
        .byte                   Gs2
        .byte   W36
        .byte           N23
        .byte   W24
        .byte   PEND
@ 030   ----------------------------------------
        .byte   PATT
         .word  BATTLE_WIRELESS_0000_3_26
@ 031   ----------------------------------------
BATTLE_WIRELESS_0000_3_31:
        .byte           N11   , Gn2 , v064
        .byte   W12
        .byte           N23   , Fn2
        .byte   W24
        .byte           N32   , Fn2 , v064 , gtp3
        .byte   W36
        .byte           N23
        .byte   W24
        .byte   PEND
@ 032   ----------------------------------------
BATTLE_WIRELESS_0000_3_32:
        .byte           N56   , Ds2 , v064 , gtp3
        .byte   W60
        .byte           N11   , As2
        .byte   W12
        .byte                   Ds2
        .byte   W12
        .byte                   As2
        .byte   W12
        .byte   PEND
@ 033   ----------------------------------------
        .byte   PATT
         .word  BATTLE_WIRELESS_0000_3_25
@ 034   ----------------------------------------
BATTLE_WIRELESS_0000_3_34:
        .byte           N56   , Fn2 , v064 , gtp3
        .byte   W60
        .byte           N11   , Cn3
        .byte   W12
        .byte                   Fn2
        .byte   W12
        .byte                   Cn3
        .byte   W12
        .byte   PEND
@ 035   ----------------------------------------
        .byte   PATT
         .word  BATTLE_WIRELESS_0000_3_27
@ 036   ----------------------------------------
BATTLE_WIRELESS_0000_3_36:
        .byte           N56   , Gn2 , v064 , gtp3
        .byte   W60
        .byte           N11   , Dn3
        .byte   W12
        .byte                   Gn2
        .byte   W12
        .byte                   Dn3
        .byte   W12
        .byte   PEND
@ 037   ----------------------------------------
BATTLE_WIRELESS_0000_3_37:
        .byte           N32   , Gs2 , v064 , gtp3
        .byte   W36
        .byte                   Cn3
        .byte   W36
        .byte           N23   , Gs2
        .byte   W24
        .byte   PEND
@ 038   ----------------------------------------
BATTLE_WIRELESS_0000_3_38:
        .byte           N32   , Fn2 , v064 , gtp3
        .byte   W36
        .byte                   An2
        .byte   W36
        .byte           N23   , Cn3
        .byte   W24
        .byte   PEND
@ 039   ----------------------------------------
BATTLE_WIRELESS_0000_3_39:
        .byte           N32   , Fn2 , v064 , gtp3
        .byte   W36
        .byte                   Fn2
        .byte   W36
        .byte           N11   , An2
        .byte   W12
        .byte                   Cn3
        .byte   W12
        .byte   PEND
@ 040   ----------------------------------------
BATTLE_WIRELESS_0000_3_40:
        .byte           N32   , Dn3 , v064 , gtp3
        .byte   W36
        .byte                   Cn3
        .byte   W36
        .byte           N23   , Fn3
        .byte   W24
        .byte   PEND
@ 041   ----------------------------------------
        .byte           N11   , Dn3
        .byte   W96
@ 042   ----------------------------------------
BATTLE_WIRELESS_0000_3_42:
        .byte           N11   , Gn3 , v075
        .byte   W12
        .byte                   Ds3 , v056
        .byte   W12
        .byte                   Gn3
        .byte   W12
        .byte                   Gn3 , v067
        .byte   W12
        .byte                   Ds3 , v054
        .byte   W12
        .byte                   Ds3 , v061
        .byte   W12
        .byte                   Gn3 , v068
        .byte   W12
        .byte                   Ds3 , v051
        .byte   W12
        .byte   PEND
@ 043   ----------------------------------------
BATTLE_WIRELESS_0000_3_43:
        .byte           N11   , Ds3 , v056
        .byte   W12
        .byte                   Gn3 , v075
        .byte   W12
        .byte                   Ds3 , v056
        .byte   W12
        .byte                   Ds3 , v054
        .byte   W12
        .byte                   Gn3 , v067
        .byte   W12
        .byte                   Ds3 , v061
        .byte   W12
        .byte                   As3 , v068
        .byte   W12
        .byte                   Ds3 , v051
        .byte   W12
        .byte   PEND
@ 044   ----------------------------------------
BATTLE_WIRELESS_0000_3_44:
        .byte           N11   , Fn3 , v075
        .byte   W12
        .byte                   Dn3 , v056
        .byte   W12
        .byte                   Fn3
        .byte   W12
        .byte                   Fn3 , v067
        .byte   W12
        .byte                   Dn3 , v054
        .byte   W12
        .byte                   Dn3 , v061
        .byte   W12
        .byte                   Fn3 , v068
        .byte   W12
        .byte                   Dn3 , v051
        .byte   W12
        .byte   PEND
@ 045   ----------------------------------------
BATTLE_WIRELESS_0000_3_45:
        .byte           N11   , Dn3 , v056
        .byte   W12
        .byte                   Gn3 , v075
        .byte   W12
        .byte                   Dn3 , v056
        .byte   W12
        .byte                   Dn3 , v054
        .byte   W12
        .byte                   Gn3 , v067
        .byte   W12
        .byte                   Dn3 , v061
        .byte   W12
        .byte                   As3 , v068
        .byte   W12
        .byte                   Dn3 , v051
        .byte   W12
        .byte   PEND
@ 046   ----------------------------------------
        .byte   PATT
         .word  BATTLE_WIRELESS_0000_3_42
@ 047   ----------------------------------------
BATTLE_WIRELESS_0000_3_47:
        .byte           N11   , Ds3 , v056
        .byte   W12
        .byte                   Gn3 , v075
        .byte   W12
        .byte                   Ds3 , v056
        .byte   W12
        .byte                   Ds3 , v054
        .byte   W12
        .byte                   Gn3 , v067
        .byte   W12
        .byte                   Ds3 , v061
        .byte   W12
        .byte                   Gn3 , v068
        .byte   W12
        .byte                   Ds3 , v051
        .byte   W12
        .byte   PEND
@ 048   ----------------------------------------
BATTLE_WIRELESS_0000_3_48:
        .byte           N11   , Fn3 , v075
        .byte   W12
        .byte                   Dn3 , v056
        .byte   W12
        .byte                   Fn3
        .byte   W12
        .byte                   Gn3 , v067
        .byte   W12
        .byte                   Dn3 , v054
        .byte   W12
        .byte                   Dn3 , v061
        .byte   W12
        .byte                   Gn3 , v068
        .byte   W12
        .byte                   Dn3 , v051
        .byte   W12
        .byte   PEND
@ 049   ----------------------------------------
BATTLE_WIRELESS_0000_3_49:
        .byte           N11   , Dn3 , v056
        .byte   W12
        .byte                   Gn3 , v075
        .byte   W12
        .byte                   Dn3 , v056
        .byte   W12
        .byte                   Dn3 , v054
        .byte   W12
        .byte                   Gn3 , v067
        .byte   W12
        .byte                   Dn3 , v061
        .byte   W12
        .byte                   Gn3 , v068
        .byte   W12
        .byte                   Dn3 , v051
        .byte   W12
        .byte   PEND
@ 050   ----------------------------------------
        .byte   PATT
         .word  BATTLE_WIRELESS_0000_3_42
@ 051   ----------------------------------------
        .byte   PATT
         .word  BATTLE_WIRELESS_0000_3_43
@ 052   ----------------------------------------
        .byte   PATT
         .word  BATTLE_WIRELESS_0000_3_44
@ 053   ----------------------------------------
BATTLE_WIRELESS_0000_3_53:
        .byte           N11   , Dn3 , v056
        .byte   W12
        .byte                   Gn3 , v075
        .byte   W12
        .byte                   Dn3 , v056
        .byte   W12
        .byte                   Dn3 , v054
        .byte   W12
        .byte                   Gn3 , v067
        .byte   W12
        .byte                   An3 , v061
        .byte   W12
        .byte                   Gn3
        .byte   W12
        .byte                   Fn3 , v051
        .byte   W12
        .byte   PEND
@ 054   ----------------------------------------
BATTLE_WIRELESS_0000_3_54:
        .byte           N11   , Gn3 , v066
        .byte   W12
        .byte           N44   , Ds3 , v052 , gtp3
        .byte   W12
        .byte           N68   , Gn3 , v060 , gtp2
        .byte   W12
        .byte           N32   , Cn4 , v065 , gtp3
        .byte   W36
        .byte           N23   , As3 , v060
        .byte   W24
        .byte   PEND
@ 055   ----------------------------------------
BATTLE_WIRELESS_0000_3_55:
        .byte           N23   , Gn3 , v066
        .byte   W12
        .byte           N44   , Ds3 , v052 , gtp3
        .byte   W12
        .byte           N68   , Gn3 , v060 , gtp2
        .byte   W12
        .byte           N32   , Cn4 , v065 , gtp3
        .byte   W36
        .byte           N23   , As3 , v060
        .byte   W24
        .byte   PEND
@ 056   ----------------------------------------
BATTLE_WIRELESS_0000_3_56:
        .byte           N23   , Gn3 , v066
        .byte   W12
        .byte           N44   , Fn3 , v052 , gtp3
        .byte   W12
        .byte           N68   , Gn3 , v060 , gtp2
        .byte   W12
        .byte           N32   , Cn4 , v065 , gtp3
        .byte   W36
        .byte           N23   , As3 , v060
        .byte   W24
        .byte   PEND
@ 057   ----------------------------------------
        .byte   PATT
         .word  BATTLE_WIRELESS_0000_3_56
@ 058   ----------------------------------------
        .byte   PATT
         .word  BATTLE_WIRELESS_0000_3_56
@ 059   ----------------------------------------
        .byte   PATT
         .word  BATTLE_WIRELESS_0000_3_56
@ 060   ----------------------------------------
        .byte           N23   , Gn3 , v049
        .byte   W12
        .byte           N44   , Fn3 , v035 , gtp3
        .byte   W12
        .byte           N68   , Gn3 , v043 , gtp2
        .byte   W12
        .byte           N32   , Cn4 , v048 , gtp3
        .byte   W36
        .byte           N23   , As3 , v043
        .byte   W24
@ 061   ----------------------------------------
BATTLE_WIRELESS_0000_3_LOOP:
        .byte           N23   , Gn3 , v027
        .byte   W12
        .byte           N44   , Fn3 , v013 , gtp3
        .byte   W12
        .byte           N68   , Gn3 , v021 , gtp2
        .byte   W12
        .byte           N32   , Cn4 , v026 , gtp3
        .byte   W36
        .byte           N23   , As3 , v021
        .byte   W24
@ 062   ----------------------------------------
        .byte           TIE   , Dn2 , v064
        .byte   W96
@ 063   ----------------------------------------
        .byte   W96
@ 064   ----------------------------------------
        .byte   W96
@ 065   ----------------------------------------
        .byte   W92
        .byte   W03
        .byte           EOT
        .byte   W01
@ 066   ----------------------------------------
        .byte           TIE   , As1
        .byte   W96
@ 067   ----------------------------------------
        .byte   W96
@ 068   ----------------------------------------
        .byte   W96
@ 069   ----------------------------------------
        .byte   W92
        .byte   W03
        .byte           EOT
        .byte   W01
@ 070   ----------------------------------------
        .byte           TIE   , Dn2
        .byte   W96
@ 071   ----------------------------------------
        .byte   W96
@ 072   ----------------------------------------
        .byte   W96
@ 073   ----------------------------------------
        .byte   W92
        .byte   W03
        .byte           EOT
        .byte   W01
@ 074   ----------------------------------------
        .byte           TIE   , As1
        .byte   W96
@ 075   ----------------------------------------
        .byte   W96
@ 076   ----------------------------------------
        .byte   W96
@ 077   ----------------------------------------
        .byte   W92
        .byte   W03
        .byte           EOT
        .byte   W01
@ 078   ----------------------------------------
        .byte   PATT
         .word  BATTLE_WIRELESS_0000_3_24
@ 079   ----------------------------------------
        .byte   PATT
         .word  BATTLE_WIRELESS_0000_3_25
@ 080   ----------------------------------------
        .byte   PATT
         .word  BATTLE_WIRELESS_0000_3_26
@ 081   ----------------------------------------
        .byte   PATT
         .word  BATTLE_WIRELESS_0000_3_27
@ 082   ----------------------------------------
        .byte   PATT
         .word  BATTLE_WIRELESS_0000_3_28
@ 083   ----------------------------------------
        .byte   PATT
         .word  BATTLE_WIRELESS_0000_3_29
@ 084   ----------------------------------------
        .byte   PATT
         .word  BATTLE_WIRELESS_0000_3_26
@ 085   ----------------------------------------
        .byte   PATT
         .word  BATTLE_WIRELESS_0000_3_31
@ 086   ----------------------------------------
        .byte   PATT
         .word  BATTLE_WIRELESS_0000_3_32
@ 087   ----------------------------------------
        .byte   PATT
         .word  BATTLE_WIRELESS_0000_3_25
@ 088   ----------------------------------------
        .byte   PATT
         .word  BATTLE_WIRELESS_0000_3_34
@ 089   ----------------------------------------
        .byte   PATT
         .word  BATTLE_WIRELESS_0000_3_27
@ 090   ----------------------------------------
        .byte   PATT
         .word  BATTLE_WIRELESS_0000_3_36
@ 091   ----------------------------------------
        .byte   PATT
         .word  BATTLE_WIRELESS_0000_3_37
@ 092   ----------------------------------------
        .byte   PATT
         .word  BATTLE_WIRELESS_0000_3_38
@ 093   ----------------------------------------
        .byte   PATT
         .word  BATTLE_WIRELESS_0000_3_39
@ 094   ----------------------------------------
        .byte   PATT
         .word  BATTLE_WIRELESS_0000_3_40
@ 095   ----------------------------------------
        .byte           N11   , Dn3 , v064
        .byte   W96
@ 096   ----------------------------------------
        .byte   PATT
         .word  BATTLE_WIRELESS_0000_3_42
@ 097   ----------------------------------------
        .byte   PATT
         .word  BATTLE_WIRELESS_0000_3_43
@ 098   ----------------------------------------
        .byte   PATT
         .word  BATTLE_WIRELESS_0000_3_44
@ 099   ----------------------------------------
        .byte   PATT
         .word  BATTLE_WIRELESS_0000_3_45
@ 100   ----------------------------------------
        .byte   PATT
         .word  BATTLE_WIRELESS_0000_3_42
@ 101   ----------------------------------------
        .byte   PATT
         .word  BATTLE_WIRELESS_0000_3_47
@ 102   ----------------------------------------
        .byte   PATT
         .word  BATTLE_WIRELESS_0000_3_48
@ 103   ----------------------------------------
        .byte   PATT
         .word  BATTLE_WIRELESS_0000_3_49
@ 104   ----------------------------------------
        .byte   PATT
         .word  BATTLE_WIRELESS_0000_3_42
@ 105   ----------------------------------------
        .byte   PATT
         .word  BATTLE_WIRELESS_0000_3_43
@ 106   ----------------------------------------
        .byte   PATT
         .word  BATTLE_WIRELESS_0000_3_44
@ 107   ----------------------------------------
        .byte   PATT
         .word  BATTLE_WIRELESS_0000_3_53
@ 108   ----------------------------------------
        .byte   PATT
         .word  BATTLE_WIRELESS_0000_3_54
@ 109   ----------------------------------------
        .byte   PATT
         .word  BATTLE_WIRELESS_0000_3_55
@ 110   ----------------------------------------
        .byte   PATT
         .word  BATTLE_WIRELESS_0000_3_56
@ 111   ----------------------------------------
        .byte   PATT
         .word  BATTLE_WIRELESS_0000_3_56
@ 112   ----------------------------------------
        .byte   PATT
         .word  BATTLE_WIRELESS_0000_3_56
@ 113   ----------------------------------------
        .byte   PATT
         .word  BATTLE_WIRELESS_0000_3_56
@ 114   ----------------------------------------
        .byte   PATT
         .word  BATTLE_WIRELESS_0000_3_56
@ 115   ----------------------------------------
        .byte   W02
        .byte           N14   , Gn2 , v045
        .byte   W12
        .byte                   Fn2 , v067
        .byte   W10
        .byte           N12   , Gn2 , v065
        .byte   W11
        .byte           N24   , Cn3 , v061
        .byte   W24
        .byte   W01
        .byte           N13   , As2 , v058
        .byte   W11
        .byte           N20   , Fn2 , v044
        .byte   W24
        .byte   W01
@ 116   ----------------------------------------
BATTLE_WIRELESS_0000_3_116:
        .byte           TIE   , Gn2 , v060
        .byte           TIE   , Dn3 , v058
        .byte           N11   , Gn3 , v062
        .byte   W12
        .byte                   Fn3 , v054
        .byte   W12
        .byte           N13   , As3
        .byte   W13
        .byte           N12   , Gn3 , v062
        .byte   W12
        .byte                   Fn3 , v054
        .byte   W12
        .byte           N13   , As3
        .byte   W11
        .byte           N11   , Gn3 , v062
        .byte   W12
        .byte                   Fn3 , v054
        .byte   W12
        .byte   PEND
@ 117   ----------------------------------------
BATTLE_WIRELESS_0000_3_117:
        .byte           N13   , As3 , v054
        .byte   W12
        .byte           N11   , Gn3 , v062
        .byte   W12
        .byte                   Fn3 , v054
        .byte   W12
        .byte           N13   , As3
        .byte   W12
        .byte           N11   , Gn3 , v062
        .byte   W12
        .byte                   Fn3 , v054
        .byte   W12
        .byte                   Cn4 , v058
        .byte   W13
        .byte           N10   , As3 , v064
        .byte   W04
        .byte           EOT   , Gn2
        .byte                   Dn3
        .byte   W07
        .byte   PEND
@ 118   ----------------------------------------
        .byte   PATT
         .word  BATTLE_WIRELESS_0000_3_116
@ 119   ----------------------------------------
        .byte   PATT
         .word  BATTLE_WIRELESS_0000_3_117
@ 120   ----------------------------------------
        .byte   PATT
         .word  BATTLE_WIRELESS_0000_3_116
@ 121   ----------------------------------------
        .byte   PATT
         .word  BATTLE_WIRELESS_0000_3_117
@ 122   ----------------------------------------
        .byte   PATT
         .word  BATTLE_WIRELESS_0000_3_116
@ 123   ----------------------------------------
BATTLE_WIRELESS_0000_3_123:
        .byte           N13   , As3 , v054
        .byte   W12
        .byte           N11   , Fn4 , v062
        .byte   W12
        .byte                   Ds4 , v054
        .byte   W12
        .byte           N13   , Dn4
        .byte   W12
        .byte           N11   , Cn4 , v062
        .byte   W12
        .byte                   As3 , v054
        .byte   W12
        .byte                   Cn4 , v058
        .byte   W13
        .byte           N10   , Dn4 , v064
        .byte   W04
        .byte           EOT   , Gn2
        .byte                   Dn3
        .byte   W07
        .byte   PEND
@ 124   ----------------------------------------
        .byte   PATT
         .word  BATTLE_WIRELESS_0000_3_116
@ 125   ----------------------------------------
        .byte   PATT
         .word  BATTLE_WIRELESS_0000_3_117
@ 126   ----------------------------------------
        .byte   PATT
         .word  BATTLE_WIRELESS_0000_3_116
@ 127   ----------------------------------------
        .byte   PATT
         .word  BATTLE_WIRELESS_0000_3_117
@ 128   ----------------------------------------
        .byte   PATT
         .word  BATTLE_WIRELESS_0000_3_116
@ 129   ----------------------------------------
        .byte   PATT
         .word  BATTLE_WIRELESS_0000_3_117
@ 130   ----------------------------------------
        .byte   PATT
         .word  BATTLE_WIRELESS_0000_3_116
@ 131   ----------------------------------------
        .byte   PATT
         .word  BATTLE_WIRELESS_0000_3_123
@ 132   ----------------------------------------
        .byte   PATT
         .word  BATTLE_WIRELESS_0000_3_24
@ 133   ----------------------------------------
        .byte   PATT
         .word  BATTLE_WIRELESS_0000_3_25
@ 134   ----------------------------------------
        .byte   PATT
         .word  BATTLE_WIRELESS_0000_3_26
@ 135   ----------------------------------------
        .byte   PATT
         .word  BATTLE_WIRELESS_0000_3_27
@ 136   ----------------------------------------
        .byte   PATT
         .word  BATTLE_WIRELESS_0000_3_28
@ 137   ----------------------------------------
        .byte   PATT
         .word  BATTLE_WIRELESS_0000_3_29
@ 138   ----------------------------------------
        .byte   PATT
         .word  BATTLE_WIRELESS_0000_3_26
@ 139   ----------------------------------------
        .byte   PATT
         .word  BATTLE_WIRELESS_0000_3_31
@ 140   ----------------------------------------
        .byte   PATT
         .word  BATTLE_WIRELESS_0000_3_32
@ 141   ----------------------------------------
        .byte   PATT
         .word  BATTLE_WIRELESS_0000_3_25
@ 142   ----------------------------------------
        .byte   PATT
         .word  BATTLE_WIRELESS_0000_3_34
@ 143   ----------------------------------------
        .byte   PATT
         .word  BATTLE_WIRELESS_0000_3_27
@ 144   ----------------------------------------
        .byte   PATT
         .word  BATTLE_WIRELESS_0000_3_36
@ 145   ----------------------------------------
        .byte   PATT
         .word  BATTLE_WIRELESS_0000_3_37
@ 146   ----------------------------------------
        .byte   PATT
         .word  BATTLE_WIRELESS_0000_3_38
@ 147   ----------------------------------------
        .byte   PATT
         .word  BATTLE_WIRELESS_0000_3_39
@ 148   ----------------------------------------
        .byte   PATT
         .word  BATTLE_WIRELESS_0000_3_40
@ 149   ----------------------------------------
        .byte           N11   , Dn3 , v064
        .byte   W96
@ 150   ----------------------------------------
        .byte   PATT
         .word  BATTLE_WIRELESS_0000_3_42
@ 151   ----------------------------------------
        .byte   PATT
         .word  BATTLE_WIRELESS_0000_3_43
@ 152   ----------------------------------------
        .byte   PATT
         .word  BATTLE_WIRELESS_0000_3_44
@ 153   ----------------------------------------
        .byte   PATT
         .word  BATTLE_WIRELESS_0000_3_45
@ 154   ----------------------------------------
        .byte   PATT
         .word  BATTLE_WIRELESS_0000_3_42
@ 155   ----------------------------------------
        .byte   PATT
         .word  BATTLE_WIRELESS_0000_3_47
@ 156   ----------------------------------------
        .byte   PATT
         .word  BATTLE_WIRELESS_0000_3_48
@ 157   ----------------------------------------
        .byte   PATT
         .word  BATTLE_WIRELESS_0000_3_49
@ 158   ----------------------------------------
        .byte   PATT
         .word  BATTLE_WIRELESS_0000_3_42
@ 159   ----------------------------------------
        .byte   PATT
         .word  BATTLE_WIRELESS_0000_3_43
@ 160   ----------------------------------------
        .byte   PATT
         .word  BATTLE_WIRELESS_0000_3_44
@ 161   ----------------------------------------
        .byte   PATT
         .word  BATTLE_WIRELESS_0000_3_53
@ 162   ----------------------------------------
        .byte   PATT
         .word  BATTLE_WIRELESS_0000_3_54
@ 163   ----------------------------------------
        .byte   PATT
         .word  BATTLE_WIRELESS_0000_3_55
@ 164   ----------------------------------------
        .byte   PATT
         .word  BATTLE_WIRELESS_0000_3_56
@ 165   ----------------------------------------
        .byte   PATT
         .word  BATTLE_WIRELESS_0000_3_56
@ 166   ----------------------------------------
        .byte   PATT
         .word  BATTLE_WIRELESS_0000_3_56
@ 167   ----------------------------------------
        .byte   PATT
         .word  BATTLE_WIRELESS_0000_3_56
@ 168   ----------------------------------------
        .byte   PATT
         .word  BATTLE_WIRELESS_0000_3_56
@ 169   ----------------------------------------
        .byte           N23   , Gn3 , v026
        .byte   GOTO
         .word  BATTLE_WIRELESS_0000_3_LOOP
        .byte   W12
        .byte           N44   , Fn3 , v012 , gtp3
        .byte   W12
        .byte           N68   , Gn3 , v020 , gtp2
        .byte   W12
        .byte           N32   , Cn4 , v025 , gtp3
        .byte   W36
        .byte           N23   , As3 , v020
        .byte   W23
        .byte   FINE

@****************** Track 4 (Midi-Chn.4) ******************@

BATTLE_WIRELESS_0000_4:
        .byte   KEYSH , BATTLE_WIRELESS_0000_key+0
@ 000   ----------------------------------------
        .byte           VOICE , 57
        .byte           PAN   , c_v+23
        .byte           VOL   , 41
        .byte   W96
@ 001   ----------------------------------------
        .byte   W96
@ 002   ----------------------------------------
        .byte   W96
@ 003   ----------------------------------------
        .byte   W96
@ 004   ----------------------------------------
        .byte   W96
@ 005   ----------------------------------------
        .byte   W96
@ 006   ----------------------------------------
        .byte   W96
@ 007   ----------------------------------------
        .byte   W96
@ 008   ----------------------------------------
        .byte   W60
        .byte           N11   , An3 , v105
        .byte   W12
        .byte                   Gn3
        .byte   W12
        .byte                   Cn4
        .byte   W12
@ 009   ----------------------------------------
BATTLE_WIRELESS_0000_4_9:
        .byte           N32   , An3 , v105 , gtp3
        .byte   W12
        .byte           MOD   , 1
        .byte   W24
        .byte                   0
        .byte           N32   , Gn3 , v105 , gtp3
        .byte   W36
        .byte           N23   , An3
        .byte   W24
        .byte   PEND
@ 010   ----------------------------------------
BATTLE_WIRELESS_0000_4_10:
        .byte           N32   , Fn3 , v105 , gtp3
        .byte   W12
        .byte           MOD   , 1
        .byte   W24
        .byte                   0
        .byte           N32   , En3 , v105 , gtp3
        .byte   W36
        .byte                   Fn3
        .byte   W12
        .byte           MOD   , 1
        .byte   W12
        .byte   PEND
@ 011   ----------------------------------------
BATTLE_WIRELESS_0000_4_11:
        .byte   W12
        .byte           MOD   , 0
        .byte           N32   , En3 , v105 , gtp3
        .byte   W36
        .byte           N23   , Dn3
        .byte   W24
        .byte                   Cn3
        .byte   W24
        .byte   PEND
@ 012   ----------------------------------------
BATTLE_WIRELESS_0000_4_12:
        .byte           N28   , Cn3 , v105 , gtp1
        .byte   W12
        .byte           MOD   , 1
        .byte   W24
        .byte                   0
        .byte           N32   , Dn3 , v105 , gtp3
        .byte   W36
        .byte           TIE   , An2
        .byte   W24
        .byte   PEND
@ 013   ----------------------------------------
BATTLE_WIRELESS_0000_4_13:
        .byte   W30
        .byte           MOD   , 1
        .byte   W24
        .byte                   2
        .byte   W42
        .byte   PEND
@ 014   ----------------------------------------
        .byte   W92
        .byte   W03
        .byte           EOT   , An2
        .byte   W01
@ 015   ----------------------------------------
        .byte           N92   , An2 , v048 , gtp3
        .byte   W96
@ 016   ----------------------------------------
BATTLE_WIRELESS_0000_4_16:
        .byte   W48
        .byte           MOD   , 0
        .byte   W12
        .byte           N11   , An3 , v105
        .byte   W12
        .byte                   Gn3
        .byte   W12
        .byte                   Cn4
        .byte   W12
        .byte   PEND
@ 017   ----------------------------------------
BATTLE_WIRELESS_0000_4_17:
        .byte           N32   , An3 , v105 , gtp3
        .byte   W12
        .byte           MOD   , 1
        .byte   W23
        .byte                   0
        .byte   W01
        .byte           N32   , Gn3 , v105 , gtp3
        .byte   W36
        .byte           N23   , An3
        .byte   W24
        .byte   PEND
@ 018   ----------------------------------------
BATTLE_WIRELESS_0000_4_18:
        .byte           N32   , Fn3 , v105 , gtp3
        .byte   W12
        .byte           MOD   , 1
        .byte   W24
        .byte                   0
        .byte           N32   , En3 , v105 , gtp3
        .byte   W36
        .byte                   Fn3
        .byte   W24
        .byte   PEND
@ 019   ----------------------------------------
BATTLE_WIRELESS_0000_4_19:
        .byte   W12
        .byte           N32   , Dn3 , v105 , gtp3
        .byte   W36
        .byte           N23   , Gn3
        .byte   W24
        .byte                   An3
        .byte   W24
        .byte   PEND
@ 020   ----------------------------------------
BATTLE_WIRELESS_0000_4_20:
        .byte           N28   , Cn4 , v105 , gtp1
        .byte   W12
        .byte           MOD   , 1
        .byte   W23
        .byte                   0
        .byte   W01
        .byte           TIE   , Dn4
        .byte   W60
        .byte   PEND
@ 021   ----------------------------------------
        .byte           MOD   , 1
        .byte   W96
@ 022   ----------------------------------------
        .byte   W92
        .byte   W03
        .byte           EOT
        .byte   W01
@ 023   ----------------------------------------
        .byte           N68   , Dn4 , v046 , gtp3
        .byte   W96
@ 024   ----------------------------------------
BATTLE_WIRELESS_0000_4_24:
        .byte   W48
        .byte           MOD   , 0
        .byte   W10
        .byte           N03   , An3 , v112
        .byte   W02
        .byte           N11   , As3 , v105
        .byte   W12
        .byte           N13   , An3
        .byte   W12
        .byte           N07   , Gn3
        .byte   W12
        .byte   PEND
@ 025   ----------------------------------------
BATTLE_WIRELESS_0000_4_25:
        .byte           N32   , Gn3 , v105 , gtp3
        .byte   W12
        .byte           MOD   , 2
        .byte   W24
        .byte                   0
        .byte           N32   , Cn3 , v105 , gtp3
        .byte   W36
        .byte           N23   , Gn3
        .byte   W24
        .byte   PEND
@ 026   ----------------------------------------
BATTLE_WIRELESS_0000_4_26:
        .byte           N52   , An3 , v105 , gtp1
        .byte   W12
        .byte           MOD   , 2
        .byte   W48
        .byte                   0
        .byte           N11   , Cn3
        .byte   W12
        .byte                   Fn3
        .byte   W12
        .byte           N05   , An3
        .byte   W12
        .byte   PEND
@ 027   ----------------------------------------
BATTLE_WIRELESS_0000_4_27:
        .byte           N32   , An3 , v105 , gtp3
        .byte   W12
        .byte           MOD   , 2
        .byte   W24
        .byte                   0
        .byte           N36   , As3 , v105 , gtp3
        .byte   W36
        .byte           N24   , Cn4 , v105 , gtp2
        .byte   W24
        .byte   PEND
@ 028   ----------------------------------------
BATTLE_WIRELESS_0000_4_28:
        .byte           N44   , As3 , v105 , gtp3
        .byte   W12
        .byte           MOD   , 2
        .byte   W44
        .byte   W03
        .byte                   0
        .byte   W01
        .byte           N11   , Dn3
        .byte   W12
        .byte                   Gn3
        .byte   W12
        .byte                   As3
        .byte   W12
        .byte   PEND
@ 029   ----------------------------------------
BATTLE_WIRELESS_0000_4_29:
        .byte           N32   , Cn4 , v105 , gtp3
        .byte   W12
        .byte           MOD   , 2
        .byte   W24
        .byte                   0
        .byte           N32   , Gs3 , v105 , gtp3
        .byte   W36
        .byte           N14   , Ds3
        .byte   W22
        .byte           N01   , Fn3
        .byte   W02
        .byte   PEND
@ 030   ----------------------------------------
BATTLE_WIRELESS_0000_4_30:
        .byte           N32   , Gn3 , v105 , gtp3
        .byte   W12
        .byte           MOD   , 2
        .byte   W24
        .byte                   0
        .byte           TIE   , Fn3
        .byte   W42
        .byte           MOD   , 1
        .byte   W06
        .byte                   2
        .byte   W12
        .byte   PEND
@ 031   ----------------------------------------
        .byte   W64
        .byte   W01
        .byte           EOT
        .byte   W30
        .byte   W01
@ 032   ----------------------------------------
BATTLE_WIRELESS_0000_4_32:
        .byte   W48
        .byte           MOD   , 0
        .byte   W09
        .byte           N02   , An3 , v112
        .byte   W03
        .byte           N11   , As3 , v105
        .byte   W12
        .byte                   An3
        .byte   W12
        .byte           N05   , Gn3
        .byte   W12
        .byte   PEND
@ 033   ----------------------------------------
BATTLE_WIRELESS_0000_4_33:
        .byte           N32   , Gn3 , v105 , gtp3
        .byte   W12
        .byte           MOD   , 1
        .byte   W24
        .byte                   0
        .byte           N32   , Cn3 , v105 , gtp3
        .byte   W36
        .byte           N11   , Gn3
        .byte   W24
        .byte   PEND
@ 034   ----------------------------------------
BATTLE_WIRELESS_0000_4_34:
        .byte           N52   , An3 , v105 , gtp1
        .byte   W12
        .byte           MOD   , 1
        .byte   W42
        .byte                   0
        .byte   W06
        .byte           N11   , Cn3
        .byte   W12
        .byte                   Fn3
        .byte   W12
        .byte           N05   , An3
        .byte   W12
        .byte   PEND
@ 035   ----------------------------------------
BATTLE_WIRELESS_0000_4_35:
        .byte           N32   , An3 , v105 , gtp3
        .byte   W12
        .byte           MOD   , 1
        .byte   W24
        .byte                   0
        .byte           N32   , As3 , v105 , gtp3
        .byte   W36
        .byte           N23   , Cn4
        .byte   W24
        .byte   PEND
@ 036   ----------------------------------------
BATTLE_WIRELESS_0000_4_36:
        .byte           N32   , As3 , v105 , gtp3
        .byte   W12
        .byte           MOD   , 1
        .byte   W24
        .byte                   0
        .byte   W24
        .byte           N11
        .byte   W12
        .byte                   Cn4
        .byte   W12
        .byte                   Dn4
        .byte   W12
        .byte   PEND
@ 037   ----------------------------------------
BATTLE_WIRELESS_0000_4_37:
        .byte           N32   , Ds4 , v106 , gtp3
        .byte   W12
        .byte           MOD   , 1
        .byte   W24
        .byte                   0
        .byte           N32   , Dn4 , v108 , gtp3
        .byte   W36
        .byte           N11   , As3 , v105
        .byte   W22
        .byte           N07   , Cn4 , v096
        .byte   W02
        .byte   PEND
@ 038   ----------------------------------------
BATTLE_WIRELESS_0000_4_38:
        .byte   W02
        .byte           N32   , Dn4 , v108 , gtp3
        .byte   W10
        .byte           MOD   , 1
        .byte   W24
        .byte                   0
        .byte           TIE   , Cn4
        .byte   W36
        .byte           MOD   , 1
        .byte   W12
        .byte                   2
        .byte   W12
        .byte   PEND
@ 039   ----------------------------------------
BATTLE_WIRELESS_0000_4_39:
        .byte   W40
        .byte   W01
        .byte           EOT   , Cn4
        .byte   W19
        .byte           MOD   , 0
        .byte           N11   , Fn3 , v105
        .byte   W12
        .byte                   An3
        .byte   W12
        .byte                   Cn4
        .byte   W12
        .byte   PEND
@ 040   ----------------------------------------
BATTLE_WIRELESS_0000_4_40:
        .byte           N36   , Dn4 , v107
        .byte   W12
        .byte           MOD   , 1
        .byte   W24
        .byte                   0
        .byte           N30   , Cn4 , v107 , gtp1
        .byte   W32
        .byte   W01
        .byte           N03   , Ds4 , v105
        .byte   W03
        .byte           N24   , Fn4 , v102 , gtp1
        .byte   W24
        .byte   PEND
@ 041   ----------------------------------------
        .byte           N18   , Dn4 , v104
        .byte   W96
@ 042   ----------------------------------------
BATTLE_WIRELESS_0000_4_42:
        .byte           N03   , Cn4 , v090
        .byte   W03
        .byte           N68   , Dn4 , v105 , gtp3
        .byte   W15
        .byte           MOD   , 1
        .byte   W06
        .byte                   2
        .byte   W54
        .byte                   0
        .byte   W06
        .byte           N06   , Gn3 , v104
        .byte   W12
        .byte   PEND
@ 043   ----------------------------------------
BATTLE_WIRELESS_0000_4_43:
        .byte           N11   , Dn4 , v104
        .byte   W12
        .byte                   Cn4 , v105
        .byte   W12
        .byte                   As3 , v095
        .byte   W12
        .byte           N23   , An3 , v099
        .byte   W24
        .byte           N12   , As3
        .byte   W12
        .byte           N06   , Cn4 , v096
        .byte   W12
        .byte           N36   , Cn4 , v114
        .byte   W12
        .byte   PEND
@ 044   ----------------------------------------
BATTLE_WIRELESS_0000_4_44:
        .byte           MOD   , 1
        .byte   W24
        .byte                   0
        .byte           N21   , As3 , v100
        .byte   W24
        .byte           N24   , Cn4 , v102 , gtp2
        .byte   W24
        .byte           N17   , Fn4 , v117
        .byte   W24
        .byte   PEND
@ 045   ----------------------------------------
BATTLE_WIRELESS_0000_4_45:
        .byte           N32   , Fn4 , v105 , gtp3
        .byte   W12
        .byte           MOD   , 1
        .byte   W24
        .byte                   0
        .byte           N32   , Dn4 , v101 , gtp1
        .byte   W12
        .byte           MOD   , 1
        .byte   W24
        .byte                   0
        .byte   W20
        .byte           N03   , Cn4 , v081
        .byte   W03
        .byte           N28   , Dn4 , v108 , gtp1
        .byte   W01
        .byte   PEND
@ 046   ----------------------------------------
BATTLE_WIRELESS_0000_4_46:
        .byte   W18
        .byte           MOD   , 1
        .byte   W06
        .byte                   2
        .byte   W12
        .byte           N28   , Gn3 , v108 , gtp1
        .byte   W42
        .byte           MOD   , 0
        .byte   W06
        .byte           N05   , Gn3 , v110
        .byte   W12
        .byte   PEND
@ 047   ----------------------------------------
BATTLE_WIRELESS_0000_4_47:
        .byte           N11   , Dn4 , v099
        .byte   W12
        .byte                   Cn4 , v096
        .byte   W12
        .byte                   As3 , v097
        .byte   W12
        .byte           N17   , Cn4 , v104
        .byte   W24
        .byte           N05   , Cn4 , v102
        .byte   W12
        .byte           N11   , Fn4 , v103
        .byte   W12
        .byte                   Gn4 , v101
        .byte   W12
        .byte   PEND
@ 048   ----------------------------------------
BATTLE_WIRELESS_0000_4_48:
        .byte           N32   , An4 , v115 , gtp3
        .byte   W12
        .byte           MOD   , 1
        .byte   W24
        .byte                   0
        .byte           N32   , As4 , v101 , gtp3
        .byte   W12
        .byte           MOD   , 1
        .byte   W24
        .byte                   0
        .byte           TIE   , Gn4 , v106
        .byte   W18
        .byte           MOD   , 1
        .byte   W06
        .byte   PEND
@ 049   ----------------------------------------
BATTLE_WIRELESS_0000_4_49:
        .byte           MOD   , 2
        .byte   W88
        .byte   W01
        .byte           EOT   , Gn4
        .byte   W07
        .byte   PEND
@ 050   ----------------------------------------
BATTLE_WIRELESS_0000_4_50:
        .byte           MOD   , 0
        .byte           N03   , Cn4 , v090
        .byte   W03
        .byte           N68   , Dn4 , v105 , gtp3
        .byte   W09
        .byte           MOD   , 1
        .byte   W12
        .byte                   2
        .byte   W54
        .byte                   0
        .byte   W06
        .byte           N06   , Gn3 , v104
        .byte   W12
        .byte   PEND
@ 051   ----------------------------------------
BATTLE_WIRELESS_0000_4_51:
        .byte           N11   , Dn4 , v104
        .byte   W12
        .byte           N10   , Cn4 , v105
        .byte   W12
        .byte           N11   , As3 , v095
        .byte   W12
        .byte           N23   , An3 , v099
        .byte   W24
        .byte           N12   , As3
        .byte   W12
        .byte           N06   , Cn4 , v096
        .byte   W12
        .byte           N36   , Cn4 , v114
        .byte   W12
        .byte   PEND
@ 052   ----------------------------------------
BATTLE_WIRELESS_0000_4_52:
        .byte           MOD   , 1
        .byte   W24
        .byte                   0
        .byte           N21   , As3 , v100
        .byte   W24
        .byte           N23   , Cn4 , v102
        .byte   W24
        .byte           N17   , Fn4 , v117
        .byte   W24
        .byte   PEND
@ 053   ----------------------------------------
BATTLE_WIRELESS_0000_4_53:
        .byte           N32   , Fn4 , v105 , gtp3
        .byte   W12
        .byte           MOD   , 1
        .byte   W24
        .byte                   0
        .byte           N23   , Dn4 , v101
        .byte   W24
        .byte           N13   , Cn4 , v091
        .byte   W12
        .byte           N12   , As3 , v096
        .byte   W12
        .byte           N14   , An3
        .byte   W12
        .byte   PEND
@ 054   ----------------------------------------
BATTLE_WIRELESS_0000_4_54:
        .byte           N32   , Gn3 , v112 , gtp2
        .byte   W36
        .byte           TIE   , Dn4 , v110
        .byte   W30
        .byte           MOD   , 1
        .byte   W18
        .byte                   2
        .byte   W12
        .byte   PEND
@ 055   ----------------------------------------
BATTLE_WIRELESS_0000_4_55:
        .byte   W64
        .byte   W01
        .byte           EOT   , Dn4
        .byte   W07
        .byte           MOD   , 0
        .byte           N23   , Fn3 , v112
        .byte   W24
        .byte   PEND
@ 056   ----------------------------------------
BATTLE_WIRELESS_0000_4_56:
        .byte           N32   , Gn3 , v112 , gtp2
        .byte   W36
        .byte           TIE   , Dn4 , v111
        .byte   W18
        .byte           MOD   , 1
        .byte   W18
        .byte                   2
        .byte   W24
        .byte   PEND
@ 057   ----------------------------------------
        .byte   PATT
         .word  BATTLE_WIRELESS_0000_4_55
@ 058   ----------------------------------------
BATTLE_WIRELESS_0000_4_58:
        .byte           N32   , Gn3 , v112 , gtp2
        .byte   W36
        .byte           TIE   , Dn4 , v111
        .byte   W42
        .byte           MOD   , 1
        .byte   W18
        .byte   PEND
@ 059   ----------------------------------------
        .byte   W24
        .byte                   2
        .byte   W72
@ 060   ----------------------------------------
        .byte   W92
        .byte   W03
        .byte           EOT
        .byte   W01
@ 061   ----------------------------------------
BATTLE_WIRELESS_0000_4_LOOP:
        .byte   W96
@ 062   ----------------------------------------
        .byte   W60
        .byte           MOD   , 0
        .byte           N11   , An3 , v105
        .byte   W12
        .byte                   Gn3
        .byte   W12
        .byte                   Cn4
        .byte   W12
@ 063   ----------------------------------------
        .byte   PATT
         .word  BATTLE_WIRELESS_0000_4_9
@ 064   ----------------------------------------
        .byte   PATT
         .word  BATTLE_WIRELESS_0000_4_10
@ 065   ----------------------------------------
        .byte   PATT
         .word  BATTLE_WIRELESS_0000_4_11
@ 066   ----------------------------------------
        .byte   PATT
         .word  BATTLE_WIRELESS_0000_4_12
@ 067   ----------------------------------------
        .byte   PATT
         .word  BATTLE_WIRELESS_0000_4_13
@ 068   ----------------------------------------
        .byte   W92
        .byte   W03
        .byte           EOT   , An2
        .byte   W01
@ 069   ----------------------------------------
        .byte           N92   , An2 , v048 , gtp3
        .byte   W96
@ 070   ----------------------------------------
        .byte   PATT
         .word  BATTLE_WIRELESS_0000_4_16
@ 071   ----------------------------------------
        .byte   PATT
         .word  BATTLE_WIRELESS_0000_4_17
@ 072   ----------------------------------------
        .byte   PATT
         .word  BATTLE_WIRELESS_0000_4_18
@ 073   ----------------------------------------
        .byte   PATT
         .word  BATTLE_WIRELESS_0000_4_19
@ 074   ----------------------------------------
        .byte   PATT
         .word  BATTLE_WIRELESS_0000_4_20
@ 075   ----------------------------------------
        .byte           MOD   , 1
        .byte   W96
@ 076   ----------------------------------------
        .byte   W92
        .byte   W03
        .byte           EOT   , Dn4
        .byte   W01
@ 077   ----------------------------------------
        .byte           N68   , Dn4 , v046 , gtp3
        .byte   W96
@ 078   ----------------------------------------
        .byte   PATT
         .word  BATTLE_WIRELESS_0000_4_24
@ 079   ----------------------------------------
        .byte   PATT
         .word  BATTLE_WIRELESS_0000_4_25
@ 080   ----------------------------------------
        .byte   PATT
         .word  BATTLE_WIRELESS_0000_4_26
@ 081   ----------------------------------------
        .byte   PATT
         .word  BATTLE_WIRELESS_0000_4_27
@ 082   ----------------------------------------
        .byte   PATT
         .word  BATTLE_WIRELESS_0000_4_28
@ 083   ----------------------------------------
        .byte   PATT
         .word  BATTLE_WIRELESS_0000_4_29
@ 084   ----------------------------------------
        .byte   PATT
         .word  BATTLE_WIRELESS_0000_4_30
@ 085   ----------------------------------------
        .byte   W64
        .byte   W01
        .byte           EOT   , Fn3
        .byte   W30
        .byte   W01
@ 086   ----------------------------------------
        .byte   PATT
         .word  BATTLE_WIRELESS_0000_4_32
@ 087   ----------------------------------------
        .byte   PATT
         .word  BATTLE_WIRELESS_0000_4_33
@ 088   ----------------------------------------
        .byte   PATT
         .word  BATTLE_WIRELESS_0000_4_34
@ 089   ----------------------------------------
        .byte   PATT
         .word  BATTLE_WIRELESS_0000_4_35
@ 090   ----------------------------------------
        .byte   PATT
         .word  BATTLE_WIRELESS_0000_4_36
@ 091   ----------------------------------------
        .byte   PATT
         .word  BATTLE_WIRELESS_0000_4_37
@ 092   ----------------------------------------
        .byte   PATT
         .word  BATTLE_WIRELESS_0000_4_38
@ 093   ----------------------------------------
        .byte   PATT
         .word  BATTLE_WIRELESS_0000_4_39
@ 094   ----------------------------------------
        .byte   PATT
         .word  BATTLE_WIRELESS_0000_4_40
@ 095   ----------------------------------------
        .byte           N18   , Dn4 , v104
        .byte   W96
@ 096   ----------------------------------------
        .byte   PATT
         .word  BATTLE_WIRELESS_0000_4_42
@ 097   ----------------------------------------
        .byte   PATT
         .word  BATTLE_WIRELESS_0000_4_43
@ 098   ----------------------------------------
        .byte   PATT
         .word  BATTLE_WIRELESS_0000_4_44
@ 099   ----------------------------------------
        .byte   PATT
         .word  BATTLE_WIRELESS_0000_4_45
@ 100   ----------------------------------------
        .byte   PATT
         .word  BATTLE_WIRELESS_0000_4_46
@ 101   ----------------------------------------
        .byte   PATT
         .word  BATTLE_WIRELESS_0000_4_47
@ 102   ----------------------------------------
        .byte   PATT
         .word  BATTLE_WIRELESS_0000_4_48
@ 103   ----------------------------------------
        .byte   PATT
         .word  BATTLE_WIRELESS_0000_4_49
@ 104   ----------------------------------------
        .byte   PATT
         .word  BATTLE_WIRELESS_0000_4_50
@ 105   ----------------------------------------
        .byte   PATT
         .word  BATTLE_WIRELESS_0000_4_51
@ 106   ----------------------------------------
        .byte   PATT
         .word  BATTLE_WIRELESS_0000_4_52
@ 107   ----------------------------------------
        .byte   PATT
         .word  BATTLE_WIRELESS_0000_4_53
@ 108   ----------------------------------------
        .byte   PATT
         .word  BATTLE_WIRELESS_0000_4_54
@ 109   ----------------------------------------
        .byte   PATT
         .word  BATTLE_WIRELESS_0000_4_55
@ 110   ----------------------------------------
        .byte   PATT
         .word  BATTLE_WIRELESS_0000_4_56
@ 111   ----------------------------------------
        .byte   PATT
         .word  BATTLE_WIRELESS_0000_4_55
@ 112   ----------------------------------------
        .byte   PATT
         .word  BATTLE_WIRELESS_0000_4_58
@ 113   ----------------------------------------
        .byte   W24
        .byte           MOD   , 2
        .byte   W72
@ 114   ----------------------------------------
        .byte   W92
        .byte   W03
        .byte           EOT   , Dn4
        .byte   W01
@ 115   ----------------------------------------
        .byte   W96
@ 116   ----------------------------------------
        .byte   W96
@ 117   ----------------------------------------
        .byte   W96
@ 118   ----------------------------------------
        .byte   W96
@ 119   ----------------------------------------
        .byte   W96
@ 120   ----------------------------------------
        .byte   W96
@ 121   ----------------------------------------
        .byte   W96
@ 122   ----------------------------------------
        .byte   W96
@ 123   ----------------------------------------
        .byte   W96
@ 124   ----------------------------------------
        .byte   W96
@ 125   ----------------------------------------
        .byte   W96
@ 126   ----------------------------------------
        .byte   W96
@ 127   ----------------------------------------
        .byte   W96
@ 128   ----------------------------------------
        .byte   W96
@ 129   ----------------------------------------
        .byte   W96
@ 130   ----------------------------------------
        .byte   W96
@ 131   ----------------------------------------
        .byte   W96
@ 132   ----------------------------------------
        .byte   PATT
         .word  BATTLE_WIRELESS_0000_4_24
@ 133   ----------------------------------------
        .byte   PATT
         .word  BATTLE_WIRELESS_0000_4_25
@ 134   ----------------------------------------
        .byte   PATT
         .word  BATTLE_WIRELESS_0000_4_26
@ 135   ----------------------------------------
        .byte   PATT
         .word  BATTLE_WIRELESS_0000_4_27
@ 136   ----------------------------------------
        .byte   PATT
         .word  BATTLE_WIRELESS_0000_4_28
@ 137   ----------------------------------------
        .byte   PATT
         .word  BATTLE_WIRELESS_0000_4_29
@ 138   ----------------------------------------
        .byte   PATT
         .word  BATTLE_WIRELESS_0000_4_30
@ 139   ----------------------------------------
        .byte   W64
        .byte   W01
        .byte           EOT   , Fn3
        .byte   W30
        .byte   W01
@ 140   ----------------------------------------
        .byte   PATT
         .word  BATTLE_WIRELESS_0000_4_32
@ 141   ----------------------------------------
        .byte   PATT
         .word  BATTLE_WIRELESS_0000_4_33
@ 142   ----------------------------------------
        .byte   PATT
         .word  BATTLE_WIRELESS_0000_4_34
@ 143   ----------------------------------------
        .byte   PATT
         .word  BATTLE_WIRELESS_0000_4_35
@ 144   ----------------------------------------
        .byte   PATT
         .word  BATTLE_WIRELESS_0000_4_36
@ 145   ----------------------------------------
        .byte   PATT
         .word  BATTLE_WIRELESS_0000_4_37
@ 146   ----------------------------------------
        .byte   PATT
         .word  BATTLE_WIRELESS_0000_4_38
@ 147   ----------------------------------------
        .byte   PATT
         .word  BATTLE_WIRELESS_0000_4_39
@ 148   ----------------------------------------
        .byte   PATT
         .word  BATTLE_WIRELESS_0000_4_40
@ 149   ----------------------------------------
        .byte           N18   , Dn4 , v104
        .byte   W96
@ 150   ----------------------------------------
        .byte   PATT
         .word  BATTLE_WIRELESS_0000_4_42
@ 151   ----------------------------------------
        .byte   PATT
         .word  BATTLE_WIRELESS_0000_4_43
@ 152   ----------------------------------------
        .byte   PATT
         .word  BATTLE_WIRELESS_0000_4_44
@ 153   ----------------------------------------
        .byte   PATT
         .word  BATTLE_WIRELESS_0000_4_45
@ 154   ----------------------------------------
        .byte   PATT
         .word  BATTLE_WIRELESS_0000_4_46
@ 155   ----------------------------------------
        .byte   PATT
         .word  BATTLE_WIRELESS_0000_4_47
@ 156   ----------------------------------------
        .byte   PATT
         .word  BATTLE_WIRELESS_0000_4_48
@ 157   ----------------------------------------
        .byte   PATT
         .word  BATTLE_WIRELESS_0000_4_49
@ 158   ----------------------------------------
        .byte   PATT
         .word  BATTLE_WIRELESS_0000_4_50
@ 159   ----------------------------------------
        .byte   PATT
         .word  BATTLE_WIRELESS_0000_4_51
@ 160   ----------------------------------------
        .byte   PATT
         .word  BATTLE_WIRELESS_0000_4_52
@ 161   ----------------------------------------
        .byte   PATT
         .word  BATTLE_WIRELESS_0000_4_53
@ 162   ----------------------------------------
        .byte   PATT
         .word  BATTLE_WIRELESS_0000_4_54
@ 163   ----------------------------------------
        .byte   PATT
         .word  BATTLE_WIRELESS_0000_4_55
@ 164   ----------------------------------------
        .byte   PATT
         .word  BATTLE_WIRELESS_0000_4_56
@ 165   ----------------------------------------
        .byte   PATT
         .word  BATTLE_WIRELESS_0000_4_55
@ 166   ----------------------------------------
        .byte   PATT
         .word  BATTLE_WIRELESS_0000_4_58
@ 167   ----------------------------------------
        .byte   W24
        .byte           MOD   , 2
        .byte   W72
@ 168   ----------------------------------------
        .byte   W92
        .byte   W03
        .byte           EOT   , Dn4
        .byte   W01
@ 169   ----------------------------------------
        .byte   GOTO
         .word  BATTLE_WIRELESS_0000_4_LOOP
        .byte   W92
        .byte   W03
        .byte   FINE

@****************** Track 5 (Midi-Chn.5) ******************@

BATTLE_WIRELESS_0000_5:
        .byte   KEYSH , BATTLE_WIRELESS_0000_key+0
@ 000   ----------------------------------------
        .byte           VOICE , 56
        .byte           VOL   , 25
        .byte           PAN   , c_v+11
        .byte   W96
@ 001   ----------------------------------------
        .byte   W96
@ 002   ----------------------------------------
        .byte   W96
@ 003   ----------------------------------------
        .byte   W96
@ 004   ----------------------------------------
        .byte   W96
@ 005   ----------------------------------------
        .byte   W96
@ 006   ----------------------------------------
        .byte   W96
@ 007   ----------------------------------------
        .byte   W96
@ 008   ----------------------------------------
        .byte           BEND  , c_v+3
        .byte   W72
        .byte   W03
        .byte           N11   , An3 , v105
        .byte   W12
        .byte                   Gn3
        .byte   W09
@ 009   ----------------------------------------
BATTLE_WIRELESS_0000_5_9:
        .byte   W03
        .byte           N11   , Cn4 , v105
        .byte   W12
        .byte           N32   , An3 , v105 , gtp3
        .byte   W12
        .byte           MOD   , 1
        .byte   W24
        .byte                   0
        .byte           N32   , Gn3 , v105 , gtp3
        .byte   W36
        .byte           N23   , An3
        .byte   W09
        .byte   PEND
@ 010   ----------------------------------------
BATTLE_WIRELESS_0000_5_10:
        .byte   W15
        .byte           N32   , Fn3 , v105 , gtp3
        .byte   W12
        .byte           MOD   , 1
        .byte   W24
        .byte                   0
        .byte           N32   , En3 , v105 , gtp3
        .byte   W36
        .byte                   Fn3
        .byte   W09
        .byte   PEND
@ 011   ----------------------------------------
BATTLE_WIRELESS_0000_5_11:
        .byte   W03
        .byte           MOD   , 1
        .byte   W24
        .byte                   0
        .byte           N32   , En3 , v105 , gtp3
        .byte   W36
        .byte           N23   , Dn3
        .byte   W24
        .byte                   Cn3
        .byte   W09
        .byte   PEND
@ 012   ----------------------------------------
BATTLE_WIRELESS_0000_5_12:
        .byte   W15
        .byte           N28   , Cn3 , v105 , gtp1
        .byte   W12
        .byte           MOD   , 1
        .byte   W24
        .byte                   0
        .byte           N32   , Dn3 , v105 , gtp3
        .byte   W36
        .byte           TIE   , An2
        .byte   W09
        .byte   PEND
@ 013   ----------------------------------------
BATTLE_WIRELESS_0000_5_13:
        .byte   W44
        .byte   W01
        .byte           MOD   , 1
        .byte   W24
        .byte                   2
        .byte   W24
        .byte   W03
        .byte   PEND
@ 014   ----------------------------------------
        .byte   W96
@ 015   ----------------------------------------
BATTLE_WIRELESS_0000_5_15:
        .byte   W14
        .byte           EOT   , An2
        .byte   W01
        .byte           N92   , An2 , v048 , gtp3
        .byte   W80
        .byte   W01
        .byte   PEND
@ 016   ----------------------------------------
BATTLE_WIRELESS_0000_5_16:
        .byte   W60
        .byte   W03
        .byte           MOD   , 0
        .byte   W12
        .byte           N11   , An3 , v105
        .byte   W12
        .byte                   Gn3
        .byte   W09
        .byte   PEND
@ 017   ----------------------------------------
        .byte   PATT
         .word  BATTLE_WIRELESS_0000_5_9
@ 018   ----------------------------------------
        .byte   PATT
         .word  BATTLE_WIRELESS_0000_5_10
@ 019   ----------------------------------------
BATTLE_WIRELESS_0000_5_19:
        .byte   W24
        .byte   W03
        .byte           N32   , Dn3 , v105 , gtp3
        .byte   W36
        .byte           N23   , Gn3
        .byte   W24
        .byte                   An3
        .byte   W09
        .byte   PEND
@ 020   ----------------------------------------
BATTLE_WIRELESS_0000_5_20:
        .byte   W15
        .byte           N28   , Cn4 , v105 , gtp1
        .byte   W12
        .byte           MOD   , 1
        .byte   W23
        .byte                   0
        .byte   W01
        .byte           TIE   , Dn4
        .byte   W44
        .byte   W01
        .byte   PEND
@ 021   ----------------------------------------
        .byte   W15
        .byte           MOD   , 1
        .byte   W80
        .byte   W01
@ 022   ----------------------------------------
        .byte   W96
@ 023   ----------------------------------------
BATTLE_WIRELESS_0000_5_23:
        .byte   W14
        .byte           EOT   , Dn4
        .byte   W01
        .byte           N68   , Dn4 , v046 , gtp3
        .byte   W80
        .byte   W01
        .byte   PEND
@ 024   ----------------------------------------
BATTLE_WIRELESS_0000_5_24:
        .byte   W60
        .byte   W03
        .byte           MOD   , 0
        .byte   W10
        .byte           N02   , An3 , v112
        .byte   W02
        .byte           N11   , As3 , v105
        .byte   W12
        .byte           N13   , An3
        .byte   W09
        .byte   PEND
@ 025   ----------------------------------------
BATTLE_WIRELESS_0000_5_25:
        .byte   W03
        .byte           N07   , Gn3 , v105
        .byte   W12
        .byte           N32   , Gn3 , v105 , gtp3
        .byte   W12
        .byte           MOD   , 2
        .byte   W24
        .byte           N32   , Cn3 , v105 , gtp3
        .byte           MOD   , 0
        .byte   W36
        .byte           N23   , Gn3
        .byte   W09
        .byte   PEND
@ 026   ----------------------------------------
BATTLE_WIRELESS_0000_5_26:
        .byte   W15
        .byte           N52   , An3 , v105 , gtp1
        .byte   W12
        .byte           MOD   , 2
        .byte   W48
        .byte                   0
        .byte           N11   , Cn3
        .byte   W12
        .byte                   Fn3
        .byte   W09
        .byte   PEND
@ 027   ----------------------------------------
BATTLE_WIRELESS_0000_5_27:
        .byte   W03
        .byte           N05   , An3 , v105
        .byte   W12
        .byte           N32   , An3 , v105 , gtp3
        .byte   W12
        .byte           MOD   , 2
        .byte   W24
        .byte                   0
        .byte           N36   , As3 , v105 , gtp3
        .byte   W36
        .byte           N24   , Cn4 , v105 , gtp2
        .byte   W09
        .byte   PEND
@ 028   ----------------------------------------
BATTLE_WIRELESS_0000_5_28:
        .byte   W15
        .byte           N44   , As3 , v105 , gtp3
        .byte   W12
        .byte           MOD   , 2
        .byte   W48
        .byte                   0
        .byte           N11   , Dn3
        .byte   W12
        .byte                   Gn3
        .byte   W09
        .byte   PEND
@ 029   ----------------------------------------
BATTLE_WIRELESS_0000_5_29:
        .byte   W03
        .byte           N11   , As3 , v105
        .byte   W12
        .byte           N32   , Cn4 , v105 , gtp3
        .byte   W12
        .byte           MOD   , 2
        .byte   W24
        .byte                   0
        .byte           N32   , Gs3 , v105 , gtp3
        .byte   W36
        .byte           N14   , Ds3
        .byte   W09
        .byte   PEND
@ 030   ----------------------------------------
BATTLE_WIRELESS_0000_5_30:
        .byte   W13
        .byte           N01   , Fn3 , v105
        .byte   W02
        .byte           N32   , Gn3 , v105 , gtp3
        .byte   W12
        .byte           MOD   , 2
        .byte   W24
        .byte                   0
        .byte           TIE   , Fn3
        .byte   W42
        .byte           MOD   , 1
        .byte   W03
        .byte   PEND
@ 031   ----------------------------------------
BATTLE_WIRELESS_0000_5_31:
        .byte   W03
        .byte           MOD   , 2
        .byte   W76
        .byte   W01
        .byte           EOT   , Fn3
        .byte   W16
        .byte   PEND
@ 032   ----------------------------------------
BATTLE_WIRELESS_0000_5_32:
        .byte   W60
        .byte   W03
        .byte           MOD   , 0
        .byte   W09
        .byte           N03   , An3 , v112
        .byte   W03
        .byte           N11   , As3 , v105
        .byte   W12
        .byte                   An3
        .byte   W09
        .byte   PEND
@ 033   ----------------------------------------
BATTLE_WIRELESS_0000_5_33:
        .byte   W03
        .byte           N05   , Gn3 , v105
        .byte   W12
        .byte           N32   , Gn3 , v105 , gtp3
        .byte   W12
        .byte           MOD   , 1
        .byte   W24
        .byte                   0
        .byte           N32   , Cn3 , v105 , gtp3
        .byte   W36
        .byte           N11   , Gn3
        .byte   W09
        .byte   PEND
@ 034   ----------------------------------------
BATTLE_WIRELESS_0000_5_34:
        .byte   W15
        .byte           N52   , An3 , v105 , gtp1
        .byte   W12
        .byte           MOD   , 1
        .byte   W42
        .byte                   0
        .byte   W06
        .byte           N11   , Cn3
        .byte   W12
        .byte                   Fn3
        .byte   W09
        .byte   PEND
@ 035   ----------------------------------------
BATTLE_WIRELESS_0000_5_35:
        .byte   W03
        .byte           N05   , An3 , v105
        .byte   W12
        .byte           N32   , An3 , v105 , gtp3
        .byte   W12
        .byte           MOD   , 1
        .byte   W24
        .byte                   0
        .byte           N32   , As3 , v105 , gtp3
        .byte   W36
        .byte           N23   , Cn4
        .byte   W09
        .byte   PEND
@ 036   ----------------------------------------
BATTLE_WIRELESS_0000_5_36:
        .byte   W15
        .byte           N32   , As3 , v105 , gtp3
        .byte   W12
        .byte           MOD   , 1
        .byte   W24
        .byte                   0
        .byte   W24
        .byte           N11
        .byte   W12
        .byte                   Cn4
        .byte   W09
        .byte   PEND
@ 037   ----------------------------------------
BATTLE_WIRELESS_0000_5_37:
        .byte   W03
        .byte           N11   , Dn4 , v105
        .byte   W12
        .byte           N32   , Ds4 , v106 , gtp3
        .byte   W12
        .byte           MOD   , 1
        .byte   W24
        .byte                   0
        .byte           N32   , Dn4 , v108 , gtp3
        .byte   W36
        .byte           N11   , As3 , v105
        .byte   W09
        .byte   PEND
@ 038   ----------------------------------------
BATTLE_WIRELESS_0000_5_38:
        .byte   W13
        .byte           N07   , Cn4 , v096
        .byte   W04
        .byte           N32   , Dn4 , v108 , gtp3
        .byte   W10
        .byte           MOD   , 1
        .byte   W24
        .byte                   0
        .byte           TIE   , Cn4
        .byte   W36
        .byte           MOD   , 1
        .byte   W09
        .byte   PEND
@ 039   ----------------------------------------
BATTLE_WIRELESS_0000_5_39:
        .byte   W03
        .byte           MOD   , 2
        .byte   W52
        .byte   W01
        .byte           EOT   , Cn4
        .byte   W19
        .byte           MOD   , 0
        .byte           N11   , Fn3 , v105
        .byte   W12
        .byte                   An3
        .byte   W09
        .byte   PEND
@ 040   ----------------------------------------
BATTLE_WIRELESS_0000_5_40:
        .byte   W03
        .byte           N11   , Cn4 , v105
        .byte   W12
        .byte           N36   , Dn4 , v107
        .byte   W12
        .byte           MOD   , 1
        .byte   W24
        .byte                   0
        .byte           N30   , Cn4 , v107 , gtp1
        .byte   W32
        .byte   W01
        .byte           N03   , Ds4 , v105
        .byte   W03
        .byte           N24   , Fn4 , v102 , gtp1
        .byte   W09
        .byte   PEND
@ 041   ----------------------------------------
BATTLE_WIRELESS_0000_5_41:
        .byte   W15
        .byte           N18   , Dn4 , v104
        .byte   W80
        .byte   W01
        .byte   PEND
@ 042   ----------------------------------------
BATTLE_WIRELESS_0000_5_42:
        .byte   W15
        .byte           N03   , Cn4 , v090
        .byte   W03
        .byte           N68   , Dn4 , v105 , gtp3
        .byte   W15
        .byte           MOD   , 1
        .byte   W06
        .byte                   2
        .byte   W54
        .byte                   0
        .byte   W03
        .byte   PEND
@ 043   ----------------------------------------
BATTLE_WIRELESS_0000_5_43:
        .byte   W03
        .byte           N06   , Gn3 , v104
        .byte   W12
        .byte           N11   , Dn4
        .byte   W12
        .byte                   Cn4 , v105
        .byte   W12
        .byte                   As3 , v095
        .byte   W12
        .byte           N23   , An3 , v099
        .byte   W24
        .byte           N12   , As3
        .byte   W12
        .byte           N06   , Cn4 , v096
        .byte   W09
        .byte   PEND
@ 044   ----------------------------------------
BATTLE_WIRELESS_0000_5_44:
        .byte   W03
        .byte           N36   , Cn4 , v114
        .byte   W12
        .byte           MOD   , 1
        .byte   W24
        .byte                   0
        .byte           N21   , As3 , v100
        .byte   W24
        .byte           N24   , Cn4 , v102 , gtp2
        .byte   W24
        .byte           N17   , Fn4 , v117
        .byte   W09
        .byte   PEND
@ 045   ----------------------------------------
BATTLE_WIRELESS_0000_5_45:
        .byte   W15
        .byte           N32   , Fn4 , v105 , gtp3
        .byte   W12
        .byte           MOD   , 1
        .byte   W24
        .byte                   0
        .byte           N32   , Dn4 , v101 , gtp1
        .byte   W12
        .byte           MOD   , 1
        .byte   W24
        .byte                   0
        .byte   W09
        .byte   PEND
@ 046   ----------------------------------------
BATTLE_WIRELESS_0000_5_46:
        .byte   W12
        .byte           N03   , Cn4 , v081
        .byte   W02
        .byte           N30   , Dn4 , v108
        .byte   W19
        .byte           MOD   , 1
        .byte   W06
        .byte                   2
        .byte   W12
        .byte           N28   , Gn3 , v108 , gtp1
        .byte   W42
        .byte           MOD   , 0
        .byte   W03
        .byte   PEND
@ 047   ----------------------------------------
BATTLE_WIRELESS_0000_5_47:
        .byte   W03
        .byte           N05   , Gn3 , v110
        .byte   W12
        .byte           N11   , Dn4 , v099
        .byte   W12
        .byte                   Cn4 , v096
        .byte   W12
        .byte                   As3 , v097
        .byte   W12
        .byte           N17   , Cn4 , v104
        .byte   W24
        .byte           N05   , Cn4 , v102
        .byte   W12
        .byte           N11   , Fn4 , v103
        .byte   W09
        .byte   PEND
@ 048   ----------------------------------------
BATTLE_WIRELESS_0000_5_48:
        .byte   W03
        .byte           N11   , Gn4 , v101
        .byte   W12
        .byte           N32   , An4 , v115 , gtp3
        .byte   W12
        .byte           MOD   , 1
        .byte   W24
        .byte                   0
        .byte           N32   , As4 , v101 , gtp3
        .byte   W12
        .byte           MOD   , 1
        .byte   W24
        .byte                   0
        .byte           TIE   , Gn4 , v106
        .byte   W09
        .byte   PEND
@ 049   ----------------------------------------
BATTLE_WIRELESS_0000_5_49:
        .byte   W09
        .byte           MOD   , 1
        .byte   W06
        .byte                   2
        .byte   W80
        .byte   W01
        .byte   PEND
@ 050   ----------------------------------------
BATTLE_WIRELESS_0000_5_50:
        .byte   W08
        .byte           EOT   , Gn4
        .byte   W07
        .byte           MOD   , 0
        .byte           N03   , Cn4 , v090
        .byte   W03
        .byte           N68   , Dn4 , v105 , gtp3
        .byte   W09
        .byte           MOD   , 1
        .byte   W12
        .byte                   2
        .byte   W54
        .byte                   0
        .byte   W03
        .byte   PEND
@ 051   ----------------------------------------
BATTLE_WIRELESS_0000_5_51:
        .byte   W03
        .byte           N06   , Gn3 , v104
        .byte   W12
        .byte           N11   , Dn4
        .byte   W12
        .byte           N10   , Cn4 , v105
        .byte   W12
        .byte           N11   , As3 , v095
        .byte   W12
        .byte           N23   , An3 , v099
        .byte   W24
        .byte           N12   , As3
        .byte   W12
        .byte           N06   , Cn4 , v096
        .byte   W09
        .byte   PEND
@ 052   ----------------------------------------
BATTLE_WIRELESS_0000_5_52:
        .byte   W03
        .byte           N36   , Cn4 , v114
        .byte   W12
        .byte           MOD   , 1
        .byte   W24
        .byte                   0
        .byte           N21   , As3 , v100
        .byte   W24
        .byte           N23   , Cn4 , v102
        .byte   W24
        .byte           N17   , Fn4 , v117
        .byte   W09
        .byte   PEND
@ 053   ----------------------------------------
BATTLE_WIRELESS_0000_5_53:
        .byte   W15
        .byte           N32   , Fn4 , v105 , gtp3
        .byte   W12
        .byte           MOD   , 1
        .byte   W24
        .byte                   0
        .byte           N23   , Dn4 , v101
        .byte   W24
        .byte           N13   , Cn4 , v091
        .byte   W12
        .byte           N12   , As3 , v096
        .byte   W09
        .byte   PEND
@ 054   ----------------------------------------
BATTLE_WIRELESS_0000_5_54:
        .byte   W03
        .byte           N14   , An3 , v096
        .byte   W12
        .byte           N32   , Gn3 , v112 , gtp2
        .byte   W36
        .byte           TIE   , Dn4 , v110
        .byte   W30
        .byte           MOD   , 1
        .byte   W15
        .byte   PEND
@ 055   ----------------------------------------
BATTLE_WIRELESS_0000_5_55:
        .byte   W03
        .byte           MOD   , 2
        .byte   W76
        .byte   W01
        .byte           EOT   , Dn4
        .byte   W07
        .byte           MOD   , 0
        .byte           N23   , Fn3 , v112
        .byte   W09
        .byte   PEND
@ 056   ----------------------------------------
BATTLE_WIRELESS_0000_5_56:
        .byte   W15
        .byte           N32   , Gn3 , v112 , gtp2
        .byte   W36
        .byte           TIE   , Dn4 , v111
        .byte   W18
        .byte           MOD   , 1
        .byte   W18
        .byte                   2
        .byte   W09
        .byte   PEND
@ 057   ----------------------------------------
BATTLE_WIRELESS_0000_5_57:
        .byte   W80
        .byte           EOT   , Dn4
        .byte   W07
        .byte           MOD   , 0
        .byte           N23   , Fn3 , v112
        .byte   W09
        .byte   PEND
@ 058   ----------------------------------------
BATTLE_WIRELESS_0000_5_58:
        .byte   W15
        .byte           N32   , Gn3 , v112 , gtp2
        .byte   W36
        .byte           TIE   , Dn4 , v111
        .byte   W44
        .byte   W01
        .byte   PEND
@ 059   ----------------------------------------
        .byte   W96
@ 060   ----------------------------------------
        .byte   W96
@ 061   ----------------------------------------
BATTLE_WIRELESS_0000_5_LOOP:
        .byte   W14
        .byte           EOT   , Dn4
        .byte   W80
        .byte   W02
@ 062   ----------------------------------------
        .byte   W72
        .byte   W03
        .byte           N11   , An3 , v105
        .byte   W12
        .byte                   Gn3
        .byte   W09
@ 063   ----------------------------------------
        .byte   PATT
         .word  BATTLE_WIRELESS_0000_5_9
@ 064   ----------------------------------------
        .byte   PATT
         .word  BATTLE_WIRELESS_0000_5_10
@ 065   ----------------------------------------
        .byte   PATT
         .word  BATTLE_WIRELESS_0000_5_11
@ 066   ----------------------------------------
        .byte   PATT
         .word  BATTLE_WIRELESS_0000_5_12
@ 067   ----------------------------------------
        .byte   PATT
         .word  BATTLE_WIRELESS_0000_5_13
@ 068   ----------------------------------------
        .byte   W96
@ 069   ----------------------------------------
        .byte   PATT
         .word  BATTLE_WIRELESS_0000_5_15
@ 070   ----------------------------------------
        .byte   PATT
         .word  BATTLE_WIRELESS_0000_5_16
@ 071   ----------------------------------------
        .byte   PATT
         .word  BATTLE_WIRELESS_0000_5_9
@ 072   ----------------------------------------
        .byte   PATT
         .word  BATTLE_WIRELESS_0000_5_10
@ 073   ----------------------------------------
        .byte   PATT
         .word  BATTLE_WIRELESS_0000_5_19
@ 074   ----------------------------------------
        .byte   PATT
         .word  BATTLE_WIRELESS_0000_5_20
@ 075   ----------------------------------------
        .byte   W15
        .byte           MOD   , 1
        .byte   W80
        .byte   W01
@ 076   ----------------------------------------
        .byte   W96
@ 077   ----------------------------------------
        .byte   PATT
         .word  BATTLE_WIRELESS_0000_5_23
@ 078   ----------------------------------------
        .byte   PATT
         .word  BATTLE_WIRELESS_0000_5_24
@ 079   ----------------------------------------
        .byte   PATT
         .word  BATTLE_WIRELESS_0000_5_25
@ 080   ----------------------------------------
        .byte   PATT
         .word  BATTLE_WIRELESS_0000_5_26
@ 081   ----------------------------------------
        .byte   PATT
         .word  BATTLE_WIRELESS_0000_5_27
@ 082   ----------------------------------------
        .byte   PATT
         .word  BATTLE_WIRELESS_0000_5_28
@ 083   ----------------------------------------
        .byte   PATT
         .word  BATTLE_WIRELESS_0000_5_29
@ 084   ----------------------------------------
        .byte   PATT
         .word  BATTLE_WIRELESS_0000_5_30
@ 085   ----------------------------------------
        .byte   PATT
         .word  BATTLE_WIRELESS_0000_5_31
@ 086   ----------------------------------------
        .byte   PATT
         .word  BATTLE_WIRELESS_0000_5_32
@ 087   ----------------------------------------
        .byte   PATT
         .word  BATTLE_WIRELESS_0000_5_33
@ 088   ----------------------------------------
        .byte   PATT
         .word  BATTLE_WIRELESS_0000_5_34
@ 089   ----------------------------------------
        .byte   PATT
         .word  BATTLE_WIRELESS_0000_5_35
@ 090   ----------------------------------------
        .byte   PATT
         .word  BATTLE_WIRELESS_0000_5_36
@ 091   ----------------------------------------
        .byte   PATT
         .word  BATTLE_WIRELESS_0000_5_37
@ 092   ----------------------------------------
        .byte   PATT
         .word  BATTLE_WIRELESS_0000_5_38
@ 093   ----------------------------------------
        .byte   PATT
         .word  BATTLE_WIRELESS_0000_5_39
@ 094   ----------------------------------------
        .byte   PATT
         .word  BATTLE_WIRELESS_0000_5_40
@ 095   ----------------------------------------
        .byte   PATT
         .word  BATTLE_WIRELESS_0000_5_41
@ 096   ----------------------------------------
        .byte   PATT
         .word  BATTLE_WIRELESS_0000_5_42
@ 097   ----------------------------------------
        .byte   PATT
         .word  BATTLE_WIRELESS_0000_5_43
@ 098   ----------------------------------------
        .byte   PATT
         .word  BATTLE_WIRELESS_0000_5_44
@ 099   ----------------------------------------
        .byte   PATT
         .word  BATTLE_WIRELESS_0000_5_45
@ 100   ----------------------------------------
        .byte   PATT
         .word  BATTLE_WIRELESS_0000_5_46
@ 101   ----------------------------------------
        .byte   PATT
         .word  BATTLE_WIRELESS_0000_5_47
@ 102   ----------------------------------------
        .byte   PATT
         .word  BATTLE_WIRELESS_0000_5_48
@ 103   ----------------------------------------
        .byte   PATT
         .word  BATTLE_WIRELESS_0000_5_49
@ 104   ----------------------------------------
        .byte   PATT
         .word  BATTLE_WIRELESS_0000_5_50
@ 105   ----------------------------------------
        .byte   PATT
         .word  BATTLE_WIRELESS_0000_5_51
@ 106   ----------------------------------------
        .byte   PATT
         .word  BATTLE_WIRELESS_0000_5_52
@ 107   ----------------------------------------
        .byte   PATT
         .word  BATTLE_WIRELESS_0000_5_53
@ 108   ----------------------------------------
        .byte   PATT
         .word  BATTLE_WIRELESS_0000_5_54
@ 109   ----------------------------------------
        .byte   PATT
         .word  BATTLE_WIRELESS_0000_5_55
@ 110   ----------------------------------------
        .byte   PATT
         .word  BATTLE_WIRELESS_0000_5_56
@ 111   ----------------------------------------
        .byte   PATT
         .word  BATTLE_WIRELESS_0000_5_57
@ 112   ----------------------------------------
        .byte   PATT
         .word  BATTLE_WIRELESS_0000_5_58
@ 113   ----------------------------------------
        .byte   W96
@ 114   ----------------------------------------
        .byte   W96
@ 115   ----------------------------------------
        .byte   W14
        .byte           EOT   , Dn4
        .byte   W80
        .byte   W02
@ 116   ----------------------------------------
        .byte   W96
@ 117   ----------------------------------------
        .byte   W96
@ 118   ----------------------------------------
        .byte   W96
@ 119   ----------------------------------------
        .byte   W96
@ 120   ----------------------------------------
        .byte   W96
@ 121   ----------------------------------------
        .byte   W96
@ 122   ----------------------------------------
        .byte   W96
@ 123   ----------------------------------------
        .byte   W96
@ 124   ----------------------------------------
        .byte   W96
@ 125   ----------------------------------------
        .byte   W96
@ 126   ----------------------------------------
        .byte   W96
@ 127   ----------------------------------------
        .byte   W96
@ 128   ----------------------------------------
        .byte   W96
@ 129   ----------------------------------------
        .byte   W96
@ 130   ----------------------------------------
        .byte   W96
@ 131   ----------------------------------------
        .byte   W96
@ 132   ----------------------------------------
        .byte   W72
        .byte   W01
        .byte           N02   , An3 , v112
        .byte   W02
        .byte           N11   , As3 , v105
        .byte   W12
        .byte           N13   , An3
        .byte   W09
@ 133   ----------------------------------------
        .byte   PATT
         .word  BATTLE_WIRELESS_0000_5_25
@ 134   ----------------------------------------
        .byte   PATT
         .word  BATTLE_WIRELESS_0000_5_26
@ 135   ----------------------------------------
        .byte   PATT
         .word  BATTLE_WIRELESS_0000_5_27
@ 136   ----------------------------------------
        .byte   PATT
         .word  BATTLE_WIRELESS_0000_5_28
@ 137   ----------------------------------------
        .byte   PATT
         .word  BATTLE_WIRELESS_0000_5_29
@ 138   ----------------------------------------
        .byte   PATT
         .word  BATTLE_WIRELESS_0000_5_30
@ 139   ----------------------------------------
        .byte   PATT
         .word  BATTLE_WIRELESS_0000_5_31
@ 140   ----------------------------------------
        .byte   PATT
         .word  BATTLE_WIRELESS_0000_5_32
@ 141   ----------------------------------------
        .byte   PATT
         .word  BATTLE_WIRELESS_0000_5_33
@ 142   ----------------------------------------
        .byte   PATT
         .word  BATTLE_WIRELESS_0000_5_34
@ 143   ----------------------------------------
        .byte   PATT
         .word  BATTLE_WIRELESS_0000_5_35
@ 144   ----------------------------------------
        .byte   PATT
         .word  BATTLE_WIRELESS_0000_5_36
@ 145   ----------------------------------------
        .byte   PATT
         .word  BATTLE_WIRELESS_0000_5_37
@ 146   ----------------------------------------
        .byte   PATT
         .word  BATTLE_WIRELESS_0000_5_38
@ 147   ----------------------------------------
        .byte   PATT
         .word  BATTLE_WIRELESS_0000_5_39
@ 148   ----------------------------------------
        .byte   PATT
         .word  BATTLE_WIRELESS_0000_5_40
@ 149   ----------------------------------------
        .byte   PATT
         .word  BATTLE_WIRELESS_0000_5_41
@ 150   ----------------------------------------
        .byte   PATT
         .word  BATTLE_WIRELESS_0000_5_42
@ 151   ----------------------------------------
        .byte   PATT
         .word  BATTLE_WIRELESS_0000_5_43
@ 152   ----------------------------------------
        .byte   PATT
         .word  BATTLE_WIRELESS_0000_5_44
@ 153   ----------------------------------------
        .byte   PATT
         .word  BATTLE_WIRELESS_0000_5_45
@ 154   ----------------------------------------
        .byte   PATT
         .word  BATTLE_WIRELESS_0000_5_46
@ 155   ----------------------------------------
        .byte   PATT
         .word  BATTLE_WIRELESS_0000_5_47
@ 156   ----------------------------------------
        .byte   PATT
         .word  BATTLE_WIRELESS_0000_5_48
@ 157   ----------------------------------------
        .byte   PATT
         .word  BATTLE_WIRELESS_0000_5_49
@ 158   ----------------------------------------
        .byte   PATT
         .word  BATTLE_WIRELESS_0000_5_50
@ 159   ----------------------------------------
        .byte   PATT
         .word  BATTLE_WIRELESS_0000_5_51
@ 160   ----------------------------------------
        .byte   PATT
         .word  BATTLE_WIRELESS_0000_5_52
@ 161   ----------------------------------------
        .byte   PATT
         .word  BATTLE_WIRELESS_0000_5_53
@ 162   ----------------------------------------
        .byte   PATT
         .word  BATTLE_WIRELESS_0000_5_54
@ 163   ----------------------------------------
        .byte   PATT
         .word  BATTLE_WIRELESS_0000_5_55
@ 164   ----------------------------------------
        .byte   PATT
         .word  BATTLE_WIRELESS_0000_5_56
@ 165   ----------------------------------------
        .byte   PATT
         .word  BATTLE_WIRELESS_0000_5_57
@ 166   ----------------------------------------
        .byte   PATT
         .word  BATTLE_WIRELESS_0000_5_58
@ 167   ----------------------------------------
        .byte   W96
@ 168   ----------------------------------------
        .byte   W96
@ 169   ----------------------------------------
        .byte   GOTO
         .word  BATTLE_WIRELESS_0000_5_LOOP
        .byte   W14
        .byte           EOT   , Dn4
        .byte   W80
        .byte   W01
        .byte   FINE

@****************** Track 6 (Midi-Chn.6) ******************@

BATTLE_WIRELESS_0000_6:
        .byte   KEYSH , BATTLE_WIRELESS_0000_key+0
@ 000   ----------------------------------------
        .byte           VOICE , 4
        .byte           VOL   , 25
        .byte           PAN   , c_v+43
        .byte           TIE   , Dn1 , v101
        .byte   W96
@ 001   ----------------------------------------
        .byte   W44
        .byte   W03
        .byte           EOT
        .byte   W40
        .byte   W01
        .byte           TIE   , An3 , v081
        .byte   W04
        .byte                   Cn4 , v078
        .byte   W04
@ 002   ----------------------------------------
        .byte   W01
        .byte                   Dn4 , v101
        .byte   W92
        .byte   W03
@ 003   ----------------------------------------
        .byte   W64
        .byte   W01
        .byte           EOT   , Cn4
        .byte   W21
        .byte                   An3
        .byte                   Dn4
        .byte   W10
@ 004   ----------------------------------------
        .byte   W96
@ 005   ----------------------------------------
        .byte   W90
        .byte   W01
        .byte           TIE   , Dn5 , v086
        .byte   W05
@ 006   ----------------------------------------
        .byte   W04
        .byte                   An4 , v089
        .byte   W92
@ 007   ----------------------------------------
        .byte   W84
        .byte           EOT   , Dn5
        .byte   W08
        .byte                   An4
        .byte   W04
@ 008   ----------------------------------------
        .byte   W96
@ 009   ----------------------------------------
        .byte   W96
@ 010   ----------------------------------------
        .byte   W96
@ 011   ----------------------------------------
        .byte   W96
@ 012   ----------------------------------------
        .byte   W96
@ 013   ----------------------------------------
        .byte   W96
@ 014   ----------------------------------------
        .byte   W96
@ 015   ----------------------------------------
        .byte   W96
@ 016   ----------------------------------------
        .byte   W96
@ 017   ----------------------------------------
        .byte   W96
@ 018   ----------------------------------------
        .byte   W96
@ 019   ----------------------------------------
        .byte   W96
@ 020   ----------------------------------------
        .byte   W96
@ 021   ----------------------------------------
        .byte   W96
@ 022   ----------------------------------------
        .byte   W96
@ 023   ----------------------------------------
        .byte   W96
@ 024   ----------------------------------------
        .byte   W96
@ 025   ----------------------------------------
        .byte   W96
@ 026   ----------------------------------------
        .byte   W96
@ 027   ----------------------------------------
        .byte   W96
@ 028   ----------------------------------------
        .byte   W96
@ 029   ----------------------------------------
        .byte   W96
@ 030   ----------------------------------------
        .byte   W96
@ 031   ----------------------------------------
        .byte   W96
@ 032   ----------------------------------------
        .byte   W96
@ 033   ----------------------------------------
        .byte   W96
@ 034   ----------------------------------------
        .byte   W96
@ 035   ----------------------------------------
        .byte   W96
@ 036   ----------------------------------------
        .byte   W96
@ 037   ----------------------------------------
        .byte   W96
@ 038   ----------------------------------------
        .byte   W96
@ 039   ----------------------------------------
        .byte   W96
@ 040   ----------------------------------------
        .byte   W96
@ 041   ----------------------------------------
        .byte   W96
@ 042   ----------------------------------------
        .byte   W96
@ 043   ----------------------------------------
        .byte   W96
@ 044   ----------------------------------------
        .byte   W96
@ 045   ----------------------------------------
        .byte   W96
@ 046   ----------------------------------------
        .byte   W96
@ 047   ----------------------------------------
        .byte   W96
@ 048   ----------------------------------------
        .byte   W96
@ 049   ----------------------------------------
        .byte   W96
@ 050   ----------------------------------------
        .byte   W96
@ 051   ----------------------------------------
        .byte   W96
@ 052   ----------------------------------------
        .byte   W96
@ 053   ----------------------------------------
        .byte   W96
@ 054   ----------------------------------------
BATTLE_WIRELESS_0000_6_54:
        .byte   W72
        .byte           N23   , Fn3 , v082
        .byte           N23   , Fn4 , v098
        .byte   W24
        .byte   PEND
@ 055   ----------------------------------------
BATTLE_WIRELESS_0000_6_55:
        .byte           N32   , Gn3 , v081 , gtp3
        .byte                   Gn4 , v094
        .byte   W36
        .byte                   Dn4 , v085
        .byte           N40   , Dn5 , v099 , gtp1
        .byte   W36
        .byte           N23   , Fn3 , v062
        .byte           N23   , Fn4 , v075
        .byte   W24
        .byte   PEND
@ 056   ----------------------------------------
BATTLE_WIRELESS_0000_6_56:
        .byte   W72
        .byte           N23   , Fn3 , v088
        .byte           N23   , Fn4 , v109
        .byte   W24
        .byte   PEND
@ 057   ----------------------------------------
BATTLE_WIRELESS_0000_6_57:
        .byte           N32   , Gn3 , v090 , gtp3
        .byte                   Gn4 , v102
        .byte   W36
        .byte                   Dn4 , v091
        .byte           N32   , Dn5 , v099 , gtp3
        .byte   W36
        .byte           N23   , Fn3 , v062
        .byte           N23   , Fn4 , v075
        .byte   W24
        .byte   PEND
@ 058   ----------------------------------------
        .byte   PATT
         .word  BATTLE_WIRELESS_0000_6_56
@ 059   ----------------------------------------
        .byte   PATT
         .word  BATTLE_WIRELESS_0000_6_57
@ 060   ----------------------------------------
BATTLE_WIRELESS_0000_6_60:
        .byte           N32   , Gn3 , v068 , gtp3
        .byte                   Gn4 , v077
        .byte   W36
        .byte                   Dn4 , v075
        .byte           N32   , Dn5 , v078 , gtp3
        .byte   W60
        .byte   PEND
@ 061   ----------------------------------------
BATTLE_WIRELESS_0000_6_LOOP:
        .byte   W96
@ 062   ----------------------------------------
        .byte   W96
@ 063   ----------------------------------------
        .byte   W96
@ 064   ----------------------------------------
        .byte   W96
@ 065   ----------------------------------------
        .byte   W96
@ 066   ----------------------------------------
        .byte   W96
@ 067   ----------------------------------------
        .byte   W96
@ 068   ----------------------------------------
        .byte   W96
@ 069   ----------------------------------------
        .byte   W96
@ 070   ----------------------------------------
        .byte   W96
@ 071   ----------------------------------------
        .byte   W96
@ 072   ----------------------------------------
        .byte   W96
@ 073   ----------------------------------------
        .byte   W96
@ 074   ----------------------------------------
        .byte   W96
@ 075   ----------------------------------------
        .byte   W96
@ 076   ----------------------------------------
        .byte   W96
@ 077   ----------------------------------------
        .byte   W96
@ 078   ----------------------------------------
        .byte   W96
@ 079   ----------------------------------------
        .byte   W96
@ 080   ----------------------------------------
        .byte   W96
@ 081   ----------------------------------------
        .byte   W96
@ 082   ----------------------------------------
        .byte   W96
@ 083   ----------------------------------------
        .byte   W96
@ 084   ----------------------------------------
        .byte   W96
@ 085   ----------------------------------------
        .byte   W96
@ 086   ----------------------------------------
        .byte   W96
@ 087   ----------------------------------------
        .byte   W96
@ 088   ----------------------------------------
        .byte   W96
@ 089   ----------------------------------------
        .byte   W96
@ 090   ----------------------------------------
        .byte   W96
@ 091   ----------------------------------------
        .byte   W96
@ 092   ----------------------------------------
        .byte   W96
@ 093   ----------------------------------------
        .byte   W96
@ 094   ----------------------------------------
        .byte   W96
@ 095   ----------------------------------------
        .byte   W96
@ 096   ----------------------------------------
        .byte   W96
@ 097   ----------------------------------------
        .byte   W96
@ 098   ----------------------------------------
        .byte   W96
@ 099   ----------------------------------------
        .byte   W96
@ 100   ----------------------------------------
        .byte   W96
@ 101   ----------------------------------------
        .byte   W96
@ 102   ----------------------------------------
        .byte   W96
@ 103   ----------------------------------------
        .byte   W96
@ 104   ----------------------------------------
        .byte   W96
@ 105   ----------------------------------------
        .byte   W96
@ 106   ----------------------------------------
        .byte   W96
@ 107   ----------------------------------------
        .byte   W96
@ 108   ----------------------------------------
        .byte   PATT
         .word  BATTLE_WIRELESS_0000_6_54
@ 109   ----------------------------------------
        .byte   PATT
         .word  BATTLE_WIRELESS_0000_6_55
@ 110   ----------------------------------------
        .byte   PATT
         .word  BATTLE_WIRELESS_0000_6_56
@ 111   ----------------------------------------
        .byte   PATT
         .word  BATTLE_WIRELESS_0000_6_57
@ 112   ----------------------------------------
        .byte   PATT
         .word  BATTLE_WIRELESS_0000_6_56
@ 113   ----------------------------------------
        .byte   PATT
         .word  BATTLE_WIRELESS_0000_6_57
@ 114   ----------------------------------------
        .byte   PATT
         .word  BATTLE_WIRELESS_0000_6_60
@ 115   ----------------------------------------
        .byte           VOICE , 68
        .byte   W96
@ 116   ----------------------------------------
        .byte   W36
        .byte   W01
        .byte           N32   , Fn4 , v085 , gtp2
        .byte   W32
        .byte   W01
        .byte           N36   , Gn4 , v102 , gtp3
        .byte   W24
        .byte   W02
@ 117   ----------------------------------------
        .byte   W11
        .byte           N36   , Dn4 , v106 , gtp1
        .byte   W48
        .byte   W02
        .byte           N15   , Dn4 , v104
        .byte   W12
        .byte           N13   , Fn4 , v100
        .byte   W11
        .byte           N14   , Gn4 , v105
        .byte   W12
@ 118   ----------------------------------------
        .byte           N36   , An4 , v104 , gtp1
        .byte   W36
        .byte   W01
        .byte           N32   , Fn4 , v114 , gtp2
        .byte   W32
        .byte   W01
        .byte           N36   , Cn5 , v112 , gtp1
        .byte   W24
        .byte   W02
@ 119   ----------------------------------------
        .byte   W09
        .byte           N44   , Dn5 , v106
        .byte   W84
        .byte   W02
        .byte           N36   , An4 , v112 , gtp1
        .byte   W01
@ 120   ----------------------------------------
        .byte   W32
        .byte   W03
        .byte           N32   , Fn4 , v102 , gtp3
        .byte   W32
        .byte   W02
        .byte           N36   , Gn4 , v109
        .byte   W24
        .byte   W03
@ 121   ----------------------------------------
        .byte   W09
        .byte                   Dn4 , v105
        .byte   W52
        .byte           N12   , Dn4 , v112
        .byte   W11
        .byte           N14   , Fn4 , v099
        .byte   W11
        .byte                   Gn4 , v098
        .byte   W13
@ 122   ----------------------------------------
        .byte           N36   , An4 , v101 , gtp2
        .byte   W36
        .byte   W02
        .byte           N32   , Fn4 , v114 , gtp2
        .byte   W32
        .byte   W01
        .byte           N24   , Cn5 , v102
        .byte   W24
        .byte   W01
@ 123   ----------------------------------------
        .byte   W11
        .byte           N14   , Fn5 , v097
        .byte   W13
        .byte           N12   , Ds5 , v104
        .byte   W11
        .byte                   Dn5 , v095
        .byte   W13
        .byte                   Cn5 , v098
        .byte   W11
        .byte           N14   , As4 , v108
        .byte   W13
        .byte           N12   , Cn5 , v102
        .byte   W10
        .byte           N13   , Dn5 , v088
        .byte   W13
        .byte           N36   , An4 , v112
        .byte   W01
@ 124   ----------------------------------------
        .byte   W32
        .byte   W03
        .byte                   Fn4 , v113 , gtp1
        .byte   W32
        .byte   W03
        .byte           N36   , Gn4 , v109 , gtp2
        .byte   W24
        .byte   W02
@ 125   ----------------------------------------
        .byte   W11
        .byte           N36   , Dn4 , v114
        .byte   W48
        .byte           N12   , Dn4 , v108
        .byte   W11
        .byte           N13   , Fn4 , v094
        .byte   W11
        .byte           N15   , Gn4 , v102
        .byte   W13
        .byte           N32   , An4 , v108 , gtp3
        .byte   W02
@ 126   ----------------------------------------
        .byte   W32
        .byte   W01
        .byte           N36   , Fn4 , v113
        .byte   W32
        .byte   W03
        .byte           N40   , Cn5 , v112
        .byte   W28
@ 127   ----------------------------------------
        .byte   W10
        .byte           N44   , Dn5 , v111 , gtp1
        .byte   W84
        .byte   W01
        .byte           N36   , An4 , v109 , gtp1
        .byte   W01
@ 128   ----------------------------------------
        .byte   W32
        .byte   W03
        .byte                   Fn4 , v102
        .byte   W36
        .byte           N36   , Gn4 , v112 , gtp2
        .byte   W24
        .byte   W01
@ 129   ----------------------------------------
        .byte   W12
        .byte                   Dn4 , v111
        .byte   W44
        .byte   W02
        .byte           N13   , Dn4 , v101
        .byte   W11
        .byte                   Fn4 , v104
        .byte   W11
        .byte           N14   , Gn4 , v102
        .byte   W12
        .byte           N40   , An4 , v105 , gtp1
        .byte   W04
@ 130   ----------------------------------------
        .byte   W36
        .byte   W01
        .byte           N32   , Fn4 , v114 , gtp3
        .byte   W32
        .byte   W02
        .byte           N28   , Cn5 , v097 , gtp1
        .byte   W24
        .byte   W01
@ 131   ----------------------------------------
        .byte   W12
        .byte           N11   , Fn5 , v098
        .byte   W11
        .byte           N12   , Ds5 , v102
        .byte   W11
        .byte           N11   , Dn5 , v094
        .byte   W12
        .byte                   Cn5 , v087
        .byte   W11
        .byte           N15   , As4 , v097
        .byte   W12
        .byte           N14   , Cn5 , v104
        .byte   W11
        .byte           N11   , Dn5 , v090
        .byte   W16
@ 132   ----------------------------------------
        .byte           VOICE , 4
        .byte   W96
@ 133   ----------------------------------------
        .byte   W96
@ 134   ----------------------------------------
        .byte   W96
@ 135   ----------------------------------------
        .byte   W96
@ 136   ----------------------------------------
        .byte   W96
@ 137   ----------------------------------------
        .byte   W96
@ 138   ----------------------------------------
        .byte   W96
@ 139   ----------------------------------------
        .byte   W96
@ 140   ----------------------------------------
        .byte   W96
@ 141   ----------------------------------------
        .byte   W96
@ 142   ----------------------------------------
        .byte   W96
@ 143   ----------------------------------------
        .byte   W96
@ 144   ----------------------------------------
        .byte   W96
@ 145   ----------------------------------------
        .byte   W96
@ 146   ----------------------------------------
        .byte   W96
@ 147   ----------------------------------------
        .byte   W96
@ 148   ----------------------------------------
        .byte   W96
@ 149   ----------------------------------------
        .byte   W96
@ 150   ----------------------------------------
        .byte   W96
@ 151   ----------------------------------------
        .byte   W96
@ 152   ----------------------------------------
        .byte   W96
@ 153   ----------------------------------------
        .byte   W96
@ 154   ----------------------------------------
        .byte   W96
@ 155   ----------------------------------------
        .byte   W96
@ 156   ----------------------------------------
        .byte   W96
@ 157   ----------------------------------------
        .byte   W96
@ 158   ----------------------------------------
        .byte   W96
@ 159   ----------------------------------------
        .byte   W96
@ 160   ----------------------------------------
        .byte   W96
@ 161   ----------------------------------------
        .byte   W96
@ 162   ----------------------------------------
        .byte   PATT
         .word  BATTLE_WIRELESS_0000_6_54
@ 163   ----------------------------------------
        .byte   PATT
         .word  BATTLE_WIRELESS_0000_6_55
@ 164   ----------------------------------------
        .byte   PATT
         .word  BATTLE_WIRELESS_0000_6_56
@ 165   ----------------------------------------
        .byte   PATT
         .word  BATTLE_WIRELESS_0000_6_57
@ 166   ----------------------------------------
        .byte   PATT
         .word  BATTLE_WIRELESS_0000_6_56
@ 167   ----------------------------------------
        .byte   PATT
         .word  BATTLE_WIRELESS_0000_6_57
@ 168   ----------------------------------------
        .byte           N32   , Gn3 , v068 , gtp3
        .byte                   Gn4 , v077
        .byte   W36
        .byte                   Dn4 , v075
        .byte           N32   , Dn5 , v078 , gtp3
        .byte   W36
        .byte           N23   , Fn3 , v037
        .byte           N23   , Fn4 , v050
        .byte   W24
@ 169   ----------------------------------------
        .byte           N32   , Gn3 , v043 , gtp3
        .byte                   Gn4 , v052
        .byte   GOTO
         .word  BATTLE_WIRELESS_0000_6_LOOP
        .byte   W36
        .byte                   Dn4 , v050
        .byte           N32   , Dn5 , v053 , gtp3
        .byte   W36
        .byte           N23   , Fn3 , v019
        .byte           N23   , Fn4 , v032
        .byte   W23
        .byte   FINE

@****************** Track 7 (Midi-Chn.7) ******************@

BATTLE_WIRELESS_0000_7:
        .byte   KEYSH , BATTLE_WIRELESS_0000_key+0
@ 000   ----------------------------------------
        .byte           VOICE , 5
        .byte           VOL   , 32
        .byte           PAN   , c_v+42
        .byte   W96
@ 001   ----------------------------------------
        .byte   W96
@ 002   ----------------------------------------
        .byte   W96
@ 003   ----------------------------------------
        .byte   W96
@ 004   ----------------------------------------
        .byte   W96
@ 005   ----------------------------------------
        .byte   W96
@ 006   ----------------------------------------
        .byte   W96
@ 007   ----------------------------------------
        .byte   W96
@ 008   ----------------------------------------
        .byte   W96
@ 009   ----------------------------------------
        .byte   W96
@ 010   ----------------------------------------
        .byte   W96
@ 011   ----------------------------------------
        .byte   W96
@ 012   ----------------------------------------
        .byte   W96
@ 013   ----------------------------------------
        .byte   W96
@ 014   ----------------------------------------
BATTLE_WIRELESS_0000_7_14:
        .byte           N32   , An3 , v074 , gtp3
        .byte                   Cn4 , v090
        .byte   W36
        .byte           N28   , An3 , v083 , gtp1
        .byte           TIE   , Dn4 , v102
        .byte   W36
        .byte                   An3
        .byte   W24
        .byte   PEND
@ 015   ----------------------------------------
BATTLE_WIRELESS_0000_7_15:
        .byte   W92
        .byte   W03
        .byte           EOT   , Dn4
        .byte                   An3
        .byte   W01
        .byte   PEND
@ 016   ----------------------------------------
        .byte   W96
@ 017   ----------------------------------------
        .byte   W96
@ 018   ----------------------------------------
        .byte   W96
@ 019   ----------------------------------------
        .byte   W96
@ 020   ----------------------------------------
        .byte   W96
@ 021   ----------------------------------------
        .byte   W96
@ 022   ----------------------------------------
BATTLE_WIRELESS_0000_7_22:
        .byte           N32   , An3 , v074 , gtp3
        .byte                   Cn4 , v081
        .byte   W36
        .byte                   As3 , v074
        .byte           N32   , Dn4 , v091 , gtp3
        .byte   W36
        .byte                   An4 , v089
        .byte           N32   , Fn4 , v081 , gtp3
        .byte   W24
        .byte   PEND
@ 023   ----------------------------------------
BATTLE_WIRELESS_0000_7_23:
        .byte   W12
        .byte           N32   , Gn4 , v088 , gtp3
        .byte                   En4 , v081
        .byte   W36
        .byte           N23   , Fn4 , v087
        .byte           N23   , Dn4 , v083
        .byte   W24
        .byte                   En4
        .byte           N23   , Cn4 , v079
        .byte   W24
        .byte   PEND
@ 024   ----------------------------------------
        .byte   W96
@ 025   ----------------------------------------
        .byte   W96
@ 026   ----------------------------------------
        .byte   W96
@ 027   ----------------------------------------
        .byte   W96
@ 028   ----------------------------------------
        .byte   W96
@ 029   ----------------------------------------
        .byte   W96
@ 030   ----------------------------------------
BATTLE_WIRELESS_0000_7_30:
        .byte           N92   , Gn4 , v088 , gtp3
        .byte   W36
        .byte           N80   , Fn4 , v086 , gtp3
        .byte   W36
        .byte           N92   , Cn4 , v083 , gtp3
        .byte   W24
        .byte   PEND
@ 031   ----------------------------------------
BATTLE_WIRELESS_0000_7_31:
        .byte           N92   , An3 , v086 , gtp3
        .byte   W36
        .byte           N56   , Gn3 , v076 , gtp3
        .byte   W36
        .byte           N23   , Fn3 , v077
        .byte   W24
        .byte   PEND
@ 032   ----------------------------------------
        .byte   W96
@ 033   ----------------------------------------
        .byte   W96
@ 034   ----------------------------------------
        .byte   W96
@ 035   ----------------------------------------
        .byte   W96
@ 036   ----------------------------------------
        .byte   W96
@ 037   ----------------------------------------
        .byte   W96
@ 038   ----------------------------------------
        .byte   W96
@ 039   ----------------------------------------
        .byte   W96
@ 040   ----------------------------------------
        .byte   W96
@ 041   ----------------------------------------
        .byte   W96
@ 042   ----------------------------------------
        .byte   W96
@ 043   ----------------------------------------
        .byte   W96
@ 044   ----------------------------------------
        .byte   W96
@ 045   ----------------------------------------
        .byte   W96
@ 046   ----------------------------------------
        .byte   W96
@ 047   ----------------------------------------
        .byte   W96
@ 048   ----------------------------------------
        .byte   W96
@ 049   ----------------------------------------
BATTLE_WIRELESS_0000_7_49:
        .byte           N32   , Fn4 , v078
        .byte           N32   , An4 , v078 , gtp1
        .byte   W36
        .byte           N32   , Gn4 , v077 , gtp3
        .byte                   As4
        .byte   W36
        .byte           N44   , Dn4 , v078 , gtp3
        .byte                   Gn4
        .byte   W24
        .byte   PEND
@ 050   ----------------------------------------
        .byte   W96
@ 051   ----------------------------------------
        .byte   W96
@ 052   ----------------------------------------
        .byte   W96
@ 053   ----------------------------------------
        .byte   W96
@ 054   ----------------------------------------
        .byte   W96
@ 055   ----------------------------------------
        .byte   W96
@ 056   ----------------------------------------
        .byte   W96
@ 057   ----------------------------------------
        .byte   W96
@ 058   ----------------------------------------
        .byte   W96
@ 059   ----------------------------------------
        .byte   W96
@ 060   ----------------------------------------
        .byte   W96
@ 061   ----------------------------------------
BATTLE_WIRELESS_0000_7_LOOP:
        .byte   W96
@ 062   ----------------------------------------
        .byte   W96
@ 063   ----------------------------------------
        .byte   W96
@ 064   ----------------------------------------
        .byte   W96
@ 065   ----------------------------------------
        .byte   W96
@ 066   ----------------------------------------
        .byte   W96
@ 067   ----------------------------------------
        .byte   W96
@ 068   ----------------------------------------
        .byte   PATT
         .word  BATTLE_WIRELESS_0000_7_14
@ 069   ----------------------------------------
        .byte   PATT
         .word  BATTLE_WIRELESS_0000_7_15
@ 070   ----------------------------------------
        .byte   W96
@ 071   ----------------------------------------
        .byte   W96
@ 072   ----------------------------------------
        .byte   W96
@ 073   ----------------------------------------
        .byte   W96
@ 074   ----------------------------------------
        .byte   W96
@ 075   ----------------------------------------
        .byte   W96
@ 076   ----------------------------------------
        .byte   PATT
         .word  BATTLE_WIRELESS_0000_7_22
@ 077   ----------------------------------------
        .byte   PATT
         .word  BATTLE_WIRELESS_0000_7_23
@ 078   ----------------------------------------
        .byte   W96
@ 079   ----------------------------------------
        .byte   W96
@ 080   ----------------------------------------
        .byte   W96
@ 081   ----------------------------------------
        .byte   W96
@ 082   ----------------------------------------
        .byte   W96
@ 083   ----------------------------------------
        .byte   W96
@ 084   ----------------------------------------
        .byte   PATT
         .word  BATTLE_WIRELESS_0000_7_30
@ 085   ----------------------------------------
        .byte   PATT
         .word  BATTLE_WIRELESS_0000_7_31
@ 086   ----------------------------------------
        .byte   W96
@ 087   ----------------------------------------
        .byte   W96
@ 088   ----------------------------------------
        .byte   W96
@ 089   ----------------------------------------
        .byte   W96
@ 090   ----------------------------------------
        .byte   W96
@ 091   ----------------------------------------
        .byte   W96
@ 092   ----------------------------------------
        .byte   W96
@ 093   ----------------------------------------
        .byte   W96
@ 094   ----------------------------------------
        .byte   W96
@ 095   ----------------------------------------
        .byte   W96
@ 096   ----------------------------------------
        .byte   W96
@ 097   ----------------------------------------
        .byte   W96
@ 098   ----------------------------------------
        .byte   W96
@ 099   ----------------------------------------
        .byte   W96
@ 100   ----------------------------------------
        .byte   W96
@ 101   ----------------------------------------
        .byte   W96
@ 102   ----------------------------------------
        .byte   W96
@ 103   ----------------------------------------
        .byte   PATT
         .word  BATTLE_WIRELESS_0000_7_49
@ 104   ----------------------------------------
        .byte   W96
@ 105   ----------------------------------------
        .byte   W96
@ 106   ----------------------------------------
        .byte   W96
@ 107   ----------------------------------------
        .byte   W96
@ 108   ----------------------------------------
        .byte   W96
@ 109   ----------------------------------------
        .byte   W96
@ 110   ----------------------------------------
        .byte   W96
@ 111   ----------------------------------------
        .byte   W96
@ 112   ----------------------------------------
        .byte   W96
@ 113   ----------------------------------------
        .byte   W96
@ 114   ----------------------------------------
        .byte   W96
@ 115   ----------------------------------------
        .byte   W96
@ 116   ----------------------------------------
        .byte   W96
@ 117   ----------------------------------------
        .byte   W96
@ 118   ----------------------------------------
        .byte   W96
@ 119   ----------------------------------------
        .byte   W96
@ 120   ----------------------------------------
        .byte   W96
@ 121   ----------------------------------------
        .byte   W96
@ 122   ----------------------------------------
        .byte   W96
@ 123   ----------------------------------------
        .byte   W96
@ 124   ----------------------------------------
        .byte   W96
@ 125   ----------------------------------------
        .byte   W96
@ 126   ----------------------------------------
        .byte   W96
@ 127   ----------------------------------------
        .byte   W96
@ 128   ----------------------------------------
        .byte   W96
@ 129   ----------------------------------------
        .byte   W96
@ 130   ----------------------------------------
        .byte   W96
@ 131   ----------------------------------------
        .byte   W96
@ 132   ----------------------------------------
        .byte   W96
@ 133   ----------------------------------------
        .byte   W96
@ 134   ----------------------------------------
        .byte   W96
@ 135   ----------------------------------------
        .byte   W96
@ 136   ----------------------------------------
        .byte   W96
@ 137   ----------------------------------------
        .byte   W96
@ 138   ----------------------------------------
        .byte   PATT
         .word  BATTLE_WIRELESS_0000_7_30
@ 139   ----------------------------------------
        .byte   PATT
         .word  BATTLE_WIRELESS_0000_7_31
@ 140   ----------------------------------------
        .byte   W96
@ 141   ----------------------------------------
        .byte   W96
@ 142   ----------------------------------------
        .byte   W96
@ 143   ----------------------------------------
        .byte   W96
@ 144   ----------------------------------------
        .byte   W96
@ 145   ----------------------------------------
        .byte   W96
@ 146   ----------------------------------------
        .byte   W96
@ 147   ----------------------------------------
        .byte   W96
@ 148   ----------------------------------------
        .byte   W96
@ 149   ----------------------------------------
        .byte   W96
@ 150   ----------------------------------------
        .byte   W96
@ 151   ----------------------------------------
        .byte   W96
@ 152   ----------------------------------------
        .byte   W96
@ 153   ----------------------------------------
        .byte   W96
@ 154   ----------------------------------------
        .byte   W96
@ 155   ----------------------------------------
        .byte   W96
@ 156   ----------------------------------------
        .byte   W96
@ 157   ----------------------------------------
        .byte   PATT
         .word  BATTLE_WIRELESS_0000_7_49
@ 158   ----------------------------------------
        .byte   W96
@ 159   ----------------------------------------
        .byte   W96
@ 160   ----------------------------------------
        .byte   W96
@ 161   ----------------------------------------
        .byte   W96
@ 162   ----------------------------------------
        .byte   W96
@ 163   ----------------------------------------
        .byte   W96
@ 164   ----------------------------------------
        .byte   W96
@ 165   ----------------------------------------
        .byte   W96
@ 166   ----------------------------------------
        .byte   W96
@ 167   ----------------------------------------
        .byte   W96
@ 168   ----------------------------------------
        .byte   W96
@ 169   ----------------------------------------
        .byte   GOTO
         .word  BATTLE_WIRELESS_0000_7_LOOP
        .byte   W92
        .byte   W03
        .byte   FINE

@****************** Track 8 (Midi-Chn.8) ******************@

BATTLE_WIRELESS_0000_8:
        .byte   KEYSH , BATTLE_WIRELESS_0000_key+0
@ 000   ----------------------------------------
        .byte           VOICE , 122
        .byte           VOL   , 29
        .byte   W96
@ 001   ----------------------------------------
        .byte   W96
@ 002   ----------------------------------------
        .byte   W96
@ 003   ----------------------------------------
        .byte   W96
@ 004   ----------------------------------------
        .byte           N23   , Dn1 , v127
        .byte           N96   , Gn2
        .byte   W12
        .byte           N11   , Cn1
        .byte   W12
        .byte           N23
        .byte   W12
        .byte                   Dn1
        .byte   W12
        .byte           N11   , Cs2 , v125
        .byte           N11   , Cn1 , v127
        .byte   W12
        .byte           N23   , Cs2 , v126
        .byte           N23   , Cn1 , v127
        .byte   W12
        .byte                   Dn1
        .byte   W12
        .byte           N11   , Cs2 , v121
        .byte           N11   , Cn1 , v127
        .byte   W12
@ 005   ----------------------------------------
        .byte           N23   , Cs2 , v125
        .byte           N23   , Cn1 , v127
        .byte   W12
        .byte                   Dn1
        .byte   W12
        .byte           N11   , Cs2 , v126
        .byte           N11   , Cn1 , v127
        .byte   W12
        .byte           N23   , Cs2 , v120
        .byte           N23   , Cn1 , v127
        .byte   W12
        .byte                   Dn1
        .byte   W12
        .byte                   Cs2 , v126
        .byte           N23   , Cn1 , v127
        .byte   W12
        .byte                   Dn1
        .byte   W12
        .byte                   Cs2 , v125
        .byte           N23   , Cn1 , v127
        .byte   W12
@ 006   ----------------------------------------
        .byte                   Dn1
        .byte   W12
        .byte           N11   , Cs2
        .byte           N11   , Cn1
        .byte   W12
        .byte           N23   , Cs2 , v120
        .byte           N23   , Cn1 , v127
        .byte   W12
        .byte                   Dn1
        .byte   W12
        .byte           N11   , Cs2 , v125
        .byte           N11   , Cn1 , v127
        .byte   W12
        .byte           N23   , Cs2 , v126
        .byte           N23   , Cn1 , v127
        .byte   W12
        .byte                   Dn1
        .byte   W12
        .byte           N12   , Cs2 , v121
        .byte           N11   , Cn1 , v127
        .byte   W12
@ 007   ----------------------------------------
        .byte           N23   , Cs2 , v121
        .byte           N11   , Cn1 , v127
        .byte   W12
        .byte           N23
        .byte   W06
        .byte           N05   , En1
        .byte   W06
        .byte           N23
        .byte   W12
        .byte                   Cn2
        .byte   W12
        .byte           N11   , Bn1
        .byte   W12
        .byte                   Bn1
        .byte   W12
        .byte           N23
        .byte   W12
        .byte           N11   , Cn1
        .byte   W12
@ 008   ----------------------------------------
BATTLE_WIRELESS_0000_8_8:
        .byte           N92   , An2 , v127 , gtp3
        .byte           N11   , Cn1
        .byte   W12
        .byte           N23
        .byte   W12
        .byte                   Ds2
        .byte           N23   , Dn1
        .byte   W24
        .byte                   Ds2
        .byte           N11   , Cn1
        .byte   W12
        .byte           N23
        .byte   W12
        .byte                   Ds2
        .byte           N23   , Dn1
        .byte   W24
        .byte   PEND
@ 009   ----------------------------------------
BATTLE_WIRELESS_0000_8_9:
        .byte           N23   , Ds2 , v127
        .byte           N11   , Cn1
        .byte   W12
        .byte           N23
        .byte   W12
        .byte                   Ds2
        .byte           N23   , Dn1
        .byte   W24
        .byte                   Ds2
        .byte           N11   , Cn1
        .byte   W12
        .byte           N23
        .byte   W12
        .byte                   Ds2
        .byte           N23   , Dn1
        .byte   W24
        .byte   PEND
@ 010   ----------------------------------------
        .byte   PATT
         .word  BATTLE_WIRELESS_0000_8_9
@ 011   ----------------------------------------
        .byte   PATT
         .word  BATTLE_WIRELESS_0000_8_9
@ 012   ----------------------------------------
        .byte   PATT
         .word  BATTLE_WIRELESS_0000_8_8
@ 013   ----------------------------------------
        .byte   PATT
         .word  BATTLE_WIRELESS_0000_8_9
@ 014   ----------------------------------------
        .byte   PATT
         .word  BATTLE_WIRELESS_0000_8_9
@ 015   ----------------------------------------
BATTLE_WIRELESS_0000_8_15:
        .byte           N23   , Ds2 , v127
        .byte           N11   , Cn1
        .byte   W12
        .byte           N05
        .byte   W06
        .byte           N23
        .byte   W06
        .byte           N68   , An2 , v127 , gtp3
        .byte           N23   , Dn1
        .byte   W24
        .byte                   Ds2
        .byte           N11   , Cn1
        .byte   W12
        .byte           N05
        .byte   W06
        .byte           N23
        .byte   W06
        .byte           N92   , Gn2 , v127 , gtp3
        .byte           N23   , Dn1
        .byte   W24
        .byte   PEND
@ 016   ----------------------------------------
        .byte   PATT
         .word  BATTLE_WIRELESS_0000_8_8
@ 017   ----------------------------------------
        .byte   PATT
         .word  BATTLE_WIRELESS_0000_8_9
@ 018   ----------------------------------------
        .byte   PATT
         .word  BATTLE_WIRELESS_0000_8_9
@ 019   ----------------------------------------
        .byte   PATT
         .word  BATTLE_WIRELESS_0000_8_9
@ 020   ----------------------------------------
        .byte   PATT
         .word  BATTLE_WIRELESS_0000_8_8
@ 021   ----------------------------------------
        .byte   PATT
         .word  BATTLE_WIRELESS_0000_8_9
@ 022   ----------------------------------------
        .byte   PATT
         .word  BATTLE_WIRELESS_0000_8_9
@ 023   ----------------------------------------
BATTLE_WIRELESS_0000_8_23:
        .byte           N92   , Gn2 , v127 , gtp3
        .byte           N23   , Dn1
        .byte   W12
        .byte           N11   , Cn1
        .byte   W12
        .byte           N23   , Ds2
        .byte           N23   , Cn1
        .byte   W12
        .byte                   Dn1
        .byte   W06
        .byte                   En1
        .byte   W06
        .byte                   Ds2
        .byte   W12
        .byte                   Dn1
        .byte   W06
        .byte                   En1
        .byte   W06
        .byte                   An1
        .byte   W12
        .byte                   Dn3
        .byte   W12
        .byte   PEND
@ 024   ----------------------------------------
BATTLE_WIRELESS_0000_8_24:
        .byte           N92   , An2 , v127 , gtp3
        .byte           N23   , Cn1
        .byte   W23
        .byte           N24   , Ds2
        .byte   W12
        .byte                   Cn1
        .byte   W13
        .byte           N23   , Ds2
        .byte           N23   , En1
        .byte   W23
        .byte           N24   , Ds2
        .byte   W12
        .byte                   Cn1
        .byte   W12
        .byte                   Ds2
        .byte   W01
        .byte   PEND
@ 025   ----------------------------------------
BATTLE_WIRELESS_0000_8_25:
        .byte   W23
        .byte           N24   , Ds2 , v127
        .byte   W12
        .byte                   Cn1
        .byte   W12
        .byte                   Ds2
        .byte   W01
        .byte           N23   , En1
        .byte   W23
        .byte           N24   , Ds2
        .byte   W24
        .byte   W01
        .byte   PEND
@ 026   ----------------------------------------
BATTLE_WIRELESS_0000_8_26:
        .byte           N23   , Ds2 , v127
        .byte           N23   , Cn1
        .byte   W23
        .byte           N24   , Ds2
        .byte   W12
        .byte                   Cn1
        .byte   W13
        .byte           N23   , Ds2
        .byte           N23   , En1
        .byte   W23
        .byte           N24   , Ds2
        .byte   W12
        .byte                   Cn1
        .byte   W12
        .byte                   Ds2
        .byte   W01
        .byte   PEND
@ 027   ----------------------------------------
BATTLE_WIRELESS_0000_8_27:
        .byte   W23
        .byte           N24   , Ds2 , v127
        .byte   W12
        .byte                   Cn1
        .byte   W12
        .byte                   Ds2
        .byte   W01
        .byte           N23   , En1
        .byte   W23
        .byte           N24   , Ds2
        .byte   W24
        .byte                   Ds2
        .byte           N24   , Cn1
        .byte   W01
        .byte   PEND
@ 028   ----------------------------------------
BATTLE_WIRELESS_0000_8_28:
        .byte   W23
        .byte           N23   , Ds2 , v127
        .byte   W12
        .byte                   Cn1
        .byte   W12
        .byte                   Ds2
        .byte   W01
        .byte                   En1
        .byte   W23
        .byte                   Ds2
        .byte   W24
        .byte                   Ds2
        .byte           N23   , Cn1
        .byte   W01
        .byte   PEND
@ 029   ----------------------------------------
BATTLE_WIRELESS_0000_8_29:
        .byte   W11
        .byte           N24   , En1 , v127
        .byte   W12
        .byte           N23   , Ds2
        .byte   W12
        .byte                   Cn1
        .byte   W12
        .byte                   Ds2
        .byte           N23   , En1
        .byte   W24
        .byte                   Ds2
        .byte   W12
        .byte           N12   , Cn1
        .byte   W13
        .byte   PEND
@ 030   ----------------------------------------
BATTLE_WIRELESS_0000_8_30:
        .byte           N23   , Ds2 , v127
        .byte           N23   , Cn1
        .byte   W23
        .byte           N24   , Ds2
        .byte   W12
        .byte                   Cn1
        .byte   W12
        .byte                   Ds2
        .byte           N24   , En1
        .byte   W24
        .byte                   Ds2
        .byte           N12   , Cn1
        .byte   W12
        .byte           N24
        .byte   W12
        .byte                   Ds2
        .byte   W01
        .byte   PEND
@ 031   ----------------------------------------
BATTLE_WIRELESS_0000_8_31:
        .byte   W12
        .byte           N23   , Dn1 , v127
        .byte   W11
        .byte           N72   , An2
        .byte           N24   , Cn1
        .byte   W20
        .byte                   En1 , v121
        .byte   W04
        .byte                   Dn1 , v127
        .byte   W12
        .byte                   Bn1
        .byte   W12
        .byte           N07   , An1
        .byte   W07
        .byte           N23
        .byte   W05
        .byte           N24   , Dn3
        .byte           N12   , Cn1
        .byte   W13
        .byte   PEND
@ 032   ----------------------------------------
BATTLE_WIRELESS_0000_8_32:
        .byte           N92   , An2 , v127 , gtp3
        .byte           N23   , Cn1
        .byte   W24
        .byte                   Ds2
        .byte   W12
        .byte                   Cn1
        .byte   W12
        .byte                   Ds2
        .byte           N23   , En1
        .byte   W24
        .byte                   Ds2
        .byte   W12
        .byte                   Cn1
        .byte   W12
        .byte   PEND
@ 033   ----------------------------------------
BATTLE_WIRELESS_0000_8_33:
        .byte           N23   , Ds2 , v127
        .byte   W24
        .byte                   Ds2
        .byte   W12
        .byte                   Cn1
        .byte   W12
        .byte                   Ds2
        .byte           N23   , En1
        .byte   W24
        .byte                   Ds2
        .byte   W24
        .byte   PEND
@ 034   ----------------------------------------
BATTLE_WIRELESS_0000_8_34:
        .byte           N23   , Ds2 , v127
        .byte           N23   , Cn1
        .byte   W24
        .byte                   Ds2
        .byte   W12
        .byte                   Cn1
        .byte   W12
        .byte                   Ds2
        .byte           N23   , En1
        .byte   W24
        .byte                   Ds2
        .byte   W12
        .byte                   Cn1
        .byte   W12
        .byte   PEND
@ 035   ----------------------------------------
        .byte   PATT
         .word  BATTLE_WIRELESS_0000_8_33
@ 036   ----------------------------------------
BATTLE_WIRELESS_0000_8_36:
        .byte           N92   , An2 , v127 , gtp3
        .byte           N23   , Cn1
        .byte   W24
        .byte                   Ds2
        .byte   W12
        .byte                   Cn1
        .byte   W12
        .byte                   Ds2
        .byte           N23   , En1
        .byte   W24
        .byte                   Ds2
        .byte   W24
        .byte   PEND
@ 037   ----------------------------------------
BATTLE_WIRELESS_0000_8_37:
        .byte           N23   , Ds2 , v127
        .byte           N23   , Cn1
        .byte   W12
        .byte                   En1
        .byte   W12
        .byte                   Ds2
        .byte   W12
        .byte                   Cn1
        .byte   W12
        .byte                   Ds2
        .byte           N23   , En1
        .byte   W24
        .byte                   Ds2
        .byte   W12
        .byte           N11   , Cn1
        .byte   W12
        .byte   PEND
@ 038   ----------------------------------------
BATTLE_WIRELESS_0000_8_38:
        .byte           N92   , An2 , v127 , gtp3
        .byte           N23   , Cn1
        .byte   W24
        .byte                   Ds2
        .byte   W12
        .byte                   Cn1
        .byte   W12
        .byte                   Ds2
        .byte           N23   , En1
        .byte   W12
        .byte                   Cn1
        .byte   W12
        .byte                   Ds2
        .byte   W12
        .byte                   Dn1
        .byte   W12
        .byte   PEND
@ 039   ----------------------------------------
BATTLE_WIRELESS_0000_8_39:
        .byte           N11   , Bn1 , v127
        .byte   W12
        .byte                   Bn1
        .byte   W12
        .byte           N23
        .byte   W12
        .byte           N11   , An1
        .byte   W12
        .byte                   An1
        .byte   W12
        .byte           N23
        .byte   W12
        .byte           N11   , Dn3
        .byte   W12
        .byte           N23
        .byte           N09   , En1
        .byte   W09
        .byte           N02
        .byte   W03
        .byte   PEND
@ 040   ----------------------------------------
BATTLE_WIRELESS_0000_8_40:
        .byte           N23   , En1 , v127
        .byte   W12
        .byte           N11   , Cn1
        .byte   W11
        .byte           N24
        .byte   W11
        .byte           N01   , En1
        .byte   W02
        .byte           N23
        .byte   W12
        .byte           N11   , Cn1
        .byte   W11
        .byte           N24
        .byte   W10
        .byte           N02   , En1
        .byte   W03
        .byte           N22
        .byte   W11
        .byte           N24   , Cn1
        .byte   W11
        .byte           N01   , En1
        .byte   W02
        .byte   PEND
@ 041   ----------------------------------------
        .byte           N23
        .byte   W96
@ 042   ----------------------------------------
        .byte   PATT
         .word  BATTLE_WIRELESS_0000_8_8
@ 043   ----------------------------------------
        .byte   PATT
         .word  BATTLE_WIRELESS_0000_8_9
@ 044   ----------------------------------------
        .byte   PATT
         .word  BATTLE_WIRELESS_0000_8_9
@ 045   ----------------------------------------
BATTLE_WIRELESS_0000_8_45:
        .byte           N23   , Ds2 , v127
        .byte           N11   , Cn1
        .byte   W12
        .byte           N23
        .byte   W12
        .byte           N44   , An2 , v127 , gtp3
        .byte           N23   , Dn1
        .byte   W24
        .byte                   Ds2
        .byte           N11   , Cn1
        .byte   W12
        .byte           N23
        .byte   W12
        .byte                   An2
        .byte           N23   , Dn1
        .byte   W24
        .byte   PEND
@ 046   ----------------------------------------
        .byte   PATT
         .word  BATTLE_WIRELESS_0000_8_8
@ 047   ----------------------------------------
        .byte   PATT
         .word  BATTLE_WIRELESS_0000_8_9
@ 048   ----------------------------------------
        .byte   PATT
         .word  BATTLE_WIRELESS_0000_8_9
@ 049   ----------------------------------------
BATTLE_WIRELESS_0000_8_49:
        .byte           N23   , Ds2 , v127
        .byte           N11   , Cn1
        .byte   W12
        .byte           N05
        .byte   W12
        .byte           N68   , An2 , v127 , gtp3
        .byte           N23   , Dn1
        .byte   W24
        .byte                   Ds2
        .byte           N11   , Cn1
        .byte   W12
        .byte           N05
        .byte   W12
        .byte           N92   , Gn2 , v127 , gtp3
        .byte           N23   , Dn1
        .byte   W24
        .byte   PEND
@ 050   ----------------------------------------
        .byte   PATT
         .word  BATTLE_WIRELESS_0000_8_8
@ 051   ----------------------------------------
        .byte   PATT
         .word  BATTLE_WIRELESS_0000_8_9
@ 052   ----------------------------------------
        .byte   PATT
         .word  BATTLE_WIRELESS_0000_8_9
@ 053   ----------------------------------------
        .byte   PATT
         .word  BATTLE_WIRELESS_0000_8_23
@ 054   ----------------------------------------
        .byte   PATT
         .word  BATTLE_WIRELESS_0000_8_32
@ 055   ----------------------------------------
        .byte   PATT
         .word  BATTLE_WIRELESS_0000_8_33
@ 056   ----------------------------------------
BATTLE_WIRELESS_0000_8_56:
        .byte           N23   , Ds2 , v127
        .byte           N23   , Cn1
        .byte   W24
        .byte                   Ds2
        .byte   W12
        .byte                   Cn1
        .byte   W12
        .byte                   Ds2
        .byte           N23   , En1
        .byte   W24
        .byte                   Ds2
        .byte           N11   , Cn1
        .byte   W12
        .byte           N23
        .byte   W12
        .byte   PEND
@ 057   ----------------------------------------
BATTLE_WIRELESS_0000_8_57:
        .byte           N23   , Ds2 , v127
        .byte   W12
        .byte                   Dn1
        .byte   W12
        .byte           N68   , An2 , v127 , gtp3
        .byte           N23   , Cn1
        .byte   W18
        .byte                   En1 , v121
        .byte   W06
        .byte                   Dn1 , v127
        .byte   W12
        .byte                   Bn1
        .byte   W12
        .byte           N05   , An1
        .byte   W06
        .byte           N23
        .byte   W06
        .byte                   Dn3
        .byte           N11   , Cn1
        .byte   W12
        .byte   PEND
@ 058   ----------------------------------------
BATTLE_WIRELESS_0000_8_58:
        .byte           N92   , An2 , v127 , gtp3
        .byte           N23   , Cn1
        .byte   W96
        .byte   PEND
@ 059   ----------------------------------------
        .byte   W96
@ 060   ----------------------------------------
        .byte   W96
@ 061   ----------------------------------------
BATTLE_WIRELESS_0000_8_LOOP:
        .byte           N92   , Gn2 , v127 , gtp3
        .byte           N23   , Dn1
        .byte   W12
        .byte           N11   , Cn1
        .byte   W12
        .byte           N23   , Ds2
        .byte           N23   , Cn1
        .byte   W12
        .byte                   Dn1
        .byte   W06
        .byte                   En1
        .byte   W06
        .byte                   Ds2
        .byte   W12
        .byte                   Dn1
        .byte   W06
        .byte                   En1
        .byte   W06
        .byte                   An1
        .byte   W12
        .byte                   Dn3
        .byte   W12
@ 062   ----------------------------------------
        .byte   PATT
         .word  BATTLE_WIRELESS_0000_8_8
@ 063   ----------------------------------------
        .byte   PATT
         .word  BATTLE_WIRELESS_0000_8_9
@ 064   ----------------------------------------
        .byte   PATT
         .word  BATTLE_WIRELESS_0000_8_9
@ 065   ----------------------------------------
        .byte   PATT
         .word  BATTLE_WIRELESS_0000_8_9
@ 066   ----------------------------------------
        .byte   PATT
         .word  BATTLE_WIRELESS_0000_8_8
@ 067   ----------------------------------------
        .byte   PATT
         .word  BATTLE_WIRELESS_0000_8_9
@ 068   ----------------------------------------
        .byte   PATT
         .word  BATTLE_WIRELESS_0000_8_9
@ 069   ----------------------------------------
        .byte   PATT
         .word  BATTLE_WIRELESS_0000_8_15
@ 070   ----------------------------------------
        .byte   PATT
         .word  BATTLE_WIRELESS_0000_8_8
@ 071   ----------------------------------------
        .byte   PATT
         .word  BATTLE_WIRELESS_0000_8_9
@ 072   ----------------------------------------
        .byte   PATT
         .word  BATTLE_WIRELESS_0000_8_9
@ 073   ----------------------------------------
        .byte   PATT
         .word  BATTLE_WIRELESS_0000_8_9
@ 074   ----------------------------------------
        .byte   PATT
         .word  BATTLE_WIRELESS_0000_8_8
@ 075   ----------------------------------------
        .byte   PATT
         .word  BATTLE_WIRELESS_0000_8_9
@ 076   ----------------------------------------
        .byte   PATT
         .word  BATTLE_WIRELESS_0000_8_9
@ 077   ----------------------------------------
        .byte   PATT
         .word  BATTLE_WIRELESS_0000_8_23
@ 078   ----------------------------------------
        .byte   PATT
         .word  BATTLE_WIRELESS_0000_8_24
@ 079   ----------------------------------------
        .byte   PATT
         .word  BATTLE_WIRELESS_0000_8_25
@ 080   ----------------------------------------
        .byte   PATT
         .word  BATTLE_WIRELESS_0000_8_26
@ 081   ----------------------------------------
        .byte   PATT
         .word  BATTLE_WIRELESS_0000_8_27
@ 082   ----------------------------------------
        .byte   PATT
         .word  BATTLE_WIRELESS_0000_8_28
@ 083   ----------------------------------------
        .byte   PATT
         .word  BATTLE_WIRELESS_0000_8_29
@ 084   ----------------------------------------
        .byte   PATT
         .word  BATTLE_WIRELESS_0000_8_30
@ 085   ----------------------------------------
        .byte   PATT
         .word  BATTLE_WIRELESS_0000_8_31
@ 086   ----------------------------------------
        .byte   PATT
         .word  BATTLE_WIRELESS_0000_8_32
@ 087   ----------------------------------------
        .byte   PATT
         .word  BATTLE_WIRELESS_0000_8_33
@ 088   ----------------------------------------
        .byte   PATT
         .word  BATTLE_WIRELESS_0000_8_34
@ 089   ----------------------------------------
        .byte   PATT
         .word  BATTLE_WIRELESS_0000_8_33
@ 090   ----------------------------------------
        .byte   PATT
         .word  BATTLE_WIRELESS_0000_8_36
@ 091   ----------------------------------------
        .byte   PATT
         .word  BATTLE_WIRELESS_0000_8_37
@ 092   ----------------------------------------
        .byte   PATT
         .word  BATTLE_WIRELESS_0000_8_38
@ 093   ----------------------------------------
        .byte   PATT
         .word  BATTLE_WIRELESS_0000_8_39
@ 094   ----------------------------------------
        .byte   PATT
         .word  BATTLE_WIRELESS_0000_8_40
@ 095   ----------------------------------------
        .byte           N23   , En1 , v127
        .byte   W96
@ 096   ----------------------------------------
        .byte   PATT
         .word  BATTLE_WIRELESS_0000_8_8
@ 097   ----------------------------------------
        .byte   PATT
         .word  BATTLE_WIRELESS_0000_8_9
@ 098   ----------------------------------------
        .byte   PATT
         .word  BATTLE_WIRELESS_0000_8_9
@ 099   ----------------------------------------
        .byte   PATT
         .word  BATTLE_WIRELESS_0000_8_45
@ 100   ----------------------------------------
        .byte   PATT
         .word  BATTLE_WIRELESS_0000_8_8
@ 101   ----------------------------------------
        .byte   PATT
         .word  BATTLE_WIRELESS_0000_8_9
@ 102   ----------------------------------------
        .byte   PATT
         .word  BATTLE_WIRELESS_0000_8_9
@ 103   ----------------------------------------
        .byte   PATT
         .word  BATTLE_WIRELESS_0000_8_49
@ 104   ----------------------------------------
        .byte   PATT
         .word  BATTLE_WIRELESS_0000_8_8
@ 105   ----------------------------------------
        .byte   PATT
         .word  BATTLE_WIRELESS_0000_8_9
@ 106   ----------------------------------------
        .byte   PATT
         .word  BATTLE_WIRELESS_0000_8_9
@ 107   ----------------------------------------
        .byte   PATT
         .word  BATTLE_WIRELESS_0000_8_23
@ 108   ----------------------------------------
        .byte   PATT
         .word  BATTLE_WIRELESS_0000_8_32
@ 109   ----------------------------------------
        .byte   PATT
         .word  BATTLE_WIRELESS_0000_8_33
@ 110   ----------------------------------------
        .byte   PATT
         .word  BATTLE_WIRELESS_0000_8_56
@ 111   ----------------------------------------
        .byte   PATT
         .word  BATTLE_WIRELESS_0000_8_57
@ 112   ----------------------------------------
        .byte   PATT
         .word  BATTLE_WIRELESS_0000_8_58
@ 113   ----------------------------------------
        .byte   W96
@ 114   ----------------------------------------
        .byte   W96
@ 115   ----------------------------------------
        .byte   PATT
         .word  BATTLE_WIRELESS_0000_8_23
@ 116   ----------------------------------------
BATTLE_WIRELESS_0000_8_116:
        .byte           N92   , An2 , v127 , gtp3
        .byte           N11   , Cn1
        .byte   W11
        .byte           N24
        .byte   W12
        .byte                   Ds2
        .byte           N24   , Dn1
        .byte   W24
        .byte                   Ds2
        .byte           N12   , Cn1
        .byte   W12
        .byte           N24
        .byte   W12
        .byte                   Ds2
        .byte           N24   , Dn1
        .byte   W24
        .byte                   Ds2
        .byte           N12   , Cn1
        .byte   W01
        .byte   PEND
@ 117   ----------------------------------------
BATTLE_WIRELESS_0000_8_117:
        .byte   W11
        .byte           N24   , Cn1 , v127
        .byte   W12
        .byte                   Ds2
        .byte           N24   , Dn1
        .byte   W24
        .byte                   Ds2
        .byte           N12   , Cn1
        .byte   W12
        .byte           N24
        .byte   W12
        .byte                   Ds2
        .byte           N24   , Dn1
        .byte   W24
        .byte                   Ds2
        .byte           N12   , Cn1
        .byte   W01
        .byte   PEND
@ 118   ----------------------------------------
        .byte   PATT
         .word  BATTLE_WIRELESS_0000_8_117
@ 119   ----------------------------------------
BATTLE_WIRELESS_0000_8_119:
        .byte   W11
        .byte           N06   , Cn1 , v127
        .byte   W07
        .byte           N23
        .byte   W05
        .byte           N72   , An2
        .byte           N24   , Dn1
        .byte   W24
        .byte                   Ds2
        .byte           N12   , Cn1
        .byte   W12
        .byte           N06
        .byte   W07
        .byte           N23
        .byte   W05
        .byte           N96   , Gn2
        .byte           N24   , Dn1
        .byte   W24
        .byte           N96   , An2
        .byte           N12   , Cn1
        .byte   W01
        .byte   PEND
@ 120   ----------------------------------------
        .byte   PATT
         .word  BATTLE_WIRELESS_0000_8_117
@ 121   ----------------------------------------
BATTLE_WIRELESS_0000_8_121:
        .byte   W11
        .byte           N24   , Cn1 , v127
        .byte   W12
        .byte                   Ds2
        .byte           N24   , Dn1
        .byte   W24
        .byte                   Ds2
        .byte           N12   , Cn1
        .byte   W12
        .byte           N24
        .byte   W12
        .byte                   Ds2
        .byte           N24   , Dn1
        .byte   W24
        .byte                   Ds2
        .byte           N24   , Cn1
        .byte   W01
        .byte   PEND
@ 122   ----------------------------------------
BATTLE_WIRELESS_0000_8_122:
        .byte   W23
        .byte           N24   , Ds2 , v127
        .byte           N24   , Dn1
        .byte   W24
        .byte                   Ds2
        .byte           N12   , Cn1
        .byte   W12
        .byte           N24
        .byte   W12
        .byte                   Ds2
        .byte           N24   , Dn1
        .byte   W24
        .byte           N96   , An2
        .byte           N12   , Cn1
        .byte   W01
        .byte   PEND
@ 123   ----------------------------------------
BATTLE_WIRELESS_0000_8_123:
        .byte   W11
        .byte           N24   , Cn1 , v127
        .byte   W12
        .byte                   Cn3
        .byte           N12   , Dn1
        .byte   W12
        .byte                   Dn1
        .byte           N24   , Bn1
        .byte   W07
        .byte           N23   , En1
        .byte   W05
        .byte           N12   , An1
        .byte           N12   , Dn1
        .byte   W12
        .byte           N24   , An1
        .byte           N12   , Dn1
        .byte   W12
        .byte                   Dn1
        .byte           N13   , Dn3
        .byte   W12
        .byte           N24   , Dn1
        .byte   W01
        .byte           N23   , Dn3
        .byte   W12
        .byte   PEND
@ 124   ----------------------------------------
        .byte   PATT
         .word  BATTLE_WIRELESS_0000_8_116
@ 125   ----------------------------------------
        .byte   PATT
         .word  BATTLE_WIRELESS_0000_8_117
@ 126   ----------------------------------------
        .byte   PATT
         .word  BATTLE_WIRELESS_0000_8_117
@ 127   ----------------------------------------
        .byte   PATT
         .word  BATTLE_WIRELESS_0000_8_119
@ 128   ----------------------------------------
        .byte   PATT
         .word  BATTLE_WIRELESS_0000_8_117
@ 129   ----------------------------------------
        .byte   PATT
         .word  BATTLE_WIRELESS_0000_8_121
@ 130   ----------------------------------------
        .byte   PATT
         .word  BATTLE_WIRELESS_0000_8_122
@ 131   ----------------------------------------
        .byte   PATT
         .word  BATTLE_WIRELESS_0000_8_123
@ 132   ----------------------------------------
        .byte   PATT
         .word  BATTLE_WIRELESS_0000_8_24
@ 133   ----------------------------------------
        .byte   PATT
         .word  BATTLE_WIRELESS_0000_8_25
@ 134   ----------------------------------------
        .byte   PATT
         .word  BATTLE_WIRELESS_0000_8_26
@ 135   ----------------------------------------
        .byte   PATT
         .word  BATTLE_WIRELESS_0000_8_27
@ 136   ----------------------------------------
        .byte   PATT
         .word  BATTLE_WIRELESS_0000_8_28
@ 137   ----------------------------------------
        .byte   PATT
         .word  BATTLE_WIRELESS_0000_8_29
@ 138   ----------------------------------------
        .byte   PATT
         .word  BATTLE_WIRELESS_0000_8_30
@ 139   ----------------------------------------
        .byte   PATT
         .word  BATTLE_WIRELESS_0000_8_31
@ 140   ----------------------------------------
        .byte   PATT
         .word  BATTLE_WIRELESS_0000_8_32
@ 141   ----------------------------------------
        .byte   PATT
         .word  BATTLE_WIRELESS_0000_8_33
@ 142   ----------------------------------------
        .byte   PATT
         .word  BATTLE_WIRELESS_0000_8_34
@ 143   ----------------------------------------
        .byte   PATT
         .word  BATTLE_WIRELESS_0000_8_33
@ 144   ----------------------------------------
        .byte   PATT
         .word  BATTLE_WIRELESS_0000_8_36
@ 145   ----------------------------------------
        .byte   PATT
         .word  BATTLE_WIRELESS_0000_8_37
@ 146   ----------------------------------------
        .byte   PATT
         .word  BATTLE_WIRELESS_0000_8_38
@ 147   ----------------------------------------
        .byte   PATT
         .word  BATTLE_WIRELESS_0000_8_39
@ 148   ----------------------------------------
        .byte   PATT
         .word  BATTLE_WIRELESS_0000_8_40
@ 149   ----------------------------------------
        .byte           N23   , En1 , v127
        .byte   W96
@ 150   ----------------------------------------
        .byte   PATT
         .word  BATTLE_WIRELESS_0000_8_8
@ 151   ----------------------------------------
        .byte   PATT
         .word  BATTLE_WIRELESS_0000_8_9
@ 152   ----------------------------------------
        .byte   PATT
         .word  BATTLE_WIRELESS_0000_8_9
@ 153   ----------------------------------------
        .byte   PATT
         .word  BATTLE_WIRELESS_0000_8_45
@ 154   ----------------------------------------
        .byte   PATT
         .word  BATTLE_WIRELESS_0000_8_8
@ 155   ----------------------------------------
        .byte   PATT
         .word  BATTLE_WIRELESS_0000_8_9
@ 156   ----------------------------------------
        .byte   PATT
         .word  BATTLE_WIRELESS_0000_8_9
@ 157   ----------------------------------------
        .byte   PATT
         .word  BATTLE_WIRELESS_0000_8_49
@ 158   ----------------------------------------
        .byte   PATT
         .word  BATTLE_WIRELESS_0000_8_8
@ 159   ----------------------------------------
        .byte   PATT
         .word  BATTLE_WIRELESS_0000_8_9
@ 160   ----------------------------------------
        .byte   PATT
         .word  BATTLE_WIRELESS_0000_8_9
@ 161   ----------------------------------------
        .byte   PATT
         .word  BATTLE_WIRELESS_0000_8_23
@ 162   ----------------------------------------
        .byte   PATT
         .word  BATTLE_WIRELESS_0000_8_32
@ 163   ----------------------------------------
        .byte   PATT
         .word  BATTLE_WIRELESS_0000_8_33
@ 164   ----------------------------------------
        .byte   PATT
         .word  BATTLE_WIRELESS_0000_8_56
@ 165   ----------------------------------------
        .byte   PATT
         .word  BATTLE_WIRELESS_0000_8_57
@ 166   ----------------------------------------
        .byte   PATT
         .word  BATTLE_WIRELESS_0000_8_58
@ 167   ----------------------------------------
        .byte   W96
@ 168   ----------------------------------------
        .byte   W96
@ 169   ----------------------------------------
        .byte   GOTO
         .word  BATTLE_WIRELESS_0000_8_LOOP
        .byte   W92
        .byte   W03
        .byte   FINE


@********************** End of Song ***********************@

        .align  2
BATTLE_WIRELESS_0000:
        .byte   9                       @ Num Tracks
        .byte   0                       @ Unknown
        .byte   BATTLE_WIRELESS_0000_pri @ Priority
        .byte   BATTLE_WIRELESS_0000_rev @ Reverb

        .word   BATTLE_WIRELESS_0000_grp

        .word   BATTLE_WIRELESS_0000_0
        .word   BATTLE_WIRELESS_0000_1
        .word   BATTLE_WIRELESS_0000_2
        .word   BATTLE_WIRELESS_0000_3
        .word   BATTLE_WIRELESS_0000_4
        .word   BATTLE_WIRELESS_0000_5
        .word   BATTLE_WIRELESS_0000_6
        .word   BATTLE_WIRELESS_0000_7
        .word   BATTLE_WIRELESS_0000_8

        .end
