//Event file generated from Sappy .s format.
        #include "MPlayDef.event"

        #define    BATTLE_WIRELESS_0000_grp  voicegroup000
        #define    BATTLE_WIRELESS_0000_pri  0
        #define    BATTLE_WIRELESS_0000_rev  0
        #define    BATTLE_WIRELESS_0000_key  0

        // .rodata
        // BATTLE_WIRELESS_0000
        ALIGN 4

//****************** Track 0 (Midi-Chn.0) ******************//

BATTLE_WIRELESS_0000_0:
        BYTE   KEYSH   BATTLE_WIRELESS_0000_key+0
// 000   ----------------------------------------
        BYTE   TEMPO   186/2
        BYTE           VOICE   20
        BYTE           VOL     16
        BYTE           PAN     c_v-42
        BYTE           TIE     Dn1   v058
        BYTE           TIE     Dn2   v064
        BYTE   W96
// 001   ----------------------------------------
        BYTE   W96
// 002   ----------------------------------------
        BYTE   W96
// 003   ----------------------------------------
        BYTE   W92
        BYTE   W03
        BYTE           EOT     Dn1
        BYTE                   Dn2
        BYTE   W01
// 004   ----------------------------------------
BATTLE_WIRELESS_0000_0_4:
        BYTE           TIE     As0   v058
        BYTE           TIE     As1   v064
        BYTE   W96
        BYTE   PEND
// 005   ----------------------------------------
BATTLE_WIRELESS_0000_0_5:
        BYTE   W92
        BYTE   W03
        BYTE           EOT     As0
        BYTE                   As1
        BYTE   W01
        BYTE   PEND
// 006   ----------------------------------------
        BYTE   PATT
         POIN2  BATTLE_WIRELESS_0000_0_4
// 007   ----------------------------------------
        BYTE   PATT
         POIN2  BATTLE_WIRELESS_0000_0_5
// 008   ----------------------------------------
        BYTE   W96
// 009   ----------------------------------------
        BYTE   W96
// 010   ----------------------------------------
        BYTE   W96
// 011   ----------------------------------------
        BYTE   W96
// 012   ----------------------------------------
        BYTE   W96
// 013   ----------------------------------------
        BYTE   W96
// 014   ----------------------------------------
        BYTE   W96
// 015   ----------------------------------------
        BYTE   W96
// 016   ----------------------------------------
        BYTE   W96
// 017   ----------------------------------------
        BYTE   W96
// 018   ----------------------------------------
        BYTE   W96
// 019   ----------------------------------------
        BYTE   W96
// 020   ----------------------------------------
        BYTE   W96
// 021   ----------------------------------------
        BYTE   W96
// 022   ----------------------------------------
        BYTE   W96
// 023   ----------------------------------------
        BYTE   W96
// 024   ----------------------------------------
BATTLE_WIRELESS_0000_0_24:
        BYTE           N80     Ds3   v079
        BYTE           N80     Gn3   v077   gtp3
        BYTE   W84
        BYTE           N11     Ds3   v016
        BYTE           N11     Gn3
        BYTE   W12
        BYTE   PEND
// 025   ----------------------------------------
BATTLE_WIRELESS_0000_0_25:
        BYTE           N80     En3   v075   gtp2
        BYTE           N80     Gn3   v080   gtp3
        BYTE   W84
        BYTE           N11     En3   v016
        BYTE           N11     Gn3
        BYTE   W12
        BYTE   PEND
// 026   ----------------------------------------
BATTLE_WIRELESS_0000_0_26:
        BYTE           N80     Cn3   v079
        BYTE   W01
        BYTE           N76     Fn3   v084   gtp1
        BYTE   W80
        BYTE   W03
        BYTE           N11     Cn3   v016
        BYTE           N11     Fn3
        BYTE   W12
        BYTE   PEND
// 027   ----------------------------------------
BATTLE_WIRELESS_0000_0_27:
        BYTE   W01
        BYTE           N76     Fs3   v084   gtp1
        BYTE           N72     An3   v085   gtp2
        BYTE   W80
        BYTE   W03
        BYTE           N11     Fs3   v016
        BYTE           N11     An3
        BYTE   W12
        BYTE   PEND
// 028   ----------------------------------------
BATTLE_WIRELESS_0000_0_28:
        BYTE           N66     Dn3   v083   gtp1
        BYTE                   Gn3   v087
        BYTE   W72
        BYTE           N17     Dn3   v016
        BYTE           N17     Gn3
        BYTE   W23
        BYTE           N84     Gs3   v070   gtp3
        BYTE           N88     Cn4   v078   gtp1
        BYTE   W01
        BYTE   PEND
// 029   ----------------------------------------
        BYTE   W96
// 030   ----------------------------------------
BATTLE_WIRELESS_0000_0_30:
        BYTE           N56     Cn3   v076   gtp3
        BYTE           N56     Fn3   v085   gtp1
        BYTE   W66
        BYTE           N22     Fn3   v078
        BYTE   W06
        BYTE           N19     As3   v072
        BYTE   W24
        BYTE   PEND
// 031   ----------------------------------------
BATTLE_WIRELESS_0000_0_31:
        BYTE           N80     Fn3   v087
        BYTE           N76     An3   v080
        BYTE   W84
        BYTE           N11     Fn3   v016
        BYTE           N11     An3
        BYTE   W12
        BYTE   PEND
// 032   ----------------------------------------
        BYTE   PATT
         POIN2  BATTLE_WIRELESS_0000_0_24
// 033   ----------------------------------------
        BYTE   PATT
         POIN2  BATTLE_WIRELESS_0000_0_25
// 034   ----------------------------------------
        BYTE   PATT
         POIN2  BATTLE_WIRELESS_0000_0_26
// 035   ----------------------------------------
        BYTE   PATT
         POIN2  BATTLE_WIRELESS_0000_0_27
// 036   ----------------------------------------
BATTLE_WIRELESS_0000_0_36:
        BYTE           N66     Dn3   v083   gtp1
        BYTE                   Gn3   v087
        BYTE   W72
        BYTE           N17     Dn3   v016
        BYTE           N17     Gn3
        BYTE   W24
        BYTE   PEND
// 037   ----------------------------------------
BATTLE_WIRELESS_0000_0_37:
        BYTE           N64     Gs3   v091   gtp1
        BYTE           N28     Cn4   v087   gtp1
        BYTE   W36
        BYTE           N32     Dn4   v098   gtp3
        BYTE   W36
        BYTE           N17     Gs3   v016
        BYTE           N17     As3
        BYTE   W24
        BYTE   PEND
// 038   ----------------------------------------
BATTLE_WIRELESS_0000_0_38:
        BYTE           TIE     Fn3   v090
        BYTE           TIE     An3   v088
        BYTE   W96
        BYTE   PEND
// 039   ----------------------------------------
BATTLE_WIRELESS_0000_0_39:
        BYTE   W56
        BYTE   W03
        BYTE           EOT     Fn3
        BYTE   W01
        BYTE           N07     Fn3   v084
        BYTE   W05
        BYTE           EOT     An3
        BYTE   W07
        BYTE           N17     An3   v074
        BYTE   W12
        BYTE           N11     Cn4   v088
        BYTE   W12
        BYTE   PEND
// 040   ----------------------------------------
BATTLE_WIRELESS_0000_0_40:
        BYTE           N24     Fn3   v098   gtp1
        BYTE                   An3   v093
        BYTE   W36
        BYTE           N22     Fn3   v083
        BYTE           N22     An3   v084
        BYTE   W36
        BYTE           N09     Fn3   v080
        BYTE           N09     An3   v098
        BYTE   W24
        BYTE   PEND
// 041   ----------------------------------------
BATTLE_WIRELESS_0000_0_41:
        BYTE           N17     Fn3   v083
        BYTE           N17     An3   v090
        BYTE   W96
        BYTE   PEND
// 042   ----------------------------------------
        BYTE           N28     Fn3   v069
        BYTE   W96
// 043   ----------------------------------------
        BYTE   W96
// 044   ----------------------------------------
BATTLE_WIRELESS_0000_0_44:
        BYTE           N84     Fn3   v078   gtp3
        BYTE           N90     Cn4   v077
        BYTE   W96
        BYTE   PEND
// 045   ----------------------------------------
BATTLE_WIRELESS_0000_0_45:
        BYTE           N88     Fn3   v065   gtp1
        BYTE           N90     As3   v074
        BYTE   W96
        BYTE   PEND
// 046   ----------------------------------------
        BYTE           N28     Fn3   v069
        BYTE   W96
// 047   ----------------------------------------
BATTLE_WIRELESS_0000_0_47:
        BYTE   W92
        BYTE   W02
        BYTE           N28     Fn3   v073   gtp1
        BYTE   W01
        BYTE                   An3   v075
        BYTE   W01
        BYTE   PEND
// 048   ----------------------------------------
BATTLE_WIRELESS_0000_0_48:
        BYTE   W36
        BYTE           N56     As3   v081   gtp3
        BYTE   W01
        BYTE                   Gn3   v076
        BYTE   W56
        BYTE   W03
        BYTE   PEND
// 049   ----------------------------------------
BATTLE_WIRELESS_0000_0_49:
        BYTE   W02
        BYTE           N28     Dn4   v089
        BYTE           N24     Fn4   v083   gtp3
        BYTE   W32
        BYTE   W02
        BYTE           N52     Dn4   v079   gtp1
        BYTE           N54     Gn4   v069
        BYTE   W60
        BYTE   PEND
// 050   ----------------------------------------
BATTLE_WIRELESS_0000_0_50:
        BYTE           N28     Fn3   v069
        BYTE           TIE     As3   v068
        BYTE   W36
        BYTE                   Gn3   v074
        BYTE   W60
        BYTE   PEND
// 051   ----------------------------------------
BATTLE_WIRELESS_0000_0_51:
        BYTE   W80
        BYTE   W01
        BYTE           EOT     Gn3
        BYTE   W14
        BYTE                   As3
        BYTE   W01
        BYTE   PEND
// 052   ----------------------------------------
BATTLE_WIRELESS_0000_0_52:
        BYTE           N84     Fn3   v078   gtp3
        BYTE           N90     An3   v074
        BYTE   W96
        BYTE   PEND
// 053   ----------------------------------------
        BYTE   PATT
         POIN2  BATTLE_WIRELESS_0000_0_45
// 054   ----------------------------------------
        BYTE           N28     Fn3   v069
        BYTE   W96
// 055   ----------------------------------------
        BYTE   PATT
         POIN2  BATTLE_WIRELESS_0000_0_47
// 056   ----------------------------------------
BATTLE_WIRELESS_0000_0_56:
        BYTE   W36
        BYTE           TIE     As3   v081
        BYTE   W01
        BYTE                   Gn3   v076
        BYTE   W56
        BYTE   W03
        BYTE   PEND
// 057   ----------------------------------------
BATTLE_WIRELESS_0000_0_57:
        BYTE   W92
        BYTE   W01
        BYTE           EOT     As3
        BYTE   W01
        BYTE                   Gn3
        BYTE   W01
        BYTE           TIE     Cn1   v082
        BYTE   W01
        BYTE   PEND
// 058   ----------------------------------------
        BYTE                   Cn2
        BYTE   W96
// 059   ----------------------------------------
        BYTE   W96
// 060   ----------------------------------------
BATTLE_WIRELESS_0000_0_60:
        BYTE   W88
        BYTE   W01
        BYTE           EOT     Cn1
        BYTE                   Cn2
        BYTE   W07
        BYTE   PEND
// 061   ----------------------------------------
BATTLE_WIRELESS_0000_0_LOOP:
        BYTE           N84     Cn2   v070   gtp3
        BYTE           N80     Gn3   v056
        BYTE   W96
// 062   ----------------------------------------
        BYTE   W96
// 063   ----------------------------------------
        BYTE   W96
// 064   ----------------------------------------
        BYTE   W96
// 065   ----------------------------------------
        BYTE   W96
// 066   ----------------------------------------
        BYTE   W96
// 067   ----------------------------------------
        BYTE   W96
// 068   ----------------------------------------
        BYTE   W96
// 069   ----------------------------------------
        BYTE   W96
// 070   ----------------------------------------
        BYTE   W96
// 071   ----------------------------------------
        BYTE   W96
// 072   ----------------------------------------
        BYTE   W96
// 073   ----------------------------------------
        BYTE   W96
// 074   ----------------------------------------
        BYTE   W96
// 075   ----------------------------------------
        BYTE   W96
// 076   ----------------------------------------
        BYTE   W96
// 077   ----------------------------------------
        BYTE   W96
// 078   ----------------------------------------
        BYTE   PATT
         POIN2  BATTLE_WIRELESS_0000_0_24
// 079   ----------------------------------------
        BYTE   PATT
         POIN2  BATTLE_WIRELESS_0000_0_25
// 080   ----------------------------------------
        BYTE   PATT
         POIN2  BATTLE_WIRELESS_0000_0_26
// 081   ----------------------------------------
        BYTE   PATT
         POIN2  BATTLE_WIRELESS_0000_0_27
// 082   ----------------------------------------
        BYTE   PATT
         POIN2  BATTLE_WIRELESS_0000_0_28
// 083   ----------------------------------------
        BYTE   W96
// 084   ----------------------------------------
        BYTE   PATT
         POIN2  BATTLE_WIRELESS_0000_0_30
// 085   ----------------------------------------
        BYTE   PATT
         POIN2  BATTLE_WIRELESS_0000_0_31
// 086   ----------------------------------------
        BYTE   PATT
         POIN2  BATTLE_WIRELESS_0000_0_24
// 087   ----------------------------------------
        BYTE   PATT
         POIN2  BATTLE_WIRELESS_0000_0_25
// 088   ----------------------------------------
        BYTE   PATT
         POIN2  BATTLE_WIRELESS_0000_0_26
// 089   ----------------------------------------
        BYTE   PATT
         POIN2  BATTLE_WIRELESS_0000_0_27
// 090   ----------------------------------------
        BYTE   PATT
         POIN2  BATTLE_WIRELESS_0000_0_36
// 091   ----------------------------------------
        BYTE   PATT
         POIN2  BATTLE_WIRELESS_0000_0_37
// 092   ----------------------------------------
        BYTE   PATT
         POIN2  BATTLE_WIRELESS_0000_0_38
// 093   ----------------------------------------
        BYTE   PATT
         POIN2  BATTLE_WIRELESS_0000_0_39
// 094   ----------------------------------------
        BYTE   PATT
         POIN2  BATTLE_WIRELESS_0000_0_40
// 095   ----------------------------------------
        BYTE   PATT
         POIN2  BATTLE_WIRELESS_0000_0_41
// 096   ----------------------------------------
        BYTE           N28     Fn3   v069
        BYTE   W96
// 097   ----------------------------------------
        BYTE   W96
// 098   ----------------------------------------
        BYTE   PATT
         POIN2  BATTLE_WIRELESS_0000_0_44
// 099   ----------------------------------------
        BYTE   PATT
         POIN2  BATTLE_WIRELESS_0000_0_45
// 100   ----------------------------------------
        BYTE           N28     Fn3   v069
        BYTE   W96
// 101   ----------------------------------------
        BYTE   PATT
         POIN2  BATTLE_WIRELESS_0000_0_47
// 102   ----------------------------------------
        BYTE   PATT
         POIN2  BATTLE_WIRELESS_0000_0_48
// 103   ----------------------------------------
        BYTE   PATT
         POIN2  BATTLE_WIRELESS_0000_0_49
// 104   ----------------------------------------
        BYTE   PATT
         POIN2  BATTLE_WIRELESS_0000_0_50
// 105   ----------------------------------------
        BYTE   PATT
         POIN2  BATTLE_WIRELESS_0000_0_51
// 106   ----------------------------------------
        BYTE   PATT
         POIN2  BATTLE_WIRELESS_0000_0_52
// 107   ----------------------------------------
        BYTE   PATT
         POIN2  BATTLE_WIRELESS_0000_0_45
// 108   ----------------------------------------
        BYTE           N28     Fn3   v069
        BYTE   W96
// 109   ----------------------------------------
        BYTE   PATT
         POIN2  BATTLE_WIRELESS_0000_0_47
// 110   ----------------------------------------
        BYTE   PATT
         POIN2  BATTLE_WIRELESS_0000_0_56
// 111   ----------------------------------------
        BYTE   PATT
         POIN2  BATTLE_WIRELESS_0000_0_57
// 112   ----------------------------------------
        BYTE           TIE     Cn2   v082
        BYTE   W96
// 113   ----------------------------------------
        BYTE   W96
// 114   ----------------------------------------
        BYTE   PATT
         POIN2  BATTLE_WIRELESS_0000_0_60
// 115   ----------------------------------------
        BYTE           N84     Dn2   v085   gtp3
        BYTE           N80     Fn3   v071
        BYTE   W96
// 116   ----------------------------------------
BATTLE_WIRELESS_0000_0_116:
        BYTE           N30     Fn3   v088   gtp1
        BYTE           N30     An3   v089
        BYTE   W36
        BYTE           N24     Fn3   v062   gtp3
        BYTE                   As3   v082
        BYTE   W36
        BYTE           TIE     Dn3   v084
        BYTE           TIE     Fn3   v076
        BYTE   W24
        BYTE   PEND
// 117   ----------------------------------------
BATTLE_WIRELESS_0000_0_117:
        BYTE   W76
        BYTE           EOT     Dn3
        BYTE                   Fn3
        BYTE   W20
        BYTE   PEND
// 118   ----------------------------------------
        BYTE   PATT
         POIN2  BATTLE_WIRELESS_0000_0_116
// 119   ----------------------------------------
        BYTE   PATT
         POIN2  BATTLE_WIRELESS_0000_0_117
// 120   ----------------------------------------
        BYTE   PATT
         POIN2  BATTLE_WIRELESS_0000_0_116
// 121   ----------------------------------------
        BYTE   PATT
         POIN2  BATTLE_WIRELESS_0000_0_117
// 122   ----------------------------------------
        BYTE   PATT
         POIN2  BATTLE_WIRELESS_0000_0_116
// 123   ----------------------------------------
        BYTE   PATT
         POIN2  BATTLE_WIRELESS_0000_0_117
// 124   ----------------------------------------
        BYTE   PATT
         POIN2  BATTLE_WIRELESS_0000_0_116
// 125   ----------------------------------------
        BYTE   PATT
         POIN2  BATTLE_WIRELESS_0000_0_117
// 126   ----------------------------------------
        BYTE   PATT
         POIN2  BATTLE_WIRELESS_0000_0_116
// 127   ----------------------------------------
        BYTE   PATT
         POIN2  BATTLE_WIRELESS_0000_0_117
// 128   ----------------------------------------
        BYTE   PATT
         POIN2  BATTLE_WIRELESS_0000_0_116
// 129   ----------------------------------------
        BYTE   PATT
         POIN2  BATTLE_WIRELESS_0000_0_117
// 130   ----------------------------------------
        BYTE   PATT
         POIN2  BATTLE_WIRELESS_0000_0_116
// 131   ----------------------------------------
        BYTE   PATT
         POIN2  BATTLE_WIRELESS_0000_0_117
// 132   ----------------------------------------
        BYTE   PATT
         POIN2  BATTLE_WIRELESS_0000_0_24
// 133   ----------------------------------------
        BYTE   PATT
         POIN2  BATTLE_WIRELESS_0000_0_25
// 134   ----------------------------------------
        BYTE   PATT
         POIN2  BATTLE_WIRELESS_0000_0_26
// 135   ----------------------------------------
        BYTE   PATT
         POIN2  BATTLE_WIRELESS_0000_0_27
// 136   ----------------------------------------
        BYTE   PATT
         POIN2  BATTLE_WIRELESS_0000_0_28
// 137   ----------------------------------------
        BYTE   W96
// 138   ----------------------------------------
        BYTE   PATT
         POIN2  BATTLE_WIRELESS_0000_0_30
// 139   ----------------------------------------
        BYTE   PATT
         POIN2  BATTLE_WIRELESS_0000_0_31
// 140   ----------------------------------------
        BYTE   PATT
         POIN2  BATTLE_WIRELESS_0000_0_24
// 141   ----------------------------------------
        BYTE   PATT
         POIN2  BATTLE_WIRELESS_0000_0_25
// 142   ----------------------------------------
        BYTE   PATT
         POIN2  BATTLE_WIRELESS_0000_0_26
// 143   ----------------------------------------
        BYTE   PATT
         POIN2  BATTLE_WIRELESS_0000_0_27
// 144   ----------------------------------------
        BYTE   PATT
         POIN2  BATTLE_WIRELESS_0000_0_36
// 145   ----------------------------------------
        BYTE   PATT
         POIN2  BATTLE_WIRELESS_0000_0_37
// 146   ----------------------------------------
        BYTE   PATT
         POIN2  BATTLE_WIRELESS_0000_0_38
// 147   ----------------------------------------
        BYTE   PATT
         POIN2  BATTLE_WIRELESS_0000_0_39
// 148   ----------------------------------------
        BYTE   PATT
         POIN2  BATTLE_WIRELESS_0000_0_40
// 149   ----------------------------------------
        BYTE   PATT
         POIN2  BATTLE_WIRELESS_0000_0_41
// 150   ----------------------------------------
        BYTE           N28     Fn3   v069
        BYTE   W96
// 151   ----------------------------------------
        BYTE   W96
// 152   ----------------------------------------
        BYTE   PATT
         POIN2  BATTLE_WIRELESS_0000_0_44
// 153   ----------------------------------------
        BYTE   PATT
         POIN2  BATTLE_WIRELESS_0000_0_45
// 154   ----------------------------------------
        BYTE           N28     Fn3   v069
        BYTE   W96
// 155   ----------------------------------------
        BYTE   PATT
         POIN2  BATTLE_WIRELESS_0000_0_47
// 156   ----------------------------------------
        BYTE   PATT
         POIN2  BATTLE_WIRELESS_0000_0_48
// 157   ----------------------------------------
        BYTE   PATT
         POIN2  BATTLE_WIRELESS_0000_0_49
// 158   ----------------------------------------
        BYTE   PATT
         POIN2  BATTLE_WIRELESS_0000_0_50
// 159   ----------------------------------------
        BYTE   PATT
         POIN2  BATTLE_WIRELESS_0000_0_51
// 160   ----------------------------------------
        BYTE   PATT
         POIN2  BATTLE_WIRELESS_0000_0_52
// 161   ----------------------------------------
        BYTE   PATT
         POIN2  BATTLE_WIRELESS_0000_0_45
// 162   ----------------------------------------
        BYTE           N28     Fn3   v069
        BYTE   W96
// 163   ----------------------------------------
        BYTE   PATT
         POIN2  BATTLE_WIRELESS_0000_0_47
// 164   ----------------------------------------
        BYTE   PATT
         POIN2  BATTLE_WIRELESS_0000_0_56
// 165   ----------------------------------------
        BYTE   PATT
         POIN2  BATTLE_WIRELESS_0000_0_57
// 166   ----------------------------------------
        BYTE           TIE     Cn2   v082
        BYTE   W96
// 167   ----------------------------------------
        BYTE   W96
// 168   ----------------------------------------
        BYTE   PATT
         POIN2  BATTLE_WIRELESS_0000_0_60
// 169   ----------------------------------------
        BYTE           N84     Cn2   v070   gtp3
        BYTE           N80     Gn3   v056
        BYTE   GoTo
         POIN2  BATTLE_WIRELESS_0000_0_LOOP
        BYTE   W92
        BYTE   W03
        BYTE   FINE

//****************** Track 1 (Midi-Chn.1) ******************//

BATTLE_WIRELESS_0000_1:
        BYTE   KEYSH   BATTLE_WIRELESS_0000_key+0
// 000   ----------------------------------------
        BYTE           VOICE   3
        BYTE           VOL     17
        BYTE           PAN     c_v-42
        BYTE           N11     Fn4   v090
        BYTE   W12
        BYTE                   An3
        BYTE   W12
        BYTE                   Dn4   v093
        BYTE   W12
        BYTE                   Gn4   v085
        BYTE   W12
        BYTE                   An3
        BYTE   W12
        BYTE                   Dn4   v089
        BYTE   W12
        BYTE                   An4   v100
        BYTE   W12
        BYTE                   An3   v085
        BYTE   W12
// 001   ----------------------------------------
BATTLE_WIRELESS_0000_1_1:
        BYTE           N11     Dn4   v091
        BYTE   W12
        BYTE                   En4   v100
        BYTE   W12
        BYTE                   An3   v085
        BYTE   W12
        BYTE                   Dn4
        BYTE   W12
        BYTE                   Fn4   v088
        BYTE   W12
        BYTE                   An3   v085
        BYTE   W12
        BYTE                   Dn4   v097
        BYTE   W12
        BYTE                   An3   v085
        BYTE   W12
        BYTE   PEND
// 002   ----------------------------------------
BATTLE_WIRELESS_0000_1_2:
        BYTE           N11     Fn4   v090
        BYTE   W12
        BYTE                   An3
        BYTE   W12
        BYTE                   Dn4   v093
        BYTE   W12
        BYTE                   Gn4   v085
        BYTE   W12
        BYTE                   An3
        BYTE   W12
        BYTE                   Dn4   v089
        BYTE   W12
        BYTE                   An4   v100
        BYTE   W12
        BYTE                   An3   v085
        BYTE   W12
        BYTE   PEND
// 003   ----------------------------------------
        BYTE   PATT
         POIN2  BATTLE_WIRELESS_0000_1_1
// 004   ----------------------------------------
        BYTE   PATT
         POIN2  BATTLE_WIRELESS_0000_1_2
// 005   ----------------------------------------
        BYTE   PATT
         POIN2  BATTLE_WIRELESS_0000_1_1
// 006   ----------------------------------------
        BYTE   PATT
         POIN2  BATTLE_WIRELESS_0000_1_2
// 007   ----------------------------------------
        BYTE   PATT
         POIN2  BATTLE_WIRELESS_0000_1_1
// 008   ----------------------------------------
        BYTE   PATT
         POIN2  BATTLE_WIRELESS_0000_1_2
// 009   ----------------------------------------
        BYTE   PATT
         POIN2  BATTLE_WIRELESS_0000_1_1
// 010   ----------------------------------------
        BYTE   PATT
         POIN2  BATTLE_WIRELESS_0000_1_2
// 011   ----------------------------------------
        BYTE   PATT
         POIN2  BATTLE_WIRELESS_0000_1_1
// 012   ----------------------------------------
        BYTE   PATT
         POIN2  BATTLE_WIRELESS_0000_1_2
// 013   ----------------------------------------
        BYTE   PATT
         POIN2  BATTLE_WIRELESS_0000_1_1
// 014   ----------------------------------------
        BYTE   PATT
         POIN2  BATTLE_WIRELESS_0000_1_2
// 015   ----------------------------------------
        BYTE   PATT
         POIN2  BATTLE_WIRELESS_0000_1_1
// 016   ----------------------------------------
        BYTE   PATT
         POIN2  BATTLE_WIRELESS_0000_1_2
// 017   ----------------------------------------
        BYTE   PATT
         POIN2  BATTLE_WIRELESS_0000_1_1
// 018   ----------------------------------------
        BYTE   PATT
         POIN2  BATTLE_WIRELESS_0000_1_2
// 019   ----------------------------------------
        BYTE   PATT
         POIN2  BATTLE_WIRELESS_0000_1_1
// 020   ----------------------------------------
        BYTE   PATT
         POIN2  BATTLE_WIRELESS_0000_1_2
// 021   ----------------------------------------
        BYTE   PATT
         POIN2  BATTLE_WIRELESS_0000_1_1
// 022   ----------------------------------------
        BYTE   PATT
         POIN2  BATTLE_WIRELESS_0000_1_2
// 023   ----------------------------------------
        BYTE   PATT
         POIN2  BATTLE_WIRELESS_0000_1_1
// 024   ----------------------------------------
        BYTE   W96
// 025   ----------------------------------------
        BYTE   W96
// 026   ----------------------------------------
        BYTE   W96
// 027   ----------------------------------------
        BYTE   W96
// 028   ----------------------------------------
        BYTE   W96
// 029   ----------------------------------------
        BYTE   W96
// 030   ----------------------------------------
        BYTE   W96
// 031   ----------------------------------------
        BYTE   W96
// 032   ----------------------------------------
        BYTE   W96
// 033   ----------------------------------------
        BYTE   W96
// 034   ----------------------------------------
        BYTE   W96
// 035   ----------------------------------------
        BYTE   W96
// 036   ----------------------------------------
        BYTE   W96
// 037   ----------------------------------------
        BYTE   W96
// 038   ----------------------------------------
        BYTE   W96
// 039   ----------------------------------------
        BYTE   W96
// 040   ----------------------------------------
        BYTE   W96
// 041   ----------------------------------------
        BYTE   W96
// 042   ----------------------------------------
        BYTE   W96
// 043   ----------------------------------------
        BYTE   W96
// 044   ----------------------------------------
        BYTE   W96
// 045   ----------------------------------------
        BYTE   W96
// 046   ----------------------------------------
        BYTE   W96
// 047   ----------------------------------------
        BYTE   W96
// 048   ----------------------------------------
        BYTE   W96
// 049   ----------------------------------------
        BYTE   W96
// 050   ----------------------------------------
        BYTE   W96
// 051   ----------------------------------------
        BYTE   W96
// 052   ----------------------------------------
        BYTE   W96
// 053   ----------------------------------------
        BYTE   W96
// 054   ----------------------------------------
        BYTE   W96
// 055   ----------------------------------------
        BYTE   W96
// 056   ----------------------------------------
        BYTE   W96
// 057   ----------------------------------------
        BYTE   W96
// 058   ----------------------------------------
        BYTE   W96
// 059   ----------------------------------------
        BYTE   W96
// 060   ----------------------------------------
        BYTE   W96
// 061   ----------------------------------------
BATTLE_WIRELESS_0000_1_LOOP:
        BYTE   W96
// 062   ----------------------------------------
        BYTE   PATT
         POIN2  BATTLE_WIRELESS_0000_1_2
// 063   ----------------------------------------
        BYTE   PATT
         POIN2  BATTLE_WIRELESS_0000_1_1
// 064   ----------------------------------------
        BYTE   PATT
         POIN2  BATTLE_WIRELESS_0000_1_2
// 065   ----------------------------------------
        BYTE   PATT
         POIN2  BATTLE_WIRELESS_0000_1_1
// 066   ----------------------------------------
        BYTE   PATT
         POIN2  BATTLE_WIRELESS_0000_1_2
// 067   ----------------------------------------
        BYTE   PATT
         POIN2  BATTLE_WIRELESS_0000_1_1
// 068   ----------------------------------------
        BYTE   PATT
         POIN2  BATTLE_WIRELESS_0000_1_2
// 069   ----------------------------------------
        BYTE   PATT
         POIN2  BATTLE_WIRELESS_0000_1_1
// 070   ----------------------------------------
        BYTE   PATT
         POIN2  BATTLE_WIRELESS_0000_1_2
// 071   ----------------------------------------
        BYTE   PATT
         POIN2  BATTLE_WIRELESS_0000_1_1
// 072   ----------------------------------------
        BYTE   PATT
         POIN2  BATTLE_WIRELESS_0000_1_2
// 073   ----------------------------------------
        BYTE   PATT
         POIN2  BATTLE_WIRELESS_0000_1_1
// 074   ----------------------------------------
        BYTE   PATT
         POIN2  BATTLE_WIRELESS_0000_1_2
// 075   ----------------------------------------
        BYTE   PATT
         POIN2  BATTLE_WIRELESS_0000_1_1
// 076   ----------------------------------------
        BYTE   PATT
         POIN2  BATTLE_WIRELESS_0000_1_2
// 077   ----------------------------------------
        BYTE   PATT
         POIN2  BATTLE_WIRELESS_0000_1_1
// 078   ----------------------------------------
        BYTE   W96
// 079   ----------------------------------------
        BYTE   W96
// 080   ----------------------------------------
        BYTE   W96
// 081   ----------------------------------------
        BYTE   W96
// 082   ----------------------------------------
        BYTE   W96
// 083   ----------------------------------------
        BYTE   W96
// 084   ----------------------------------------
        BYTE   W96
// 085   ----------------------------------------
        BYTE   W96
// 086   ----------------------------------------
        BYTE   W96
// 087   ----------------------------------------
        BYTE   W96
// 088   ----------------------------------------
        BYTE   W96
// 089   ----------------------------------------
        BYTE   W96
// 090   ----------------------------------------
        BYTE   W96
// 091   ----------------------------------------
        BYTE   W96
// 092   ----------------------------------------
        BYTE   W96
// 093   ----------------------------------------
        BYTE   W96
// 094   ----------------------------------------
        BYTE   W96
// 095   ----------------------------------------
        BYTE   W96
// 096   ----------------------------------------
        BYTE   W96
// 097   ----------------------------------------
        BYTE   W96
// 098   ----------------------------------------
        BYTE   W96
// 099   ----------------------------------------
        BYTE   W96
// 100   ----------------------------------------
        BYTE   W96
// 101   ----------------------------------------
        BYTE   W96
// 102   ----------------------------------------
        BYTE   W96
// 103   ----------------------------------------
        BYTE   W96
// 104   ----------------------------------------
        BYTE   W96
// 105   ----------------------------------------
        BYTE   W96
// 106   ----------------------------------------
        BYTE   W96
// 107   ----------------------------------------
        BYTE   W96
// 108   ----------------------------------------
        BYTE   W96
// 109   ----------------------------------------
        BYTE   W96
// 110   ----------------------------------------
        BYTE   W96
// 111   ----------------------------------------
        BYTE   W96
// 112   ----------------------------------------
        BYTE   W96
// 113   ----------------------------------------
        BYTE   W96
// 114   ----------------------------------------
        BYTE   W96
// 115   ----------------------------------------
        BYTE   W96
// 116   ----------------------------------------
        BYTE   W96
// 117   ----------------------------------------
        BYTE   W96
// 118   ----------------------------------------
        BYTE   W96
// 119   ----------------------------------------
        BYTE   W96
// 120   ----------------------------------------
        BYTE   W96
// 121   ----------------------------------------
        BYTE   W96
// 122   ----------------------------------------
        BYTE   W96
// 123   ----------------------------------------
        BYTE   W96
// 124   ----------------------------------------
        BYTE   W96
// 125   ----------------------------------------
        BYTE   W96
// 126   ----------------------------------------
        BYTE   W96
// 127   ----------------------------------------
        BYTE   W96
// 128   ----------------------------------------
        BYTE   W96
// 129   ----------------------------------------
        BYTE   W96
// 130   ----------------------------------------
        BYTE   W96
// 131   ----------------------------------------
        BYTE   W96
// 132   ----------------------------------------
        BYTE   W96
// 133   ----------------------------------------
        BYTE   W96
// 134   ----------------------------------------
        BYTE   W96
// 135   ----------------------------------------
        BYTE   W96
// 136   ----------------------------------------
        BYTE   W96
// 137   ----------------------------------------
        BYTE   W96
// 138   ----------------------------------------
        BYTE   W96
// 139   ----------------------------------------
        BYTE   W96
// 140   ----------------------------------------
        BYTE   W96
// 141   ----------------------------------------
        BYTE   W96
// 142   ----------------------------------------
        BYTE   W96
// 143   ----------------------------------------
        BYTE   W96
// 144   ----------------------------------------
        BYTE   W96
// 145   ----------------------------------------
        BYTE   W96
// 146   ----------------------------------------
        BYTE   W96
// 147   ----------------------------------------
        BYTE   W96
// 148   ----------------------------------------
        BYTE   W96
// 149   ----------------------------------------
        BYTE   W96
// 150   ----------------------------------------
        BYTE   W96
// 151   ----------------------------------------
        BYTE   W96
// 152   ----------------------------------------
        BYTE   W96
// 153   ----------------------------------------
        BYTE   W96
// 154   ----------------------------------------
        BYTE   W96
// 155   ----------------------------------------
        BYTE   W96
// 156   ----------------------------------------
        BYTE   W96
// 157   ----------------------------------------
        BYTE   W96
// 158   ----------------------------------------
        BYTE   W96
// 159   ----------------------------------------
        BYTE   W96
// 160   ----------------------------------------
        BYTE   W96
// 161   ----------------------------------------
        BYTE   W96
// 162   ----------------------------------------
        BYTE   W96
// 163   ----------------------------------------
        BYTE   W96
// 164   ----------------------------------------
        BYTE   W96
// 165   ----------------------------------------
        BYTE   W96
// 166   ----------------------------------------
        BYTE   W96
// 167   ----------------------------------------
        BYTE   W96
// 168   ----------------------------------------
        BYTE   W96
// 169   ----------------------------------------
        BYTE   GoTo
         POIN2  BATTLE_WIRELESS_0000_1_LOOP
        BYTE   W92
        BYTE   W03
        BYTE   FINE

//****************** Track 2 (Midi-Chn.2) ******************//

BATTLE_WIRELESS_0000_2:
        BYTE   KEYSH   BATTLE_WIRELESS_0000_key+0
// 000   ----------------------------------------
        BYTE           VOICE   39
        BYTE           VOL     42
        BYTE           N14     Dn2   v080
        BYTE   W24
        BYTE           N06     Dn2   v067
        BYTE   W12
        BYTE           N16     Dn2   v080
        BYTE   W24
        BYTE           N06     Dn2   v068
        BYTE   W12
        BYTE           N18     Dn2   v081
        BYTE   W24
// 001   ----------------------------------------
BATTLE_WIRELESS_0000_2_1:
        BYTE           N06     Dn2   v070
        BYTE   W12
        BYTE           N18     Dn2   v082
        BYTE   W24
        BYTE           N06     Dn2   v071
        BYTE   W12
        BYTE           N13     Dn2   v083
        BYTE   W24
        BYTE           N07     Dn2   v066
        BYTE   W12
        BYTE                   Cn2   v081
        BYTE   W12
        BYTE   PEND
// 002   ----------------------------------------
        BYTE           N14     Dn2   v080
        BYTE   W24
        BYTE           N06     Dn2   v067
        BYTE   W12
        BYTE           N16     Dn2   v080
        BYTE   W24
        BYTE           N06     Dn2   v068
        BYTE   W12
        BYTE           N18     Dn2   v081
        BYTE   W24
// 003   ----------------------------------------
        BYTE   PATT
         POIN2  BATTLE_WIRELESS_0000_2_1
// 004   ----------------------------------------
BATTLE_WIRELESS_0000_2_4:
        BYTE           N14     As1   v080
        BYTE   W24
        BYTE           N06     As1   v067
        BYTE   W12
        BYTE           N16     As1   v080
        BYTE   W24
        BYTE           N06     As1   v068
        BYTE   W12
        BYTE           N18     As1   v081
        BYTE   W24
        BYTE   PEND
// 005   ----------------------------------------
        BYTE           N06     As1   v070
        BYTE   W12
        BYTE           N18     As1   v082
        BYTE   W24
        BYTE           N06     As1   v071
        BYTE   W12
        BYTE           N13     As1   v083
        BYTE   W24
        BYTE           N07     As1   v066
        BYTE   W12
        BYTE                   An1   v081
        BYTE   W12
// 006   ----------------------------------------
        BYTE   PATT
         POIN2  BATTLE_WIRELESS_0000_2_4
// 007   ----------------------------------------
        BYTE           N06     As1   v070
        BYTE   W12
        BYTE           N18     As1   v082
        BYTE   W24
        BYTE           N06     As1   v071
        BYTE   W12
        BYTE           N13     As1   v083
        BYTE   W24
        BYTE           N07     As1   v066
        BYTE   W12
        BYTE                   As1
        BYTE   W12
// 008   ----------------------------------------
BATTLE_WIRELESS_0000_2_8:
        BYTE           N11     Dn2   v085
        BYTE   W12
        BYTE           N08     Dn1   v080
        BYTE   W12
        BYTE                   Dn1
        BYTE   W12
        BYTE           N11     Dn2   v085
        BYTE   W12
        BYTE           N08     Dn1   v080
        BYTE   W12
        BYTE                   Dn1
        BYTE   W12
        BYTE           N11     Dn2   v085
        BYTE   W12
        BYTE           N08     Dn1   v080
        BYTE   W12
        BYTE   PEND
// 009   ----------------------------------------
BATTLE_WIRELESS_0000_2_9:
        BYTE           N08     Dn1   v080
        BYTE   W12
        BYTE           N11     Dn2   v085
        BYTE   W12
        BYTE           N08     Dn1   v080
        BYTE   W12
        BYTE                   Dn1
        BYTE   W12
        BYTE           N11     Dn2   v085
        BYTE   W12
        BYTE           N08     Dn1   v080
        BYTE   W12
        BYTE           N11     Dn2   v085
        BYTE   W12
        BYTE           N08     Dn1   v080
        BYTE   W12
        BYTE   PEND
// 010   ----------------------------------------
        BYTE   PATT
         POIN2  BATTLE_WIRELESS_0000_2_8
// 011   ----------------------------------------
BATTLE_WIRELESS_0000_2_11:
        BYTE           N08     Dn1   v080
        BYTE   W12
        BYTE           N11     Dn2   v085
        BYTE   W12
        BYTE           N08     Dn1   v080
        BYTE   W12
        BYTE                   Dn1
        BYTE   W12
        BYTE           N11     Cn3   v085
        BYTE   W12
        BYTE           N08     Cn2   v080
        BYTE   W12
        BYTE           N11     Cn3   v085
        BYTE   W12
        BYTE           N08     Cn2   v080
        BYTE   W12
        BYTE   PEND
// 012   ----------------------------------------
BATTLE_WIRELESS_0000_2_12:
        BYTE           N11     As2   v085
        BYTE   W12
        BYTE           N08     As1   v080
        BYTE   W12
        BYTE                   As1
        BYTE   W12
        BYTE           N11     As2   v085
        BYTE   W12
        BYTE           N08     As1   v080
        BYTE   W12
        BYTE                   As1
        BYTE   W12
        BYTE           N11     As2   v085
        BYTE   W12
        BYTE           N08     As1   v080
        BYTE   W12
        BYTE   PEND
// 013   ----------------------------------------
BATTLE_WIRELESS_0000_2_13:
        BYTE           N08     As1   v080
        BYTE   W12
        BYTE           N11     As2   v085
        BYTE   W12
        BYTE           N08     As1   v080
        BYTE   W12
        BYTE                   As1
        BYTE   W12
        BYTE           N11     As2   v085
        BYTE   W12
        BYTE           N08     As1   v080
        BYTE   W12
        BYTE           N11     As2   v085
        BYTE   W12
        BYTE           N08     As1   v080
        BYTE   W12
        BYTE   PEND
// 014   ----------------------------------------
        BYTE   PATT
         POIN2  BATTLE_WIRELESS_0000_2_12
// 015   ----------------------------------------
        BYTE   PATT
         POIN2  BATTLE_WIRELESS_0000_2_13
// 016   ----------------------------------------
        BYTE   PATT
         POIN2  BATTLE_WIRELESS_0000_2_8
// 017   ----------------------------------------
        BYTE   PATT
         POIN2  BATTLE_WIRELESS_0000_2_9
// 018   ----------------------------------------
        BYTE   PATT
         POIN2  BATTLE_WIRELESS_0000_2_8
// 019   ----------------------------------------
        BYTE   PATT
         POIN2  BATTLE_WIRELESS_0000_2_11
// 020   ----------------------------------------
        BYTE   PATT
         POIN2  BATTLE_WIRELESS_0000_2_12
// 021   ----------------------------------------
        BYTE   PATT
         POIN2  BATTLE_WIRELESS_0000_2_13
// 022   ----------------------------------------
        BYTE   PATT
         POIN2  BATTLE_WIRELESS_0000_2_12
// 023   ----------------------------------------
        BYTE   PATT
         POIN2  BATTLE_WIRELESS_0000_2_13
// 024   ----------------------------------------
BATTLE_WIRELESS_0000_2_24:
        BYTE           N56     Ds1   v090   gtp3
        BYTE   W60
        BYTE           N11     As1   v086
        BYTE   W12
        BYTE                   Ds2   v088
        BYTE   W12
        BYTE                   As1
        BYTE   W12
        BYTE   PEND
// 025   ----------------------------------------
BATTLE_WIRELESS_0000_2_25:
        BYTE           N28     En1   v087   gtp1
        BYTE   W36
        BYTE                   En1   v085
        BYTE   W36
        BYTE           N11     En1   v088
        BYTE   W24
        BYTE   PEND
// 026   ----------------------------------------
BATTLE_WIRELESS_0000_2_26:
        BYTE           N56     Fn1   v083   gtp3
        BYTE   W60
        BYTE           N11     Cn2   v093
        BYTE   W12
        BYTE                   Fn2   v085
        BYTE   W12
        BYTE                   Cn2   v087
        BYTE   W12
        BYTE   PEND
// 027   ----------------------------------------
BATTLE_WIRELESS_0000_2_27:
        BYTE           N28     Fs1   v087   gtp1
        BYTE   W36
        BYTE                   Fs1   v085
        BYTE   W36
        BYTE           N11     Fs1   v088
        BYTE   W24
        BYTE   PEND
// 028   ----------------------------------------
BATTLE_WIRELESS_0000_2_28:
        BYTE           N56     Gn1   v083   gtp3
        BYTE   W60
        BYTE           N11     Dn2   v093
        BYTE   W12
        BYTE                   Gn2   v085
        BYTE   W12
        BYTE                   Dn2   v087
        BYTE   W12
        BYTE   PEND
// 029   ----------------------------------------
BATTLE_WIRELESS_0000_2_29:
        BYTE           N28     Gs1   v087   gtp1
        BYTE   W36
        BYTE                   Gs1   v085
        BYTE   W36
        BYTE           N11     Gs1   v088
        BYTE   W24
        BYTE   PEND
// 030   ----------------------------------------
        BYTE   PATT
         POIN2  BATTLE_WIRELESS_0000_2_26
// 031   ----------------------------------------
BATTLE_WIRELESS_0000_2_31:
        BYTE           N05     Fn2   v086
        BYTE   W04
        BYTE           N06     Gn2   v091
        BYTE   W08
        BYTE           N23     Fn2   v094
        BYTE   W24
        BYTE           N22     Fn2   v083
        BYTE   W24
        BYTE           N11     Fn2   v085
        BYTE   W12
        BYTE                   Cn2
        BYTE   W12
        BYTE                   Fn1
        BYTE   W12
        BYTE   PEND
// 032   ----------------------------------------
        BYTE   PATT
         POIN2  BATTLE_WIRELESS_0000_2_24
// 033   ----------------------------------------
        BYTE   PATT
         POIN2  BATTLE_WIRELESS_0000_2_25
// 034   ----------------------------------------
        BYTE   PATT
         POIN2  BATTLE_WIRELESS_0000_2_26
// 035   ----------------------------------------
        BYTE   PATT
         POIN2  BATTLE_WIRELESS_0000_2_27
// 036   ----------------------------------------
        BYTE   PATT
         POIN2  BATTLE_WIRELESS_0000_2_28
// 037   ----------------------------------------
BATTLE_WIRELESS_0000_2_37:
        BYTE           N32     Gs1   v087   gtp3
        BYTE   W36
        BYTE                   Cn2   v085
        BYTE   W36
        BYTE           N23     Ds2   v088
        BYTE   W24
        BYTE   PEND
// 038   ----------------------------------------
BATTLE_WIRELESS_0000_2_38:
        BYTE           N32     Fn2   v087   gtp3
        BYTE   W36
        BYTE                   An1   v085
        BYTE   W36
        BYTE           N23     Cn2   v088
        BYTE   W24
        BYTE   PEND
// 039   ----------------------------------------
BATTLE_WIRELESS_0000_2_39:
        BYTE           N32     Fn1   v087   gtp3
        BYTE   W30
        BYTE                   An1   v085
        BYTE   W42
        BYTE           N23     Cn2   v088
        BYTE   W24
        BYTE   PEND
// 040   ----------------------------------------
BATTLE_WIRELESS_0000_2_40:
        BYTE           N11     Dn2   v087
        BYTE   W12
        BYTE                   Dn1
        BYTE   W12
        BYTE                   Dn1
        BYTE   W12
        BYTE                   Dn1
        BYTE   W24
        BYTE                   Dn1
        BYTE   W12
        BYTE                   An1
        BYTE   W12
        BYTE                   Cn2
        BYTE   W12
        BYTE   PEND
// 041   ----------------------------------------
        BYTE                   Dn2
        BYTE   W96
// 042   ----------------------------------------
BATTLE_WIRELESS_0000_2_42:
        BYTE           N11     Ds2   v085
        BYTE   W12
        BYTE           N08     Ds1   v080
        BYTE   W12
        BYTE                   Ds1
        BYTE   W12
        BYTE           N11     Ds2   v085
        BYTE   W12
        BYTE           N08     Ds1   v080
        BYTE   W12
        BYTE                   Ds1
        BYTE   W12
        BYTE           N11     Ds2   v085
        BYTE   W12
        BYTE           N08     Ds1   v080
        BYTE   W12
        BYTE   PEND
// 043   ----------------------------------------
BATTLE_WIRELESS_0000_2_43:
        BYTE           N08     Ds1   v080
        BYTE   W12
        BYTE           N11     Ds2   v085
        BYTE   W12
        BYTE           N08     Ds1   v080
        BYTE   W12
        BYTE                   Ds1
        BYTE   W12
        BYTE           N11     Ds2   v085
        BYTE   W12
        BYTE           N08     Ds1   v080
        BYTE   W12
        BYTE           N11     Ds2   v085
        BYTE   W12
        BYTE           N08     Ds1   v080
        BYTE   W12
        BYTE   PEND
// 044   ----------------------------------------
        BYTE   PATT
         POIN2  BATTLE_WIRELESS_0000_2_8
// 045   ----------------------------------------
BATTLE_WIRELESS_0000_2_45:
        BYTE           N08     Gn1   v080
        BYTE   W12
        BYTE           N11     Gn2   v085
        BYTE   W12
        BYTE           N08     Gn1   v080
        BYTE   W12
        BYTE                   Gn1
        BYTE   W12
        BYTE           N11     Gn2   v085
        BYTE   W12
        BYTE           N08     Gn1   v080
        BYTE   W12
        BYTE           N11     Gn2   v085
        BYTE   W12
        BYTE           N08     Gn1   v080
        BYTE   W12
        BYTE   PEND
// 046   ----------------------------------------
        BYTE   PATT
         POIN2  BATTLE_WIRELESS_0000_2_42
// 047   ----------------------------------------
        BYTE   PATT
         POIN2  BATTLE_WIRELESS_0000_2_43
// 048   ----------------------------------------
BATTLE_WIRELESS_0000_2_48:
        BYTE           N11     Gn2   v085
        BYTE   W12
        BYTE           N08     Gn1   v080
        BYTE   W12
        BYTE                   Gn1
        BYTE   W12
        BYTE           N11     Gn2   v085
        BYTE   W12
        BYTE           N08     Gn1   v080
        BYTE   W12
        BYTE                   Gn1
        BYTE   W12
        BYTE           N11     Gn2   v085
        BYTE   W12
        BYTE           N08     Gn1   v080
        BYTE   W12
        BYTE   PEND
// 049   ----------------------------------------
        BYTE   PATT
         POIN2  BATTLE_WIRELESS_0000_2_45
// 050   ----------------------------------------
        BYTE   PATT
         POIN2  BATTLE_WIRELESS_0000_2_42
// 051   ----------------------------------------
        BYTE   PATT
         POIN2  BATTLE_WIRELESS_0000_2_43
// 052   ----------------------------------------
        BYTE   PATT
         POIN2  BATTLE_WIRELESS_0000_2_8
// 053   ----------------------------------------
        BYTE   PATT
         POIN2  BATTLE_WIRELESS_0000_2_45
// 054   ----------------------------------------
        BYTE   PATT
         POIN2  BATTLE_WIRELESS_0000_2_42
// 055   ----------------------------------------
        BYTE   PATT
         POIN2  BATTLE_WIRELESS_0000_2_43
// 056   ----------------------------------------
BATTLE_WIRELESS_0000_2_56:
        BYTE           N11     Fn2   v085
        BYTE   W12
        BYTE           N08     Fn1   v080
        BYTE   W12
        BYTE                   Fn1
        BYTE   W12
        BYTE           N11     Fn2   v085
        BYTE   W12
        BYTE           N08     Fn1   v080
        BYTE   W12
        BYTE                   Fn1
        BYTE   W12
        BYTE           N11     Fn2   v085
        BYTE   W12
        BYTE           N08     Fn1   v080
        BYTE   W12
        BYTE   PEND
// 057   ----------------------------------------
BATTLE_WIRELESS_0000_2_57:
        BYTE           N08     Fn1   v080
        BYTE   W12
        BYTE           N11     Fn2   v085
        BYTE   W12
        BYTE           N08     Fn1   v080
        BYTE   W12
        BYTE                   Fn1
        BYTE   W12
        BYTE           N11     Fn2   v085
        BYTE   W12
        BYTE           N08     Fn1   v080
        BYTE   W12
        BYTE           N11     Fn2   v085
        BYTE   W12
        BYTE           N08     Fn1   v080
        BYTE   W12
        BYTE   PEND
// 058   ----------------------------------------
        BYTE           TIE     Cn2   v085
        BYTE   W96
// 059   ----------------------------------------
        BYTE   W96
// 060   ----------------------------------------
        BYTE   W92
        BYTE   W03
        BYTE           EOT
        BYTE   W01
// 061   ----------------------------------------
BATTLE_WIRELESS_0000_2_LOOP:
        BYTE   W96
// 062   ----------------------------------------
        BYTE   PATT
         POIN2  BATTLE_WIRELESS_0000_2_8
// 063   ----------------------------------------
        BYTE   PATT
         POIN2  BATTLE_WIRELESS_0000_2_9
// 064   ----------------------------------------
        BYTE   PATT
         POIN2  BATTLE_WIRELESS_0000_2_8
// 065   ----------------------------------------
        BYTE   PATT
         POIN2  BATTLE_WIRELESS_0000_2_11
// 066   ----------------------------------------
        BYTE   PATT
         POIN2  BATTLE_WIRELESS_0000_2_12
// 067   ----------------------------------------
        BYTE   PATT
         POIN2  BATTLE_WIRELESS_0000_2_13
// 068   ----------------------------------------
        BYTE   PATT
         POIN2  BATTLE_WIRELESS_0000_2_12
// 069   ----------------------------------------
        BYTE   PATT
         POIN2  BATTLE_WIRELESS_0000_2_13
// 070   ----------------------------------------
        BYTE   PATT
         POIN2  BATTLE_WIRELESS_0000_2_8
// 071   ----------------------------------------
        BYTE   PATT
         POIN2  BATTLE_WIRELESS_0000_2_9
// 072   ----------------------------------------
        BYTE   PATT
         POIN2  BATTLE_WIRELESS_0000_2_8
// 073   ----------------------------------------
        BYTE   PATT
         POIN2  BATTLE_WIRELESS_0000_2_11
// 074   ----------------------------------------
        BYTE   PATT
         POIN2  BATTLE_WIRELESS_0000_2_12
// 075   ----------------------------------------
        BYTE   PATT
         POIN2  BATTLE_WIRELESS_0000_2_13
// 076   ----------------------------------------
        BYTE   PATT
         POIN2  BATTLE_WIRELESS_0000_2_12
// 077   ----------------------------------------
        BYTE   PATT
         POIN2  BATTLE_WIRELESS_0000_2_13
// 078   ----------------------------------------
        BYTE   PATT
         POIN2  BATTLE_WIRELESS_0000_2_24
// 079   ----------------------------------------
        BYTE   PATT
         POIN2  BATTLE_WIRELESS_0000_2_25
// 080   ----------------------------------------
        BYTE   PATT
         POIN2  BATTLE_WIRELESS_0000_2_26
// 081   ----------------------------------------
        BYTE   PATT
         POIN2  BATTLE_WIRELESS_0000_2_27
// 082   ----------------------------------------
        BYTE   PATT
         POIN2  BATTLE_WIRELESS_0000_2_28
// 083   ----------------------------------------
        BYTE   PATT
         POIN2  BATTLE_WIRELESS_0000_2_29
// 084   ----------------------------------------
        BYTE   PATT
         POIN2  BATTLE_WIRELESS_0000_2_26
// 085   ----------------------------------------
        BYTE   PATT
         POIN2  BATTLE_WIRELESS_0000_2_31
// 086   ----------------------------------------
        BYTE   PATT
         POIN2  BATTLE_WIRELESS_0000_2_24
// 087   ----------------------------------------
        BYTE   PATT
         POIN2  BATTLE_WIRELESS_0000_2_25
// 088   ----------------------------------------
        BYTE   PATT
         POIN2  BATTLE_WIRELESS_0000_2_26
// 089   ----------------------------------------
        BYTE   PATT
         POIN2  BATTLE_WIRELESS_0000_2_27
// 090   ----------------------------------------
        BYTE   PATT
         POIN2  BATTLE_WIRELESS_0000_2_28
// 091   ----------------------------------------
        BYTE   PATT
         POIN2  BATTLE_WIRELESS_0000_2_37
// 092   ----------------------------------------
        BYTE   PATT
         POIN2  BATTLE_WIRELESS_0000_2_38
// 093   ----------------------------------------
        BYTE   PATT
         POIN2  BATTLE_WIRELESS_0000_2_39
// 094   ----------------------------------------
        BYTE   PATT
         POIN2  BATTLE_WIRELESS_0000_2_40
// 095   ----------------------------------------
        BYTE           N11     Dn2   v087
        BYTE   W96
// 096   ----------------------------------------
        BYTE   PATT
         POIN2  BATTLE_WIRELESS_0000_2_42
// 097   ----------------------------------------
        BYTE   PATT
         POIN2  BATTLE_WIRELESS_0000_2_43
// 098   ----------------------------------------
        BYTE   PATT
         POIN2  BATTLE_WIRELESS_0000_2_8
// 099   ----------------------------------------
        BYTE   PATT
         POIN2  BATTLE_WIRELESS_0000_2_45
// 100   ----------------------------------------
        BYTE   PATT
         POIN2  BATTLE_WIRELESS_0000_2_42
// 101   ----------------------------------------
        BYTE   PATT
         POIN2  BATTLE_WIRELESS_0000_2_43
// 102   ----------------------------------------
        BYTE   PATT
         POIN2  BATTLE_WIRELESS_0000_2_48
// 103   ----------------------------------------
        BYTE   PATT
         POIN2  BATTLE_WIRELESS_0000_2_45
// 104   ----------------------------------------
        BYTE   PATT
         POIN2  BATTLE_WIRELESS_0000_2_42
// 105   ----------------------------------------
        BYTE   PATT
         POIN2  BATTLE_WIRELESS_0000_2_43
// 106   ----------------------------------------
        BYTE   PATT
         POIN2  BATTLE_WIRELESS_0000_2_8
// 107   ----------------------------------------
        BYTE   PATT
         POIN2  BATTLE_WIRELESS_0000_2_45
// 108   ----------------------------------------
        BYTE   PATT
         POIN2  BATTLE_WIRELESS_0000_2_42
// 109   ----------------------------------------
        BYTE   PATT
         POIN2  BATTLE_WIRELESS_0000_2_43
// 110   ----------------------------------------
        BYTE   PATT
         POIN2  BATTLE_WIRELESS_0000_2_56
// 111   ----------------------------------------
        BYTE   PATT
         POIN2  BATTLE_WIRELESS_0000_2_57
// 112   ----------------------------------------
        BYTE           TIE     Cn2   v085
        BYTE   W96
// 113   ----------------------------------------
        BYTE   W96
// 114   ----------------------------------------
        BYTE   W92
        BYTE   W03
        BYTE           EOT
        BYTE   W01
// 115   ----------------------------------------
        BYTE           N11     Dn2
        BYTE   W12
        BYTE           N08     Dn1   v080
        BYTE   W12
        BYTE                   Dn1
        BYTE   W12
        BYTE           N11     Dn2   v085
        BYTE   W12
        BYTE           N08     Dn1   v080
        BYTE   W12
        BYTE                   Dn1
        BYTE   W12
        BYTE           N11     Dn2   v085
        BYTE   W12
        BYTE                   Dn1   v080
        BYTE   W12
// 116   ----------------------------------------
        BYTE   PATT
         POIN2  BATTLE_WIRELESS_0000_2_48
// 117   ----------------------------------------
        BYTE   PATT
         POIN2  BATTLE_WIRELESS_0000_2_45
// 118   ----------------------------------------
        BYTE   PATT
         POIN2  BATTLE_WIRELESS_0000_2_48
// 119   ----------------------------------------
        BYTE   PATT
         POIN2  BATTLE_WIRELESS_0000_2_45
// 120   ----------------------------------------
        BYTE   PATT
         POIN2  BATTLE_WIRELESS_0000_2_48
// 121   ----------------------------------------
        BYTE   PATT
         POIN2  BATTLE_WIRELESS_0000_2_45
// 122   ----------------------------------------
        BYTE   PATT
         POIN2  BATTLE_WIRELESS_0000_2_48
// 123   ----------------------------------------
BATTLE_WIRELESS_0000_2_123:
        BYTE           N08     Gn1   v080
        BYTE   W12
        BYTE           N11     Fn2   v085
        BYTE   W12
        BYTE                   Ds2
        BYTE   W12
        BYTE                   Dn3
        BYTE   W12
        BYTE                   Cn3
        BYTE   W12
        BYTE                   As2
        BYTE   W12
        BYTE                   Cn3
        BYTE   W12
        BYTE                   Dn3
        BYTE   W12
        BYTE   PEND
// 124   ----------------------------------------
        BYTE   PATT
         POIN2  BATTLE_WIRELESS_0000_2_48
// 125   ----------------------------------------
        BYTE   PATT
         POIN2  BATTLE_WIRELESS_0000_2_45
// 126   ----------------------------------------
        BYTE   PATT
         POIN2  BATTLE_WIRELESS_0000_2_48
// 127   ----------------------------------------
        BYTE   PATT
         POIN2  BATTLE_WIRELESS_0000_2_45
// 128   ----------------------------------------
        BYTE   PATT
         POIN2  BATTLE_WIRELESS_0000_2_48
// 129   ----------------------------------------
        BYTE   PATT
         POIN2  BATTLE_WIRELESS_0000_2_45
// 130   ----------------------------------------
        BYTE   PATT
         POIN2  BATTLE_WIRELESS_0000_2_48
// 131   ----------------------------------------
        BYTE   PATT
         POIN2  BATTLE_WIRELESS_0000_2_123
// 132   ----------------------------------------
        BYTE   PATT
         POIN2  BATTLE_WIRELESS_0000_2_24
// 133   ----------------------------------------
        BYTE   PATT
         POIN2  BATTLE_WIRELESS_0000_2_25
// 134   ----------------------------------------
        BYTE   PATT
         POIN2  BATTLE_WIRELESS_0000_2_26
// 135   ----------------------------------------
        BYTE   PATT
         POIN2  BATTLE_WIRELESS_0000_2_27
// 136   ----------------------------------------
        BYTE   PATT
         POIN2  BATTLE_WIRELESS_0000_2_28
// 137   ----------------------------------------
        BYTE   PATT
         POIN2  BATTLE_WIRELESS_0000_2_29
// 138   ----------------------------------------
        BYTE   PATT
         POIN2  BATTLE_WIRELESS_0000_2_26
// 139   ----------------------------------------
        BYTE   PATT
         POIN2  BATTLE_WIRELESS_0000_2_31
// 140   ----------------------------------------
        BYTE   PATT
         POIN2  BATTLE_WIRELESS_0000_2_24
// 141   ----------------------------------------
        BYTE   PATT
         POIN2  BATTLE_WIRELESS_0000_2_25
// 142   ----------------------------------------
        BYTE   PATT
         POIN2  BATTLE_WIRELESS_0000_2_26
// 143   ----------------------------------------
        BYTE   PATT
         POIN2  BATTLE_WIRELESS_0000_2_27
// 144   ----------------------------------------
        BYTE   PATT
         POIN2  BATTLE_WIRELESS_0000_2_28
// 145   ----------------------------------------
        BYTE   PATT
         POIN2  BATTLE_WIRELESS_0000_2_37
// 146   ----------------------------------------
        BYTE   PATT
         POIN2  BATTLE_WIRELESS_0000_2_38
// 147   ----------------------------------------
        BYTE   PATT
         POIN2  BATTLE_WIRELESS_0000_2_39
// 148   ----------------------------------------
        BYTE   PATT
         POIN2  BATTLE_WIRELESS_0000_2_40
// 149   ----------------------------------------
        BYTE           N11     Dn2   v087
        BYTE   W96
// 150   ----------------------------------------
        BYTE   PATT
         POIN2  BATTLE_WIRELESS_0000_2_42
// 151   ----------------------------------------
        BYTE   PATT
         POIN2  BATTLE_WIRELESS_0000_2_43
// 152   ----------------------------------------
        BYTE   PATT
         POIN2  BATTLE_WIRELESS_0000_2_8
// 153   ----------------------------------------
        BYTE   PATT
         POIN2  BATTLE_WIRELESS_0000_2_45
// 154   ----------------------------------------
        BYTE   PATT
         POIN2  BATTLE_WIRELESS_0000_2_42
// 155   ----------------------------------------
        BYTE   PATT
         POIN2  BATTLE_WIRELESS_0000_2_43
// 156   ----------------------------------------
        BYTE   PATT
         POIN2  BATTLE_WIRELESS_0000_2_48
// 157   ----------------------------------------
        BYTE   PATT
         POIN2  BATTLE_WIRELESS_0000_2_45
// 158   ----------------------------------------
        BYTE   PATT
         POIN2  BATTLE_WIRELESS_0000_2_42
// 159   ----------------------------------------
        BYTE   PATT
         POIN2  BATTLE_WIRELESS_0000_2_43
// 160   ----------------------------------------
        BYTE   PATT
         POIN2  BATTLE_WIRELESS_0000_2_8
// 161   ----------------------------------------
        BYTE   PATT
         POIN2  BATTLE_WIRELESS_0000_2_45
// 162   ----------------------------------------
        BYTE   PATT
         POIN2  BATTLE_WIRELESS_0000_2_42
// 163   ----------------------------------------
        BYTE   PATT
         POIN2  BATTLE_WIRELESS_0000_2_43
// 164   ----------------------------------------
        BYTE   PATT
         POIN2  BATTLE_WIRELESS_0000_2_56
// 165   ----------------------------------------
        BYTE   PATT
         POIN2  BATTLE_WIRELESS_0000_2_57
// 166   ----------------------------------------
        BYTE           TIE     Cn2   v085
        BYTE   W96
// 167   ----------------------------------------
        BYTE   W96
// 168   ----------------------------------------
        BYTE   W92
        BYTE   W03
        BYTE           EOT
        BYTE   W01
// 169   ----------------------------------------
        BYTE   GoTo
         POIN2  BATTLE_WIRELESS_0000_2_LOOP
        BYTE   W92
        BYTE   W03
        BYTE   FINE

//****************** Track 3 (Midi-Chn.3) ******************//

BATTLE_WIRELESS_0000_3:
        BYTE   KEYSH   BATTLE_WIRELESS_0000_key+0
// 000   ----------------------------------------
        BYTE           VOICE   97
        BYTE           VOL     33
        BYTE           TIE     Dn1   v058
        BYTE           TIE     Dn2   v064
        BYTE           N11     Dn3   v075
        BYTE   W12
        BYTE                   En3   v056
        BYTE   W12
        BYTE                   Fn3
        BYTE   W12
        BYTE                   Dn3   v067
        BYTE   W12
        BYTE                   En3   v054
        BYTE   W12
        BYTE                   Fn3   v061
        BYTE   W12
        BYTE                   Dn3   v068
        BYTE   W12
        BYTE                   En3   v051
        BYTE   W12
// 001   ----------------------------------------
BATTLE_WIRELESS_0000_3_1:
        BYTE           N11     Fn3   v058
        BYTE   W12
        BYTE                   Dn3   v073
        BYTE   W12
        BYTE                   En3   v050
        BYTE   W12
        BYTE                   Fn3   v055
        BYTE   W12
        BYTE                   Dn3   v075
        BYTE   W12
        BYTE                   En3   v050
        BYTE   W12
        BYTE                   Fn3   v057
        BYTE   W12
        BYTE                   Dn3   v055
        BYTE   W12
        BYTE   PEND
// 002   ----------------------------------------
BATTLE_WIRELESS_0000_3_2:
        BYTE           N11     Dn3   v075
        BYTE   W12
        BYTE                   En3   v056
        BYTE   W12
        BYTE                   Fn3
        BYTE   W12
        BYTE                   Dn3   v067
        BYTE   W12
        BYTE                   En3   v046
        BYTE   W12
        BYTE                   Fn3   v061
        BYTE   W12
        BYTE                   Dn3   v068
        BYTE   W12
        BYTE                   En3   v051
        BYTE   W12
        BYTE   PEND
// 003   ----------------------------------------
        BYTE                   Fn3   v058
        BYTE   W12
        BYTE                   Dn3   v073
        BYTE   W12
        BYTE                   En3   v050
        BYTE   W12
        BYTE                   Fn3   v055
        BYTE   W12
        BYTE                   Dn3   v075
        BYTE   W12
        BYTE                   En3   v050
        BYTE   W12
        BYTE                   Fn3   v057
        BYTE   W12
        BYTE                   Dn3
        BYTE   W11
        BYTE           EOT     Dn1
        BYTE                   Dn2
        BYTE   W01
// 004   ----------------------------------------
        BYTE           TIE     As0   v058
        BYTE           TIE     As1   v064
        BYTE           N11     Dn3   v075
        BYTE   W12
        BYTE                   En3   v056
        BYTE   W12
        BYTE                   Fn3
        BYTE   W12
        BYTE                   Dn3   v067
        BYTE   W12
        BYTE                   En3   v054
        BYTE   W12
        BYTE                   Fn3   v061
        BYTE   W12
        BYTE                   Dn3   v068
        BYTE   W12
        BYTE                   En3   v051
        BYTE   W12
// 005   ----------------------------------------
        BYTE   PATT
         POIN2  BATTLE_WIRELESS_0000_3_1
// 006   ----------------------------------------
        BYTE   PATT
         POIN2  BATTLE_WIRELESS_0000_3_2
// 007   ----------------------------------------
        BYTE           N11     Fn3   v058
        BYTE   W12
        BYTE                   Dn3   v073
        BYTE   W12
        BYTE                   En3   v050
        BYTE   W12
        BYTE                   Fn3   v055
        BYTE   W12
        BYTE                   Dn3   v075
        BYTE   W12
        BYTE                   En3   v050
        BYTE   W12
        BYTE                   Fn3   v057
        BYTE   W12
        BYTE                   Dn3
        BYTE   W11
        BYTE           EOT     As0
        BYTE                   As1
        BYTE   W01
// 008   ----------------------------------------
BATTLE_WIRELESS_0000_3_8:
        BYTE           TIE     Dn2   v064
        BYTE           N11     Dn3   v075
        BYTE   W12
        BYTE                   En3   v056
        BYTE   W12
        BYTE                   Fn3
        BYTE   W12
        BYTE                   Dn3   v067
        BYTE   W12
        BYTE                   En3   v054
        BYTE   W12
        BYTE                   Fn3   v061
        BYTE   W12
        BYTE                   Dn3   v068
        BYTE   W12
        BYTE                   En3   v051
        BYTE   W12
        BYTE   PEND
// 009   ----------------------------------------
        BYTE   PATT
         POIN2  BATTLE_WIRELESS_0000_3_1
// 010   ----------------------------------------
        BYTE   PATT
         POIN2  BATTLE_WIRELESS_0000_3_2
// 011   ----------------------------------------
BATTLE_WIRELESS_0000_3_11:
        BYTE           N11     Fn3   v058
        BYTE   W12
        BYTE                   Dn3   v073
        BYTE   W12
        BYTE                   En3   v050
        BYTE   W12
        BYTE                   Fn3   v055
        BYTE   W12
        BYTE                   Cn3   v075
        BYTE   W12
        BYTE                   En3   v050
        BYTE   W12
        BYTE                   Fn3   v057
        BYTE   W12
        BYTE                   Cn3
        BYTE   W11
        BYTE           EOT     Dn2
        BYTE   W01
        BYTE   PEND
// 012   ----------------------------------------
BATTLE_WIRELESS_0000_3_12:
        BYTE           TIE     As1   v064
        BYTE           N11     Dn3   v075
        BYTE   W12
        BYTE                   En3   v056
        BYTE   W12
        BYTE                   Fn3
        BYTE   W12
        BYTE                   Dn3   v067
        BYTE   W12
        BYTE                   En3   v054
        BYTE   W12
        BYTE                   Fn3   v061
        BYTE   W12
        BYTE                   Dn3   v068
        BYTE   W12
        BYTE                   En3   v051
        BYTE   W12
        BYTE   PEND
// 013   ----------------------------------------
        BYTE   PATT
         POIN2  BATTLE_WIRELESS_0000_3_1
// 014   ----------------------------------------
        BYTE   PATT
         POIN2  BATTLE_WIRELESS_0000_3_2
// 015   ----------------------------------------
BATTLE_WIRELESS_0000_3_15:
        BYTE           N11     Fn3   v058
        BYTE   W12
        BYTE                   Dn3   v073
        BYTE   W12
        BYTE                   En3   v050
        BYTE   W12
        BYTE                   Fn3   v055
        BYTE   W12
        BYTE                   Dn3   v075
        BYTE   W12
        BYTE                   En3   v050
        BYTE   W12
        BYTE                   Fn3   v057
        BYTE   W12
        BYTE                   Dn3
        BYTE   W11
        BYTE           EOT     As1
        BYTE   W01
        BYTE   PEND
// 016   ----------------------------------------
        BYTE   PATT
         POIN2  BATTLE_WIRELESS_0000_3_8
// 017   ----------------------------------------
        BYTE   PATT
         POIN2  BATTLE_WIRELESS_0000_3_1
// 018   ----------------------------------------
        BYTE   PATT
         POIN2  BATTLE_WIRELESS_0000_3_2
// 019   ----------------------------------------
        BYTE   PATT
         POIN2  BATTLE_WIRELESS_0000_3_11
// 020   ----------------------------------------
        BYTE   PATT
         POIN2  BATTLE_WIRELESS_0000_3_12
// 021   ----------------------------------------
        BYTE   PATT
         POIN2  BATTLE_WIRELESS_0000_3_1
// 022   ----------------------------------------
        BYTE   PATT
         POIN2  BATTLE_WIRELESS_0000_3_2
// 023   ----------------------------------------
        BYTE   PATT
         POIN2  BATTLE_WIRELESS_0000_3_15
// 024   ----------------------------------------
BATTLE_WIRELESS_0000_3_24:
        BYTE           N56     Ds2   v064   gtp3
        BYTE   W60
        BYTE           N11     As2
        BYTE   W12
        BYTE                   Ds3
        BYTE   W12
        BYTE                   As2
        BYTE   W12
        BYTE   PEND
// 025   ----------------------------------------
BATTLE_WIRELESS_0000_3_25:
        BYTE           N32     En2   v064   gtp3
        BYTE   W36
        BYTE                   En2
        BYTE   W36
        BYTE           N23
        BYTE   W24
        BYTE   PEND
// 026   ----------------------------------------
BATTLE_WIRELESS_0000_3_26:
        BYTE           N56     Fn2   v064   gtp3
        BYTE   W60
        BYTE           N11     Cn3
        BYTE   W12
        BYTE                   Fn3
        BYTE   W12
        BYTE                   Cn3
        BYTE   W12
        BYTE   PEND
// 027   ----------------------------------------
BATTLE_WIRELESS_0000_3_27:
        BYTE           N32     Fs2   v064   gtp3
        BYTE   W36
        BYTE                   Fs2
        BYTE   W36
        BYTE           N23
        BYTE   W24
        BYTE   PEND
// 028   ----------------------------------------
BATTLE_WIRELESS_0000_3_28:
        BYTE           N56     Gn2   v064   gtp3
        BYTE   W60
        BYTE           N11     Dn3
        BYTE   W12
        BYTE                   Gn3
        BYTE   W12
        BYTE                   Dn3
        BYTE   W12
        BYTE   PEND
// 029   ----------------------------------------
BATTLE_WIRELESS_0000_3_29:
        BYTE           N32     Gs2   v064   gtp3
        BYTE   W36
        BYTE                   Gs2
        BYTE   W36
        BYTE           N23
        BYTE   W24
        BYTE   PEND
// 030   ----------------------------------------
        BYTE   PATT
         POIN2  BATTLE_WIRELESS_0000_3_26
// 031   ----------------------------------------
BATTLE_WIRELESS_0000_3_31:
        BYTE           N11     Gn2   v064
        BYTE   W12
        BYTE           N23     Fn2
        BYTE   W24
        BYTE           N32     Fn2   v064   gtp3
        BYTE   W36
        BYTE           N23
        BYTE   W24
        BYTE   PEND
// 032   ----------------------------------------
BATTLE_WIRELESS_0000_3_32:
        BYTE           N56     Ds2   v064   gtp3
        BYTE   W60
        BYTE           N11     As2
        BYTE   W12
        BYTE                   Ds2
        BYTE   W12
        BYTE                   As2
        BYTE   W12
        BYTE   PEND
// 033   ----------------------------------------
        BYTE   PATT
         POIN2  BATTLE_WIRELESS_0000_3_25
// 034   ----------------------------------------
BATTLE_WIRELESS_0000_3_34:
        BYTE           N56     Fn2   v064   gtp3
        BYTE   W60
        BYTE           N11     Cn3
        BYTE   W12
        BYTE                   Fn2
        BYTE   W12
        BYTE                   Cn3
        BYTE   W12
        BYTE   PEND
// 035   ----------------------------------------
        BYTE   PATT
         POIN2  BATTLE_WIRELESS_0000_3_27
// 036   ----------------------------------------
BATTLE_WIRELESS_0000_3_36:
        BYTE           N56     Gn2   v064   gtp3
        BYTE   W60
        BYTE           N11     Dn3
        BYTE   W12
        BYTE                   Gn2
        BYTE   W12
        BYTE                   Dn3
        BYTE   W12
        BYTE   PEND
// 037   ----------------------------------------
BATTLE_WIRELESS_0000_3_37:
        BYTE           N32     Gs2   v064   gtp3
        BYTE   W36
        BYTE                   Cn3
        BYTE   W36
        BYTE           N23     Gs2
        BYTE   W24
        BYTE   PEND
// 038   ----------------------------------------
BATTLE_WIRELESS_0000_3_38:
        BYTE           N32     Fn2   v064   gtp3
        BYTE   W36
        BYTE                   An2
        BYTE   W36
        BYTE           N23     Cn3
        BYTE   W24
        BYTE   PEND
// 039   ----------------------------------------
BATTLE_WIRELESS_0000_3_39:
        BYTE           N32     Fn2   v064   gtp3
        BYTE   W36
        BYTE                   Fn2
        BYTE   W36
        BYTE           N11     An2
        BYTE   W12
        BYTE                   Cn3
        BYTE   W12
        BYTE   PEND
// 040   ----------------------------------------
BATTLE_WIRELESS_0000_3_40:
        BYTE           N32     Dn3   v064   gtp3
        BYTE   W36
        BYTE                   Cn3
        BYTE   W36
        BYTE           N23     Fn3
        BYTE   W24
        BYTE   PEND
// 041   ----------------------------------------
        BYTE           N11     Dn3
        BYTE   W96
// 042   ----------------------------------------
BATTLE_WIRELESS_0000_3_42:
        BYTE           N11     Gn3   v075
        BYTE   W12
        BYTE                   Ds3   v056
        BYTE   W12
        BYTE                   Gn3
        BYTE   W12
        BYTE                   Gn3   v067
        BYTE   W12
        BYTE                   Ds3   v054
        BYTE   W12
        BYTE                   Ds3   v061
        BYTE   W12
        BYTE                   Gn3   v068
        BYTE   W12
        BYTE                   Ds3   v051
        BYTE   W12
        BYTE   PEND
// 043   ----------------------------------------
BATTLE_WIRELESS_0000_3_43:
        BYTE           N11     Ds3   v056
        BYTE   W12
        BYTE                   Gn3   v075
        BYTE   W12
        BYTE                   Ds3   v056
        BYTE   W12
        BYTE                   Ds3   v054
        BYTE   W12
        BYTE                   Gn3   v067
        BYTE   W12
        BYTE                   Ds3   v061
        BYTE   W12
        BYTE                   As3   v068
        BYTE   W12
        BYTE                   Ds3   v051
        BYTE   W12
        BYTE   PEND
// 044   ----------------------------------------
BATTLE_WIRELESS_0000_3_44:
        BYTE           N11     Fn3   v075
        BYTE   W12
        BYTE                   Dn3   v056
        BYTE   W12
        BYTE                   Fn3
        BYTE   W12
        BYTE                   Fn3   v067
        BYTE   W12
        BYTE                   Dn3   v054
        BYTE   W12
        BYTE                   Dn3   v061
        BYTE   W12
        BYTE                   Fn3   v068
        BYTE   W12
        BYTE                   Dn3   v051
        BYTE   W12
        BYTE   PEND
// 045   ----------------------------------------
BATTLE_WIRELESS_0000_3_45:
        BYTE           N11     Dn3   v056
        BYTE   W12
        BYTE                   Gn3   v075
        BYTE   W12
        BYTE                   Dn3   v056
        BYTE   W12
        BYTE                   Dn3   v054
        BYTE   W12
        BYTE                   Gn3   v067
        BYTE   W12
        BYTE                   Dn3   v061
        BYTE   W12
        BYTE                   As3   v068
        BYTE   W12
        BYTE                   Dn3   v051
        BYTE   W12
        BYTE   PEND
// 046   ----------------------------------------
        BYTE   PATT
         POIN2  BATTLE_WIRELESS_0000_3_42
// 047   ----------------------------------------
BATTLE_WIRELESS_0000_3_47:
        BYTE           N11     Ds3   v056
        BYTE   W12
        BYTE                   Gn3   v075
        BYTE   W12
        BYTE                   Ds3   v056
        BYTE   W12
        BYTE                   Ds3   v054
        BYTE   W12
        BYTE                   Gn3   v067
        BYTE   W12
        BYTE                   Ds3   v061
        BYTE   W12
        BYTE                   Gn3   v068
        BYTE   W12
        BYTE                   Ds3   v051
        BYTE   W12
        BYTE   PEND
// 048   ----------------------------------------
BATTLE_WIRELESS_0000_3_48:
        BYTE           N11     Fn3   v075
        BYTE   W12
        BYTE                   Dn3   v056
        BYTE   W12
        BYTE                   Fn3
        BYTE   W12
        BYTE                   Gn3   v067
        BYTE   W12
        BYTE                   Dn3   v054
        BYTE   W12
        BYTE                   Dn3   v061
        BYTE   W12
        BYTE                   Gn3   v068
        BYTE   W12
        BYTE                   Dn3   v051
        BYTE   W12
        BYTE   PEND
// 049   ----------------------------------------
BATTLE_WIRELESS_0000_3_49:
        BYTE           N11     Dn3   v056
        BYTE   W12
        BYTE                   Gn3   v075
        BYTE   W12
        BYTE                   Dn3   v056
        BYTE   W12
        BYTE                   Dn3   v054
        BYTE   W12
        BYTE                   Gn3   v067
        BYTE   W12
        BYTE                   Dn3   v061
        BYTE   W12
        BYTE                   Gn3   v068
        BYTE   W12
        BYTE                   Dn3   v051
        BYTE   W12
        BYTE   PEND
// 050   ----------------------------------------
        BYTE   PATT
         POIN2  BATTLE_WIRELESS_0000_3_42
// 051   ----------------------------------------
        BYTE   PATT
         POIN2  BATTLE_WIRELESS_0000_3_43
// 052   ----------------------------------------
        BYTE   PATT
         POIN2  BATTLE_WIRELESS_0000_3_44
// 053   ----------------------------------------
BATTLE_WIRELESS_0000_3_53:
        BYTE           N11     Dn3   v056
        BYTE   W12
        BYTE                   Gn3   v075
        BYTE   W12
        BYTE                   Dn3   v056
        BYTE   W12
        BYTE                   Dn3   v054
        BYTE   W12
        BYTE                   Gn3   v067
        BYTE   W12
        BYTE                   An3   v061
        BYTE   W12
        BYTE                   Gn3
        BYTE   W12
        BYTE                   Fn3   v051
        BYTE   W12
        BYTE   PEND
// 054   ----------------------------------------
BATTLE_WIRELESS_0000_3_54:
        BYTE           N11     Gn3   v066
        BYTE   W12
        BYTE           N44     Ds3   v052   gtp3
        BYTE   W12
        BYTE           N68     Gn3   v060   gtp2
        BYTE   W12
        BYTE           N32     Cn4   v065   gtp3
        BYTE   W36
        BYTE           N23     As3   v060
        BYTE   W24
        BYTE   PEND
// 055   ----------------------------------------
BATTLE_WIRELESS_0000_3_55:
        BYTE           N23     Gn3   v066
        BYTE   W12
        BYTE           N44     Ds3   v052   gtp3
        BYTE   W12
        BYTE           N68     Gn3   v060   gtp2
        BYTE   W12
        BYTE           N32     Cn4   v065   gtp3
        BYTE   W36
        BYTE           N23     As3   v060
        BYTE   W24
        BYTE   PEND
// 056   ----------------------------------------
BATTLE_WIRELESS_0000_3_56:
        BYTE           N23     Gn3   v066
        BYTE   W12
        BYTE           N44     Fn3   v052   gtp3
        BYTE   W12
        BYTE           N68     Gn3   v060   gtp2
        BYTE   W12
        BYTE           N32     Cn4   v065   gtp3
        BYTE   W36
        BYTE           N23     As3   v060
        BYTE   W24
        BYTE   PEND
// 057   ----------------------------------------
        BYTE   PATT
         POIN2  BATTLE_WIRELESS_0000_3_56
// 058   ----------------------------------------
        BYTE   PATT
         POIN2  BATTLE_WIRELESS_0000_3_56
// 059   ----------------------------------------
        BYTE   PATT
         POIN2  BATTLE_WIRELESS_0000_3_56
// 060   ----------------------------------------
        BYTE           N23     Gn3   v049
        BYTE   W12
        BYTE           N44     Fn3   v035   gtp3
        BYTE   W12
        BYTE           N68     Gn3   v043   gtp2
        BYTE   W12
        BYTE           N32     Cn4   v048   gtp3
        BYTE   W36
        BYTE           N23     As3   v043
        BYTE   W24
// 061   ----------------------------------------
BATTLE_WIRELESS_0000_3_LOOP:
        BYTE           N23     Gn3   v027
        BYTE   W12
        BYTE           N44     Fn3   v013   gtp3
        BYTE   W12
        BYTE           N68     Gn3   v021   gtp2
        BYTE   W12
        BYTE           N32     Cn4   v026   gtp3
        BYTE   W36
        BYTE           N23     As3   v021
        BYTE   W24
// 062   ----------------------------------------
        BYTE           TIE     Dn2   v064
        BYTE   W96
// 063   ----------------------------------------
        BYTE   W96
// 064   ----------------------------------------
        BYTE   W96
// 065   ----------------------------------------
        BYTE   W92
        BYTE   W03
        BYTE           EOT
        BYTE   W01
// 066   ----------------------------------------
        BYTE           TIE     As1
        BYTE   W96
// 067   ----------------------------------------
        BYTE   W96
// 068   ----------------------------------------
        BYTE   W96
// 069   ----------------------------------------
        BYTE   W92
        BYTE   W03
        BYTE           EOT
        BYTE   W01
// 070   ----------------------------------------
        BYTE           TIE     Dn2
        BYTE   W96
// 071   ----------------------------------------
        BYTE   W96
// 072   ----------------------------------------
        BYTE   W96
// 073   ----------------------------------------
        BYTE   W92
        BYTE   W03
        BYTE           EOT
        BYTE   W01
// 074   ----------------------------------------
        BYTE           TIE     As1
        BYTE   W96
// 075   ----------------------------------------
        BYTE   W96
// 076   ----------------------------------------
        BYTE   W96
// 077   ----------------------------------------
        BYTE   W92
        BYTE   W03
        BYTE           EOT
        BYTE   W01
// 078   ----------------------------------------
        BYTE   PATT
         POIN2  BATTLE_WIRELESS_0000_3_24
// 079   ----------------------------------------
        BYTE   PATT
         POIN2  BATTLE_WIRELESS_0000_3_25
// 080   ----------------------------------------
        BYTE   PATT
         POIN2  BATTLE_WIRELESS_0000_3_26
// 081   ----------------------------------------
        BYTE   PATT
         POIN2  BATTLE_WIRELESS_0000_3_27
// 082   ----------------------------------------
        BYTE   PATT
         POIN2  BATTLE_WIRELESS_0000_3_28
// 083   ----------------------------------------
        BYTE   PATT
         POIN2  BATTLE_WIRELESS_0000_3_29
// 084   ----------------------------------------
        BYTE   PATT
         POIN2  BATTLE_WIRELESS_0000_3_26
// 085   ----------------------------------------
        BYTE   PATT
         POIN2  BATTLE_WIRELESS_0000_3_31
// 086   ----------------------------------------
        BYTE   PATT
         POIN2  BATTLE_WIRELESS_0000_3_32
// 087   ----------------------------------------
        BYTE   PATT
         POIN2  BATTLE_WIRELESS_0000_3_25
// 088   ----------------------------------------
        BYTE   PATT
         POIN2  BATTLE_WIRELESS_0000_3_34
// 089   ----------------------------------------
        BYTE   PATT
         POIN2  BATTLE_WIRELESS_0000_3_27
// 090   ----------------------------------------
        BYTE   PATT
         POIN2  BATTLE_WIRELESS_0000_3_36
// 091   ----------------------------------------
        BYTE   PATT
         POIN2  BATTLE_WIRELESS_0000_3_37
// 092   ----------------------------------------
        BYTE   PATT
         POIN2  BATTLE_WIRELESS_0000_3_38
// 093   ----------------------------------------
        BYTE   PATT
         POIN2  BATTLE_WIRELESS_0000_3_39
// 094   ----------------------------------------
        BYTE   PATT
         POIN2  BATTLE_WIRELESS_0000_3_40
// 095   ----------------------------------------
        BYTE           N11     Dn3   v064
        BYTE   W96
// 096   ----------------------------------------
        BYTE   PATT
         POIN2  BATTLE_WIRELESS_0000_3_42
// 097   ----------------------------------------
        BYTE   PATT
         POIN2  BATTLE_WIRELESS_0000_3_43
// 098   ----------------------------------------
        BYTE   PATT
         POIN2  BATTLE_WIRELESS_0000_3_44
// 099   ----------------------------------------
        BYTE   PATT
         POIN2  BATTLE_WIRELESS_0000_3_45
// 100   ----------------------------------------
        BYTE   PATT
         POIN2  BATTLE_WIRELESS_0000_3_42
// 101   ----------------------------------------
        BYTE   PATT
         POIN2  BATTLE_WIRELESS_0000_3_47
// 102   ----------------------------------------
        BYTE   PATT
         POIN2  BATTLE_WIRELESS_0000_3_48
// 103   ----------------------------------------
        BYTE   PATT
         POIN2  BATTLE_WIRELESS_0000_3_49
// 104   ----------------------------------------
        BYTE   PATT
         POIN2  BATTLE_WIRELESS_0000_3_42
// 105   ----------------------------------------
        BYTE   PATT
         POIN2  BATTLE_WIRELESS_0000_3_43
// 106   ----------------------------------------
        BYTE   PATT
         POIN2  BATTLE_WIRELESS_0000_3_44
// 107   ----------------------------------------
        BYTE   PATT
         POIN2  BATTLE_WIRELESS_0000_3_53
// 108   ----------------------------------------
        BYTE   PATT
         POIN2  BATTLE_WIRELESS_0000_3_54
// 109   ----------------------------------------
        BYTE   PATT
         POIN2  BATTLE_WIRELESS_0000_3_55
// 110   ----------------------------------------
        BYTE   PATT
         POIN2  BATTLE_WIRELESS_0000_3_56
// 111   ----------------------------------------
        BYTE   PATT
         POIN2  BATTLE_WIRELESS_0000_3_56
// 112   ----------------------------------------
        BYTE   PATT
         POIN2  BATTLE_WIRELESS_0000_3_56
// 113   ----------------------------------------
        BYTE   PATT
         POIN2  BATTLE_WIRELESS_0000_3_56
// 114   ----------------------------------------
        BYTE   PATT
         POIN2  BATTLE_WIRELESS_0000_3_56
// 115   ----------------------------------------
        BYTE   W02
        BYTE           N14     Gn2   v045
        BYTE   W12
        BYTE                   Fn2   v067
        BYTE   W10
        BYTE           N12     Gn2   v065
        BYTE   W11
        BYTE           N24     Cn3   v061
        BYTE   W24
        BYTE   W01
        BYTE           N13     As2   v058
        BYTE   W11
        BYTE           N20     Fn2   v044
        BYTE   W24
        BYTE   W01
// 116   ----------------------------------------
BATTLE_WIRELESS_0000_3_116:
        BYTE           TIE     Gn2   v060
        BYTE           TIE     Dn3   v058
        BYTE           N11     Gn3   v062
        BYTE   W12
        BYTE                   Fn3   v054
        BYTE   W12
        BYTE           N13     As3
        BYTE   W13
        BYTE           N12     Gn3   v062
        BYTE   W12
        BYTE                   Fn3   v054
        BYTE   W12
        BYTE           N13     As3
        BYTE   W11
        BYTE           N11     Gn3   v062
        BYTE   W12
        BYTE                   Fn3   v054
        BYTE   W12
        BYTE   PEND
// 117   ----------------------------------------
BATTLE_WIRELESS_0000_3_117:
        BYTE           N13     As3   v054
        BYTE   W12
        BYTE           N11     Gn3   v062
        BYTE   W12
        BYTE                   Fn3   v054
        BYTE   W12
        BYTE           N13     As3
        BYTE   W12
        BYTE           N11     Gn3   v062
        BYTE   W12
        BYTE                   Fn3   v054
        BYTE   W12
        BYTE                   Cn4   v058
        BYTE   W13
        BYTE           N10     As3   v064
        BYTE   W04
        BYTE           EOT     Gn2
        BYTE                   Dn3
        BYTE   W07
        BYTE   PEND
// 118   ----------------------------------------
        BYTE   PATT
         POIN2  BATTLE_WIRELESS_0000_3_116
// 119   ----------------------------------------
        BYTE   PATT
         POIN2  BATTLE_WIRELESS_0000_3_117
// 120   ----------------------------------------
        BYTE   PATT
         POIN2  BATTLE_WIRELESS_0000_3_116
// 121   ----------------------------------------
        BYTE   PATT
         POIN2  BATTLE_WIRELESS_0000_3_117
// 122   ----------------------------------------
        BYTE   PATT
         POIN2  BATTLE_WIRELESS_0000_3_116
// 123   ----------------------------------------
BATTLE_WIRELESS_0000_3_123:
        BYTE           N13     As3   v054
        BYTE   W12
        BYTE           N11     Fn4   v062
        BYTE   W12
        BYTE                   Ds4   v054
        BYTE   W12
        BYTE           N13     Dn4
        BYTE   W12
        BYTE           N11     Cn4   v062
        BYTE   W12
        BYTE                   As3   v054
        BYTE   W12
        BYTE                   Cn4   v058
        BYTE   W13
        BYTE           N10     Dn4   v064
        BYTE   W04
        BYTE           EOT     Gn2
        BYTE                   Dn3
        BYTE   W07
        BYTE   PEND
// 124   ----------------------------------------
        BYTE   PATT
         POIN2  BATTLE_WIRELESS_0000_3_116
// 125   ----------------------------------------
        BYTE   PATT
         POIN2  BATTLE_WIRELESS_0000_3_117
// 126   ----------------------------------------
        BYTE   PATT
         POIN2  BATTLE_WIRELESS_0000_3_116
// 127   ----------------------------------------
        BYTE   PATT
         POIN2  BATTLE_WIRELESS_0000_3_117
// 128   ----------------------------------------
        BYTE   PATT
         POIN2  BATTLE_WIRELESS_0000_3_116
// 129   ----------------------------------------
        BYTE   PATT
         POIN2  BATTLE_WIRELESS_0000_3_117
// 130   ----------------------------------------
        BYTE   PATT
         POIN2  BATTLE_WIRELESS_0000_3_116
// 131   ----------------------------------------
        BYTE   PATT
         POIN2  BATTLE_WIRELESS_0000_3_123
// 132   ----------------------------------------
        BYTE   PATT
         POIN2  BATTLE_WIRELESS_0000_3_24
// 133   ----------------------------------------
        BYTE   PATT
         POIN2  BATTLE_WIRELESS_0000_3_25
// 134   ----------------------------------------
        BYTE   PATT
         POIN2  BATTLE_WIRELESS_0000_3_26
// 135   ----------------------------------------
        BYTE   PATT
         POIN2  BATTLE_WIRELESS_0000_3_27
// 136   ----------------------------------------
        BYTE   PATT
         POIN2  BATTLE_WIRELESS_0000_3_28
// 137   ----------------------------------------
        BYTE   PATT
         POIN2  BATTLE_WIRELESS_0000_3_29
// 138   ----------------------------------------
        BYTE   PATT
         POIN2  BATTLE_WIRELESS_0000_3_26
// 139   ----------------------------------------
        BYTE   PATT
         POIN2  BATTLE_WIRELESS_0000_3_31
// 140   ----------------------------------------
        BYTE   PATT
         POIN2  BATTLE_WIRELESS_0000_3_32
// 141   ----------------------------------------
        BYTE   PATT
         POIN2  BATTLE_WIRELESS_0000_3_25
// 142   ----------------------------------------
        BYTE   PATT
         POIN2  BATTLE_WIRELESS_0000_3_34
// 143   ----------------------------------------
        BYTE   PATT
         POIN2  BATTLE_WIRELESS_0000_3_27
// 144   ----------------------------------------
        BYTE   PATT
         POIN2  BATTLE_WIRELESS_0000_3_36
// 145   ----------------------------------------
        BYTE   PATT
         POIN2  BATTLE_WIRELESS_0000_3_37
// 146   ----------------------------------------
        BYTE   PATT
         POIN2  BATTLE_WIRELESS_0000_3_38
// 147   ----------------------------------------
        BYTE   PATT
         POIN2  BATTLE_WIRELESS_0000_3_39
// 148   ----------------------------------------
        BYTE   PATT
         POIN2  BATTLE_WIRELESS_0000_3_40
// 149   ----------------------------------------
        BYTE           N11     Dn3   v064
        BYTE   W96
// 150   ----------------------------------------
        BYTE   PATT
         POIN2  BATTLE_WIRELESS_0000_3_42
// 151   ----------------------------------------
        BYTE   PATT
         POIN2  BATTLE_WIRELESS_0000_3_43
// 152   ----------------------------------------
        BYTE   PATT
         POIN2  BATTLE_WIRELESS_0000_3_44
// 153   ----------------------------------------
        BYTE   PATT
         POIN2  BATTLE_WIRELESS_0000_3_45
// 154   ----------------------------------------
        BYTE   PATT
         POIN2  BATTLE_WIRELESS_0000_3_42
// 155   ----------------------------------------
        BYTE   PATT
         POIN2  BATTLE_WIRELESS_0000_3_47
// 156   ----------------------------------------
        BYTE   PATT
         POIN2  BATTLE_WIRELESS_0000_3_48
// 157   ----------------------------------------
        BYTE   PATT
         POIN2  BATTLE_WIRELESS_0000_3_49
// 158   ----------------------------------------
        BYTE   PATT
         POIN2  BATTLE_WIRELESS_0000_3_42
// 159   ----------------------------------------
        BYTE   PATT
         POIN2  BATTLE_WIRELESS_0000_3_43
// 160   ----------------------------------------
        BYTE   PATT
         POIN2  BATTLE_WIRELESS_0000_3_44
// 161   ----------------------------------------
        BYTE   PATT
         POIN2  BATTLE_WIRELESS_0000_3_53
// 162   ----------------------------------------
        BYTE   PATT
         POIN2  BATTLE_WIRELESS_0000_3_54
// 163   ----------------------------------------
        BYTE   PATT
         POIN2  BATTLE_WIRELESS_0000_3_55
// 164   ----------------------------------------
        BYTE   PATT
         POIN2  BATTLE_WIRELESS_0000_3_56
// 165   ----------------------------------------
        BYTE   PATT
         POIN2  BATTLE_WIRELESS_0000_3_56
// 166   ----------------------------------------
        BYTE   PATT
         POIN2  BATTLE_WIRELESS_0000_3_56
// 167   ----------------------------------------
        BYTE   PATT
         POIN2  BATTLE_WIRELESS_0000_3_56
// 168   ----------------------------------------
        BYTE   PATT
         POIN2  BATTLE_WIRELESS_0000_3_56
// 169   ----------------------------------------
        BYTE           N23     Gn3   v026
        BYTE   GoTo
         POIN2  BATTLE_WIRELESS_0000_3_LOOP
        BYTE   W12
        BYTE           N44     Fn3   v012   gtp3
        BYTE   W12
        BYTE           N68     Gn3   v020   gtp2
        BYTE   W12
        BYTE           N32     Cn4   v025   gtp3
        BYTE   W36
        BYTE           N23     As3   v020
        BYTE   W23
        BYTE   FINE

//****************** Track 4 (Midi-Chn.4) ******************//

BATTLE_WIRELESS_0000_4:
        BYTE   KEYSH   BATTLE_WIRELESS_0000_key+0
// 000   ----------------------------------------
        BYTE           VOICE   57
        BYTE           PAN     c_v+23
        BYTE           VOL     41
        BYTE   W96
// 001   ----------------------------------------
        BYTE   W96
// 002   ----------------------------------------
        BYTE   W96
// 003   ----------------------------------------
        BYTE   W96
// 004   ----------------------------------------
        BYTE   W96
// 005   ----------------------------------------
        BYTE   W96
// 006   ----------------------------------------
        BYTE   W96
// 007   ----------------------------------------
        BYTE   W96
// 008   ----------------------------------------
        BYTE   W60
        BYTE           N11     An3   v105
        BYTE   W12
        BYTE                   Gn3
        BYTE   W12
        BYTE                   Cn4
        BYTE   W12
// 009   ----------------------------------------
BATTLE_WIRELESS_0000_4_9:
        BYTE           N32     An3   v105   gtp3
        BYTE   W12
        BYTE           MOD     1
        BYTE   W24
        BYTE                   0
        BYTE           N32     Gn3   v105   gtp3
        BYTE   W36
        BYTE           N23     An3
        BYTE   W24
        BYTE   PEND
// 010   ----------------------------------------
BATTLE_WIRELESS_0000_4_10:
        BYTE           N32     Fn3   v105   gtp3
        BYTE   W12
        BYTE           MOD     1
        BYTE   W24
        BYTE                   0
        BYTE           N32     En3   v105   gtp3
        BYTE   W36
        BYTE                   Fn3
        BYTE   W12
        BYTE           MOD     1
        BYTE   W12
        BYTE   PEND
// 011   ----------------------------------------
BATTLE_WIRELESS_0000_4_11:
        BYTE   W12
        BYTE           MOD     0
        BYTE           N32     En3   v105   gtp3
        BYTE   W36
        BYTE           N23     Dn3
        BYTE   W24
        BYTE                   Cn3
        BYTE   W24
        BYTE   PEND
// 012   ----------------------------------------
BATTLE_WIRELESS_0000_4_12:
        BYTE           N28     Cn3   v105   gtp1
        BYTE   W12
        BYTE           MOD     1
        BYTE   W24
        BYTE                   0
        BYTE           N32     Dn3   v105   gtp3
        BYTE   W36
        BYTE           TIE     An2
        BYTE   W24
        BYTE   PEND
// 013   ----------------------------------------
BATTLE_WIRELESS_0000_4_13:
        BYTE   W30
        BYTE           MOD     1
        BYTE   W24
        BYTE                   2
        BYTE   W42
        BYTE   PEND
// 014   ----------------------------------------
        BYTE   W92
        BYTE   W03
        BYTE           EOT     An2
        BYTE   W01
// 015   ----------------------------------------
        BYTE           N92     An2   v048   gtp3
        BYTE   W96
// 016   ----------------------------------------
BATTLE_WIRELESS_0000_4_16:
        BYTE   W48
        BYTE           MOD     0
        BYTE   W12
        BYTE           N11     An3   v105
        BYTE   W12
        BYTE                   Gn3
        BYTE   W12
        BYTE                   Cn4
        BYTE   W12
        BYTE   PEND
// 017   ----------------------------------------
BATTLE_WIRELESS_0000_4_17:
        BYTE           N32     An3   v105   gtp3
        BYTE   W12
        BYTE           MOD     1
        BYTE   W23
        BYTE                   0
        BYTE   W01
        BYTE           N32     Gn3   v105   gtp3
        BYTE   W36
        BYTE           N23     An3
        BYTE   W24
        BYTE   PEND
// 018   ----------------------------------------
BATTLE_WIRELESS_0000_4_18:
        BYTE           N32     Fn3   v105   gtp3
        BYTE   W12
        BYTE           MOD     1
        BYTE   W24
        BYTE                   0
        BYTE           N32     En3   v105   gtp3
        BYTE   W36
        BYTE                   Fn3
        BYTE   W24
        BYTE   PEND
// 019   ----------------------------------------
BATTLE_WIRELESS_0000_4_19:
        BYTE   W12
        BYTE           N32     Dn3   v105   gtp3
        BYTE   W36
        BYTE           N23     Gn3
        BYTE   W24
        BYTE                   An3
        BYTE   W24
        BYTE   PEND
// 020   ----------------------------------------
BATTLE_WIRELESS_0000_4_20:
        BYTE           N28     Cn4   v105   gtp1
        BYTE   W12
        BYTE           MOD     1
        BYTE   W23
        BYTE                   0
        BYTE   W01
        BYTE           TIE     Dn4
        BYTE   W60
        BYTE   PEND
// 021   ----------------------------------------
        BYTE           MOD     1
        BYTE   W96
// 022   ----------------------------------------
        BYTE   W92
        BYTE   W03
        BYTE           EOT
        BYTE   W01
// 023   ----------------------------------------
        BYTE           N68     Dn4   v046   gtp3
        BYTE   W96
// 024   ----------------------------------------
BATTLE_WIRELESS_0000_4_24:
        BYTE   W48
        BYTE           MOD     0
        BYTE   W10
        BYTE           N03     An3   v112
        BYTE   W02
        BYTE           N11     As3   v105
        BYTE   W12
        BYTE           N13     An3
        BYTE   W12
        BYTE           N07     Gn3
        BYTE   W12
        BYTE   PEND
// 025   ----------------------------------------
BATTLE_WIRELESS_0000_4_25:
        BYTE           N32     Gn3   v105   gtp3
        BYTE   W12
        BYTE           MOD     2
        BYTE   W24
        BYTE                   0
        BYTE           N32     Cn3   v105   gtp3
        BYTE   W36
        BYTE           N23     Gn3
        BYTE   W24
        BYTE   PEND
// 026   ----------------------------------------
BATTLE_WIRELESS_0000_4_26:
        BYTE           N52     An3   v105   gtp1
        BYTE   W12
        BYTE           MOD     2
        BYTE   W48
        BYTE                   0
        BYTE           N11     Cn3
        BYTE   W12
        BYTE                   Fn3
        BYTE   W12
        BYTE           N05     An3
        BYTE   W12
        BYTE   PEND
// 027   ----------------------------------------
BATTLE_WIRELESS_0000_4_27:
        BYTE           N32     An3   v105   gtp3
        BYTE   W12
        BYTE           MOD     2
        BYTE   W24
        BYTE                   0
        BYTE           N36     As3   v105   gtp3
        BYTE   W36
        BYTE           N24     Cn4   v105   gtp2
        BYTE   W24
        BYTE   PEND
// 028   ----------------------------------------
BATTLE_WIRELESS_0000_4_28:
        BYTE           N44     As3   v105   gtp3
        BYTE   W12
        BYTE           MOD     2
        BYTE   W44
        BYTE   W03
        BYTE                   0
        BYTE   W01
        BYTE           N11     Dn3
        BYTE   W12
        BYTE                   Gn3
        BYTE   W12
        BYTE                   As3
        BYTE   W12
        BYTE   PEND
// 029   ----------------------------------------
BATTLE_WIRELESS_0000_4_29:
        BYTE           N32     Cn4   v105   gtp3
        BYTE   W12
        BYTE           MOD     2
        BYTE   W24
        BYTE                   0
        BYTE           N32     Gs3   v105   gtp3
        BYTE   W36
        BYTE           N14     Ds3
        BYTE   W22
        BYTE           N01     Fn3
        BYTE   W02
        BYTE   PEND
// 030   ----------------------------------------
BATTLE_WIRELESS_0000_4_30:
        BYTE           N32     Gn3   v105   gtp3
        BYTE   W12
        BYTE           MOD     2
        BYTE   W24
        BYTE                   0
        BYTE           TIE     Fn3
        BYTE   W42
        BYTE           MOD     1
        BYTE   W06
        BYTE                   2
        BYTE   W12
        BYTE   PEND
// 031   ----------------------------------------
        BYTE   W64
        BYTE   W01
        BYTE           EOT
        BYTE   W30
        BYTE   W01
// 032   ----------------------------------------
BATTLE_WIRELESS_0000_4_32:
        BYTE   W48
        BYTE           MOD     0
        BYTE   W09
        BYTE           N02     An3   v112
        BYTE   W03
        BYTE           N11     As3   v105
        BYTE   W12
        BYTE                   An3
        BYTE   W12
        BYTE           N05     Gn3
        BYTE   W12
        BYTE   PEND
// 033   ----------------------------------------
BATTLE_WIRELESS_0000_4_33:
        BYTE           N32     Gn3   v105   gtp3
        BYTE   W12
        BYTE           MOD     1
        BYTE   W24
        BYTE                   0
        BYTE           N32     Cn3   v105   gtp3
        BYTE   W36
        BYTE           N11     Gn3
        BYTE   W24
        BYTE   PEND
// 034   ----------------------------------------
BATTLE_WIRELESS_0000_4_34:
        BYTE           N52     An3   v105   gtp1
        BYTE   W12
        BYTE           MOD     1
        BYTE   W42
        BYTE                   0
        BYTE   W06
        BYTE           N11     Cn3
        BYTE   W12
        BYTE                   Fn3
        BYTE   W12
        BYTE           N05     An3
        BYTE   W12
        BYTE   PEND
// 035   ----------------------------------------
BATTLE_WIRELESS_0000_4_35:
        BYTE           N32     An3   v105   gtp3
        BYTE   W12
        BYTE           MOD     1
        BYTE   W24
        BYTE                   0
        BYTE           N32     As3   v105   gtp3
        BYTE   W36
        BYTE           N23     Cn4
        BYTE   W24
        BYTE   PEND
// 036   ----------------------------------------
BATTLE_WIRELESS_0000_4_36:
        BYTE           N32     As3   v105   gtp3
        BYTE   W12
        BYTE           MOD     1
        BYTE   W24
        BYTE                   0
        BYTE   W24
        BYTE           N11
        BYTE   W12
        BYTE                   Cn4
        BYTE   W12
        BYTE                   Dn4
        BYTE   W12
        BYTE   PEND
// 037   ----------------------------------------
BATTLE_WIRELESS_0000_4_37:
        BYTE           N32     Ds4   v106   gtp3
        BYTE   W12
        BYTE           MOD     1
        BYTE   W24
        BYTE                   0
        BYTE           N32     Dn4   v108   gtp3
        BYTE   W36
        BYTE           N11     As3   v105
        BYTE   W22
        BYTE           N07     Cn4   v096
        BYTE   W02
        BYTE   PEND
// 038   ----------------------------------------
BATTLE_WIRELESS_0000_4_38:
        BYTE   W02
        BYTE           N32     Dn4   v108   gtp3
        BYTE   W10
        BYTE           MOD     1
        BYTE   W24
        BYTE                   0
        BYTE           TIE     Cn4
        BYTE   W36
        BYTE           MOD     1
        BYTE   W12
        BYTE                   2
        BYTE   W12
        BYTE   PEND
// 039   ----------------------------------------
BATTLE_WIRELESS_0000_4_39:
        BYTE   W40
        BYTE   W01
        BYTE           EOT     Cn4
        BYTE   W19
        BYTE           MOD     0
        BYTE           N11     Fn3   v105
        BYTE   W12
        BYTE                   An3
        BYTE   W12
        BYTE                   Cn4
        BYTE   W12
        BYTE   PEND
// 040   ----------------------------------------
BATTLE_WIRELESS_0000_4_40:
        BYTE           N36     Dn4   v107
        BYTE   W12
        BYTE           MOD     1
        BYTE   W24
        BYTE                   0
        BYTE           N30     Cn4   v107   gtp1
        BYTE   W32
        BYTE   W01
        BYTE           N03     Ds4   v105
        BYTE   W03
        BYTE           N24     Fn4   v102   gtp1
        BYTE   W24
        BYTE   PEND
// 041   ----------------------------------------
        BYTE           N18     Dn4   v104
        BYTE   W96
// 042   ----------------------------------------
BATTLE_WIRELESS_0000_4_42:
        BYTE           N03     Cn4   v090
        BYTE   W03
        BYTE           N68     Dn4   v105   gtp3
        BYTE   W15
        BYTE           MOD     1
        BYTE   W06
        BYTE                   2
        BYTE   W54
        BYTE                   0
        BYTE   W06
        BYTE           N06     Gn3   v104
        BYTE   W12
        BYTE   PEND
// 043   ----------------------------------------
BATTLE_WIRELESS_0000_4_43:
        BYTE           N11     Dn4   v104
        BYTE   W12
        BYTE                   Cn4   v105
        BYTE   W12
        BYTE                   As3   v095
        BYTE   W12
        BYTE           N23     An3   v099
        BYTE   W24
        BYTE           N12     As3
        BYTE   W12
        BYTE           N06     Cn4   v096
        BYTE   W12
        BYTE           N36     Cn4   v114
        BYTE   W12
        BYTE   PEND
// 044   ----------------------------------------
BATTLE_WIRELESS_0000_4_44:
        BYTE           MOD     1
        BYTE   W24
        BYTE                   0
        BYTE           N21     As3   v100
        BYTE   W24
        BYTE           N24     Cn4   v102   gtp2
        BYTE   W24
        BYTE           N17     Fn4   v117
        BYTE   W24
        BYTE   PEND
// 045   ----------------------------------------
BATTLE_WIRELESS_0000_4_45:
        BYTE           N32     Fn4   v105   gtp3
        BYTE   W12
        BYTE           MOD     1
        BYTE   W24
        BYTE                   0
        BYTE           N32     Dn4   v101   gtp1
        BYTE   W12
        BYTE           MOD     1
        BYTE   W24
        BYTE                   0
        BYTE   W20
        BYTE           N03     Cn4   v081
        BYTE   W03
        BYTE           N28     Dn4   v108   gtp1
        BYTE   W01
        BYTE   PEND
// 046   ----------------------------------------
BATTLE_WIRELESS_0000_4_46:
        BYTE   W18
        BYTE           MOD     1
        BYTE   W06
        BYTE                   2
        BYTE   W12
        BYTE           N28     Gn3   v108   gtp1
        BYTE   W42
        BYTE           MOD     0
        BYTE   W06
        BYTE           N05     Gn3   v110
        BYTE   W12
        BYTE   PEND
// 047   ----------------------------------------
BATTLE_WIRELESS_0000_4_47:
        BYTE           N11     Dn4   v099
        BYTE   W12
        BYTE                   Cn4   v096
        BYTE   W12
        BYTE                   As3   v097
        BYTE   W12
        BYTE           N17     Cn4   v104
        BYTE   W24
        BYTE           N05     Cn4   v102
        BYTE   W12
        BYTE           N11     Fn4   v103
        BYTE   W12
        BYTE                   Gn4   v101
        BYTE   W12
        BYTE   PEND
// 048   ----------------------------------------
BATTLE_WIRELESS_0000_4_48:
        BYTE           N32     An4   v115   gtp3
        BYTE   W12
        BYTE           MOD     1
        BYTE   W24
        BYTE                   0
        BYTE           N32     As4   v101   gtp3
        BYTE   W12
        BYTE           MOD     1
        BYTE   W24
        BYTE                   0
        BYTE           TIE     Gn4   v106
        BYTE   W18
        BYTE           MOD     1
        BYTE   W06
        BYTE   PEND
// 049   ----------------------------------------
BATTLE_WIRELESS_0000_4_49:
        BYTE           MOD     2
        BYTE   W88
        BYTE   W01
        BYTE           EOT     Gn4
        BYTE   W07
        BYTE   PEND
// 050   ----------------------------------------
BATTLE_WIRELESS_0000_4_50:
        BYTE           MOD     0
        BYTE           N03     Cn4   v090
        BYTE   W03
        BYTE           N68     Dn4   v105   gtp3
        BYTE   W09
        BYTE           MOD     1
        BYTE   W12
        BYTE                   2
        BYTE   W54
        BYTE                   0
        BYTE   W06
        BYTE           N06     Gn3   v104
        BYTE   W12
        BYTE   PEND
// 051   ----------------------------------------
BATTLE_WIRELESS_0000_4_51:
        BYTE           N11     Dn4   v104
        BYTE   W12
        BYTE           N10     Cn4   v105
        BYTE   W12
        BYTE           N11     As3   v095
        BYTE   W12
        BYTE           N23     An3   v099
        BYTE   W24
        BYTE           N12     As3
        BYTE   W12
        BYTE           N06     Cn4   v096
        BYTE   W12
        BYTE           N36     Cn4   v114
        BYTE   W12
        BYTE   PEND
// 052   ----------------------------------------
BATTLE_WIRELESS_0000_4_52:
        BYTE           MOD     1
        BYTE   W24
        BYTE                   0
        BYTE           N21     As3   v100
        BYTE   W24
        BYTE           N23     Cn4   v102
        BYTE   W24
        BYTE           N17     Fn4   v117
        BYTE   W24
        BYTE   PEND
// 053   ----------------------------------------
BATTLE_WIRELESS_0000_4_53:
        BYTE           N32     Fn4   v105   gtp3
        BYTE   W12
        BYTE           MOD     1
        BYTE   W24
        BYTE                   0
        BYTE           N23     Dn4   v101
        BYTE   W24
        BYTE           N13     Cn4   v091
        BYTE   W12
        BYTE           N12     As3   v096
        BYTE   W12
        BYTE           N14     An3
        BYTE   W12
        BYTE   PEND
// 054   ----------------------------------------
BATTLE_WIRELESS_0000_4_54:
        BYTE           N32     Gn3   v112   gtp2
        BYTE   W36
        BYTE           TIE     Dn4   v110
        BYTE   W30
        BYTE           MOD     1
        BYTE   W18
        BYTE                   2
        BYTE   W12
        BYTE   PEND
// 055   ----------------------------------------
BATTLE_WIRELESS_0000_4_55:
        BYTE   W64
        BYTE   W01
        BYTE           EOT     Dn4
        BYTE   W07
        BYTE           MOD     0
        BYTE           N23     Fn3   v112
        BYTE   W24
        BYTE   PEND
// 056   ----------------------------------------
BATTLE_WIRELESS_0000_4_56:
        BYTE           N32     Gn3   v112   gtp2
        BYTE   W36
        BYTE           TIE     Dn4   v111
        BYTE   W18
        BYTE           MOD     1
        BYTE   W18
        BYTE                   2
        BYTE   W24
        BYTE   PEND
// 057   ----------------------------------------
        BYTE   PATT
         POIN2  BATTLE_WIRELESS_0000_4_55
// 058   ----------------------------------------
BATTLE_WIRELESS_0000_4_58:
        BYTE           N32     Gn3   v112   gtp2
        BYTE   W36
        BYTE           TIE     Dn4   v111
        BYTE   W42
        BYTE           MOD     1
        BYTE   W18
        BYTE   PEND
// 059   ----------------------------------------
        BYTE   W24
        BYTE                   2
        BYTE   W72
// 060   ----------------------------------------
        BYTE   W92
        BYTE   W03
        BYTE           EOT
        BYTE   W01
// 061   ----------------------------------------
BATTLE_WIRELESS_0000_4_LOOP:
        BYTE   W96
// 062   ----------------------------------------
        BYTE   W60
        BYTE           MOD     0
        BYTE           N11     An3   v105
        BYTE   W12
        BYTE                   Gn3
        BYTE   W12
        BYTE                   Cn4
        BYTE   W12
// 063   ----------------------------------------
        BYTE   PATT
         POIN2  BATTLE_WIRELESS_0000_4_9
// 064   ----------------------------------------
        BYTE   PATT
         POIN2  BATTLE_WIRELESS_0000_4_10
// 065   ----------------------------------------
        BYTE   PATT
         POIN2  BATTLE_WIRELESS_0000_4_11
// 066   ----------------------------------------
        BYTE   PATT
         POIN2  BATTLE_WIRELESS_0000_4_12
// 067   ----------------------------------------
        BYTE   PATT
         POIN2  BATTLE_WIRELESS_0000_4_13
// 068   ----------------------------------------
        BYTE   W92
        BYTE   W03
        BYTE           EOT     An2
        BYTE   W01
// 069   ----------------------------------------
        BYTE           N92     An2   v048   gtp3
        BYTE   W96
// 070   ----------------------------------------
        BYTE   PATT
         POIN2  BATTLE_WIRELESS_0000_4_16
// 071   ----------------------------------------
        BYTE   PATT
         POIN2  BATTLE_WIRELESS_0000_4_17
// 072   ----------------------------------------
        BYTE   PATT
         POIN2  BATTLE_WIRELESS_0000_4_18
// 073   ----------------------------------------
        BYTE   PATT
         POIN2  BATTLE_WIRELESS_0000_4_19
// 074   ----------------------------------------
        BYTE   PATT
         POIN2  BATTLE_WIRELESS_0000_4_20
// 075   ----------------------------------------
        BYTE           MOD     1
        BYTE   W96
// 076   ----------------------------------------
        BYTE   W92
        BYTE   W03
        BYTE           EOT     Dn4
        BYTE   W01
// 077   ----------------------------------------
        BYTE           N68     Dn4   v046   gtp3
        BYTE   W96
// 078   ----------------------------------------
        BYTE   PATT
         POIN2  BATTLE_WIRELESS_0000_4_24
// 079   ----------------------------------------
        BYTE   PATT
         POIN2  BATTLE_WIRELESS_0000_4_25
// 080   ----------------------------------------
        BYTE   PATT
         POIN2  BATTLE_WIRELESS_0000_4_26
// 081   ----------------------------------------
        BYTE   PATT
         POIN2  BATTLE_WIRELESS_0000_4_27
// 082   ----------------------------------------
        BYTE   PATT
         POIN2  BATTLE_WIRELESS_0000_4_28
// 083   ----------------------------------------
        BYTE   PATT
         POIN2  BATTLE_WIRELESS_0000_4_29
// 084   ----------------------------------------
        BYTE   PATT
         POIN2  BATTLE_WIRELESS_0000_4_30
// 085   ----------------------------------------
        BYTE   W64
        BYTE   W01
        BYTE           EOT     Fn3
        BYTE   W30
        BYTE   W01
// 086   ----------------------------------------
        BYTE   PATT
         POIN2  BATTLE_WIRELESS_0000_4_32
// 087   ----------------------------------------
        BYTE   PATT
         POIN2  BATTLE_WIRELESS_0000_4_33
// 088   ----------------------------------------
        BYTE   PATT
         POIN2  BATTLE_WIRELESS_0000_4_34
// 089   ----------------------------------------
        BYTE   PATT
         POIN2  BATTLE_WIRELESS_0000_4_35
// 090   ----------------------------------------
        BYTE   PATT
         POIN2  BATTLE_WIRELESS_0000_4_36
// 091   ----------------------------------------
        BYTE   PATT
         POIN2  BATTLE_WIRELESS_0000_4_37
// 092   ----------------------------------------
        BYTE   PATT
         POIN2  BATTLE_WIRELESS_0000_4_38
// 093   ----------------------------------------
        BYTE   PATT
         POIN2  BATTLE_WIRELESS_0000_4_39
// 094   ----------------------------------------
        BYTE   PATT
         POIN2  BATTLE_WIRELESS_0000_4_40
// 095   ----------------------------------------
        BYTE           N18     Dn4   v104
        BYTE   W96
// 096   ----------------------------------------
        BYTE   PATT
         POIN2  BATTLE_WIRELESS_0000_4_42
// 097   ----------------------------------------
        BYTE   PATT
         POIN2  BATTLE_WIRELESS_0000_4_43
// 098   ----------------------------------------
        BYTE   PATT
         POIN2  BATTLE_WIRELESS_0000_4_44
// 099   ----------------------------------------
        BYTE   PATT
         POIN2  BATTLE_WIRELESS_0000_4_45
// 100   ----------------------------------------
        BYTE   PATT
         POIN2  BATTLE_WIRELESS_0000_4_46
// 101   ----------------------------------------
        BYTE   PATT
         POIN2  BATTLE_WIRELESS_0000_4_47
// 102   ----------------------------------------
        BYTE   PATT
         POIN2  BATTLE_WIRELESS_0000_4_48
// 103   ----------------------------------------
        BYTE   PATT
         POIN2  BATTLE_WIRELESS_0000_4_49
// 104   ----------------------------------------
        BYTE   PATT
         POIN2  BATTLE_WIRELESS_0000_4_50
// 105   ----------------------------------------
        BYTE   PATT
         POIN2  BATTLE_WIRELESS_0000_4_51
// 106   ----------------------------------------
        BYTE   PATT
         POIN2  BATTLE_WIRELESS_0000_4_52
// 107   ----------------------------------------
        BYTE   PATT
         POIN2  BATTLE_WIRELESS_0000_4_53
// 108   ----------------------------------------
        BYTE   PATT
         POIN2  BATTLE_WIRELESS_0000_4_54
// 109   ----------------------------------------
        BYTE   PATT
         POIN2  BATTLE_WIRELESS_0000_4_55
// 110   ----------------------------------------
        BYTE   PATT
         POIN2  BATTLE_WIRELESS_0000_4_56
// 111   ----------------------------------------
        BYTE   PATT
         POIN2  BATTLE_WIRELESS_0000_4_55
// 112   ----------------------------------------
        BYTE   PATT
         POIN2  BATTLE_WIRELESS_0000_4_58
// 113   ----------------------------------------
        BYTE   W24
        BYTE           MOD     2
        BYTE   W72
// 114   ----------------------------------------
        BYTE   W92
        BYTE   W03
        BYTE           EOT     Dn4
        BYTE   W01
// 115   ----------------------------------------
        BYTE   W96
// 116   ----------------------------------------
        BYTE   W96
// 117   ----------------------------------------
        BYTE   W96
// 118   ----------------------------------------
        BYTE   W96
// 119   ----------------------------------------
        BYTE   W96
// 120   ----------------------------------------
        BYTE   W96
// 121   ----------------------------------------
        BYTE   W96
// 122   ----------------------------------------
        BYTE   W96
// 123   ----------------------------------------
        BYTE   W96
// 124   ----------------------------------------
        BYTE   W96
// 125   ----------------------------------------
        BYTE   W96
// 126   ----------------------------------------
        BYTE   W96
// 127   ----------------------------------------
        BYTE   W96
// 128   ----------------------------------------
        BYTE   W96
// 129   ----------------------------------------
        BYTE   W96
// 130   ----------------------------------------
        BYTE   W96
// 131   ----------------------------------------
        BYTE   W96
// 132   ----------------------------------------
        BYTE   PATT
         POIN2  BATTLE_WIRELESS_0000_4_24
// 133   ----------------------------------------
        BYTE   PATT
         POIN2  BATTLE_WIRELESS_0000_4_25
// 134   ----------------------------------------
        BYTE   PATT
         POIN2  BATTLE_WIRELESS_0000_4_26
// 135   ----------------------------------------
        BYTE   PATT
         POIN2  BATTLE_WIRELESS_0000_4_27
// 136   ----------------------------------------
        BYTE   PATT
         POIN2  BATTLE_WIRELESS_0000_4_28
// 137   ----------------------------------------
        BYTE   PATT
         POIN2  BATTLE_WIRELESS_0000_4_29
// 138   ----------------------------------------
        BYTE   PATT
         POIN2  BATTLE_WIRELESS_0000_4_30
// 139   ----------------------------------------
        BYTE   W64
        BYTE   W01
        BYTE           EOT     Fn3
        BYTE   W30
        BYTE   W01
// 140   ----------------------------------------
        BYTE   PATT
         POIN2  BATTLE_WIRELESS_0000_4_32
// 141   ----------------------------------------
        BYTE   PATT
         POIN2  BATTLE_WIRELESS_0000_4_33
// 142   ----------------------------------------
        BYTE   PATT
         POIN2  BATTLE_WIRELESS_0000_4_34
// 143   ----------------------------------------
        BYTE   PATT
         POIN2  BATTLE_WIRELESS_0000_4_35
// 144   ----------------------------------------
        BYTE   PATT
         POIN2  BATTLE_WIRELESS_0000_4_36
// 145   ----------------------------------------
        BYTE   PATT
         POIN2  BATTLE_WIRELESS_0000_4_37
// 146   ----------------------------------------
        BYTE   PATT
         POIN2  BATTLE_WIRELESS_0000_4_38
// 147   ----------------------------------------
        BYTE   PATT
         POIN2  BATTLE_WIRELESS_0000_4_39
// 148   ----------------------------------------
        BYTE   PATT
         POIN2  BATTLE_WIRELESS_0000_4_40
// 149   ----------------------------------------
        BYTE           N18     Dn4   v104
        BYTE   W96
// 150   ----------------------------------------
        BYTE   PATT
         POIN2  BATTLE_WIRELESS_0000_4_42
// 151   ----------------------------------------
        BYTE   PATT
         POIN2  BATTLE_WIRELESS_0000_4_43
// 152   ----------------------------------------
        BYTE   PATT
         POIN2  BATTLE_WIRELESS_0000_4_44
// 153   ----------------------------------------
        BYTE   PATT
         POIN2  BATTLE_WIRELESS_0000_4_45
// 154   ----------------------------------------
        BYTE   PATT
         POIN2  BATTLE_WIRELESS_0000_4_46
// 155   ----------------------------------------
        BYTE   PATT
         POIN2  BATTLE_WIRELESS_0000_4_47
// 156   ----------------------------------------
        BYTE   PATT
         POIN2  BATTLE_WIRELESS_0000_4_48
// 157   ----------------------------------------
        BYTE   PATT
         POIN2  BATTLE_WIRELESS_0000_4_49
// 158   ----------------------------------------
        BYTE   PATT
         POIN2  BATTLE_WIRELESS_0000_4_50
// 159   ----------------------------------------
        BYTE   PATT
         POIN2  BATTLE_WIRELESS_0000_4_51
// 160   ----------------------------------------
        BYTE   PATT
         POIN2  BATTLE_WIRELESS_0000_4_52
// 161   ----------------------------------------
        BYTE   PATT
         POIN2  BATTLE_WIRELESS_0000_4_53
// 162   ----------------------------------------
        BYTE   PATT
         POIN2  BATTLE_WIRELESS_0000_4_54
// 163   ----------------------------------------
        BYTE   PATT
         POIN2  BATTLE_WIRELESS_0000_4_55
// 164   ----------------------------------------
        BYTE   PATT
         POIN2  BATTLE_WIRELESS_0000_4_56
// 165   ----------------------------------------
        BYTE   PATT
         POIN2  BATTLE_WIRELESS_0000_4_55
// 166   ----------------------------------------
        BYTE   PATT
         POIN2  BATTLE_WIRELESS_0000_4_58
// 167   ----------------------------------------
        BYTE   W24
        BYTE           MOD     2
        BYTE   W72
// 168   ----------------------------------------
        BYTE   W92
        BYTE   W03
        BYTE           EOT     Dn4
        BYTE   W01
// 169   ----------------------------------------
        BYTE   GoTo
         POIN2  BATTLE_WIRELESS_0000_4_LOOP
        BYTE   W92
        BYTE   W03
        BYTE   FINE

//****************** Track 5 (Midi-Chn.5) ******************//

BATTLE_WIRELESS_0000_5:
        BYTE   KEYSH   BATTLE_WIRELESS_0000_key+0
// 000   ----------------------------------------
        BYTE           VOICE   56
        BYTE           VOL     25
        BYTE           PAN     c_v+11
        BYTE   W96
// 001   ----------------------------------------
        BYTE   W96
// 002   ----------------------------------------
        BYTE   W96
// 003   ----------------------------------------
        BYTE   W96
// 004   ----------------------------------------
        BYTE   W96
// 005   ----------------------------------------
        BYTE   W96
// 006   ----------------------------------------
        BYTE   W96
// 007   ----------------------------------------
        BYTE   W96
// 008   ----------------------------------------
        BYTE           BEND    c_v+3
        BYTE   W72
        BYTE   W03
        BYTE           N11     An3   v105
        BYTE   W12
        BYTE                   Gn3
        BYTE   W09
// 009   ----------------------------------------
BATTLE_WIRELESS_0000_5_9:
        BYTE   W03
        BYTE           N11     Cn4   v105
        BYTE   W12
        BYTE           N32     An3   v105   gtp3
        BYTE   W12
        BYTE           MOD     1
        BYTE   W24
        BYTE                   0
        BYTE           N32     Gn3   v105   gtp3
        BYTE   W36
        BYTE           N23     An3
        BYTE   W09
        BYTE   PEND
// 010   ----------------------------------------
BATTLE_WIRELESS_0000_5_10:
        BYTE   W15
        BYTE           N32     Fn3   v105   gtp3
        BYTE   W12
        BYTE           MOD     1
        BYTE   W24
        BYTE                   0
        BYTE           N32     En3   v105   gtp3
        BYTE   W36
        BYTE                   Fn3
        BYTE   W09
        BYTE   PEND
// 011   ----------------------------------------
BATTLE_WIRELESS_0000_5_11:
        BYTE   W03
        BYTE           MOD     1
        BYTE   W24
        BYTE                   0
        BYTE           N32     En3   v105   gtp3
        BYTE   W36
        BYTE           N23     Dn3
        BYTE   W24
        BYTE                   Cn3
        BYTE   W09
        BYTE   PEND
// 012   ----------------------------------------
BATTLE_WIRELESS_0000_5_12:
        BYTE   W15
        BYTE           N28     Cn3   v105   gtp1
        BYTE   W12
        BYTE           MOD     1
        BYTE   W24
        BYTE                   0
        BYTE           N32     Dn3   v105   gtp3
        BYTE   W36
        BYTE           TIE     An2
        BYTE   W09
        BYTE   PEND
// 013   ----------------------------------------
BATTLE_WIRELESS_0000_5_13:
        BYTE   W44
        BYTE   W01
        BYTE           MOD     1
        BYTE   W24
        BYTE                   2
        BYTE   W24
        BYTE   W03
        BYTE   PEND
// 014   ----------------------------------------
        BYTE   W96
// 015   ----------------------------------------
BATTLE_WIRELESS_0000_5_15:
        BYTE   W14
        BYTE           EOT     An2
        BYTE   W01
        BYTE           N92     An2   v048   gtp3
        BYTE   W80
        BYTE   W01
        BYTE   PEND
// 016   ----------------------------------------
BATTLE_WIRELESS_0000_5_16:
        BYTE   W60
        BYTE   W03
        BYTE           MOD     0
        BYTE   W12
        BYTE           N11     An3   v105
        BYTE   W12
        BYTE                   Gn3
        BYTE   W09
        BYTE   PEND
// 017   ----------------------------------------
        BYTE   PATT
         POIN2  BATTLE_WIRELESS_0000_5_9
// 018   ----------------------------------------
        BYTE   PATT
         POIN2  BATTLE_WIRELESS_0000_5_10
// 019   ----------------------------------------
BATTLE_WIRELESS_0000_5_19:
        BYTE   W24
        BYTE   W03
        BYTE           N32     Dn3   v105   gtp3
        BYTE   W36
        BYTE           N23     Gn3
        BYTE   W24
        BYTE                   An3
        BYTE   W09
        BYTE   PEND
// 020   ----------------------------------------
BATTLE_WIRELESS_0000_5_20:
        BYTE   W15
        BYTE           N28     Cn4   v105   gtp1
        BYTE   W12
        BYTE           MOD     1
        BYTE   W23
        BYTE                   0
        BYTE   W01
        BYTE           TIE     Dn4
        BYTE   W44
        BYTE   W01
        BYTE   PEND
// 021   ----------------------------------------
        BYTE   W15
        BYTE           MOD     1
        BYTE   W80
        BYTE   W01
// 022   ----------------------------------------
        BYTE   W96
// 023   ----------------------------------------
BATTLE_WIRELESS_0000_5_23:
        BYTE   W14
        BYTE           EOT     Dn4
        BYTE   W01
        BYTE           N68     Dn4   v046   gtp3
        BYTE   W80
        BYTE   W01
        BYTE   PEND
// 024   ----------------------------------------
BATTLE_WIRELESS_0000_5_24:
        BYTE   W60
        BYTE   W03
        BYTE           MOD     0
        BYTE   W10
        BYTE           N02     An3   v112
        BYTE   W02
        BYTE           N11     As3   v105
        BYTE   W12
        BYTE           N13     An3
        BYTE   W09
        BYTE   PEND
// 025   ----------------------------------------
BATTLE_WIRELESS_0000_5_25:
        BYTE   W03
        BYTE           N07     Gn3   v105
        BYTE   W12
        BYTE           N32     Gn3   v105   gtp3
        BYTE   W12
        BYTE           MOD     2
        BYTE   W24
        BYTE           N32     Cn3   v105   gtp3
        BYTE           MOD     0
        BYTE   W36
        BYTE           N23     Gn3
        BYTE   W09
        BYTE   PEND
// 026   ----------------------------------------
BATTLE_WIRELESS_0000_5_26:
        BYTE   W15
        BYTE           N52     An3   v105   gtp1
        BYTE   W12
        BYTE           MOD     2
        BYTE   W48
        BYTE                   0
        BYTE           N11     Cn3
        BYTE   W12
        BYTE                   Fn3
        BYTE   W09
        BYTE   PEND
// 027   ----------------------------------------
BATTLE_WIRELESS_0000_5_27:
        BYTE   W03
        BYTE           N05     An3   v105
        BYTE   W12
        BYTE           N32     An3   v105   gtp3
        BYTE   W12
        BYTE           MOD     2
        BYTE   W24
        BYTE                   0
        BYTE           N36     As3   v105   gtp3
        BYTE   W36
        BYTE           N24     Cn4   v105   gtp2
        BYTE   W09
        BYTE   PEND
// 028   ----------------------------------------
BATTLE_WIRELESS_0000_5_28:
        BYTE   W15
        BYTE           N44     As3   v105   gtp3
        BYTE   W12
        BYTE           MOD     2
        BYTE   W48
        BYTE                   0
        BYTE           N11     Dn3
        BYTE   W12
        BYTE                   Gn3
        BYTE   W09
        BYTE   PEND
// 029   ----------------------------------------
BATTLE_WIRELESS_0000_5_29:
        BYTE   W03
        BYTE           N11     As3   v105
        BYTE   W12
        BYTE           N32     Cn4   v105   gtp3
        BYTE   W12
        BYTE           MOD     2
        BYTE   W24
        BYTE                   0
        BYTE           N32     Gs3   v105   gtp3
        BYTE   W36
        BYTE           N14     Ds3
        BYTE   W09
        BYTE   PEND
// 030   ----------------------------------------
BATTLE_WIRELESS_0000_5_30:
        BYTE   W13
        BYTE           N01     Fn3   v105
        BYTE   W02
        BYTE           N32     Gn3   v105   gtp3
        BYTE   W12
        BYTE           MOD     2
        BYTE   W24
        BYTE                   0
        BYTE           TIE     Fn3
        BYTE   W42
        BYTE           MOD     1
        BYTE   W03
        BYTE   PEND
// 031   ----------------------------------------
BATTLE_WIRELESS_0000_5_31:
        BYTE   W03
        BYTE           MOD     2
        BYTE   W76
        BYTE   W01
        BYTE           EOT     Fn3
        BYTE   W16
        BYTE   PEND
// 032   ----------------------------------------
BATTLE_WIRELESS_0000_5_32:
        BYTE   W60
        BYTE   W03
        BYTE           MOD     0
        BYTE   W09
        BYTE           N03     An3   v112
        BYTE   W03
        BYTE           N11     As3   v105
        BYTE   W12
        BYTE                   An3
        BYTE   W09
        BYTE   PEND
// 033   ----------------------------------------
BATTLE_WIRELESS_0000_5_33:
        BYTE   W03
        BYTE           N05     Gn3   v105
        BYTE   W12
        BYTE           N32     Gn3   v105   gtp3
        BYTE   W12
        BYTE           MOD     1
        BYTE   W24
        BYTE                   0
        BYTE           N32     Cn3   v105   gtp3
        BYTE   W36
        BYTE           N11     Gn3
        BYTE   W09
        BYTE   PEND
// 034   ----------------------------------------
BATTLE_WIRELESS_0000_5_34:
        BYTE   W15
        BYTE           N52     An3   v105   gtp1
        BYTE   W12
        BYTE           MOD     1
        BYTE   W42
        BYTE                   0
        BYTE   W06
        BYTE           N11     Cn3
        BYTE   W12
        BYTE                   Fn3
        BYTE   W09
        BYTE   PEND
// 035   ----------------------------------------
BATTLE_WIRELESS_0000_5_35:
        BYTE   W03
        BYTE           N05     An3   v105
        BYTE   W12
        BYTE           N32     An3   v105   gtp3
        BYTE   W12
        BYTE           MOD     1
        BYTE   W24
        BYTE                   0
        BYTE           N32     As3   v105   gtp3
        BYTE   W36
        BYTE           N23     Cn4
        BYTE   W09
        BYTE   PEND
// 036   ----------------------------------------
BATTLE_WIRELESS_0000_5_36:
        BYTE   W15
        BYTE           N32     As3   v105   gtp3
        BYTE   W12
        BYTE           MOD     1
        BYTE   W24
        BYTE                   0
        BYTE   W24
        BYTE           N11
        BYTE   W12
        BYTE                   Cn4
        BYTE   W09
        BYTE   PEND
// 037   ----------------------------------------
BATTLE_WIRELESS_0000_5_37:
        BYTE   W03
        BYTE           N11     Dn4   v105
        BYTE   W12
        BYTE           N32     Ds4   v106   gtp3
        BYTE   W12
        BYTE           MOD     1
        BYTE   W24
        BYTE                   0
        BYTE           N32     Dn4   v108   gtp3
        BYTE   W36
        BYTE           N11     As3   v105
        BYTE   W09
        BYTE   PEND
// 038   ----------------------------------------
BATTLE_WIRELESS_0000_5_38:
        BYTE   W13
        BYTE           N07     Cn4   v096
        BYTE   W04
        BYTE           N32     Dn4   v108   gtp3
        BYTE   W10
        BYTE           MOD     1
        BYTE   W24
        BYTE                   0
        BYTE           TIE     Cn4
        BYTE   W36
        BYTE           MOD     1
        BYTE   W09
        BYTE   PEND
// 039   ----------------------------------------
BATTLE_WIRELESS_0000_5_39:
        BYTE   W03
        BYTE           MOD     2
        BYTE   W52
        BYTE   W01
        BYTE           EOT     Cn4
        BYTE   W19
        BYTE           MOD     0
        BYTE           N11     Fn3   v105
        BYTE   W12
        BYTE                   An3
        BYTE   W09
        BYTE   PEND
// 040   ----------------------------------------
BATTLE_WIRELESS_0000_5_40:
        BYTE   W03
        BYTE           N11     Cn4   v105
        BYTE   W12
        BYTE           N36     Dn4   v107
        BYTE   W12
        BYTE           MOD     1
        BYTE   W24
        BYTE                   0
        BYTE           N30     Cn4   v107   gtp1
        BYTE   W32
        BYTE   W01
        BYTE           N03     Ds4   v105
        BYTE   W03
        BYTE           N24     Fn4   v102   gtp1
        BYTE   W09
        BYTE   PEND
// 041   ----------------------------------------
BATTLE_WIRELESS_0000_5_41:
        BYTE   W15
        BYTE           N18     Dn4   v104
        BYTE   W80
        BYTE   W01
        BYTE   PEND
// 042   ----------------------------------------
BATTLE_WIRELESS_0000_5_42:
        BYTE   W15
        BYTE           N03     Cn4   v090
        BYTE   W03
        BYTE           N68     Dn4   v105   gtp3
        BYTE   W15
        BYTE           MOD     1
        BYTE   W06
        BYTE                   2
        BYTE   W54
        BYTE                   0
        BYTE   W03
        BYTE   PEND
// 043   ----------------------------------------
BATTLE_WIRELESS_0000_5_43:
        BYTE   W03
        BYTE           N06     Gn3   v104
        BYTE   W12
        BYTE           N11     Dn4
        BYTE   W12
        BYTE                   Cn4   v105
        BYTE   W12
        BYTE                   As3   v095
        BYTE   W12
        BYTE           N23     An3   v099
        BYTE   W24
        BYTE           N12     As3
        BYTE   W12
        BYTE           N06     Cn4   v096
        BYTE   W09
        BYTE   PEND
// 044   ----------------------------------------
BATTLE_WIRELESS_0000_5_44:
        BYTE   W03
        BYTE           N36     Cn4   v114
        BYTE   W12
        BYTE           MOD     1
        BYTE   W24
        BYTE                   0
        BYTE           N21     As3   v100
        BYTE   W24
        BYTE           N24     Cn4   v102   gtp2
        BYTE   W24
        BYTE           N17     Fn4   v117
        BYTE   W09
        BYTE   PEND
// 045   ----------------------------------------
BATTLE_WIRELESS_0000_5_45:
        BYTE   W15
        BYTE           N32     Fn4   v105   gtp3
        BYTE   W12
        BYTE           MOD     1
        BYTE   W24
        BYTE                   0
        BYTE           N32     Dn4   v101   gtp1
        BYTE   W12
        BYTE           MOD     1
        BYTE   W24
        BYTE                   0
        BYTE   W09
        BYTE   PEND
// 046   ----------------------------------------
BATTLE_WIRELESS_0000_5_46:
        BYTE   W12
        BYTE           N03     Cn4   v081
        BYTE   W02
        BYTE           N30     Dn4   v108
        BYTE   W19
        BYTE           MOD     1
        BYTE   W06
        BYTE                   2
        BYTE   W12
        BYTE           N28     Gn3   v108   gtp1
        BYTE   W42
        BYTE           MOD     0
        BYTE   W03
        BYTE   PEND
// 047   ----------------------------------------
BATTLE_WIRELESS_0000_5_47:
        BYTE   W03
        BYTE           N05     Gn3   v110
        BYTE   W12
        BYTE           N11     Dn4   v099
        BYTE   W12
        BYTE                   Cn4   v096
        BYTE   W12
        BYTE                   As3   v097
        BYTE   W12
        BYTE           N17     Cn4   v104
        BYTE   W24
        BYTE           N05     Cn4   v102
        BYTE   W12
        BYTE           N11     Fn4   v103
        BYTE   W09
        BYTE   PEND
// 048   ----------------------------------------
BATTLE_WIRELESS_0000_5_48:
        BYTE   W03
        BYTE           N11     Gn4   v101
        BYTE   W12
        BYTE           N32     An4   v115   gtp3
        BYTE   W12
        BYTE           MOD     1
        BYTE   W24
        BYTE                   0
        BYTE           N32     As4   v101   gtp3
        BYTE   W12
        BYTE           MOD     1
        BYTE   W24
        BYTE                   0
        BYTE           TIE     Gn4   v106
        BYTE   W09
        BYTE   PEND
// 049   ----------------------------------------
BATTLE_WIRELESS_0000_5_49:
        BYTE   W09
        BYTE           MOD     1
        BYTE   W06
        BYTE                   2
        BYTE   W80
        BYTE   W01
        BYTE   PEND
// 050   ----------------------------------------
BATTLE_WIRELESS_0000_5_50:
        BYTE   W08
        BYTE           EOT     Gn4
        BYTE   W07
        BYTE           MOD     0
        BYTE           N03     Cn4   v090
        BYTE   W03
        BYTE           N68     Dn4   v105   gtp3
        BYTE   W09
        BYTE           MOD     1
        BYTE   W12
        BYTE                   2
        BYTE   W54
        BYTE                   0
        BYTE   W03
        BYTE   PEND
// 051   ----------------------------------------
BATTLE_WIRELESS_0000_5_51:
        BYTE   W03
        BYTE           N06     Gn3   v104
        BYTE   W12
        BYTE           N11     Dn4
        BYTE   W12
        BYTE           N10     Cn4   v105
        BYTE   W12
        BYTE           N11     As3   v095
        BYTE   W12
        BYTE           N23     An3   v099
        BYTE   W24
        BYTE           N12     As3
        BYTE   W12
        BYTE           N06     Cn4   v096
        BYTE   W09
        BYTE   PEND
// 052   ----------------------------------------
BATTLE_WIRELESS_0000_5_52:
        BYTE   W03
        BYTE           N36     Cn4   v114
        BYTE   W12
        BYTE           MOD     1
        BYTE   W24
        BYTE                   0
        BYTE           N21     As3   v100
        BYTE   W24
        BYTE           N23     Cn4   v102
        BYTE   W24
        BYTE           N17     Fn4   v117
        BYTE   W09
        BYTE   PEND
// 053   ----------------------------------------
BATTLE_WIRELESS_0000_5_53:
        BYTE   W15
        BYTE           N32     Fn4   v105   gtp3
        BYTE   W12
        BYTE           MOD     1
        BYTE   W24
        BYTE                   0
        BYTE           N23     Dn4   v101
        BYTE   W24
        BYTE           N13     Cn4   v091
        BYTE   W12
        BYTE           N12     As3   v096
        BYTE   W09
        BYTE   PEND
// 054   ----------------------------------------
BATTLE_WIRELESS_0000_5_54:
        BYTE   W03
        BYTE           N14     An3   v096
        BYTE   W12
        BYTE           N32     Gn3   v112   gtp2
        BYTE   W36
        BYTE           TIE     Dn4   v110
        BYTE   W30
        BYTE           MOD     1
        BYTE   W15
        BYTE   PEND
// 055   ----------------------------------------
BATTLE_WIRELESS_0000_5_55:
        BYTE   W03
        BYTE           MOD     2
        BYTE   W76
        BYTE   W01
        BYTE           EOT     Dn4
        BYTE   W07
        BYTE           MOD     0
        BYTE           N23     Fn3   v112
        BYTE   W09
        BYTE   PEND
// 056   ----------------------------------------
BATTLE_WIRELESS_0000_5_56:
        BYTE   W15
        BYTE           N32     Gn3   v112   gtp2
        BYTE   W36
        BYTE           TIE     Dn4   v111
        BYTE   W18
        BYTE           MOD     1
        BYTE   W18
        BYTE                   2
        BYTE   W09
        BYTE   PEND
// 057   ----------------------------------------
BATTLE_WIRELESS_0000_5_57:
        BYTE   W80
        BYTE           EOT     Dn4
        BYTE   W07
        BYTE           MOD     0
        BYTE           N23     Fn3   v112
        BYTE   W09
        BYTE   PEND
// 058   ----------------------------------------
BATTLE_WIRELESS_0000_5_58:
        BYTE   W15
        BYTE           N32     Gn3   v112   gtp2
        BYTE   W36
        BYTE           TIE     Dn4   v111
        BYTE   W44
        BYTE   W01
        BYTE   PEND
// 059   ----------------------------------------
        BYTE   W96
// 060   ----------------------------------------
        BYTE   W96
// 061   ----------------------------------------
BATTLE_WIRELESS_0000_5_LOOP:
        BYTE   W14
        BYTE           EOT     Dn4
        BYTE   W80
        BYTE   W02
// 062   ----------------------------------------
        BYTE   W72
        BYTE   W03
        BYTE           N11     An3   v105
        BYTE   W12
        BYTE                   Gn3
        BYTE   W09
// 063   ----------------------------------------
        BYTE   PATT
         POIN2  BATTLE_WIRELESS_0000_5_9
// 064   ----------------------------------------
        BYTE   PATT
         POIN2  BATTLE_WIRELESS_0000_5_10
// 065   ----------------------------------------
        BYTE   PATT
         POIN2  BATTLE_WIRELESS_0000_5_11
// 066   ----------------------------------------
        BYTE   PATT
         POIN2  BATTLE_WIRELESS_0000_5_12
// 067   ----------------------------------------
        BYTE   PATT
         POIN2  BATTLE_WIRELESS_0000_5_13
// 068   ----------------------------------------
        BYTE   W96
// 069   ----------------------------------------
        BYTE   PATT
         POIN2  BATTLE_WIRELESS_0000_5_15
// 070   ----------------------------------------
        BYTE   PATT
         POIN2  BATTLE_WIRELESS_0000_5_16
// 071   ----------------------------------------
        BYTE   PATT
         POIN2  BATTLE_WIRELESS_0000_5_9
// 072   ----------------------------------------
        BYTE   PATT
         POIN2  BATTLE_WIRELESS_0000_5_10
// 073   ----------------------------------------
        BYTE   PATT
         POIN2  BATTLE_WIRELESS_0000_5_19
// 074   ----------------------------------------
        BYTE   PATT
         POIN2  BATTLE_WIRELESS_0000_5_20
// 075   ----------------------------------------
        BYTE   W15
        BYTE           MOD     1
        BYTE   W80
        BYTE   W01
// 076   ----------------------------------------
        BYTE   W96
// 077   ----------------------------------------
        BYTE   PATT
         POIN2  BATTLE_WIRELESS_0000_5_23
// 078   ----------------------------------------
        BYTE   PATT
         POIN2  BATTLE_WIRELESS_0000_5_24
// 079   ----------------------------------------
        BYTE   PATT
         POIN2  BATTLE_WIRELESS_0000_5_25
// 080   ----------------------------------------
        BYTE   PATT
         POIN2  BATTLE_WIRELESS_0000_5_26
// 081   ----------------------------------------
        BYTE   PATT
         POIN2  BATTLE_WIRELESS_0000_5_27
// 082   ----------------------------------------
        BYTE   PATT
         POIN2  BATTLE_WIRELESS_0000_5_28
// 083   ----------------------------------------
        BYTE   PATT
         POIN2  BATTLE_WIRELESS_0000_5_29
// 084   ----------------------------------------
        BYTE   PATT
         POIN2  BATTLE_WIRELESS_0000_5_30
// 085   ----------------------------------------
        BYTE   PATT
         POIN2  BATTLE_WIRELESS_0000_5_31
// 086   ----------------------------------------
        BYTE   PATT
         POIN2  BATTLE_WIRELESS_0000_5_32
// 087   ----------------------------------------
        BYTE   PATT
         POIN2  BATTLE_WIRELESS_0000_5_33
// 088   ----------------------------------------
        BYTE   PATT
         POIN2  BATTLE_WIRELESS_0000_5_34
// 089   ----------------------------------------
        BYTE   PATT
         POIN2  BATTLE_WIRELESS_0000_5_35
// 090   ----------------------------------------
        BYTE   PATT
         POIN2  BATTLE_WIRELESS_0000_5_36
// 091   ----------------------------------------
        BYTE   PATT
         POIN2  BATTLE_WIRELESS_0000_5_37
// 092   ----------------------------------------
        BYTE   PATT
         POIN2  BATTLE_WIRELESS_0000_5_38
// 093   ----------------------------------------
        BYTE   PATT
         POIN2  BATTLE_WIRELESS_0000_5_39
// 094   ----------------------------------------
        BYTE   PATT
         POIN2  BATTLE_WIRELESS_0000_5_40
// 095   ----------------------------------------
        BYTE   PATT
         POIN2  BATTLE_WIRELESS_0000_5_41
// 096   ----------------------------------------
        BYTE   PATT
         POIN2  BATTLE_WIRELESS_0000_5_42
// 097   ----------------------------------------
        BYTE   PATT
         POIN2  BATTLE_WIRELESS_0000_5_43
// 098   ----------------------------------------
        BYTE   PATT
         POIN2  BATTLE_WIRELESS_0000_5_44
// 099   ----------------------------------------
        BYTE   PATT
         POIN2  BATTLE_WIRELESS_0000_5_45
// 100   ----------------------------------------
        BYTE   PATT
         POIN2  BATTLE_WIRELESS_0000_5_46
// 101   ----------------------------------------
        BYTE   PATT
         POIN2  BATTLE_WIRELESS_0000_5_47
// 102   ----------------------------------------
        BYTE   PATT
         POIN2  BATTLE_WIRELESS_0000_5_48
// 103   ----------------------------------------
        BYTE   PATT
         POIN2  BATTLE_WIRELESS_0000_5_49
// 104   ----------------------------------------
        BYTE   PATT
         POIN2  BATTLE_WIRELESS_0000_5_50
// 105   ----------------------------------------
        BYTE   PATT
         POIN2  BATTLE_WIRELESS_0000_5_51
// 106   ----------------------------------------
        BYTE   PATT
         POIN2  BATTLE_WIRELESS_0000_5_52
// 107   ----------------------------------------
        BYTE   PATT
         POIN2  BATTLE_WIRELESS_0000_5_53
// 108   ----------------------------------------
        BYTE   PATT
         POIN2  BATTLE_WIRELESS_0000_5_54
// 109   ----------------------------------------
        BYTE   PATT
         POIN2  BATTLE_WIRELESS_0000_5_55
// 110   ----------------------------------------
        BYTE   PATT
         POIN2  BATTLE_WIRELESS_0000_5_56
// 111   ----------------------------------------
        BYTE   PATT
         POIN2  BATTLE_WIRELESS_0000_5_57
// 112   ----------------------------------------
        BYTE   PATT
         POIN2  BATTLE_WIRELESS_0000_5_58
// 113   ----------------------------------------
        BYTE   W96
// 114   ----------------------------------------
        BYTE   W96
// 115   ----------------------------------------
        BYTE   W14
        BYTE           EOT     Dn4
        BYTE   W80
        BYTE   W02
// 116   ----------------------------------------
        BYTE   W96
// 117   ----------------------------------------
        BYTE   W96
// 118   ----------------------------------------
        BYTE   W96
// 119   ----------------------------------------
        BYTE   W96
// 120   ----------------------------------------
        BYTE   W96
// 121   ----------------------------------------
        BYTE   W96
// 122   ----------------------------------------
        BYTE   W96
// 123   ----------------------------------------
        BYTE   W96
// 124   ----------------------------------------
        BYTE   W96
// 125   ----------------------------------------
        BYTE   W96
// 126   ----------------------------------------
        BYTE   W96
// 127   ----------------------------------------
        BYTE   W96
// 128   ----------------------------------------
        BYTE   W96
// 129   ----------------------------------------
        BYTE   W96
// 130   ----------------------------------------
        BYTE   W96
// 131   ----------------------------------------
        BYTE   W96
// 132   ----------------------------------------
        BYTE   W72
        BYTE   W01
        BYTE           N02     An3   v112
        BYTE   W02
        BYTE           N11     As3   v105
        BYTE   W12
        BYTE           N13     An3
        BYTE   W09
// 133   ----------------------------------------
        BYTE   PATT
         POIN2  BATTLE_WIRELESS_0000_5_25
// 134   ----------------------------------------
        BYTE   PATT
         POIN2  BATTLE_WIRELESS_0000_5_26
// 135   ----------------------------------------
        BYTE   PATT
         POIN2  BATTLE_WIRELESS_0000_5_27
// 136   ----------------------------------------
        BYTE   PATT
         POIN2  BATTLE_WIRELESS_0000_5_28
// 137   ----------------------------------------
        BYTE   PATT
         POIN2  BATTLE_WIRELESS_0000_5_29
// 138   ----------------------------------------
        BYTE   PATT
         POIN2  BATTLE_WIRELESS_0000_5_30
// 139   ----------------------------------------
        BYTE   PATT
         POIN2  BATTLE_WIRELESS_0000_5_31
// 140   ----------------------------------------
        BYTE   PATT
         POIN2  BATTLE_WIRELESS_0000_5_32
// 141   ----------------------------------------
        BYTE   PATT
         POIN2  BATTLE_WIRELESS_0000_5_33
// 142   ----------------------------------------
        BYTE   PATT
         POIN2  BATTLE_WIRELESS_0000_5_34
// 143   ----------------------------------------
        BYTE   PATT
         POIN2  BATTLE_WIRELESS_0000_5_35
// 144   ----------------------------------------
        BYTE   PATT
         POIN2  BATTLE_WIRELESS_0000_5_36
// 145   ----------------------------------------
        BYTE   PATT
         POIN2  BATTLE_WIRELESS_0000_5_37
// 146   ----------------------------------------
        BYTE   PATT
         POIN2  BATTLE_WIRELESS_0000_5_38
// 147   ----------------------------------------
        BYTE   PATT
         POIN2  BATTLE_WIRELESS_0000_5_39
// 148   ----------------------------------------
        BYTE   PATT
         POIN2  BATTLE_WIRELESS_0000_5_40
// 149   ----------------------------------------
        BYTE   PATT
         POIN2  BATTLE_WIRELESS_0000_5_41
// 150   ----------------------------------------
        BYTE   PATT
         POIN2  BATTLE_WIRELESS_0000_5_42
// 151   ----------------------------------------
        BYTE   PATT
         POIN2  BATTLE_WIRELESS_0000_5_43
// 152   ----------------------------------------
        BYTE   PATT
         POIN2  BATTLE_WIRELESS_0000_5_44
// 153   ----------------------------------------
        BYTE   PATT
         POIN2  BATTLE_WIRELESS_0000_5_45
// 154   ----------------------------------------
        BYTE   PATT
         POIN2  BATTLE_WIRELESS_0000_5_46
// 155   ----------------------------------------
        BYTE   PATT
         POIN2  BATTLE_WIRELESS_0000_5_47
// 156   ----------------------------------------
        BYTE   PATT
         POIN2  BATTLE_WIRELESS_0000_5_48
// 157   ----------------------------------------
        BYTE   PATT
         POIN2  BATTLE_WIRELESS_0000_5_49
// 158   ----------------------------------------
        BYTE   PATT
         POIN2  BATTLE_WIRELESS_0000_5_50
// 159   ----------------------------------------
        BYTE   PATT
         POIN2  BATTLE_WIRELESS_0000_5_51
// 160   ----------------------------------------
        BYTE   PATT
         POIN2  BATTLE_WIRELESS_0000_5_52
// 161   ----------------------------------------
        BYTE   PATT
         POIN2  BATTLE_WIRELESS_0000_5_53
// 162   ----------------------------------------
        BYTE   PATT
         POIN2  BATTLE_WIRELESS_0000_5_54
// 163   ----------------------------------------
        BYTE   PATT
         POIN2  BATTLE_WIRELESS_0000_5_55
// 164   ----------------------------------------
        BYTE   PATT
         POIN2  BATTLE_WIRELESS_0000_5_56
// 165   ----------------------------------------
        BYTE   PATT
         POIN2  BATTLE_WIRELESS_0000_5_57
// 166   ----------------------------------------
        BYTE   PATT
         POIN2  BATTLE_WIRELESS_0000_5_58
// 167   ----------------------------------------
        BYTE   W96
// 168   ----------------------------------------
        BYTE   W96
// 169   ----------------------------------------
        BYTE   GoTo
         POIN2  BATTLE_WIRELESS_0000_5_LOOP
        BYTE   W14
        BYTE           EOT     Dn4
        BYTE   W80
        BYTE   W01
        BYTE   FINE

//****************** Track 6 (Midi-Chn.6) ******************//

BATTLE_WIRELESS_0000_6:
        BYTE   KEYSH   BATTLE_WIRELESS_0000_key+0
// 000   ----------------------------------------
        BYTE           VOICE   4
        BYTE           VOL     25
        BYTE           PAN     c_v+43
        BYTE           TIE     Dn1   v101
        BYTE   W96
// 001   ----------------------------------------
        BYTE   W44
        BYTE   W03
        BYTE           EOT
        BYTE   W40
        BYTE   W01
        BYTE           TIE     An3   v081
        BYTE   W04
        BYTE                   Cn4   v078
        BYTE   W04
// 002   ----------------------------------------
        BYTE   W01
        BYTE                   Dn4   v101
        BYTE   W92
        BYTE   W03
// 003   ----------------------------------------
        BYTE   W64
        BYTE   W01
        BYTE           EOT     Cn4
        BYTE   W21
        BYTE                   An3
        BYTE                   Dn4
        BYTE   W10
// 004   ----------------------------------------
        BYTE   W96
// 005   ----------------------------------------
        BYTE   W90
        BYTE   W01
        BYTE           TIE     Dn5   v086
        BYTE   W05
// 006   ----------------------------------------
        BYTE   W04
        BYTE                   An4   v089
        BYTE   W92
// 007   ----------------------------------------
        BYTE   W84
        BYTE           EOT     Dn5
        BYTE   W08
        BYTE                   An4
        BYTE   W04
// 008   ----------------------------------------
        BYTE   W96
// 009   ----------------------------------------
        BYTE   W96
// 010   ----------------------------------------
        BYTE   W96
// 011   ----------------------------------------
        BYTE   W96
// 012   ----------------------------------------
        BYTE   W96
// 013   ----------------------------------------
        BYTE   W96
// 014   ----------------------------------------
        BYTE   W96
// 015   ----------------------------------------
        BYTE   W96
// 016   ----------------------------------------
        BYTE   W96
// 017   ----------------------------------------
        BYTE   W96
// 018   ----------------------------------------
        BYTE   W96
// 019   ----------------------------------------
        BYTE   W96
// 020   ----------------------------------------
        BYTE   W96
// 021   ----------------------------------------
        BYTE   W96
// 022   ----------------------------------------
        BYTE   W96
// 023   ----------------------------------------
        BYTE   W96
// 024   ----------------------------------------
        BYTE   W96
// 025   ----------------------------------------
        BYTE   W96
// 026   ----------------------------------------
        BYTE   W96
// 027   ----------------------------------------
        BYTE   W96
// 028   ----------------------------------------
        BYTE   W96
// 029   ----------------------------------------
        BYTE   W96
// 030   ----------------------------------------
        BYTE   W96
// 031   ----------------------------------------
        BYTE   W96
// 032   ----------------------------------------
        BYTE   W96
// 033   ----------------------------------------
        BYTE   W96
// 034   ----------------------------------------
        BYTE   W96
// 035   ----------------------------------------
        BYTE   W96
// 036   ----------------------------------------
        BYTE   W96
// 037   ----------------------------------------
        BYTE   W96
// 038   ----------------------------------------
        BYTE   W96
// 039   ----------------------------------------
        BYTE   W96
// 040   ----------------------------------------
        BYTE   W96
// 041   ----------------------------------------
        BYTE   W96
// 042   ----------------------------------------
        BYTE   W96
// 043   ----------------------------------------
        BYTE   W96
// 044   ----------------------------------------
        BYTE   W96
// 045   ----------------------------------------
        BYTE   W96
// 046   ----------------------------------------
        BYTE   W96
// 047   ----------------------------------------
        BYTE   W96
// 048   ----------------------------------------
        BYTE   W96
// 049   ----------------------------------------
        BYTE   W96
// 050   ----------------------------------------
        BYTE   W96
// 051   ----------------------------------------
        BYTE   W96
// 052   ----------------------------------------
        BYTE   W96
// 053   ----------------------------------------
        BYTE   W96
// 054   ----------------------------------------
BATTLE_WIRELESS_0000_6_54:
        BYTE   W72
        BYTE           N23     Fn3   v082
        BYTE           N23     Fn4   v098
        BYTE   W24
        BYTE   PEND
// 055   ----------------------------------------
BATTLE_WIRELESS_0000_6_55:
        BYTE           N32     Gn3   v081   gtp3
        BYTE                   Gn4   v094
        BYTE   W36
        BYTE                   Dn4   v085
        BYTE           N40     Dn5   v099   gtp1
        BYTE   W36
        BYTE           N23     Fn3   v062
        BYTE           N23     Fn4   v075
        BYTE   W24
        BYTE   PEND
// 056   ----------------------------------------
BATTLE_WIRELESS_0000_6_56:
        BYTE   W72
        BYTE           N23     Fn3   v088
        BYTE           N23     Fn4   v109
        BYTE   W24
        BYTE   PEND
// 057   ----------------------------------------
BATTLE_WIRELESS_0000_6_57:
        BYTE           N32     Gn3   v090   gtp3
        BYTE                   Gn4   v102
        BYTE   W36
        BYTE                   Dn4   v091
        BYTE           N32     Dn5   v099   gtp3
        BYTE   W36
        BYTE           N23     Fn3   v062
        BYTE           N23     Fn4   v075
        BYTE   W24
        BYTE   PEND
// 058   ----------------------------------------
        BYTE   PATT
         POIN2  BATTLE_WIRELESS_0000_6_56
// 059   ----------------------------------------
        BYTE   PATT
         POIN2  BATTLE_WIRELESS_0000_6_57
// 060   ----------------------------------------
BATTLE_WIRELESS_0000_6_60:
        BYTE           N32     Gn3   v068   gtp3
        BYTE                   Gn4   v077
        BYTE   W36
        BYTE                   Dn4   v075
        BYTE           N32     Dn5   v078   gtp3
        BYTE   W60
        BYTE   PEND
// 061   ----------------------------------------
BATTLE_WIRELESS_0000_6_LOOP:
        BYTE   W96
// 062   ----------------------------------------
        BYTE   W96
// 063   ----------------------------------------
        BYTE   W96
// 064   ----------------------------------------
        BYTE   W96
// 065   ----------------------------------------
        BYTE   W96
// 066   ----------------------------------------
        BYTE   W96
// 067   ----------------------------------------
        BYTE   W96
// 068   ----------------------------------------
        BYTE   W96
// 069   ----------------------------------------
        BYTE   W96
// 070   ----------------------------------------
        BYTE   W96
// 071   ----------------------------------------
        BYTE   W96
// 072   ----------------------------------------
        BYTE   W96
// 073   ----------------------------------------
        BYTE   W96
// 074   ----------------------------------------
        BYTE   W96
// 075   ----------------------------------------
        BYTE   W96
// 076   ----------------------------------------
        BYTE   W96
// 077   ----------------------------------------
        BYTE   W96
// 078   ----------------------------------------
        BYTE   W96
// 079   ----------------------------------------
        BYTE   W96
// 080   ----------------------------------------
        BYTE   W96
// 081   ----------------------------------------
        BYTE   W96
// 082   ----------------------------------------
        BYTE   W96
// 083   ----------------------------------------
        BYTE   W96
// 084   ----------------------------------------
        BYTE   W96
// 085   ----------------------------------------
        BYTE   W96
// 086   ----------------------------------------
        BYTE   W96
// 087   ----------------------------------------
        BYTE   W96
// 088   ----------------------------------------
        BYTE   W96
// 089   ----------------------------------------
        BYTE   W96
// 090   ----------------------------------------
        BYTE   W96
// 091   ----------------------------------------
        BYTE   W96
// 092   ----------------------------------------
        BYTE   W96
// 093   ----------------------------------------
        BYTE   W96
// 094   ----------------------------------------
        BYTE   W96
// 095   ----------------------------------------
        BYTE   W96
// 096   ----------------------------------------
        BYTE   W96
// 097   ----------------------------------------
        BYTE   W96
// 098   ----------------------------------------
        BYTE   W96
// 099   ----------------------------------------
        BYTE   W96
// 100   ----------------------------------------
        BYTE   W96
// 101   ----------------------------------------
        BYTE   W96
// 102   ----------------------------------------
        BYTE   W96
// 103   ----------------------------------------
        BYTE   W96
// 104   ----------------------------------------
        BYTE   W96
// 105   ----------------------------------------
        BYTE   W96
// 106   ----------------------------------------
        BYTE   W96
// 107   ----------------------------------------
        BYTE   W96
// 108   ----------------------------------------
        BYTE   PATT
         POIN2  BATTLE_WIRELESS_0000_6_54
// 109   ----------------------------------------
        BYTE   PATT
         POIN2  BATTLE_WIRELESS_0000_6_55
// 110   ----------------------------------------
        BYTE   PATT
         POIN2  BATTLE_WIRELESS_0000_6_56
// 111   ----------------------------------------
        BYTE   PATT
         POIN2  BATTLE_WIRELESS_0000_6_57
// 112   ----------------------------------------
        BYTE   PATT
         POIN2  BATTLE_WIRELESS_0000_6_56
// 113   ----------------------------------------
        BYTE   PATT
         POIN2  BATTLE_WIRELESS_0000_6_57
// 114   ----------------------------------------
        BYTE   PATT
         POIN2  BATTLE_WIRELESS_0000_6_60
// 115   ----------------------------------------
        BYTE           VOICE   68
        BYTE   W96
// 116   ----------------------------------------
        BYTE   W36
        BYTE   W01
        BYTE           N32     Fn4   v085   gtp2
        BYTE   W32
        BYTE   W01
        BYTE           N36     Gn4   v102   gtp3
        BYTE   W24
        BYTE   W02
// 117   ----------------------------------------
        BYTE   W11
        BYTE           N36     Dn4   v106   gtp1
        BYTE   W48
        BYTE   W02
        BYTE           N15     Dn4   v104
        BYTE   W12
        BYTE           N13     Fn4   v100
        BYTE   W11
        BYTE           N14     Gn4   v105
        BYTE   W12
// 118   ----------------------------------------
        BYTE           N36     An4   v104   gtp1
        BYTE   W36
        BYTE   W01
        BYTE           N32     Fn4   v114   gtp2
        BYTE   W32
        BYTE   W01
        BYTE           N36     Cn5   v112   gtp1
        BYTE   W24
        BYTE   W02
// 119   ----------------------------------------
        BYTE   W09
        BYTE           N44     Dn5   v106
        BYTE   W84
        BYTE   W02
        BYTE           N36     An4   v112   gtp1
        BYTE   W01
// 120   ----------------------------------------
        BYTE   W32
        BYTE   W03
        BYTE           N32     Fn4   v102   gtp3
        BYTE   W32
        BYTE   W02
        BYTE           N36     Gn4   v109
        BYTE   W24
        BYTE   W03
// 121   ----------------------------------------
        BYTE   W09
        BYTE                   Dn4   v105
        BYTE   W52
        BYTE           N12     Dn4   v112
        BYTE   W11
        BYTE           N14     Fn4   v099
        BYTE   W11
        BYTE                   Gn4   v098
        BYTE   W13
// 122   ----------------------------------------
        BYTE           N36     An4   v101   gtp2
        BYTE   W36
        BYTE   W02
        BYTE           N32     Fn4   v114   gtp2
        BYTE   W32
        BYTE   W01
        BYTE           N24     Cn5   v102
        BYTE   W24
        BYTE   W01
// 123   ----------------------------------------
        BYTE   W11
        BYTE           N14     Fn5   v097
        BYTE   W13
        BYTE           N12     Ds5   v104
        BYTE   W11
        BYTE                   Dn5   v095
        BYTE   W13
        BYTE                   Cn5   v098
        BYTE   W11
        BYTE           N14     As4   v108
        BYTE   W13
        BYTE           N12     Cn5   v102
        BYTE   W10
        BYTE           N13     Dn5   v088
        BYTE   W13
        BYTE           N36     An4   v112
        BYTE   W01
// 124   ----------------------------------------
        BYTE   W32
        BYTE   W03
        BYTE                   Fn4   v113   gtp1
        BYTE   W32
        BYTE   W03
        BYTE           N36     Gn4   v109   gtp2
        BYTE   W24
        BYTE   W02
// 125   ----------------------------------------
        BYTE   W11
        BYTE           N36     Dn4   v114
        BYTE   W48
        BYTE           N12     Dn4   v108
        BYTE   W11
        BYTE           N13     Fn4   v094
        BYTE   W11
        BYTE           N15     Gn4   v102
        BYTE   W13
        BYTE           N32     An4   v108   gtp3
        BYTE   W02
// 126   ----------------------------------------
        BYTE   W32
        BYTE   W01
        BYTE           N36     Fn4   v113
        BYTE   W32
        BYTE   W03
        BYTE           N40     Cn5   v112
        BYTE   W28
// 127   ----------------------------------------
        BYTE   W10
        BYTE           N44     Dn5   v111   gtp1
        BYTE   W84
        BYTE   W01
        BYTE           N36     An4   v109   gtp1
        BYTE   W01
// 128   ----------------------------------------
        BYTE   W32
        BYTE   W03
        BYTE                   Fn4   v102
        BYTE   W36
        BYTE           N36     Gn4   v112   gtp2
        BYTE   W24
        BYTE   W01
// 129   ----------------------------------------
        BYTE   W12
        BYTE                   Dn4   v111
        BYTE   W44
        BYTE   W02
        BYTE           N13     Dn4   v101
        BYTE   W11
        BYTE                   Fn4   v104
        BYTE   W11
        BYTE           N14     Gn4   v102
        BYTE   W12
        BYTE           N40     An4   v105   gtp1
        BYTE   W04
// 130   ----------------------------------------
        BYTE   W36
        BYTE   W01
        BYTE           N32     Fn4   v114   gtp3
        BYTE   W32
        BYTE   W02
        BYTE           N28     Cn5   v097   gtp1
        BYTE   W24
        BYTE   W01
// 131   ----------------------------------------
        BYTE   W12
        BYTE           N11     Fn5   v098
        BYTE   W11
        BYTE           N12     Ds5   v102
        BYTE   W11
        BYTE           N11     Dn5   v094
        BYTE   W12
        BYTE                   Cn5   v087
        BYTE   W11
        BYTE           N15     As4   v097
        BYTE   W12
        BYTE           N14     Cn5   v104
        BYTE   W11
        BYTE           N11     Dn5   v090
        BYTE   W16
// 132   ----------------------------------------
        BYTE           VOICE   4
        BYTE   W96
// 133   ----------------------------------------
        BYTE   W96
// 134   ----------------------------------------
        BYTE   W96
// 135   ----------------------------------------
        BYTE   W96
// 136   ----------------------------------------
        BYTE   W96
// 137   ----------------------------------------
        BYTE   W96
// 138   ----------------------------------------
        BYTE   W96
// 139   ----------------------------------------
        BYTE   W96
// 140   ----------------------------------------
        BYTE   W96
// 141   ----------------------------------------
        BYTE   W96
// 142   ----------------------------------------
        BYTE   W96
// 143   ----------------------------------------
        BYTE   W96
// 144   ----------------------------------------
        BYTE   W96
// 145   ----------------------------------------
        BYTE   W96
// 146   ----------------------------------------
        BYTE   W96
// 147   ----------------------------------------
        BYTE   W96
// 148   ----------------------------------------
        BYTE   W96
// 149   ----------------------------------------
        BYTE   W96
// 150   ----------------------------------------
        BYTE   W96
// 151   ----------------------------------------
        BYTE   W96
// 152   ----------------------------------------
        BYTE   W96
// 153   ----------------------------------------
        BYTE   W96
// 154   ----------------------------------------
        BYTE   W96
// 155   ----------------------------------------
        BYTE   W96
// 156   ----------------------------------------
        BYTE   W96
// 157   ----------------------------------------
        BYTE   W96
// 158   ----------------------------------------
        BYTE   W96
// 159   ----------------------------------------
        BYTE   W96
// 160   ----------------------------------------
        BYTE   W96
// 161   ----------------------------------------
        BYTE   W96
// 162   ----------------------------------------
        BYTE   PATT
         POIN2  BATTLE_WIRELESS_0000_6_54
// 163   ----------------------------------------
        BYTE   PATT
         POIN2  BATTLE_WIRELESS_0000_6_55
// 164   ----------------------------------------
        BYTE   PATT
         POIN2  BATTLE_WIRELESS_0000_6_56
// 165   ----------------------------------------
        BYTE   PATT
         POIN2  BATTLE_WIRELESS_0000_6_57
// 166   ----------------------------------------
        BYTE   PATT
         POIN2  BATTLE_WIRELESS_0000_6_56
// 167   ----------------------------------------
        BYTE   PATT
         POIN2  BATTLE_WIRELESS_0000_6_57
// 168   ----------------------------------------
        BYTE           N32     Gn3   v068   gtp3
        BYTE                   Gn4   v077
        BYTE   W36
        BYTE                   Dn4   v075
        BYTE           N32     Dn5   v078   gtp3
        BYTE   W36
        BYTE           N23     Fn3   v037
        BYTE           N23     Fn4   v050
        BYTE   W24
// 169   ----------------------------------------
        BYTE           N32     Gn3   v043   gtp3
        BYTE                   Gn4   v052
        BYTE   GoTo
         POIN2  BATTLE_WIRELESS_0000_6_LOOP
        BYTE   W36
        BYTE                   Dn4   v050
        BYTE           N32     Dn5   v053   gtp3
        BYTE   W36
        BYTE           N23     Fn3   v019
        BYTE           N23     Fn4   v032
        BYTE   W23
        BYTE   FINE

//****************** Track 7 (Midi-Chn.7) ******************//

BATTLE_WIRELESS_0000_7:
        BYTE   KEYSH   BATTLE_WIRELESS_0000_key+0
// 000   ----------------------------------------
        BYTE           VOICE   5
        BYTE           VOL     32
        BYTE           PAN     c_v+42
        BYTE   W96
// 001   ----------------------------------------
        BYTE   W96
// 002   ----------------------------------------
        BYTE   W96
// 003   ----------------------------------------
        BYTE   W96
// 004   ----------------------------------------
        BYTE   W96
// 005   ----------------------------------------
        BYTE   W96
// 006   ----------------------------------------
        BYTE   W96
// 007   ----------------------------------------
        BYTE   W96
// 008   ----------------------------------------
        BYTE   W96
// 009   ----------------------------------------
        BYTE   W96
// 010   ----------------------------------------
        BYTE   W96
// 011   ----------------------------------------
        BYTE   W96
// 012   ----------------------------------------
        BYTE   W96
// 013   ----------------------------------------
        BYTE   W96
// 014   ----------------------------------------
BATTLE_WIRELESS_0000_7_14:
        BYTE           N32     An3   v074   gtp3
        BYTE                   Cn4   v090
        BYTE   W36
        BYTE           N28     An3   v083   gtp1
        BYTE           TIE     Dn4   v102
        BYTE   W36
        BYTE                   An3
        BYTE   W24
        BYTE   PEND
// 015   ----------------------------------------
BATTLE_WIRELESS_0000_7_15:
        BYTE   W92
        BYTE   W03
        BYTE           EOT     Dn4
        BYTE                   An3
        BYTE   W01
        BYTE   PEND
// 016   ----------------------------------------
        BYTE   W96
// 017   ----------------------------------------
        BYTE   W96
// 018   ----------------------------------------
        BYTE   W96
// 019   ----------------------------------------
        BYTE   W96
// 020   ----------------------------------------
        BYTE   W96
// 021   ----------------------------------------
        BYTE   W96
// 022   ----------------------------------------
BATTLE_WIRELESS_0000_7_22:
        BYTE           N32     An3   v074   gtp3
        BYTE                   Cn4   v081
        BYTE   W36
        BYTE                   As3   v074
        BYTE           N32     Dn4   v091   gtp3
        BYTE   W36
        BYTE                   An4   v089
        BYTE           N32     Fn4   v081   gtp3
        BYTE   W24
        BYTE   PEND
// 023   ----------------------------------------
BATTLE_WIRELESS_0000_7_23:
        BYTE   W12
        BYTE           N32     Gn4   v088   gtp3
        BYTE                   En4   v081
        BYTE   W36
        BYTE           N23     Fn4   v087
        BYTE           N23     Dn4   v083
        BYTE   W24
        BYTE                   En4
        BYTE           N23     Cn4   v079
        BYTE   W24
        BYTE   PEND
// 024   ----------------------------------------
        BYTE   W96
// 025   ----------------------------------------
        BYTE   W96
// 026   ----------------------------------------
        BYTE   W96
// 027   ----------------------------------------
        BYTE   W96
// 028   ----------------------------------------
        BYTE   W96
// 029   ----------------------------------------
        BYTE   W96
// 030   ----------------------------------------
BATTLE_WIRELESS_0000_7_30:
        BYTE           N92     Gn4   v088   gtp3
        BYTE   W36
        BYTE           N80     Fn4   v086   gtp3
        BYTE   W36
        BYTE           N92     Cn4   v083   gtp3
        BYTE   W24
        BYTE   PEND
// 031   ----------------------------------------
BATTLE_WIRELESS_0000_7_31:
        BYTE           N92     An3   v086   gtp3
        BYTE   W36
        BYTE           N56     Gn3   v076   gtp3
        BYTE   W36
        BYTE           N23     Fn3   v077
        BYTE   W24
        BYTE   PEND
// 032   ----------------------------------------
        BYTE   W96
// 033   ----------------------------------------
        BYTE   W96
// 034   ----------------------------------------
        BYTE   W96
// 035   ----------------------------------------
        BYTE   W96
// 036   ----------------------------------------
        BYTE   W96
// 037   ----------------------------------------
        BYTE   W96
// 038   ----------------------------------------
        BYTE   W96
// 039   ----------------------------------------
        BYTE   W96
// 040   ----------------------------------------
        BYTE   W96
// 041   ----------------------------------------
        BYTE   W96
// 042   ----------------------------------------
        BYTE   W96
// 043   ----------------------------------------
        BYTE   W96
// 044   ----------------------------------------
        BYTE   W96
// 045   ----------------------------------------
        BYTE   W96
// 046   ----------------------------------------
        BYTE   W96
// 047   ----------------------------------------
        BYTE   W96
// 048   ----------------------------------------
        BYTE   W96
// 049   ----------------------------------------
BATTLE_WIRELESS_0000_7_49:
        BYTE           N32     Fn4   v078
        BYTE           N32     An4   v078   gtp1
        BYTE   W36
        BYTE           N32     Gn4   v077   gtp3
        BYTE                   As4
        BYTE   W36
        BYTE           N44     Dn4   v078   gtp3
        BYTE                   Gn4
        BYTE   W24
        BYTE   PEND
// 050   ----------------------------------------
        BYTE   W96
// 051   ----------------------------------------
        BYTE   W96
// 052   ----------------------------------------
        BYTE   W96
// 053   ----------------------------------------
        BYTE   W96
// 054   ----------------------------------------
        BYTE   W96
// 055   ----------------------------------------
        BYTE   W96
// 056   ----------------------------------------
        BYTE   W96
// 057   ----------------------------------------
        BYTE   W96
// 058   ----------------------------------------
        BYTE   W96
// 059   ----------------------------------------
        BYTE   W96
// 060   ----------------------------------------
        BYTE   W96
// 061   ----------------------------------------
BATTLE_WIRELESS_0000_7_LOOP:
        BYTE   W96
// 062   ----------------------------------------
        BYTE   W96
// 063   ----------------------------------------
        BYTE   W96
// 064   ----------------------------------------
        BYTE   W96
// 065   ----------------------------------------
        BYTE   W96
// 066   ----------------------------------------
        BYTE   W96
// 067   ----------------------------------------
        BYTE   W96
// 068   ----------------------------------------
        BYTE   PATT
         POIN2  BATTLE_WIRELESS_0000_7_14
// 069   ----------------------------------------
        BYTE   PATT
         POIN2  BATTLE_WIRELESS_0000_7_15
// 070   ----------------------------------------
        BYTE   W96
// 071   ----------------------------------------
        BYTE   W96
// 072   ----------------------------------------
        BYTE   W96
// 073   ----------------------------------------
        BYTE   W96
// 074   ----------------------------------------
        BYTE   W96
// 075   ----------------------------------------
        BYTE   W96
// 076   ----------------------------------------
        BYTE   PATT
         POIN2  BATTLE_WIRELESS_0000_7_22
// 077   ----------------------------------------
        BYTE   PATT
         POIN2  BATTLE_WIRELESS_0000_7_23
// 078   ----------------------------------------
        BYTE   W96
// 079   ----------------------------------------
        BYTE   W96
// 080   ----------------------------------------
        BYTE   W96
// 081   ----------------------------------------
        BYTE   W96
// 082   ----------------------------------------
        BYTE   W96
// 083   ----------------------------------------
        BYTE   W96
// 084   ----------------------------------------
        BYTE   PATT
         POIN2  BATTLE_WIRELESS_0000_7_30
// 085   ----------------------------------------
        BYTE   PATT
         POIN2  BATTLE_WIRELESS_0000_7_31
// 086   ----------------------------------------
        BYTE   W96
// 087   ----------------------------------------
        BYTE   W96
// 088   ----------------------------------------
        BYTE   W96
// 089   ----------------------------------------
        BYTE   W96
// 090   ----------------------------------------
        BYTE   W96
// 091   ----------------------------------------
        BYTE   W96
// 092   ----------------------------------------
        BYTE   W96
// 093   ----------------------------------------
        BYTE   W96
// 094   ----------------------------------------
        BYTE   W96
// 095   ----------------------------------------
        BYTE   W96
// 096   ----------------------------------------
        BYTE   W96
// 097   ----------------------------------------
        BYTE   W96
// 098   ----------------------------------------
        BYTE   W96
// 099   ----------------------------------------
        BYTE   W96
// 100   ----------------------------------------
        BYTE   W96
// 101   ----------------------------------------
        BYTE   W96
// 102   ----------------------------------------
        BYTE   W96
// 103   ----------------------------------------
        BYTE   PATT
         POIN2  BATTLE_WIRELESS_0000_7_49
// 104   ----------------------------------------
        BYTE   W96
// 105   ----------------------------------------
        BYTE   W96
// 106   ----------------------------------------
        BYTE   W96
// 107   ----------------------------------------
        BYTE   W96
// 108   ----------------------------------------
        BYTE   W96
// 109   ----------------------------------------
        BYTE   W96
// 110   ----------------------------------------
        BYTE   W96
// 111   ----------------------------------------
        BYTE   W96
// 112   ----------------------------------------
        BYTE   W96
// 113   ----------------------------------------
        BYTE   W96
// 114   ----------------------------------------
        BYTE   W96
// 115   ----------------------------------------
        BYTE   W96
// 116   ----------------------------------------
        BYTE   W96
// 117   ----------------------------------------
        BYTE   W96
// 118   ----------------------------------------
        BYTE   W96
// 119   ----------------------------------------
        BYTE   W96
// 120   ----------------------------------------
        BYTE   W96
// 121   ----------------------------------------
        BYTE   W96
// 122   ----------------------------------------
        BYTE   W96
// 123   ----------------------------------------
        BYTE   W96
// 124   ----------------------------------------
        BYTE   W96
// 125   ----------------------------------------
        BYTE   W96
// 126   ----------------------------------------
        BYTE   W96
// 127   ----------------------------------------
        BYTE   W96
// 128   ----------------------------------------
        BYTE   W96
// 129   ----------------------------------------
        BYTE   W96
// 130   ----------------------------------------
        BYTE   W96
// 131   ----------------------------------------
        BYTE   W96
// 132   ----------------------------------------
        BYTE   W96
// 133   ----------------------------------------
        BYTE   W96
// 134   ----------------------------------------
        BYTE   W96
// 135   ----------------------------------------
        BYTE   W96
// 136   ----------------------------------------
        BYTE   W96
// 137   ----------------------------------------
        BYTE   W96
// 138   ----------------------------------------
        BYTE   PATT
         POIN2  BATTLE_WIRELESS_0000_7_30
// 139   ----------------------------------------
        BYTE   PATT
         POIN2  BATTLE_WIRELESS_0000_7_31
// 140   ----------------------------------------
        BYTE   W96
// 141   ----------------------------------------
        BYTE   W96
// 142   ----------------------------------------
        BYTE   W96
// 143   ----------------------------------------
        BYTE   W96
// 144   ----------------------------------------
        BYTE   W96
// 145   ----------------------------------------
        BYTE   W96
// 146   ----------------------------------------
        BYTE   W96
// 147   ----------------------------------------
        BYTE   W96
// 148   ----------------------------------------
        BYTE   W96
// 149   ----------------------------------------
        BYTE   W96
// 150   ----------------------------------------
        BYTE   W96
// 151   ----------------------------------------
        BYTE   W96
// 152   ----------------------------------------
        BYTE   W96
// 153   ----------------------------------------
        BYTE   W96
// 154   ----------------------------------------
        BYTE   W96
// 155   ----------------------------------------
        BYTE   W96
// 156   ----------------------------------------
        BYTE   W96
// 157   ----------------------------------------
        BYTE   PATT
         POIN2  BATTLE_WIRELESS_0000_7_49
// 158   ----------------------------------------
        BYTE   W96
// 159   ----------------------------------------
        BYTE   W96
// 160   ----------------------------------------
        BYTE   W96
// 161   ----------------------------------------
        BYTE   W96
// 162   ----------------------------------------
        BYTE   W96
// 163   ----------------------------------------
        BYTE   W96
// 164   ----------------------------------------
        BYTE   W96
// 165   ----------------------------------------
        BYTE   W96
// 166   ----------------------------------------
        BYTE   W96
// 167   ----------------------------------------
        BYTE   W96
// 168   ----------------------------------------
        BYTE   W96
// 169   ----------------------------------------
        BYTE   GoTo
         POIN2  BATTLE_WIRELESS_0000_7_LOOP
        BYTE   W92
        BYTE   W03
        BYTE   FINE

//****************** Track 8 (Midi-Chn.8) ******************//

BATTLE_WIRELESS_0000_8:
        BYTE   KEYSH   BATTLE_WIRELESS_0000_key+0
// 000   ----------------------------------------
        BYTE           VOICE   122
        BYTE           VOL     29
        BYTE   W96
// 001   ----------------------------------------
        BYTE   W96
// 002   ----------------------------------------
        BYTE   W96
// 003   ----------------------------------------
        BYTE   W96
// 004   ----------------------------------------
        BYTE           N23     Dn1   v127
        BYTE           N96     Gn2
        BYTE   W12
        BYTE           N11     Cn1
        BYTE   W12
        BYTE           N23
        BYTE   W12
        BYTE                   Dn1
        BYTE   W12
        BYTE           N11     Cs2   v125
        BYTE           N11     Cn1   v127
        BYTE   W12
        BYTE           N23     Cs2   v126
        BYTE           N23     Cn1   v127
        BYTE   W12
        BYTE                   Dn1
        BYTE   W12
        BYTE           N11     Cs2   v121
        BYTE           N11     Cn1   v127
        BYTE   W12
// 005   ----------------------------------------
        BYTE           N23     Cs2   v125
        BYTE           N23     Cn1   v127
        BYTE   W12
        BYTE                   Dn1
        BYTE   W12
        BYTE           N11     Cs2   v126
        BYTE           N11     Cn1   v127
        BYTE   W12
        BYTE           N23     Cs2   v120
        BYTE           N23     Cn1   v127
        BYTE   W12
        BYTE                   Dn1
        BYTE   W12
        BYTE                   Cs2   v126
        BYTE           N23     Cn1   v127
        BYTE   W12
        BYTE                   Dn1
        BYTE   W12
        BYTE                   Cs2   v125
        BYTE           N23     Cn1   v127
        BYTE   W12
// 006   ----------------------------------------
        BYTE                   Dn1
        BYTE   W12
        BYTE           N11     Cs2
        BYTE           N11     Cn1
        BYTE   W12
        BYTE           N23     Cs2   v120
        BYTE           N23     Cn1   v127
        BYTE   W12
        BYTE                   Dn1
        BYTE   W12
        BYTE           N11     Cs2   v125
        BYTE           N11     Cn1   v127
        BYTE   W12
        BYTE           N23     Cs2   v126
        BYTE           N23     Cn1   v127
        BYTE   W12
        BYTE                   Dn1
        BYTE   W12
        BYTE           N12     Cs2   v121
        BYTE           N11     Cn1   v127
        BYTE   W12
// 007   ----------------------------------------
        BYTE           N23     Cs2   v121
        BYTE           N11     Cn1   v127
        BYTE   W12
        BYTE           N23
        BYTE   W06
        BYTE           N05     En1
        BYTE   W06
        BYTE           N23
        BYTE   W12
        BYTE                   Cn2
        BYTE   W12
        BYTE           N11     Bn1
        BYTE   W12
        BYTE                   Bn1
        BYTE   W12
        BYTE           N23
        BYTE   W12
        BYTE           N11     Cn1
        BYTE   W12
// 008   ----------------------------------------
BATTLE_WIRELESS_0000_8_8:
        BYTE           N92     An2   v127   gtp3
        BYTE           N11     Cn1
        BYTE   W12
        BYTE           N23
        BYTE   W12
        BYTE                   Ds2
        BYTE           N23     Dn1
        BYTE   W24
        BYTE                   Ds2
        BYTE           N11     Cn1
        BYTE   W12
        BYTE           N23
        BYTE   W12
        BYTE                   Ds2
        BYTE           N23     Dn1
        BYTE   W24
        BYTE   PEND
// 009   ----------------------------------------
BATTLE_WIRELESS_0000_8_9:
        BYTE           N23     Ds2   v127
        BYTE           N11     Cn1
        BYTE   W12
        BYTE           N23
        BYTE   W12
        BYTE                   Ds2
        BYTE           N23     Dn1
        BYTE   W24
        BYTE                   Ds2
        BYTE           N11     Cn1
        BYTE   W12
        BYTE           N23
        BYTE   W12
        BYTE                   Ds2
        BYTE           N23     Dn1
        BYTE   W24
        BYTE   PEND
// 010   ----------------------------------------
        BYTE   PATT
         POIN2  BATTLE_WIRELESS_0000_8_9
// 011   ----------------------------------------
        BYTE   PATT
         POIN2  BATTLE_WIRELESS_0000_8_9
// 012   ----------------------------------------
        BYTE   PATT
         POIN2  BATTLE_WIRELESS_0000_8_8
// 013   ----------------------------------------
        BYTE   PATT
         POIN2  BATTLE_WIRELESS_0000_8_9
// 014   ----------------------------------------
        BYTE   PATT
         POIN2  BATTLE_WIRELESS_0000_8_9
// 015   ----------------------------------------
BATTLE_WIRELESS_0000_8_15:
        BYTE           N23     Ds2   v127
        BYTE           N11     Cn1
        BYTE   W12
        BYTE           N05
        BYTE   W06
        BYTE           N23
        BYTE   W06
        BYTE           N68     An2   v127   gtp3
        BYTE           N23     Dn1
        BYTE   W24
        BYTE                   Ds2
        BYTE           N11     Cn1
        BYTE   W12
        BYTE           N05
        BYTE   W06
        BYTE           N23
        BYTE   W06
        BYTE           N92     Gn2   v127   gtp3
        BYTE           N23     Dn1
        BYTE   W24
        BYTE   PEND
// 016   ----------------------------------------
        BYTE   PATT
         POIN2  BATTLE_WIRELESS_0000_8_8
// 017   ----------------------------------------
        BYTE   PATT
         POIN2  BATTLE_WIRELESS_0000_8_9
// 018   ----------------------------------------
        BYTE   PATT
         POIN2  BATTLE_WIRELESS_0000_8_9
// 019   ----------------------------------------
        BYTE   PATT
         POIN2  BATTLE_WIRELESS_0000_8_9
// 020   ----------------------------------------
        BYTE   PATT
         POIN2  BATTLE_WIRELESS_0000_8_8
// 021   ----------------------------------------
        BYTE   PATT
         POIN2  BATTLE_WIRELESS_0000_8_9
// 022   ----------------------------------------
        BYTE   PATT
         POIN2  BATTLE_WIRELESS_0000_8_9
// 023   ----------------------------------------
BATTLE_WIRELESS_0000_8_23:
        BYTE           N92     Gn2   v127   gtp3
        BYTE           N23     Dn1
        BYTE   W12
        BYTE           N11     Cn1
        BYTE   W12
        BYTE           N23     Ds2
        BYTE           N23     Cn1
        BYTE   W12
        BYTE                   Dn1
        BYTE   W06
        BYTE                   En1
        BYTE   W06
        BYTE                   Ds2
        BYTE   W12
        BYTE                   Dn1
        BYTE   W06
        BYTE                   En1
        BYTE   W06
        BYTE                   An1
        BYTE   W12
        BYTE                   Dn3
        BYTE   W12
        BYTE   PEND
// 024   ----------------------------------------
BATTLE_WIRELESS_0000_8_24:
        BYTE           N92     An2   v127   gtp3
        BYTE           N23     Cn1
        BYTE   W23
        BYTE           N24     Ds2
        BYTE   W12
        BYTE                   Cn1
        BYTE   W13
        BYTE           N23     Ds2
        BYTE           N23     En1
        BYTE   W23
        BYTE           N24     Ds2
        BYTE   W12
        BYTE                   Cn1
        BYTE   W12
        BYTE                   Ds2
        BYTE   W01
        BYTE   PEND
// 025   ----------------------------------------
BATTLE_WIRELESS_0000_8_25:
        BYTE   W23
        BYTE           N24     Ds2   v127
        BYTE   W12
        BYTE                   Cn1
        BYTE   W12
        BYTE                   Ds2
        BYTE   W01
        BYTE           N23     En1
        BYTE   W23
        BYTE           N24     Ds2
        BYTE   W24
        BYTE   W01
        BYTE   PEND
// 026   ----------------------------------------
BATTLE_WIRELESS_0000_8_26:
        BYTE           N23     Ds2   v127
        BYTE           N23     Cn1
        BYTE   W23
        BYTE           N24     Ds2
        BYTE   W12
        BYTE                   Cn1
        BYTE   W13
        BYTE           N23     Ds2
        BYTE           N23     En1
        BYTE   W23
        BYTE           N24     Ds2
        BYTE   W12
        BYTE                   Cn1
        BYTE   W12
        BYTE                   Ds2
        BYTE   W01
        BYTE   PEND
// 027   ----------------------------------------
BATTLE_WIRELESS_0000_8_27:
        BYTE   W23
        BYTE           N24     Ds2   v127
        BYTE   W12
        BYTE                   Cn1
        BYTE   W12
        BYTE                   Ds2
        BYTE   W01
        BYTE           N23     En1
        BYTE   W23
        BYTE           N24     Ds2
        BYTE   W24
        BYTE                   Ds2
        BYTE           N24     Cn1
        BYTE   W01
        BYTE   PEND
// 028   ----------------------------------------
BATTLE_WIRELESS_0000_8_28:
        BYTE   W23
        BYTE           N23     Ds2   v127
        BYTE   W12
        BYTE                   Cn1
        BYTE   W12
        BYTE                   Ds2
        BYTE   W01
        BYTE                   En1
        BYTE   W23
        BYTE                   Ds2
        BYTE   W24
        BYTE                   Ds2
        BYTE           N23     Cn1
        BYTE   W01
        BYTE   PEND
// 029   ----------------------------------------
BATTLE_WIRELESS_0000_8_29:
        BYTE   W11
        BYTE           N24     En1   v127
        BYTE   W12
        BYTE           N23     Ds2
        BYTE   W12
        BYTE                   Cn1
        BYTE   W12
        BYTE                   Ds2
        BYTE           N23     En1
        BYTE   W24
        BYTE                   Ds2
        BYTE   W12
        BYTE           N12     Cn1
        BYTE   W13
        BYTE   PEND
// 030   ----------------------------------------
BATTLE_WIRELESS_0000_8_30:
        BYTE           N23     Ds2   v127
        BYTE           N23     Cn1
        BYTE   W23
        BYTE           N24     Ds2
        BYTE   W12
        BYTE                   Cn1
        BYTE   W12
        BYTE                   Ds2
        BYTE           N24     En1
        BYTE   W24
        BYTE                   Ds2
        BYTE           N12     Cn1
        BYTE   W12
        BYTE           N24
        BYTE   W12
        BYTE                   Ds2
        BYTE   W01
        BYTE   PEND
// 031   ----------------------------------------
BATTLE_WIRELESS_0000_8_31:
        BYTE   W12
        BYTE           N23     Dn1   v127
        BYTE   W11
        BYTE           N72     An2
        BYTE           N24     Cn1
        BYTE   W20
        BYTE                   En1   v121
        BYTE   W04
        BYTE                   Dn1   v127
        BYTE   W12
        BYTE                   Bn1
        BYTE   W12
        BYTE           N07     An1
        BYTE   W07
        BYTE           N23
        BYTE   W05
        BYTE           N24     Dn3
        BYTE           N12     Cn1
        BYTE   W13
        BYTE   PEND
// 032   ----------------------------------------
BATTLE_WIRELESS_0000_8_32:
        BYTE           N92     An2   v127   gtp3
        BYTE           N23     Cn1
        BYTE   W24
        BYTE                   Ds2
        BYTE   W12
        BYTE                   Cn1
        BYTE   W12
        BYTE                   Ds2
        BYTE           N23     En1
        BYTE   W24
        BYTE                   Ds2
        BYTE   W12
        BYTE                   Cn1
        BYTE   W12
        BYTE   PEND
// 033   ----------------------------------------
BATTLE_WIRELESS_0000_8_33:
        BYTE           N23     Ds2   v127
        BYTE   W24
        BYTE                   Ds2
        BYTE   W12
        BYTE                   Cn1
        BYTE   W12
        BYTE                   Ds2
        BYTE           N23     En1
        BYTE   W24
        BYTE                   Ds2
        BYTE   W24
        BYTE   PEND
// 034   ----------------------------------------
BATTLE_WIRELESS_0000_8_34:
        BYTE           N23     Ds2   v127
        BYTE           N23     Cn1
        BYTE   W24
        BYTE                   Ds2
        BYTE   W12
        BYTE                   Cn1
        BYTE   W12
        BYTE                   Ds2
        BYTE           N23     En1
        BYTE   W24
        BYTE                   Ds2
        BYTE   W12
        BYTE                   Cn1
        BYTE   W12
        BYTE   PEND
// 035   ----------------------------------------
        BYTE   PATT
         POIN2  BATTLE_WIRELESS_0000_8_33
// 036   ----------------------------------------
BATTLE_WIRELESS_0000_8_36:
        BYTE           N92     An2   v127   gtp3
        BYTE           N23     Cn1
        BYTE   W24
        BYTE                   Ds2
        BYTE   W12
        BYTE                   Cn1
        BYTE   W12
        BYTE                   Ds2
        BYTE           N23     En1
        BYTE   W24
        BYTE                   Ds2
        BYTE   W24
        BYTE   PEND
// 037   ----------------------------------------
BATTLE_WIRELESS_0000_8_37:
        BYTE           N23     Ds2   v127
        BYTE           N23     Cn1
        BYTE   W12
        BYTE                   En1
        BYTE   W12
        BYTE                   Ds2
        BYTE   W12
        BYTE                   Cn1
        BYTE   W12
        BYTE                   Ds2
        BYTE           N23     En1
        BYTE   W24
        BYTE                   Ds2
        BYTE   W12
        BYTE           N11     Cn1
        BYTE   W12
        BYTE   PEND
// 038   ----------------------------------------
BATTLE_WIRELESS_0000_8_38:
        BYTE           N92     An2   v127   gtp3
        BYTE           N23     Cn1
        BYTE   W24
        BYTE                   Ds2
        BYTE   W12
        BYTE                   Cn1
        BYTE   W12
        BYTE                   Ds2
        BYTE           N23     En1
        BYTE   W12
        BYTE                   Cn1
        BYTE   W12
        BYTE                   Ds2
        BYTE   W12
        BYTE                   Dn1
        BYTE   W12
        BYTE   PEND
// 039   ----------------------------------------
BATTLE_WIRELESS_0000_8_39:
        BYTE           N11     Bn1   v127
        BYTE   W12
        BYTE                   Bn1
        BYTE   W12
        BYTE           N23
        BYTE   W12
        BYTE           N11     An1
        BYTE   W12
        BYTE                   An1
        BYTE   W12
        BYTE           N23
        BYTE   W12
        BYTE           N11     Dn3
        BYTE   W12
        BYTE           N23
        BYTE           N09     En1
        BYTE   W09
        BYTE           N02
        BYTE   W03
        BYTE   PEND
// 040   ----------------------------------------
BATTLE_WIRELESS_0000_8_40:
        BYTE           N23     En1   v127
        BYTE   W12
        BYTE           N11     Cn1
        BYTE   W11
        BYTE           N24
        BYTE   W11
        BYTE           N01     En1
        BYTE   W02
        BYTE           N23
        BYTE   W12
        BYTE           N11     Cn1
        BYTE   W11
        BYTE           N24
        BYTE   W10
        BYTE           N02     En1
        BYTE   W03
        BYTE           N22
        BYTE   W11
        BYTE           N24     Cn1
        BYTE   W11
        BYTE           N01     En1
        BYTE   W02
        BYTE   PEND
// 041   ----------------------------------------
        BYTE           N23
        BYTE   W96
// 042   ----------------------------------------
        BYTE   PATT
         POIN2  BATTLE_WIRELESS_0000_8_8
// 043   ----------------------------------------
        BYTE   PATT
         POIN2  BATTLE_WIRELESS_0000_8_9
// 044   ----------------------------------------
        BYTE   PATT
         POIN2  BATTLE_WIRELESS_0000_8_9
// 045   ----------------------------------------
BATTLE_WIRELESS_0000_8_45:
        BYTE           N23     Ds2   v127
        BYTE           N11     Cn1
        BYTE   W12
        BYTE           N23
        BYTE   W12
        BYTE           N44     An2   v127   gtp3
        BYTE           N23     Dn1
        BYTE   W24
        BYTE                   Ds2
        BYTE           N11     Cn1
        BYTE   W12
        BYTE           N23
        BYTE   W12
        BYTE                   An2
        BYTE           N23     Dn1
        BYTE   W24
        BYTE   PEND
// 046   ----------------------------------------
        BYTE   PATT
         POIN2  BATTLE_WIRELESS_0000_8_8
// 047   ----------------------------------------
        BYTE   PATT
         POIN2  BATTLE_WIRELESS_0000_8_9
// 048   ----------------------------------------
        BYTE   PATT
         POIN2  BATTLE_WIRELESS_0000_8_9
// 049   ----------------------------------------
BATTLE_WIRELESS_0000_8_49:
        BYTE           N23     Ds2   v127
        BYTE           N11     Cn1
        BYTE   W12
        BYTE           N05
        BYTE   W12
        BYTE           N68     An2   v127   gtp3
        BYTE           N23     Dn1
        BYTE   W24
        BYTE                   Ds2
        BYTE           N11     Cn1
        BYTE   W12
        BYTE           N05
        BYTE   W12
        BYTE           N92     Gn2   v127   gtp3
        BYTE           N23     Dn1
        BYTE   W24
        BYTE   PEND
// 050   ----------------------------------------
        BYTE   PATT
         POIN2  BATTLE_WIRELESS_0000_8_8
// 051   ----------------------------------------
        BYTE   PATT
         POIN2  BATTLE_WIRELESS_0000_8_9
// 052   ----------------------------------------
        BYTE   PATT
         POIN2  BATTLE_WIRELESS_0000_8_9
// 053   ----------------------------------------
        BYTE   PATT
         POIN2  BATTLE_WIRELESS_0000_8_23
// 054   ----------------------------------------
        BYTE   PATT
         POIN2  BATTLE_WIRELESS_0000_8_32
// 055   ----------------------------------------
        BYTE   PATT
         POIN2  BATTLE_WIRELESS_0000_8_33
// 056   ----------------------------------------
BATTLE_WIRELESS_0000_8_56:
        BYTE           N23     Ds2   v127
        BYTE           N23     Cn1
        BYTE   W24
        BYTE                   Ds2
        BYTE   W12
        BYTE                   Cn1
        BYTE   W12
        BYTE                   Ds2
        BYTE           N23     En1
        BYTE   W24
        BYTE                   Ds2
        BYTE           N11     Cn1
        BYTE   W12
        BYTE           N23
        BYTE   W12
        BYTE   PEND
// 057   ----------------------------------------
BATTLE_WIRELESS_0000_8_57:
        BYTE           N23     Ds2   v127
        BYTE   W12
        BYTE                   Dn1
        BYTE   W12
        BYTE           N68     An2   v127   gtp3
        BYTE           N23     Cn1
        BYTE   W18
        BYTE                   En1   v121
        BYTE   W06
        BYTE                   Dn1   v127
        BYTE   W12
        BYTE                   Bn1
        BYTE   W12
        BYTE           N05     An1
        BYTE   W06
        BYTE           N23
        BYTE   W06
        BYTE                   Dn3
        BYTE           N11     Cn1
        BYTE   W12
        BYTE   PEND
// 058   ----------------------------------------
BATTLE_WIRELESS_0000_8_58:
        BYTE           N92     An2   v127   gtp3
        BYTE           N23     Cn1
        BYTE   W96
        BYTE   PEND
// 059   ----------------------------------------
        BYTE   W96
// 060   ----------------------------------------
        BYTE   W96
// 061   ----------------------------------------
BATTLE_WIRELESS_0000_8_LOOP:
        BYTE           N92     Gn2   v127   gtp3
        BYTE           N23     Dn1
        BYTE   W12
        BYTE           N11     Cn1
        BYTE   W12
        BYTE           N23     Ds2
        BYTE           N23     Cn1
        BYTE   W12
        BYTE                   Dn1
        BYTE   W06
        BYTE                   En1
        BYTE   W06
        BYTE                   Ds2
        BYTE   W12
        BYTE                   Dn1
        BYTE   W06
        BYTE                   En1
        BYTE   W06
        BYTE                   An1
        BYTE   W12
        BYTE                   Dn3
        BYTE   W12
// 062   ----------------------------------------
        BYTE   PATT
         POIN2  BATTLE_WIRELESS_0000_8_8
// 063   ----------------------------------------
        BYTE   PATT
         POIN2  BATTLE_WIRELESS_0000_8_9
// 064   ----------------------------------------
        BYTE   PATT
         POIN2  BATTLE_WIRELESS_0000_8_9
// 065   ----------------------------------------
        BYTE   PATT
         POIN2  BATTLE_WIRELESS_0000_8_9
// 066   ----------------------------------------
        BYTE   PATT
         POIN2  BATTLE_WIRELESS_0000_8_8
// 067   ----------------------------------------
        BYTE   PATT
         POIN2  BATTLE_WIRELESS_0000_8_9
// 068   ----------------------------------------
        BYTE   PATT
         POIN2  BATTLE_WIRELESS_0000_8_9
// 069   ----------------------------------------
        BYTE   PATT
         POIN2  BATTLE_WIRELESS_0000_8_15
// 070   ----------------------------------------
        BYTE   PATT
         POIN2  BATTLE_WIRELESS_0000_8_8
// 071   ----------------------------------------
        BYTE   PATT
         POIN2  BATTLE_WIRELESS_0000_8_9
// 072   ----------------------------------------
        BYTE   PATT
         POIN2  BATTLE_WIRELESS_0000_8_9
// 073   ----------------------------------------
        BYTE   PATT
         POIN2  BATTLE_WIRELESS_0000_8_9
// 074   ----------------------------------------
        BYTE   PATT
         POIN2  BATTLE_WIRELESS_0000_8_8
// 075   ----------------------------------------
        BYTE   PATT
         POIN2  BATTLE_WIRELESS_0000_8_9
// 076   ----------------------------------------
        BYTE   PATT
         POIN2  BATTLE_WIRELESS_0000_8_9
// 077   ----------------------------------------
        BYTE   PATT
         POIN2  BATTLE_WIRELESS_0000_8_23
// 078   ----------------------------------------
        BYTE   PATT
         POIN2  BATTLE_WIRELESS_0000_8_24
// 079   ----------------------------------------
        BYTE   PATT
         POIN2  BATTLE_WIRELESS_0000_8_25
// 080   ----------------------------------------
        BYTE   PATT
         POIN2  BATTLE_WIRELESS_0000_8_26
// 081   ----------------------------------------
        BYTE   PATT
         POIN2  BATTLE_WIRELESS_0000_8_27
// 082   ----------------------------------------
        BYTE   PATT
         POIN2  BATTLE_WIRELESS_0000_8_28
// 083   ----------------------------------------
        BYTE   PATT
         POIN2  BATTLE_WIRELESS_0000_8_29
// 084   ----------------------------------------
        BYTE   PATT
         POIN2  BATTLE_WIRELESS_0000_8_30
// 085   ----------------------------------------
        BYTE   PATT
         POIN2  BATTLE_WIRELESS_0000_8_31
// 086   ----------------------------------------
        BYTE   PATT
         POIN2  BATTLE_WIRELESS_0000_8_32
// 087   ----------------------------------------
        BYTE   PATT
         POIN2  BATTLE_WIRELESS_0000_8_33
// 088   ----------------------------------------
        BYTE   PATT
         POIN2  BATTLE_WIRELESS_0000_8_34
// 089   ----------------------------------------
        BYTE   PATT
         POIN2  BATTLE_WIRELESS_0000_8_33
// 090   ----------------------------------------
        BYTE   PATT
         POIN2  BATTLE_WIRELESS_0000_8_36
// 091   ----------------------------------------
        BYTE   PATT
         POIN2  BATTLE_WIRELESS_0000_8_37
// 092   ----------------------------------------
        BYTE   PATT
         POIN2  BATTLE_WIRELESS_0000_8_38
// 093   ----------------------------------------
        BYTE   PATT
         POIN2  BATTLE_WIRELESS_0000_8_39
// 094   ----------------------------------------
        BYTE   PATT
         POIN2  BATTLE_WIRELESS_0000_8_40
// 095   ----------------------------------------
        BYTE           N23     En1   v127
        BYTE   W96
// 096   ----------------------------------------
        BYTE   PATT
         POIN2  BATTLE_WIRELESS_0000_8_8
// 097   ----------------------------------------
        BYTE   PATT
         POIN2  BATTLE_WIRELESS_0000_8_9
// 098   ----------------------------------------
        BYTE   PATT
         POIN2  BATTLE_WIRELESS_0000_8_9
// 099   ----------------------------------------
        BYTE   PATT
         POIN2  BATTLE_WIRELESS_0000_8_45
// 100   ----------------------------------------
        BYTE   PATT
         POIN2  BATTLE_WIRELESS_0000_8_8
// 101   ----------------------------------------
        BYTE   PATT
         POIN2  BATTLE_WIRELESS_0000_8_9
// 102   ----------------------------------------
        BYTE   PATT
         POIN2  BATTLE_WIRELESS_0000_8_9
// 103   ----------------------------------------
        BYTE   PATT
         POIN2  BATTLE_WIRELESS_0000_8_49
// 104   ----------------------------------------
        BYTE   PATT
         POIN2  BATTLE_WIRELESS_0000_8_8
// 105   ----------------------------------------
        BYTE   PATT
         POIN2  BATTLE_WIRELESS_0000_8_9
// 106   ----------------------------------------
        BYTE   PATT
         POIN2  BATTLE_WIRELESS_0000_8_9
// 107   ----------------------------------------
        BYTE   PATT
         POIN2  BATTLE_WIRELESS_0000_8_23
// 108   ----------------------------------------
        BYTE   PATT
         POIN2  BATTLE_WIRELESS_0000_8_32
// 109   ----------------------------------------
        BYTE   PATT
         POIN2  BATTLE_WIRELESS_0000_8_33
// 110   ----------------------------------------
        BYTE   PATT
         POIN2  BATTLE_WIRELESS_0000_8_56
// 111   ----------------------------------------
        BYTE   PATT
         POIN2  BATTLE_WIRELESS_0000_8_57
// 112   ----------------------------------------
        BYTE   PATT
         POIN2  BATTLE_WIRELESS_0000_8_58
// 113   ----------------------------------------
        BYTE   W96
// 114   ----------------------------------------
        BYTE   W96
// 115   ----------------------------------------
        BYTE   PATT
         POIN2  BATTLE_WIRELESS_0000_8_23
// 116   ----------------------------------------
BATTLE_WIRELESS_0000_8_116:
        BYTE           N92     An2   v127   gtp3
        BYTE           N11     Cn1
        BYTE   W11
        BYTE           N24
        BYTE   W12
        BYTE                   Ds2
        BYTE           N24     Dn1
        BYTE   W24
        BYTE                   Ds2
        BYTE           N12     Cn1
        BYTE   W12
        BYTE           N24
        BYTE   W12
        BYTE                   Ds2
        BYTE           N24     Dn1
        BYTE   W24
        BYTE                   Ds2
        BYTE           N12     Cn1
        BYTE   W01
        BYTE   PEND
// 117   ----------------------------------------
BATTLE_WIRELESS_0000_8_117:
        BYTE   W11
        BYTE           N24     Cn1   v127
        BYTE   W12
        BYTE                   Ds2
        BYTE           N24     Dn1
        BYTE   W24
        BYTE                   Ds2
        BYTE           N12     Cn1
        BYTE   W12
        BYTE           N24
        BYTE   W12
        BYTE                   Ds2
        BYTE           N24     Dn1
        BYTE   W24
        BYTE                   Ds2
        BYTE           N12     Cn1
        BYTE   W01
        BYTE   PEND
// 118   ----------------------------------------
        BYTE   PATT
         POIN2  BATTLE_WIRELESS_0000_8_117
// 119   ----------------------------------------
BATTLE_WIRELESS_0000_8_119:
        BYTE   W11
        BYTE           N06     Cn1   v127
        BYTE   W07
        BYTE           N23
        BYTE   W05
        BYTE           N72     An2
        BYTE           N24     Dn1
        BYTE   W24
        BYTE                   Ds2
        BYTE           N12     Cn1
        BYTE   W12
        BYTE           N06
        BYTE   W07
        BYTE           N23
        BYTE   W05
        BYTE           N96     Gn2
        BYTE           N24     Dn1
        BYTE   W24
        BYTE           N96     An2
        BYTE           N12     Cn1
        BYTE   W01
        BYTE   PEND
// 120   ----------------------------------------
        BYTE   PATT
         POIN2  BATTLE_WIRELESS_0000_8_117
// 121   ----------------------------------------
BATTLE_WIRELESS_0000_8_121:
        BYTE   W11
        BYTE           N24     Cn1   v127
        BYTE   W12
        BYTE                   Ds2
        BYTE           N24     Dn1
        BYTE   W24
        BYTE                   Ds2
        BYTE           N12     Cn1
        BYTE   W12
        BYTE           N24
        BYTE   W12
        BYTE                   Ds2
        BYTE           N24     Dn1
        BYTE   W24
        BYTE                   Ds2
        BYTE           N24     Cn1
        BYTE   W01
        BYTE   PEND
// 122   ----------------------------------------
BATTLE_WIRELESS_0000_8_122:
        BYTE   W23
        BYTE           N24     Ds2   v127
        BYTE           N24     Dn1
        BYTE   W24
        BYTE                   Ds2
        BYTE           N12     Cn1
        BYTE   W12
        BYTE           N24
        BYTE   W12
        BYTE                   Ds2
        BYTE           N24     Dn1
        BYTE   W24
        BYTE           N96     An2
        BYTE           N12     Cn1
        BYTE   W01
        BYTE   PEND
// 123   ----------------------------------------
BATTLE_WIRELESS_0000_8_123:
        BYTE   W11
        BYTE           N24     Cn1   v127
        BYTE   W12
        BYTE                   Cn3
        BYTE           N12     Dn1
        BYTE   W12
        BYTE                   Dn1
        BYTE           N24     Bn1
        BYTE   W07
        BYTE           N23     En1
        BYTE   W05
        BYTE           N12     An1
        BYTE           N12     Dn1
        BYTE   W12
        BYTE           N24     An1
        BYTE           N12     Dn1
        BYTE   W12
        BYTE                   Dn1
        BYTE           N13     Dn3
        BYTE   W12
        BYTE           N24     Dn1
        BYTE   W01
        BYTE           N23     Dn3
        BYTE   W12
        BYTE   PEND
// 124   ----------------------------------------
        BYTE   PATT
         POIN2  BATTLE_WIRELESS_0000_8_116
// 125   ----------------------------------------
        BYTE   PATT
         POIN2  BATTLE_WIRELESS_0000_8_117
// 126   ----------------------------------------
        BYTE   PATT
         POIN2  BATTLE_WIRELESS_0000_8_117
// 127   ----------------------------------------
        BYTE   PATT
         POIN2  BATTLE_WIRELESS_0000_8_119
// 128   ----------------------------------------
        BYTE   PATT
         POIN2  BATTLE_WIRELESS_0000_8_117
// 129   ----------------------------------------
        BYTE   PATT
         POIN2  BATTLE_WIRELESS_0000_8_121
// 130   ----------------------------------------
        BYTE   PATT
         POIN2  BATTLE_WIRELESS_0000_8_122
// 131   ----------------------------------------
        BYTE   PATT
         POIN2  BATTLE_WIRELESS_0000_8_123
// 132   ----------------------------------------
        BYTE   PATT
         POIN2  BATTLE_WIRELESS_0000_8_24
// 133   ----------------------------------------
        BYTE   PATT
         POIN2  BATTLE_WIRELESS_0000_8_25
// 134   ----------------------------------------
        BYTE   PATT
         POIN2  BATTLE_WIRELESS_0000_8_26
// 135   ----------------------------------------
        BYTE   PATT
         POIN2  BATTLE_WIRELESS_0000_8_27
// 136   ----------------------------------------
        BYTE   PATT
         POIN2  BATTLE_WIRELESS_0000_8_28
// 137   ----------------------------------------
        BYTE   PATT
         POIN2  BATTLE_WIRELESS_0000_8_29
// 138   ----------------------------------------
        BYTE   PATT
         POIN2  BATTLE_WIRELESS_0000_8_30
// 139   ----------------------------------------
        BYTE   PATT
         POIN2  BATTLE_WIRELESS_0000_8_31
// 140   ----------------------------------------
        BYTE   PATT
         POIN2  BATTLE_WIRELESS_0000_8_32
// 141   ----------------------------------------
        BYTE   PATT
         POIN2  BATTLE_WIRELESS_0000_8_33
// 142   ----------------------------------------
        BYTE   PATT
         POIN2  BATTLE_WIRELESS_0000_8_34
// 143   ----------------------------------------
        BYTE   PATT
         POIN2  BATTLE_WIRELESS_0000_8_33
// 144   ----------------------------------------
        BYTE   PATT
         POIN2  BATTLE_WIRELESS_0000_8_36
// 145   ----------------------------------------
        BYTE   PATT
         POIN2  BATTLE_WIRELESS_0000_8_37
// 146   ----------------------------------------
        BYTE   PATT
         POIN2  BATTLE_WIRELESS_0000_8_38
// 147   ----------------------------------------
        BYTE   PATT
         POIN2  BATTLE_WIRELESS_0000_8_39
// 148   ----------------------------------------
        BYTE   PATT
         POIN2  BATTLE_WIRELESS_0000_8_40
// 149   ----------------------------------------
        BYTE           N23     En1   v127
        BYTE   W96
// 150   ----------------------------------------
        BYTE   PATT
         POIN2  BATTLE_WIRELESS_0000_8_8
// 151   ----------------------------------------
        BYTE   PATT
         POIN2  BATTLE_WIRELESS_0000_8_9
// 152   ----------------------------------------
        BYTE   PATT
         POIN2  BATTLE_WIRELESS_0000_8_9
// 153   ----------------------------------------
        BYTE   PATT
         POIN2  BATTLE_WIRELESS_0000_8_45
// 154   ----------------------------------------
        BYTE   PATT
         POIN2  BATTLE_WIRELESS_0000_8_8
// 155   ----------------------------------------
        BYTE   PATT
         POIN2  BATTLE_WIRELESS_0000_8_9
// 156   ----------------------------------------
        BYTE   PATT
         POIN2  BATTLE_WIRELESS_0000_8_9
// 157   ----------------------------------------
        BYTE   PATT
         POIN2  BATTLE_WIRELESS_0000_8_49
// 158   ----------------------------------------
        BYTE   PATT
         POIN2  BATTLE_WIRELESS_0000_8_8
// 159   ----------------------------------------
        BYTE   PATT
         POIN2  BATTLE_WIRELESS_0000_8_9
// 160   ----------------------------------------
        BYTE   PATT
         POIN2  BATTLE_WIRELESS_0000_8_9
// 161   ----------------------------------------
        BYTE   PATT
         POIN2  BATTLE_WIRELESS_0000_8_23
// 162   ----------------------------------------
        BYTE   PATT
         POIN2  BATTLE_WIRELESS_0000_8_32
// 163   ----------------------------------------
        BYTE   PATT
         POIN2  BATTLE_WIRELESS_0000_8_33
// 164   ----------------------------------------
        BYTE   PATT
         POIN2  BATTLE_WIRELESS_0000_8_56
// 165   ----------------------------------------
        BYTE   PATT
         POIN2  BATTLE_WIRELESS_0000_8_57
// 166   ----------------------------------------
        BYTE   PATT
         POIN2  BATTLE_WIRELESS_0000_8_58
// 167   ----------------------------------------
        BYTE   W96
// 168   ----------------------------------------
        BYTE   W96
// 169   ----------------------------------------
        BYTE   GoTo
         POIN2  BATTLE_WIRELESS_0000_8_LOOP
        BYTE   W92
        BYTE   W03
        BYTE   FINE


//********************** End of Song ***********************//

        ALIGN 4
BATTLE_WIRELESS_0000:
        BYTE   9                       // Num Tracks
        BYTE   0                       // Unknown
        BYTE   BATTLE_WIRELESS_0000_pri // Priority
        BYTE   BATTLE_WIRELESS_0000_rev // Reverb

        POIN2   BATTLE_WIRELESS_0000_grp

        POIN2   BATTLE_WIRELESS_0000_0
        POIN2   BATTLE_WIRELESS_0000_1
        POIN2   BATTLE_WIRELESS_0000_2
        POIN2   BATTLE_WIRELESS_0000_3
        POIN2   BATTLE_WIRELESS_0000_4
        POIN2   BATTLE_WIRELESS_0000_5
        POIN2   BATTLE_WIRELESS_0000_6
        POIN2   BATTLE_WIRELESS_0000_7
        POIN2   BATTLE_WIRELESS_0000_8

        
